<svg width="138" height="80" viewBox="0 0 138 80" fill="none" xmlns="http://www.w3.org/2000/svg">
<path d="M136.326 47.8103L120.665 44.3455L120.188 40.1067C124.067 37.7885 126.445 33.6031 126.452 29.0839V20.1314C126.452 15.5338 123.999 11.2861 120.017 8.98661C116.035 6.68828 111.129 6.68828 107.148 8.98661C103.166 11.2859 100.714 15.5338 100.714 20.1314V29.0839C100.719 33.6031 103.097 37.7887 106.976 40.1067L106.498 44.3455L90.8389 47.8103C90.5921 47.8708 90.3632 47.9877 90.1699 48.1513C88.829 47.4942 87.3849 47.074 85.9014 46.9095L76.9319 45.9243L76.1668 42.1949C76.8814 41.6875 77.5425 41.1067 78.1371 40.4625L79.3066 41.3584C80.59 42.2147 82.0856 42.7004 83.6277 42.7588C84.9736 42.7162 86.2897 42.3574 87.4702 41.7122C88.0421 41.4288 88.4038 40.846 88.4029 40.2088V16.0134C88.4138 14.0461 87.72 12.1391 86.4484 10.6376C85.1769 9.13613 83.4107 8.13811 81.4682 7.8239C80.5861 5.66828 79.1391 3.79029 77.2788 2.38875C73.5532 0.148898 69.1004 -0.550833 64.8674 0.438288C60.6176 1.16278 56.7464 3.32636 53.9009 6.56431C51.0555 9.80328 49.4094 13.9211 49.2379 18.2285V40.2068C49.2369 40.8451 49.5986 41.4279 50.1705 41.7113C51.45 42.4596 52.9228 42.8154 54.4035 42.7331C55.8852 42.6499 57.3083 42.1335 58.4978 41.2465L59.4502 40.5141C59.5483 40.6221 59.6216 40.7163 59.7307 40.8332C60.2688 41.3496 60.8476 41.8223 61.4621 42.2455L60.7069 45.9254L51.7425 46.9086L51.7435 46.9096C50.2579 47.0731 47.4709 48.1534 47.4709 48.1534C47.4709 48.1534 47.0477 47.8719 46.8019 47.8115L31.1417 44.3467L30.664 40.1078C34.5431 37.7887 36.9206 33.6052 36.9267 29.085V20.1315C36.9267 15.5339 34.4738 11.2861 30.4927 8.98669C26.5106 6.68836 21.6057 6.68836 17.6233 8.98669C13.6423 11.286 11.1893 15.5339 11.1893 20.1315V29.084C11.1953 33.6032 13.5719 37.7888 17.4521 40.1068L16.9744 44.3456L1.31616 47.8104C0.547093 47.9809 0 48.6618 0 49.4497V71.6074C0 72.534 0.751235 73.2853 1.67891 73.2863H40.2847V78.3221C40.2857 79.2487 41.0359 80 41.9626 80H95.6773C96.6039 80 97.3552 79.2488 97.3552 78.3221V73.2863H135.961C136.888 73.2863 137.64 72.5341 137.64 71.6074V49.4497C137.64 48.6617 137.093 47.9809 136.324 47.8104L136.326 47.8103ZM107.455 47.5715L110.704 50.7945L107.046 52.5309L106.163 47.8579L107.455 47.5715ZM119.708 47.5715L120.999 47.8579L120.116 52.5309L116.458 50.7945L119.708 47.5715ZM113.581 10.6199L113.58 10.6209C116.102 10.6239 118.52 11.6269 120.304 13.4098C122.087 15.1928 123.089 17.6111 123.093 20.1323V21.1313C120.866 21.4931 118.607 20.7042 117.089 19.0362C116.536 18.396 115.592 18.2671 114.887 18.7369C111.692 20.8588 107.9 21.8995 104.07 21.7061V20.1323C104.073 17.611 105.076 15.1927 106.858 13.4098C108.641 11.6268 111.06 10.623 113.581 10.6199ZM104.069 29.0838V25.071C104.36 25.0849 104.657 25.0987 104.999 25.0987C108.722 25.0948 112.377 24.1116 115.598 22.2464C117.667 24.0215 120.382 24.8569 123.093 24.5527V29.0848C123.093 32.4834 121.28 35.6232 118.336 37.3228C115.394 39.0215 111.767 39.0215 108.825 37.3228C105.881 35.6231 104.069 32.4823 104.069 29.0838ZM113.581 41.9531L113.58 41.9541C114.724 41.9502 115.862 41.7936 116.964 41.4873L117.372 45.1206L113.58 48.9124L109.788 45.1206L110.197 41.4873C111.3 41.7936 112.437 41.9492 113.581 41.9531ZM77.9464 56.5013H73.2277C72.7828 56.5013 72.3556 56.6778 72.0414 56.9929L68.8194 60.2149L65.5975 56.9929C65.2833 56.6778 64.8561 56.5013 64.4111 56.5013H59.6925L60.6053 49.313L61.3446 49.2317L65.7312 54.982C66.4606 55.9503 67.6004 56.5212 68.8134 56.5231C70.0255 56.5241 71.1682 55.9572 71.9006 54.9909L76.293 49.2318L77.0324 49.313L77.9464 56.5013ZM73.0732 43.8213L73.7343 47.0483L69.2239 52.964C68.9613 53.3188 68.6838 53.3267 68.4083 52.9551L63.9038 47.0503L64.5648 43.8232C67.3131 44.8242 70.326 44.8242 73.0743 43.8232L73.0732 43.8213ZM73.5509 39.9599L73.4964 39.9887C70.5916 41.617 67.0474 41.617 64.1426 39.9887L64.0742 39.954C63.3656 39.5506 62.7115 39.057 62.1297 38.4862C61.8918 38.2295 61.653 37.9758 61.5043 37.7904L61.3626 37.6001C61.3388 37.5664 61.102 37.2513 61.0762 37.2186C60.8799 36.9351 60.6986 36.6418 60.5341 36.3385C60.3894 36.1075 60.2655 35.8647 60.1624 35.613C59.9444 35.1383 59.7679 34.6467 59.6352 34.1412C59.4855 33.6348 59.3943 33.1135 59.3626 32.5872C59.325 32.2938 59.3071 31.9985 59.3071 31.7031V24.9915C60.5727 24.1055 62.0503 23.5713 63.5886 23.4405C65.1278 23.3106 66.6738 23.5911 68.0703 24.2512C71.4539 25.942 75.6651 24.5881 78.3319 23.3414V31.7011C78.3389 33.6704 77.7145 35.5901 76.55 37.1779C76.4687 37.278 76.3943 37.384 76.3279 37.4941C76.3081 37.5159 76.1952 37.6546 76.1773 37.6774C75.4558 38.5981 74.5639 39.3742 73.5509 39.9599ZM56.6102 38.4743C56.0581 38.9282 55.3951 39.2275 54.6885 39.3405C53.9828 39.4525 53.2593 39.3752 52.5933 39.1155V18.2294C52.7866 14.722 54.1592 11.3821 56.4902 8.75255C58.8202 6.12327 61.9717 4.36018 65.4317 3.74745C68.7757 2.92089 72.3097 3.40752 75.3059 5.10723C76.8678 6.31437 78.0283 7.96562 78.6349 9.84364C78.8302 10.578 79.4952 11.0904 80.2554 11.0904C81.5428 11.1103 82.7698 11.6395 83.6676 12.5622C84.5656 13.4859 85.0601 14.7267 85.0442 16.014V39.1164C84.4129 39.378 83.7231 39.4672 83.0462 39.374C82.3683 39.2809 81.7281 39.0093 81.1909 38.5871L80.1413 37.7774C80.18 37.706 80.2067 37.6297 80.2444 37.5584C80.3316 37.3919 80.403 37.2194 80.4833 37.0499C80.6617 36.6723 80.8202 36.2858 80.959 35.8923C81.0284 35.6951 81.0918 35.4969 81.1523 35.2957C81.2702 34.8943 81.3643 34.487 81.4426 34.0747C81.4773 33.8893 81.5209 33.708 81.5477 33.5197C81.6379 32.9181 81.6835 32.3106 81.6864 31.703V20.5128C81.6874 19.8943 81.3465 19.3254 80.8014 19.0331C80.2563 18.7407 79.5952 18.7714 79.0799 19.1143C77.4317 20.2065 72.5139 22.7199 69.5685 21.2491L69.5675 21.2482C67.4644 20.267 65.1284 19.8963 62.8252 20.1808C60.5219 20.4652 58.3445 21.3919 56.5436 22.8557C56.167 23.1748 55.95 23.6436 55.949 24.1382V31.703C55.947 32.1094 55.9708 32.5138 56.0213 32.9162C56.0659 33.6278 56.1908 34.3324 56.3949 35.0153C56.5763 35.6803 56.8092 36.3295 57.0897 36.9588C57.2037 37.2442 57.3375 37.5218 57.4921 37.7883L56.6102 38.4743ZM17.9308 47.5724L21.1797 50.7953L17.5216 52.5317L16.6385 47.8588L17.9308 47.5724ZM30.1836 47.5724L31.475 47.8588L30.5919 52.5318L26.9338 50.7954L30.1836 47.5724ZM24.0568 10.6208C26.5782 10.6238 28.9965 11.6278 30.7794 13.4107C32.5623 15.1937 33.5662 17.612 33.5682 20.1332V21.1322C31.3413 21.493 29.0835 20.7051 27.5643 19.0371C27.0112 18.3959 26.0677 18.268 25.364 18.7368C22.1687 20.8597 18.3769 21.9004 14.5452 21.7071V20.1332C14.5482 17.6119 15.5512 15.1936 17.3341 13.4107C19.118 11.6277 21.5346 10.6239 24.0568 10.6208ZM14.5444 29.0847V25.0719C14.8358 25.0857 15.1331 25.0996 15.4751 25.0996C19.1966 25.0957 22.8537 24.1125 26.0739 22.2473C28.1443 24.0224 30.8588 24.8578 33.5685 24.5536V29.0857C33.5685 32.4843 31.7558 35.6241 28.8133 37.3237C25.8696 39.0224 22.2443 39.0224 19.3009 37.3237C16.3583 35.624 14.5444 32.4832 14.5444 29.0847ZM24.0568 41.954C25.2006 41.9501 26.3383 41.7945 27.4404 41.4882L27.8488 45.1215L24.0569 48.9133L20.2651 45.1215L20.6735 41.4882C21.7756 41.7945 22.9143 41.9511 24.0581 41.955L24.0568 41.954ZM40.2829 59.5458V69.9295L12.3079 69.9305V60.4191H8.95123V69.9315H3.35648V50.8007L13.3596 48.5865L14.6272 55.2961C14.7243 55.8075 15.0524 56.2446 15.5162 56.4805C15.98 56.7154 16.5261 56.7233 16.9969 56.5003L24.0583 53.1484L31.1198 56.5003C31.5896 56.7233 32.1367 56.7154 32.6005 56.4805C33.0643 56.2446 33.3924 55.8075 33.4895 55.2961L34.7571 48.5865L44.0148 50.6351C44.0148 50.6351 40.2912 56.1982 40.2844 59.547L40.2829 59.5458ZM93.9976 76.6442H88.4028V64.8947H85.0462V76.6449H52.593V64.8947H49.2363V76.6449H43.6416V59.5466C43.6525 57.2245 44.5247 54.9885 46.0876 53.2711C47.6506 51.5536 49.7952 50.4762 52.1066 50.2473L57.1741 49.6923L56.1206 57.9689C56.0601 58.4466 56.2078 58.9282 56.5269 59.29C56.8451 59.6517 57.3039 59.8588 57.7856 59.8588H63.7152L67.6321 63.7765C67.9473 64.0907 68.3745 64.2681 68.8195 64.2681C69.2645 64.2681 69.6916 64.0907 70.0068 63.7765L73.9237 59.8596H79.8533C80.335 59.8586 80.7939 59.6515 81.112 59.2897C81.4311 58.928 81.5788 58.4473 81.5184 57.9686L80.4659 49.6921L85.5372 50.2491C87.8484 50.478 89.9912 51.5553 91.5541 53.2729C93.1171 54.9894 93.9872 57.2253 93.9981 59.5466L93.9976 76.6442ZM134.283 69.9295H128.688V60.4191H125.332V69.9315L97.354 69.9305V59.5469C97.3471 56.198 96.0042 52.9898 93.6236 50.634L102.881 48.5854L104.149 55.295C104.245 55.8064 104.574 56.2435 105.038 56.4794C105.501 56.7152 106.048 56.7222 106.518 56.4992L113.579 53.1473L120.641 56.4992C121.11 56.7222 121.658 56.7152 122.122 56.4794C122.585 56.2435 122.914 55.8064 123.01 55.295L124.278 48.5854L134.281 50.7995L134.283 69.9295Z" fill="#0B2C6E"/>
<path d="M56.6102 38.4743C56.0581 38.9282 55.3951 39.2275 54.6885 39.3405C53.9828 39.4525 53.2593 39.3752 52.5933 39.1155V18.2294C52.7866 14.722 54.1592 11.3821 56.4902 8.75255C58.8202 6.12327 61.9717 4.36018 65.4317 3.74745C68.7757 2.92089 72.3097 3.40752 75.3059 5.10723C76.8678 6.31437 78.0283 7.96562 78.6349 9.84364C78.8302 10.578 79.4952 11.0904 80.2554 11.0904C81.5428 11.1103 82.7698 11.6395 83.6676 12.5622C84.5656 13.4859 85.0601 14.7267 85.0442 16.014V39.1164C84.4129 39.378 83.7231 39.4672 83.0462 39.374C82.3683 39.2809 81.7281 39.0093 81.1909 38.5871L80.1413 37.7774C80.18 37.706 80.2067 37.6297 80.2444 37.5584C80.3316 37.3919 80.403 37.2194 80.4833 37.0499C80.6617 36.6723 80.8202 36.2858 80.959 35.8923C81.0284 35.6951 81.0918 35.4969 81.1523 35.2957C81.2702 34.8943 81.3643 34.487 81.4426 34.0747C81.4773 33.8893 81.5209 33.708 81.5477 33.5197C81.6379 32.9181 81.6835 32.3106 81.6864 31.703V20.5128C81.6874 19.8943 81.3465 19.3254 80.8014 19.0331C80.2563 18.7407 79.5952 18.7714 79.0799 19.1143C77.4317 20.2065 72.5139 22.7199 69.5685 21.2491L69.5675 21.2482C67.4644 20.267 65.1284 19.8963 62.8252 20.1808C60.5219 20.4652 58.3445 21.3919 56.5436 22.8557C56.167 23.1748 55.95 23.6436 55.949 24.1382V31.703C55.947 32.1094 55.9708 32.5138 56.0213 32.9162C56.0659 33.6278 56.1908 34.3324 56.3949 35.0153C56.5763 35.6803 56.8092 36.3295 57.0897 36.9588C57.2037 37.2442 57.3375 37.5218 57.4921 37.7883L56.6102 38.4743Z" fill="white"/>
<path d="M24.0568 10.6208C26.5782 10.6238 28.9965 11.6278 30.7794 13.4107C32.5623 15.1937 33.5662 17.612 33.5682 20.1332V21.1322C31.3413 21.493 29.0835 20.7051 27.5643 19.0371C27.0112 18.3959 26.0677 18.268 25.364 18.7368C22.1687 20.8597 18.3769 21.9004 14.5452 21.7071V20.1332C14.5482 17.6119 15.5512 15.1936 17.3341 13.4107C19.118 11.6277 21.5346 10.6239 24.0568 10.6208Z" fill="#F6F8F9"/>
<path d="M113.581 10.6199L113.58 10.6209C116.102 10.6239 118.52 11.6269 120.304 13.4098C122.087 15.1928 123.089 17.6111 123.093 20.1323V21.1313C120.866 21.4931 118.607 20.7042 117.089 19.0362C116.536 18.396 115.592 18.2671 114.887 18.7369C111.692 20.8588 107.9 21.8995 104.07 21.7061V20.1323C104.073 17.611 105.076 15.1927 106.858 13.4098C108.641 11.6268 111.06 10.623 113.581 10.6199Z" fill="white"/>
<path d="M40.2829 59.5458V69.9295L12.3079 69.9305V60.4191H8.95123V69.9315H3.35648V50.8007L13.3596 48.5865L14.6272 55.2961C14.7243 55.8075 15.0524 56.2446 15.5162 56.4805C15.98 56.7154 16.5261 56.7233 16.9969 56.5003L24.0583 53.1484L31.1198 56.5003C31.5896 56.7233 32.1367 56.7154 32.6005 56.4805C33.0643 56.2446 33.3924 55.8075 33.4895 55.2961L34.7571 48.5865L44.0148 50.6351C44.0148 50.6351 40.2912 56.1982 40.2844 59.547L40.2829 59.5458Z" fill="white"/>
<path d="M134.283 69.9295H128.688V60.4191H125.332V69.9315L97.354 69.9305V59.5469C97.3471 56.198 96.0042 52.9898 93.6236 50.634L102.881 48.5854L104.149 55.295C104.245 55.8064 104.574 56.2435 105.038 56.4794C105.501 56.7152 106.048 56.7222 106.518 56.4992L113.579 53.1473L120.641 56.4992C121.11 56.7222 121.658 56.7152 122.122 56.4794C122.585 56.2435 122.914 55.8064 123.01 55.295L124.278 48.5854L134.281 50.7995L134.283 69.9295Z" fill="white"/>
<path d="M17.9308 47.5724L21.1797 50.7953L17.5216 52.5317L16.6385 47.8588L17.9308 47.5724Z" fill="#E70C53"/>
<path d="M30.1836 47.5724L31.475 47.8588L30.5919 52.5318L26.9338 50.7954L30.1836 47.5724Z" fill="#E70C53"/>
<path d="M107.455 47.5715L110.704 50.7945L107.046 52.5309L106.163 47.8579L107.455 47.5715Z" fill="#E70C53"/>
<path d="M119.708 47.5715L120.999 47.8579L120.116 52.5309L116.458 50.7945L119.708 47.5715Z" fill="#E70C53"/>
<path d="M77.9464 56.5013H73.2277C72.7828 56.5013 72.3556 56.6778 72.0414 56.9929L68.8194 60.2149L65.5975 56.9929C65.2833 56.6778 64.8561 56.5013 64.4111 56.5013H59.6925L60.6053 49.313L61.3446 49.2317L65.7312 54.982C66.4606 55.9503 67.6004 56.5212 68.8134 56.5231C70.0255 56.5241 71.1682 55.9572 71.9006 54.9909L76.293 49.2318L77.0324 49.313L77.9464 56.5013Z" fill="#E70C53"/>
</svg>
