<svg width="85" height="85" viewBox="0 0 85 85" fill="none" xmlns="http://www.w3.org/2000/svg">
<path d="M71.1875 62.6874C71.1875 63.8594 70.2346 64.8124 69.0625 64.8124C67.8904 64.8124 66.9375 63.8594 66.9375 62.6874C66.9375 60.3437 65.0312 58.4374 62.6875 58.4374C60.3438 58.4374 58.4375 60.3437 58.4375 62.6874C58.4375 63.8594 57.4846 64.8124 56.3125 64.8124H54.4446C53.8858 64.8124 53.3375 64.5852 52.9424 64.1896L51.4397 62.6874L54.6272 59.4999L52.4842 57.3569C53.6013 55.0564 54.1875 52.5078 54.1875 49.9374C54.1875 48.0813 53.8782 46.2983 53.3256 44.6249H62.6875V5.31238H47.8125V1.06238H24.4375V5.31238H9.56253V44.6249H21.0494C20.4968 46.2983 20.1876 48.0813 20.1876 49.9374C20.1876 59.3106 27.8144 66.9374 37.1876 66.9374C39.758 66.9374 42.3065 66.3511 44.6071 65.2341L46.7501 67.3771L49.9376 64.1896L51.4398 65.6918C52.2305 66.4839 53.3257 66.9374 54.4446 66.9374H56.3126C58.6563 66.9374 60.5626 65.0311 60.5626 62.6874C60.5626 61.5153 61.5155 60.5624 62.6876 60.5624C63.8596 60.5624 64.8126 61.5153 64.8126 62.6874C64.8126 65.0311 66.7189 66.9374 69.0626 66.9374C71.4063 66.9374 73.3126 65.0311 73.3126 62.6874V56.3124H71.1876L71.1875 62.6874ZM26.5625 3.18737H45.6875V5.31237H26.5625V3.18737ZM24.4375 7.43737H60.5625V22.4241L53.125 23.2508V20.1876H45.6875V23.3751H26.5625V20.1876H19.125V23.2508L11.6875 22.4241V7.43737H24.4375ZM51 22.3124V28.6874H47.8125V22.3124H51ZM24.4375 22.3124V28.6874H21.25V22.3124H24.4375ZM11.6875 42.4999V24.5612L19.125 25.388V30.812H26.5625V25.4995H45.6875V30.812H53.125V25.388L60.5625 24.5612V42.4999H52.4505C49.6847 36.8482 43.8917 32.9374 37.1869 32.9374C30.4821 32.9374 24.6895 36.8482 21.9233 42.4999H11.6875ZM45.0002 62.6218L44.3034 63.0022C42.1314 64.1871 39.6715 64.8127 37.1875 64.8127C28.9848 64.8127 22.3125 58.1403 22.3125 49.9377C22.3125 41.7351 28.9848 35.0627 37.1875 35.0627C45.3901 35.0627 52.0625 41.7351 52.0625 49.9377C52.0625 52.4218 51.4368 54.8817 50.2529 57.0522L49.8725 57.749L51.6228 59.5002L46.75 64.373L45.0002 62.6218Z" fill="#E70C53"/>
<path d="M71.1875 49.9374H73.3125V52.0624H71.1875V49.9374Z" fill="#E70C53"/>
<path d="M69.0625 52.0624H71.1875V54.1874H69.0625V52.0624Z" fill="#E70C53"/>
<path d="M73.3125 52.0624H75.4375V54.1874H73.3125V52.0624Z" fill="#E70C53"/>
<path d="M35.0625 19.1249H37.1875V21.2499H35.0625V19.1249Z" fill="#E70C53"/>
<path d="M39.3125 19.1249H41.4375V21.2499H39.3125V19.1249Z" fill="#E70C53"/>
<path d="M30.8125 19.1249H32.9375V21.2499H30.8125V19.1249Z" fill="#E70C53"/>
<path d="M41.9589 53.8079C41.8149 53.6798 41.5909 53.6798 41.4629 53.8238C40.7109 54.5758 39.7508 54.9758 38.7909 54.9758C37.3829 54.9758 36.0389 54.1119 35.2709 52.6879L38.9189 52.6878C39.1269 52.6878 39.2869 52.5277 39.2869 52.3198V51.0718C39.2869 50.8638 39.1268 50.7038 38.9189 50.7038H34.6309C34.5988 50.4638 34.5988 50.2238 34.5988 49.9998C34.5988 49.7758 34.6148 49.5359 34.6468 49.2798H38.9188C39.1269 49.2798 39.2868 49.1198 39.2868 48.9119V47.6639C39.2868 47.4558 39.1268 47.2959 38.9188 47.2959L35.2708 47.2958C36.0388 45.8877 37.3668 45.0078 38.7908 45.0078C39.7668 45.0078 40.7108 45.4238 41.4628 46.1758C41.6068 46.3198 41.8308 46.3198 41.9588 46.1918L43.3508 44.9117C43.4308 44.8478 43.4628 44.7517 43.4788 44.6397C43.4788 44.5438 43.4468 44.4478 43.3828 44.3678C42.1189 43.0877 40.5028 42.3837 38.8068 42.3837C36.0068 42.3837 33.4628 44.3517 32.4548 47.2797H30.9188C30.7107 47.2797 30.5508 47.4398 30.5508 47.6477V48.8957C30.5508 49.1037 30.7108 49.2637 30.9188 49.2637H32.0387C32.0228 49.5197 32.0067 49.7596 32.0067 49.9836C32.0067 50.2076 32.0227 50.4476 32.0387 50.6877H30.9188C30.7107 50.6877 30.5508 50.8477 30.5508 51.0556V52.3036C30.5508 52.5117 30.7108 52.6716 30.9188 52.6716H32.4548C33.4628 55.5996 36.0068 57.5676 38.8068 57.5676C40.5028 57.5676 42.1348 56.8636 43.3828 55.5836C43.4468 55.5196 43.4949 55.4235 43.4949 55.3116C43.4949 55.2156 43.4469 55.1196 43.3669 55.0396L41.9589 53.8079Z" fill="#E70C53"/>
</svg>
