<svg width="66" height="67" viewBox="0 0 66 67" fill="none" xmlns="http://www.w3.org/2000/svg">
<path d="M60.857 17.1633C58.3136 17.1633 56.2018 19.0205 55.7916 21.4491H40.2864V16.7352H52.2861C52.7597 16.7352 53.1435 16.3519 53.1435 15.8778V10.2288C55.5722 9.81863 57.4293 7.70676 57.4293 5.16329C57.4293 2.32747 55.1226 0.0200195 52.2861 0.0200195C49.4503 0.0200195 47.1429 2.3267 47.1429 5.16329C47.1429 7.70676 49 9.81859 51.4286 10.2288V15.0205H40.2855V13.735C40.2855 13.2614 39.9017 12.8776 39.4281 12.8776H26.5709C26.0973 12.8776 25.7135 13.2608 25.7135 13.735L25.7141 15.0205H14.571V10.2288C16.9996 9.81863 18.8567 7.70676 18.8567 5.16329C18.8567 2.32747 16.5501 0.0200195 13.7135 0.0200195C10.8778 0.0200195 8.57034 2.3267 8.57034 5.16329C8.57034 7.70676 10.4274 9.81859 12.8561 10.2288L12.8567 15.8778C12.8567 16.3513 13.2405 16.7352 13.7141 16.7352H25.7139V21.4497L10.2086 21.4491C9.79849 19.0205 7.68664 17.1633 5.1432 17.1633C2.30742 17.1633 0 19.47 0 22.3066C0 25.1424 2.30665 27.4499 5.1432 27.4499C7.68664 27.4499 9.79844 25.5927 10.2086 23.1641H25.7139V27.878H13.7141C13.2405 27.878 12.8567 28.2613 12.8567 28.7354V34.3844C10.428 34.7946 8.57094 36.9064 8.57094 39.4499C8.57094 42.2857 10.8776 44.5932 13.7141 44.5932C16.5499 44.5932 18.8573 42.2865 18.8573 39.4499C18.8573 36.9064 17.0002 34.7946 14.5716 34.3844V29.5927H25.7147V30.8782C25.7147 31.3518 26.0985 31.7356 26.5721 31.7356H27.857V41.0989C26.278 39.469 24.1524 38.3491 22.3486 38.3491C20.4592 38.3491 19.2855 39.5921 19.2855 41.5927C19.2855 42.8716 20.4424 43.5395 21.6674 44.2468C23.564 45.3422 25.7141 46.5835 25.7141 50.1643C25.7141 54.1696 29.0397 58.0446 29.9998 59.079V65.1646C29.9998 65.6381 30.3837 66.022 30.8572 66.022H41.5716C42.0451 66.022 42.429 65.6387 42.429 65.1646V59.5168C45.7933 58.898 46.7147 54.6403 46.7147 52.3072V39.4498C46.7147 38.2438 45.9159 36.4494 43.7144 36.4494C43.1895 36.4494 42.7446 36.5516 42.3709 36.7232C42.1527 35.5956 41.2947 34.3065 39.4286 34.3065C38.9037 34.3065 38.4588 34.4087 38.0851 34.5803C37.8669 33.4527 37.0089 32.1636 35.1428 32.1636C34.6448 32.1636 34.2185 32.2557 33.8574 32.4111V31.7355H39.4285C39.9021 31.7355 40.2859 31.3523 40.2859 30.8781V29.5926H51.429V34.3843C49.0004 34.7945 47.1433 36.9063 47.1433 39.4498C47.1433 42.2856 49.4499 44.5931 52.2865 44.5931C55.1222 44.5931 57.4297 42.2864 57.4297 39.4498C57.4297 36.9063 55.5726 34.7945 53.1439 34.3843L53.1433 28.7353C53.1433 28.2617 52.7595 27.8779 52.2859 27.8779H40.2861V23.1634H55.7914C56.2015 25.592 58.3134 27.4492 60.8568 27.4492C63.6926 27.4492 66 25.1425 66 22.3059C66 19.4707 63.6927 17.1632 60.8568 17.1632L60.857 17.1633ZM48.8572 5.16338C48.8572 3.27227 50.3957 1.73504 52.2855 1.73504C54.1762 1.73504 55.7138 3.27288 55.7138 5.16338C55.7138 6.75678 54.6167 8.08722 53.1422 8.47034C52.8672 8.54209 52.5832 8.59171 52.2854 8.59171C51.9876 8.59171 51.7037 8.54149 51.428 8.46974C49.9536 8.08708 48.857 6.75679 48.857 5.16324L48.8572 5.16338ZM12.857 8.47034C11.3825 8.08708 10.2854 6.75678 10.2854 5.16338C10.2854 3.27227 11.8238 1.73504 13.7137 1.73504C15.6043 1.73504 17.1419 3.27288 17.1419 5.16338C17.1419 6.75678 16.0448 8.08722 14.5703 8.47034C14.2959 8.54209 14.0119 8.59171 13.7141 8.59171C13.4164 8.59171 13.1324 8.54209 12.8567 8.47034H12.857ZM8.44984 23.1639C8.06658 24.6389 6.73569 25.7355 5.14292 25.7355C3.2523 25.7355 1.71463 24.1977 1.71463 22.3072C1.71463 20.4161 3.25306 18.8789 5.14292 18.8789C6.73569 18.8789 8.06672 19.9754 8.44984 21.4505C8.52158 21.7249 8.57121 22.0089 8.57121 22.3067C8.57121 22.6045 8.52158 22.8885 8.44984 23.1641V23.1639ZM17.1427 39.4499C17.1427 41.3411 15.6043 42.8783 13.7144 42.8783C11.8238 42.8783 10.2861 41.3404 10.2861 39.4499C10.2861 37.8565 11.3833 36.5261 12.8577 36.143C13.1328 36.0713 13.4168 36.0216 13.7145 36.0216C14.0123 36.0216 14.2963 36.0718 14.5719 36.1436C16.0463 36.5263 17.1429 37.8565 17.1429 39.4501L17.1427 39.4499ZM35.1428 33.8787C36.2807 33.8787 36.4212 34.7834 36.4283 35.1642V37.3071C36.4283 37.7807 36.8122 38.1645 37.2857 38.1645C37.7593 38.1645 38.1431 37.7813 38.1431 37.3071C38.1431 37.0931 38.2053 36.0216 39.4286 36.0216C40.5664 36.0216 40.7069 36.9263 40.7141 37.3071V39.45C40.7141 39.9236 41.0979 40.3074 41.5715 40.3074C42.045 40.3074 42.4289 39.9242 42.4289 39.45C42.4289 39.236 42.491 38.1645 43.7143 38.1645C44.8521 38.1645 44.9927 39.0692 44.9998 39.45V52.3074C44.9998 52.3636 44.9604 57.8787 41.5715 57.8787C41.098 57.8787 40.7141 58.2619 40.7141 58.7361V64.3073H31.7145V58.7361C31.7145 58.5094 31.6242 58.2906 31.464 58.1298C31.4233 58.0897 27.4288 54.0443 27.4288 50.1645C27.4288 45.5941 24.4776 43.8901 22.5249 42.7624C21.8456 42.3708 21.0002 41.8823 21.0002 41.5929C21.0002 40.5346 21.4164 40.0635 22.3491 40.0635C24.0375 40.0635 26.7527 41.7293 27.9478 44.1191C28.1254 44.4748 28.5224 44.6596 28.9116 44.5705C29.2978 44.4784 29.5717 44.1334 29.5717 43.7358V24.4497C29.5717 24.2357 29.6339 23.1642 30.8572 23.1642C31.995 23.1642 32.1355 24.0689 32.1427 24.4497V35.1642C32.1427 35.6378 32.5265 36.0216 33 36.0216C33.4736 36.0216 33.8574 35.6384 33.8574 35.1642C33.8574 34.9502 33.919 33.8787 35.1429 33.8787H35.1428ZM38.5711 15.8783V30.0212H33.8573V24.45C33.8573 23.244 33.0585 21.4496 30.8569 21.4496C28.6561 21.4496 27.8566 23.244 27.8566 24.45V30.0212H27.4279L27.4285 28.7357V14.5928H38.5716L38.5711 15.8783ZM53.1431 36.1425C54.6175 36.5258 55.7147 37.8561 55.7147 39.4495C55.7147 41.3406 54.1763 42.8778 52.2864 42.8778C50.3958 42.8778 48.8582 41.34 48.8582 39.4495C48.8582 37.8561 49.9553 36.5257 51.4298 36.1425C51.7042 36.0708 51.9882 36.0212 52.286 36.0212C52.5837 36.0212 52.8677 36.0708 53.1433 36.1425H53.1431ZM60.8572 25.7348C59.2644 25.7348 57.9334 24.6382 57.5503 23.1631C57.4785 22.8881 57.4289 22.6041 57.4289 22.3063C57.4289 22.0086 57.4791 21.7246 57.5509 21.4489C57.9341 19.9739 59.265 18.8773 60.8578 18.8773C62.7484 18.8773 64.2861 20.4151 64.2861 22.3056C64.2855 24.1973 62.7476 25.7346 60.8572 25.7346L60.8572 25.7348Z" fill="#E70C53"/>
</svg>
