<svg width="105" height="100" viewBox="0 0 105 100" fill="none" xmlns="http://www.w3.org/2000/svg">
<path d="M9.19579 26.9425L51.7087 0L94.4443 26.9315V35.09L89.5486 35.0886L89.5493 42.2946L86.9746 42.2939V79.0039H89.5493L89.5486 87.7556L93.6743 87.7563L93.6722 95.2276L101.959 95.2297C103.121 95.2297 104.089 96.0611 104.301 97.1613L104.333 97.3852L104.344 97.6148C104.344 98.7592 103.534 99.7268 102.422 99.9529L102.195 99.9879L101.959 100H2.38503C1.06806 100 0 98.9319 0 97.615C0 96.4705 0.810009 95.5023 1.9223 95.2768L2.14905 95.2419L2.38507 95.2298L9.96455 95.2276L9.96527 87.7466L14.0895 87.7451L14.0902 79.004H16.6636V42.294L14.0902 42.2947L14.0895 35.0987L9.19533 35.1008L9.19579 26.9425ZM89.7804 91.6427H13.856L13.8538 95.2272H89.7801L89.7804 91.6427ZM41.4209 35.0891H35.0171V42.2951L32.3917 42.2944V79.0044H35.0171V87.7456H41.3802L41.3809 79.0044H43.9948V42.2853L41.4207 42.2867L41.4209 35.0891ZM58.364 82.8919H45.2711V87.7455H58.364V82.8919ZM68.6204 35.0891H62.2672L62.2679 42.2951L59.6932 42.2944V79.0044H62.258L62.2573 87.7456H68.6204L68.6211 79.0044H71.1945V42.2853L68.6211 42.2867L68.6204 35.0891ZM85.6555 82.8919H72.5128V87.7455H85.6555V82.8919ZM31.1243 82.8919H17.9802V87.7455H31.1243V82.8919ZM55.7997 42.2957H47.8451V79.0057H55.7897L55.7997 42.2957ZM83.0908 42.2957H75.1362V79.0057H83.0417L83.0908 42.2957ZM28.5086 42.2957H20.5547V79.0057H28.5086V42.2957ZM58.3643 35.0904H45.2715V38.4074H58.3643V35.0904ZM31.0732 35.0904H17.9804V38.3974H31.0732V35.0904ZM85.6518 35.0904H72.5128V38.3888H85.6199L85.6518 35.0904ZM51.7072 4.59938L32.3957 16.8358L13.0842 29.0721V31.1948H90.5493V29.0721L51.7072 4.59938ZM51.8327 10.6437C55.748 10.6516 58.9168 13.8246 58.9124 17.7349C58.9088 21.6445 55.7337 24.8112 51.8177 24.8112C49.934 24.8083 48.1278 24.0589 46.798 22.7262C45.4674 21.3936 44.7216 19.5882 44.7245 17.7057C44.7359 13.9144 47.7278 10.8277 51.4791 10.6516L51.8327 10.6437ZM51.8199 14.5305L51.5703 14.5412C49.9268 14.6717 48.6306 16.0371 48.6161 17.7091C48.609 19.004 49.3848 20.1748 50.5806 20.6753C51.7764 21.1759 53.1567 20.9064 54.0765 19.9937C54.9957 19.081 55.273 17.7048 54.7782 16.5083C54.3169 15.3917 53.268 14.6366 52.0757 14.5411L51.8199 14.5305Z" fill="#0B2C6E"/>
<path fill-rule="evenodd" clip-rule="evenodd" d="M13.0842 29.0721V31.1948H90.5493V29.0721L51.7072 4.59938L32.3957 16.8358L13.0842 29.0721ZM58.9124 17.7349C58.9168 13.8246 55.748 10.6516 51.8327 10.6437L51.4791 10.6516C47.7278 10.8277 44.7359 13.9144 44.7245 17.7057C44.7216 19.5882 45.4674 21.3936 46.798 22.7262C48.1278 24.0589 49.934 24.8083 51.8177 24.8112C55.7337 24.8112 58.9088 21.6445 58.9124 17.7349Z" fill="white"/>
<path d="M28.5086 42.2957H20.5547V79.0057H28.5086V42.2957Z" fill="white"/>
<path d="M89.7804 91.6427H13.856L13.8538 95.2272H89.7801L89.7804 91.6427Z" fill="#E70C53"/>
<path d="M31.1243 82.8919H17.9802V87.7455H31.1243V82.8919Z" fill="white"/>
<path d="M58.364 82.8919H45.2711V87.7455H58.364V82.8919Z" fill="white"/>
<path d="M85.6555 82.8919H72.5128V87.7455H85.6555V82.8919Z" fill="white"/>
<path d="M31.0732 35.0904H17.9804V38.3974H31.0732V35.0904Z" fill="white"/>
<path d="M58.3643 35.0904H45.2715V38.4074H58.3643V35.0904Z" fill="white"/>
<path d="M85.6518 35.0904H72.5128V38.3888H85.6199L85.6518 35.0904Z" fill="white"/>
<path d="M51.8199 14.5305L51.5703 14.5412C49.9268 14.6717 48.6306 16.0371 48.6161 17.7091C48.609 19.004 49.3848 20.1748 50.5806 20.6753C51.7764 21.1759 53.1567 20.9064 54.0765 19.9937C54.9957 19.081 55.273 17.7048 54.7782 16.5083C54.3169 15.3917 53.268 14.6366 52.0757 14.5411L51.8199 14.5305Z" fill="#E70C53"/>
<path d="M55.7997 42.2957H47.8451V79.0057H55.7897L55.7997 42.2957Z" fill="white"/>
<path d="M83.0908 42.2957H75.1362V79.0057H83.0417L83.0908 42.2957Z" fill="white"/>
</svg>
