<svg width="100" height="100" viewBox="0 0 100 100" fill="none" xmlns="http://www.w3.org/2000/svg">
<path d="M90 0V3.33333H10V0H0V16.6667H10V13.3333H13.3333V86.6667H48.3333V90.3333C46.3333 91 45 92.8333 45 95C45 97.8333 47.1667 100 50 100C52.8333 100 55 97.8333 55 95C55 92.8333 53.6667 91 51.6667 90.3333V86.6667H86.6667V13.3333H90V16.6667H100V0H90ZM50 96.6667C49 96.6667 48.3333 96 48.3333 95C48.3333 94 49 93.3333 50 93.3333C51 93.3333 51.6667 94 51.6667 95C51.6667 96 51 96.6667 50 96.6667ZM6.66667 13.3333H3.33333V3.33333H6.66667V13.3333ZM16.6667 83.3333V80H83.3333V83.3333H16.6667ZM83.3333 76.6667H16.6667V13.3333H83.3333V76.6667ZM10 10V6.66667H90V10H10ZM96.6667 13.3333H93.3333V3.33333H96.6667V13.3333Z" fill="#0B2C6E"/>
<path d="M83.3333 76.6667H16.6667V13.3333H83.3333V76.6667Z" fill="white"/>
<path d="M16.6667 83.3333V80H83.3333V83.3333H16.6667Z" fill="white"/>
<path d="M6.66667 13.3333H3.33333V3.33333H6.66667V13.3333Z" fill="white"/>
<path d="M10 10V6.66667H90V10H10Z" fill="white"/>
<path d="M96.6667 13.3333H93.3333V3.33333H96.6667V13.3333Z" fill="white"/>
<path d="M50 96.6667C49 96.6667 48.3333 96 48.3333 95C48.3333 94 49 93.3333 50 93.3333C51 93.3333 51.6667 94 51.6667 95C51.6667 96 51 96.6667 50 96.6667Z" fill="white"/>
<path d="M20 48.3333H46.6667V51.6667H20V48.3333Z" fill="#0B2C6E"/>
<path d="M53.3333 48.3333H79.9999V51.6667H53.3333V48.3333Z" fill="#0B2C6E"/>
<path d="M20 55H46.6667V58.3333H20V55Z" fill="#0B2C6E"/>
<path d="M53.3333 55H79.9999V58.3333H53.3333V55Z" fill="#0B2C6E"/>
<path d="M20 61.6667H46.6667V65H20V61.6667Z" fill="#0B2C6E"/>
<path d="M53.3333 61.6667H79.9999V65H53.3333V61.6667Z" fill="#0B2C6E"/>
<path d="M20 68.3333H46.6667V71.6667H20V68.3333Z" fill="#0B2C6E"/>
<path d="M53.3333 68.3333H79.9999V71.6667H53.3333V68.3333Z" fill="#0B2C6E"/>
<path d="M80 41.6666H75V18.3333H65V41.6666H61.6666V21.6666H51.6666V41.6666H48.3333V25H38.3333V41.6666H35V28.3333H25V41.6666H20V44.9999H80V41.6666ZM68.3333 21.6666H71.6666V41.6666H68.3333V21.6666ZM55 25H58.3333V41.6666H55V25ZM41.6667 28.3333H45V41.6666H41.6667V28.3333ZM28.3333 31.6666H31.6667V41.6666H28.3333V31.6666Z" fill="#0B2C6E"/>
<path d="M28.3333 31.6666H31.6667V41.6666H28.3333V31.6666Z" fill="#E70C53"/>
<path d="M41.6667 28.3333H45V41.6666H41.6667V28.3333Z" fill="#E70C53"/>
<path d="M55 25H58.3333V41.6666H55V25Z" fill="#E70C53"/>
<path d="M68.3333 21.6666H71.6666V41.6666H68.3333V21.6666Z" fill="#E70C53"/>
</svg>
