<svg width="52" height="68" viewBox="0 0 52 68" fill="none" xmlns="http://www.w3.org/2000/svg">
<path d="M33.9608 34.0933H33.5049V28.4987C33.5049 28.4325 33.4815 28.3745 33.4668 28.3124C33.816 28.0991 34.1571 27.8746 34.4863 27.6344C35.1449 30.7692 37.8724 33.127 41.1309 33.127C44.8797 33.127 47.9301 30.0062 47.9301 26.1707C47.9301 25.8935 47.7906 25.6346 47.5621 25.4775C47.3318 25.3205 47.0389 25.2883 46.7811 25.3891C46.7641 25.3949 45.1791 25.9973 44.152 25.1394C42.9737 24.1533 42.7434 21.4761 43.5046 17.6001C43.6106 17.0592 43.77 16.5284 43.9399 15.9647C44.0887 15.4702 44.2364 14.9745 44.3507 14.4712C44.7866 12.551 45.2055 10.1493 45.0134 6.89204C44.7913 3.1414 41.9267 0.417969 38.2031 0.417969C36.3644 0.417969 34.6593 1.21602 33.4488 2.60874C31.2329 1.26224 28.6523 0.47362 25.8873 0.47362C17.7393 0.47362 11.1111 7.19969 11.1111 15.4661C11.1111 20.9623 14.0502 25.7646 18.4089 28.3745C18.4025 28.4167 18.3837 28.4554 18.3837 28.4987V34.0933H18.0105C8.07944 34.0933 0 43.2551 0 54.5176V66.7784C0 67.2419 0.376171 67.6187 0.840241 67.6187H51.1262C51.5897 67.6187 51.9664 67.2425 51.9664 66.7784V54.5105C51.9664 43.2528 43.8886 34.0938 33.9605 34.0938L33.9608 34.0933ZM33.9854 46.3594L35.7813 51.1506C35.5047 52.34 33.8273 58.3648 27.2085 64.4902L33.3438 35.7724H33.7704L37.6774 45.2231H34.773C34.4976 45.2231 34.2398 45.3585 34.0828 45.584C33.9251 45.812 33.8894 46.1009 33.9855 46.3587L33.9854 46.3594ZM18.0209 45.7928C17.8639 45.5648 17.6049 45.4283 17.3289 45.4283H14.371L18.4662 35.7732H18.5453L24.6935 64.218C18.2622 58.2836 16.5782 52.4779 16.2935 51.3037L18.114 46.5694C18.2125 46.3116 18.1779 46.0209 18.0209 45.7924L18.0209 45.7928ZM21.3215 40.6651C22.3697 40.9692 24.1047 41.3554 26.1555 41.3554C27.5249 41.3554 29.0348 41.1772 30.5747 40.6944L25.9779 62.2107L21.3215 40.6651ZM38.2025 2.0982C41.0543 2.0982 43.1642 4.11093 43.3347 6.99321C43.5146 10.0406 43.1203 12.2961 42.7107 14.1013C42.6046 14.5677 42.4663 15.0254 42.3292 15.483C42.1552 16.0601 41.9765 16.6566 41.8546 17.2784C40.9423 21.926 41.3566 25.0087 43.0868 26.4414C44.0841 27.2669 45.2659 27.3478 46.1425 27.2488C45.6585 29.6436 43.5955 31.4488 41.131 31.4488C38.3665 31.4488 36.113 29.1777 36.0211 26.35C38.8729 23.6148 40.664 19.7534 40.664 15.4678C40.664 10.6162 38.3707 6.3084 34.8368 3.56547C35.7187 2.62738 36.9187 2.09828 38.2025 2.09828L38.2025 2.0982ZM34.6569 5.60689C37.0722 7.82766 38.6676 10.9418 38.9325 14.437C33.7382 13.3138 31.064 10.4011 30.1551 9.19103C31.6241 8.21485 33.1235 7.05006 34.6269 5.64604C34.6398 5.63549 34.6451 5.61967 34.6568 5.60678L34.6569 5.60689ZM25.8866 2.15385C28.6586 2.15385 31.2279 3.03979 33.3473 4.53918C23.9072 13.2534 14.5268 12.3052 13.2248 12.1213C14.6896 6.39725 19.8026 2.15385 25.8863 2.15385H25.8866ZM12.7898 15.4665C12.7898 14.8917 12.8378 14.3292 12.9076 13.7737C13.248 13.8294 14.1111 13.9442 15.3866 13.9442C18.2677 13.9442 23.2078 13.3413 28.7225 10.0893C29.7467 11.5097 32.8118 14.9515 38.9495 16.1545C38.5932 23.1747 32.8797 28.7792 25.8866 28.7792C18.6649 28.7798 12.7898 22.8074 12.7898 15.4666L12.7898 15.4665ZM25.8866 30.4596C27.9995 30.4596 30.0051 30.0002 31.8239 29.1864V34.8455L30.9866 38.7667C26.1227 40.753 21.1259 38.8458 20.909 38.7608L20.0623 34.845V29.2427C21.8512 30.0226 23.8188 30.4598 25.8865 30.4598L25.8866 30.4596ZM1.6781 54.5169C1.6781 43.6254 9.17989 36.6397 16.6071 35.8507L12.3275 45.9407C12.2173 46.2003 12.2443 46.4973 12.3996 46.7329C12.556 46.9672 12.8185 47.109 13.1003 47.109H16.1044L14.6325 50.9375C14.578 51.0811 14.5628 51.2364 14.5897 51.3875C14.646 51.6975 16.0218 58.7705 24.1 65.9389L12.6994 65.9395V60.533C12.6994 60.0695 12.3233 59.6927 11.8592 59.6927C11.3957 59.6927 11.019 60.0689 11.019 60.533L11.0196 65.9389H1.67861V54.517L1.6781 54.5169ZM50.2856 65.9387H40.7535V60.5322C40.7535 60.0688 40.3773 59.692 39.9133 59.692C39.4498 59.692 39.073 60.0682 39.073 60.5322L39.0736 65.9387H28.1019C36.07 58.6935 37.4253 51.5432 37.4803 51.2309C37.5061 51.0833 37.492 50.9321 37.4399 50.7909L35.9833 46.905H38.9323C39.2129 46.905 39.4748 46.7649 39.6301 46.5317C39.7866 46.2991 39.8158 46.0032 39.708 45.7436L35.6334 35.884C42.9681 36.8139 50.2848 43.7556 50.2848 54.5112V65.9395L50.2856 65.9387Z" fill="#E70C53"/>
</svg>
