<svg width="96" height="100" viewBox="0 0 96 100" fill="none" xmlns="http://www.w3.org/2000/svg">
<path d="M89.8688 99.9998H40.3011C39.4683 99.9998 38.7925 99.324 38.7925 98.4912V10.1289C38.7925 9.29608 39.4683 8.6203 40.3011 8.6203H89.8688C90.7016 8.6203 91.3774 9.2961 91.3774 10.1289V98.4912C91.3774 99.324 90.7016 99.9998 89.8688 99.9998ZM41.8084 96.9827H88.3595V11.6391H41.8084V96.9827Z" fill="#0B2C6E"/>
<path d="M41.8084 96.9827H88.3595V11.6391H41.8084V96.9827Z" fill="white"/>
<path d="M40.3011 100H5.81886C4.98605 100 4.31027 99.3242 4.31027 98.4914V29.5259C4.31027 28.6931 4.98607 28.0173 5.81886 28.0173H40.3011C41.1339 28.0173 41.8097 28.6931 41.8097 29.5259V98.4914C41.8097 99.3243 41.1339 100 40.3011 100ZM7.3282 96.9829H38.7937V36.7812H7.3282V96.9829Z" fill="#0B2C6E"/>
<path d="M7.3282 96.9829H38.7937V36.7812H7.3282V96.9829Z" fill="white"/>
<path d="M40.3011 39.6552H5.81886C4.98605 39.6552 4.31027 38.9794 4.31027 38.1466V29.5259C4.31027 28.6931 4.98607 28.0173 5.81886 28.0173H40.3011C41.1339 28.0173 41.8097 28.6931 41.8097 29.5259V38.1466C41.8097 38.9794 41.1339 39.6552 40.3011 39.6552ZM7.3282 36.6381H38.7937V31.0345H7.3282V36.6381Z" fill="#0B2C6E"/>
<path d="M83.4043 11.6379H46.7665C45.9337 11.6379 45.2579 10.9621 45.2579 10.1293V1.50861C45.2579 0.675782 45.9337 0 46.7665 0H83.4043C84.2372 0 84.9129 0.675802 84.9129 1.50861V10.1293C84.9129 10.9621 84.2371 11.6379 83.4043 11.6379ZM48.2758 8.62075H81.895V3.01722H48.2758V8.62075Z" fill="#0B2C6E"/>
<path d="M48.2758 8.62075H81.895V3.01722H48.2758V8.62075Z" fill="#E70C53"/>
<path d="M31.6805 31.0345C30.8477 31.0345 30.1719 30.3587 30.1719 29.5259V12.2846C30.1719 11.4518 30.8477 10.776 31.6805 10.776C32.5133 10.776 33.1891 11.4518 33.1891 12.2846V29.5259C33.1891 30.3588 32.5133 31.0345 31.6805 31.0345Z" fill="#0B2C6E"/>
<path d="M23.06 31.0345C22.2272 31.0345 21.5514 30.3587 21.5514 29.5259V18.75C21.5514 17.9172 22.2272 17.2414 23.06 17.2414C23.8928 17.2414 24.5686 17.9172 24.5686 18.75V29.5259C24.5686 30.3587 23.8928 31.0345 23.06 31.0345Z" fill="#0B2C6E"/>
<path d="M14.4394 31.0344C13.6066 31.0344 12.9308 30.3586 12.9308 29.5258V7.9732C12.9308 7.14038 13.6066 6.4646 14.4394 6.4646C15.2722 6.4646 15.948 7.1404 15.948 7.9732V29.5258C15.948 30.3587 15.2722 31.0344 14.4394 31.0344Z" fill="#0B2C6E"/>
<path d="M46.7665 16.5952H51.0768V25.2158H46.7665V16.5952Z" fill="#0B2C6E"/>
<path d="M53.2297 16.5952H57.54V25.2158H53.2297V16.5952Z" fill="#0B2C6E"/>
<path d="M59.6973 16.5952H64.0076V25.2158H59.6973V16.5952Z" fill="#0B2C6E"/>
<path d="M66.1628 16.5952H70.473V25.2158H66.1628V16.5952Z" fill="#0B2C6E"/>
<path d="M72.6282 16.5952H76.9384V25.2158H72.6282V16.5952Z" fill="#0B2C6E"/>
<path d="M79.0913 16.5952H83.4017V25.2158H79.0913V16.5952Z" fill="#0B2C6E"/>
<path d="M46.7665 28.5208H51.0768V37.1415H46.7665V28.5208Z" fill="#0B2C6E"/>
<path d="M53.2297 28.5208H57.54V37.1415H53.2297V28.5208Z" fill="#0B2C6E"/>
<path d="M59.6973 28.5208H64.0076V37.1415H59.6973V28.5208Z" fill="#0B2C6E"/>
<path d="M66.1628 28.5208H70.473V37.1416H66.1628V28.5208Z" fill="#0B2C6E"/>
<path d="M72.6282 28.5208H76.9384V37.1415H72.6282V28.5208Z" fill="#0B2C6E"/>
<path d="M79.0913 28.5208H83.4017V37.1415H79.0913V28.5208Z" fill="#0B2C6E"/>
<path d="M46.7665 40.4446H51.0768V49.0653H46.7665V40.4446Z" fill="#0B2C6E"/>
<path d="M53.2297 40.4446H57.54V49.0653H53.2297V40.4446Z" fill="#0B2C6E"/>
<path d="M59.6973 40.4446H64.0076V49.0653H59.6973V40.4446Z" fill="#0B2C6E"/>
<path d="M66.1628 40.4446H70.473V49.0653H66.1628V40.4446Z" fill="#0B2C6E"/>
<path d="M72.6282 40.4446H76.9384V49.0653H72.6282V40.4446Z" fill="#0B2C6E"/>
<path d="M79.0913 40.4446H83.4017V49.0653H79.0913V40.4446Z" fill="#0B2C6E"/>
<path d="M46.7665 52.3704H51.0768V60.991H46.7665V52.3704Z" fill="#0B2C6E"/>
<path d="M53.2297 52.3704H57.54V60.991H53.2297V52.3704Z" fill="#0B2C6E"/>
<path d="M59.6973 52.3704H64.0076V60.991H59.6973V52.3704Z" fill="#0B2C6E"/>
<path d="M66.1628 52.3704H70.473V60.9911H66.1628V52.3704Z" fill="#0B2C6E"/>
<path d="M72.6282 52.3704H76.9384V60.991H72.6282V52.3704Z" fill="#0B2C6E"/>
<path d="M79.0913 52.3704H83.4017V60.991H79.0913V52.3704Z" fill="#0B2C6E"/>
<path d="M46.7665 64.296H51.0768V72.9167H46.7665V64.296Z" fill="#0B2C6E"/>
<path d="M53.2297 64.296H57.54V72.9167H53.2297V64.296Z" fill="#0B2C6E"/>
<path d="M59.6973 64.296H64.0076V72.9167H59.6973V64.296Z" fill="#0B2C6E"/>
<path d="M66.1628 64.296H70.473V72.9167H66.1628V64.296Z" fill="#0B2C6E"/>
<path d="M72.6282 64.296H76.9384V72.9167H72.6282V64.296Z" fill="#0B2C6E"/>
<path d="M79.0913 64.296H83.4017V72.9167H79.0913V64.296Z" fill="#0B2C6E"/>
<path d="M74.7835 99.9997H55.3871C54.5542 99.9997 53.8785 99.3239 53.8785 98.4911V85.5601C53.8785 84.7273 54.5543 84.0515 55.3871 84.0515H74.7835C75.6163 84.0515 76.292 84.7273 76.292 85.5601V98.4911C76.292 99.324 75.6163 99.9997 74.7835 99.9997ZM56.8958 96.9826H73.2749V87.0689H56.8958V96.9826Z" fill="#0B2C6E"/>
<path d="M56.8958 96.9826H73.2749V87.0689H56.8958V96.9826Z" fill="white"/>
<path d="M18.7474 52.5851H14.4372C13.6044 52.5851 12.9286 51.9093 12.9286 51.0765V44.6111C12.9286 43.7783 13.6044 43.1025 14.4372 43.1025C15.27 43.1025 15.9458 43.7783 15.9458 44.6111V49.5679H18.7475C19.5803 49.5679 20.2561 50.2437 20.2561 51.0765C20.2561 51.9093 19.5803 52.5851 18.7475 52.5851L18.7474 52.5851Z" fill="#0B2C6E"/>
<path d="M31.6805 52.5851H27.3702C26.5374 52.5851 25.8617 51.9093 25.8617 51.0765V44.6111C25.8617 43.7783 26.5375 43.1025 27.3702 43.1025C28.203 43.1025 28.8788 43.7783 28.8788 44.6111V49.5679H31.6806C32.5134 49.5679 33.1891 50.2437 33.1891 51.0765C33.1891 51.9093 32.5133 52.5851 31.6806 52.5851L31.6805 52.5851Z" fill="#0B2C6E"/>
<path d="M18.7474 65.5171H14.4372C13.6044 65.5171 12.9286 64.8413 12.9286 64.0084V57.5429C12.9286 56.7101 13.6044 56.0343 14.4372 56.0343C15.27 56.0343 15.9458 56.7101 15.9458 57.5429V62.4999H18.7475C19.5803 62.4999 20.2561 63.1757 20.2561 64.0085C20.2561 64.8413 19.5803 65.5171 18.7475 65.5171L18.7474 65.5171Z" fill="#0B2C6E"/>
<path d="M31.6805 65.5171H27.3702C26.5374 65.5171 25.8617 64.8413 25.8617 64.0084V57.5429C25.8617 56.7101 26.5375 56.0343 27.3702 56.0343C28.203 56.0343 28.8788 56.7101 28.8788 57.5429V62.4999H31.6806C32.5134 62.4999 33.1891 63.1757 33.1891 64.0085C33.1891 64.8413 32.5133 65.5171 31.6806 65.5171L31.6805 65.5171Z" fill="#0B2C6E"/>
<path d="M18.7474 78.449H14.4372C13.6044 78.449 12.9286 77.7732 12.9286 76.9404V70.475C12.9286 69.6422 13.6044 68.9664 14.4372 68.9664C15.27 68.9664 15.9458 69.6422 15.9458 70.475V75.4319H18.7475C19.5803 75.4319 20.2561 76.1077 20.2561 76.9405C20.2561 77.7733 19.5803 78.4491 18.7475 78.4491L18.7474 78.449Z" fill="#0B2C6E"/>
<path d="M31.6805 78.449H27.3702C26.5374 78.449 25.8617 77.7732 25.8617 76.9404V70.475C25.8617 69.6422 26.5375 68.9664 27.3702 68.9664C28.203 68.9664 28.8788 69.6422 28.8788 70.475V75.4319H31.6806C32.5134 75.4319 33.1891 76.1077 33.1891 76.9405C33.1891 77.7733 32.5133 78.4491 31.6806 78.4491L31.6805 78.449Z" fill="#0B2C6E"/>
<path d="M94.1791 99.9998H1.50859C0.675772 99.9998 0 99.324 0 98.4912C0 97.6584 0.675792 96.9826 1.50859 96.9826H94.1791C95.0119 96.9826 95.6877 97.6584 95.6877 98.4912C95.6877 99.324 95.0119 99.9998 94.1791 99.9998Z" fill="#0B2C6E"/>
<rect x="6.89644" y="31.034" width="32.1834" height="5.74704" fill="#E70C53"/>
</svg>
