<svg width="67" height="67" viewBox="0 0 67 67" fill="none" xmlns="http://www.w3.org/2000/svg">
<path d="M64.9928 0.974154H54.1542C53.8891 0.973038 53.6347 1.08017 53.45 1.26988L46.6505 8.06102L46.6511 8.06158C46.2678 8.45551 46.2678 9.08323 46.6511 9.47718L47.1633 9.98102L45.3711 11.7733C42.1744 11.9814 39.1631 13.3462 36.8999 15.6127L36.684 15.8365C36.3241 15.8839 35.9754 15.9921 35.6523 16.1567C35.3181 15.3544 34.6831 14.7143 33.8824 14.3756C33.0822 14.0364 32.1811 14.0241 31.3721 14.3422C30.5636 14.6608 29.9112 15.2829 29.557 16.0764L29.0933 15.6127H29.0928C26.8296 13.3463 23.8182 11.9814 20.6216 11.7733L18.83 9.97319L19.3422 9.46934H19.3416C19.7249 9.07485 19.7249 8.44769 19.3416 8.05319L12.5421 1.26204H12.5427C12.358 1.07178 12.1036 0.965203 11.8385 0.966317H0.999919C0.733207 0.966317 0.477665 1.07233 0.290173 1.26204C0.102137 1.4512 -0.00220718 1.70731 3.54149e-05 1.97403V14.773C0.00059335 15.0397 0.107165 15.2958 0.295758 15.485L6.11937 21.3086V21.3081C6.30684 21.4989 6.56407 21.6055 6.83134 21.6043C7.09638 21.6049 7.35025 21.4983 7.5355 21.3081L8.24748 20.6039L10.1033 22.4597L10.991 26.4593C11.5099 28.8185 12.6951 30.9784 14.4063 32.6829L20.1975 38.4663V41.3059C20.1975 43.8747 20.9334 46.3896 22.3172 48.5534L24.7171 52.289V55.1848L23.5493 55.1843C22.9969 55.1843 22.5494 55.6318 22.5494 56.1842V65.9671C22.5494 66.2322 22.6548 66.4866 22.8423 66.6741C23.0298 66.8616 23.2842 66.967 23.5493 66.967H41.3958C41.6608 66.967 41.9152 66.8616 42.1027 66.6741C42.2902 66.4866 42.3956 66.2322 42.3956 65.9671V56.1842C42.3956 55.9191 42.2902 55.6647 42.1027 55.4772C41.9152 55.2897 41.6608 55.1843 41.3958 55.1843H40.5956V52.3687C42.8538 49.8087 44.0969 46.5111 44.0914 43.0974V39.898C44.4083 39.758 44.6984 39.5632 44.9473 39.3222L51.6184 32.6426C53.3296 30.9385 54.5153 28.778 55.0343 26.4196L55.922 22.42L57.7778 20.5642L58.4897 21.2683V21.2678C58.6744 21.458 58.9283 21.5652 59.1934 21.5641C59.4612 21.5652 59.7179 21.4586 59.9053 21.2678L65.7289 15.4441V15.4447C65.9181 15.2561 66.0247 15 66.0247 14.7327V1.97402C66.0252 1.70341 65.9153 1.44395 65.7206 1.25536C65.5264 1.06676 65.2636 0.965216 64.993 0.974129L64.9928 0.974154ZM6.83097 19.1565L2.03124 14.3567V2.97394H11.3984L17.1896 8.76519L6.83097 19.1565ZM20.2451 30.6995C20.2089 30.7179 20.1743 30.7391 20.1413 30.7631C19.9555 30.9506 19.8523 31.2033 19.8534 31.4672C19.8534 31.7328 19.9567 31.9884 20.1413 32.1792L20.1893 32.2272V35.6347L15.8137 31.2675V31.2669C14.3753 29.8279 13.3787 28.0072 12.9423 26.0197L11.9904 21.716C11.9497 21.5297 11.8582 21.3578 11.7265 21.22L9.65472 19.1561L17.4138 11.3969L19.4856 13.4608H19.485C19.6619 13.6444 19.9029 13.7504 20.1574 13.7571C22.989 13.848 25.679 15.0187 27.6766 17.0285L28.0923 17.4442V17.4447C27.2437 17.4447 26.4301 17.7817 25.8297 18.3816C25.2299 18.9819 24.8929 19.7955 24.8929 20.6442V28.1712C23.9382 27.755 22.8446 27.8041 21.9318 28.3052C21.019 28.8062 20.3901 29.7023 20.2295 30.7312L20.2451 30.6995ZM40.3956 64.9673H24.5489V57.1678H40.3956V64.9673ZM42.0594 43.1053C42.0717 46.1474 40.9279 49.0812 38.8595 51.312C38.691 51.4989 38.5973 51.7411 38.5956 51.9922V55.1916H26.6851V51.9922C26.6879 51.8025 26.6349 51.6161 26.5334 51.456L23.9974 47.4564C22.8156 45.614 22.1879 43.4702 22.1896 41.2813V31.2182C22.1896 30.4672 22.7983 29.8584 23.5494 29.8584C24.3004 29.8584 24.9091 30.4672 24.9091 31.2182V37.3459C24.9091 37.8977 25.3572 38.3458 25.909 38.3458C26.4614 38.3458 26.9089 37.8977 26.9089 37.3459V20.6119C26.9597 20.0021 27.4691 19.5328 28.0812 19.5328C28.6927 19.5328 29.2022 20.0021 29.2529 20.6119V35.6103C29.2529 36.1627 29.7004 36.6102 30.2528 36.6102C30.8046 36.6102 31.2527 36.1627 31.2527 35.6103V17.4437C31.2527 16.7105 31.8469 16.1157 32.5807 16.1157C33.3138 16.1157 33.9081 16.7105 33.9081 17.4437V35.0418C33.9081 35.5942 34.3561 36.0417 34.908 36.0417C35.4604 36.0417 35.9078 35.5942 35.9078 35.0418V19.0435C36.0044 18.456 36.5121 18.0241 37.108 18.0241C37.7034 18.0241 38.2117 18.456 38.3077 19.0435V36.8731C38.3077 37.4255 38.7552 37.873 39.3075 37.873C39.8599 37.873 40.3074 37.4255 40.3074 36.8731V25.8664C40.284 25.6236 40.3643 25.3826 40.5278 25.2024C40.6913 25.0222 40.924 24.9195 41.1673 24.9195C41.4111 24.9195 41.6432 25.0222 41.8067 25.2024C41.9708 25.3826 42.0505 25.6236 42.0271 25.8664L42.0594 43.1053ZM54.2656 21.219C54.1339 21.3568 54.0424 21.5287 54.0017 21.7151L53.0498 26.0188C52.6134 28.0063 51.6169 29.8269 50.1784 31.2659L44.0591 37.3774V33.9699L45.8507 32.1861C46.0354 31.9953 46.1387 31.7397 46.1387 31.4741C46.1364 31.0718 45.8926 30.7097 45.5204 30.5563C45.1488 30.4028 44.7209 30.4871 44.4346 30.7705L44.0585 31.1466L44.0591 25.867C44.0608 25.1082 43.7611 24.3795 43.2255 23.8421C42.6898 23.3053 41.9622 23.0029 41.2034 23.0029C40.9105 23.004 40.6198 23.047 40.3391 23.1312V19.0195C40.3397 17.9839 39.8392 17.0124 38.9956 16.4115C40.9089 14.7777 43.3198 13.8415 45.8346 13.7561C46.0891 13.7494 46.3301 13.6433 46.507 13.4598L48.5787 11.3959L56.3378 19.155L54.2656 21.219ZM63.9928 14.3319L59.193 19.1317L48.7941 8.73263L54.5937 2.97323H63.9928V14.3319Z" fill="#E70C53"/>
</svg>
