<svg width="54" height="67" viewBox="0 0 54 67" fill="none" xmlns="http://www.w3.org/2000/svg">
<path d="M37.576 8.89231C42.4101 10.5542 46.5643 13.7264 49.4959 17.8156C52.3392 21.7962 54.0011 26.6732 54.0011 31.9227C54.0011 38.6593 51.2891 44.7392 46.8711 49.1353C42.4747 53.5532 36.3733 56.2867 29.6587 56.2867C25.5034 56.2867 21.5886 55.2367 18.155 53.3993C14.612 51.4742 11.5939 48.7192 9.36262 45.3727L8.42188 43.9292H16.6012L16.8859 44.2139C18.5263 45.9415 20.517 47.3193 22.7248 48.26C24.8462 49.1572 27.1869 49.6598 29.6577 49.6598C34.5569 49.6598 38.9963 47.6691 42.2114 44.4765C45.4051 41.2613 47.3947 36.8217 47.3947 31.9226C47.3947 27.9647 46.1041 24.2894 43.8949 21.3374C41.642 18.3192 38.4496 16.0448 34.7311 14.9291L33.6596 14.6013L34.1844 13.6175L36.4588 9.33084L36.8306 8.65271L37.576 8.89231ZM47.9867 18.8651C45.4497 15.3006 41.8632 12.5004 37.7073 10.9041L36.3296 13.5069C39.9607 14.8411 43.1097 17.2032 45.3847 20.2435C47.8119 23.5028 49.2338 27.5485 49.2338 31.9224C49.2338 37.3463 47.0472 42.224 43.5037 45.7663C39.9608 49.3093 35.0618 51.518 29.66 51.518C26.948 51.518 24.3674 50.9491 22.0053 49.9432C19.6873 48.9588 17.5873 47.5374 15.8376 45.7878H11.9228C13.8468 48.2376 16.2751 50.293 19.0301 51.7591C22.2012 53.4652 25.8102 54.4269 29.6589 54.4269C35.8696 54.4269 41.513 51.9113 45.5803 47.8443C49.6479 43.7767 52.1628 38.1557 52.1628 31.9227C52.1639 27.0671 50.6106 22.5623 47.9866 18.8655L47.9867 18.8651Z" fill="#E70C53"/>
<path d="M35.8252 1.45698L37.6405 2.4408L37.7718 2.50647C38.6685 3.03175 39.3024 3.88426 39.6087 4.82502C39.8934 5.80938 39.8277 6.9245 39.303 7.90893L39.2373 8.01873L31.0359 23.4817H31.0144C30.5112 24.4655 29.6146 25.1436 28.6313 25.4499C27.6469 25.7556 26.5313 25.6684 25.5689 25.1436L23.6223 24.1151C22.6385 23.5904 21.9604 22.7153 21.6541 21.7309C21.3694 20.8127 21.4136 19.8068 21.829 18.8875V18.8649L21.9388 18.6464L30.2274 3.07459L30.2931 2.94327C30.8178 2.02509 31.6709 1.39104 32.6111 1.10639C33.6169 0.80015 34.7105 0.88735 35.6949 1.3911L35.8252 1.45698ZM36.6561 3.99405L34.8408 3.03174L34.7967 3.01021C34.2714 2.74811 33.681 2.70397 33.1563 2.85682C32.6095 3.03173 32.1504 3.40364 31.8657 3.92837L31.8001 4.05969L23.5776 19.5227C23.2934 20.0474 23.2498 20.6599 23.4027 21.1846C23.5555 21.6878 23.9059 22.1474 24.3649 22.4316L24.4747 22.4972L26.4208 23.5247C26.9671 23.8094 27.558 23.8524 28.1054 23.6775C28.6307 23.5247 29.1113 23.1528 29.3955 22.606L37.6852 7.03414V7.01261L37.6112 5.21633L36.6561 3.99405Z" fill="#E70C53"/>
<path d="M23.9703 22.4965L26.0483 23.6121C26.5951 23.8968 26.989 24.4001 27.164 24.9678C27.3389 25.5367 27.2953 26.1707 27.0111 26.7395L25.918 28.796C25.6118 29.3423 25.1086 29.7367 24.5403 29.9111C23.9714 30.086 23.3374 30.0425 22.7686 29.7583L20.6907 28.6426C20.1444 28.3369 19.7499 27.8332 19.575 27.2648C19.4222 26.7831 19.4437 26.2589 19.6407 25.7558V25.7116L19.7505 25.5146L20.7127 23.6552L20.8225 23.4582C21.1288 22.8893 21.632 22.4954 22.2003 22.321C22.682 22.1897 23.2282 22.1897 23.7308 22.3867H23.7524L23.9703 22.4965ZM25.1743 25.23L23.2933 24.2241L23.0964 24.1143C22.9866 24.0702 22.8558 24.0486 22.7245 24.0928C22.6147 24.1143 22.5275 24.2026 22.4624 24.3118L21.4786 26.1707L21.3688 26.3677C21.3031 26.4775 21.3031 26.6082 21.3247 26.7396C21.3688 26.8267 21.4119 26.9145 21.4996 26.9801L21.5652 27.0243L23.6432 28.1173C23.753 28.183 23.8837 28.183 24.0151 28.1615C24.1249 28.1173 24.2341 28.0517 24.2772 27.9209L25.3702 25.8644C25.4359 25.7546 25.4359 25.6239 25.4143 25.5151C25.3708 25.4048 25.3046 25.2955 25.1743 25.2299L25.1743 25.23Z" fill="#E70C53"/>
<path d="M29.6583 54.5808C33.6172 54.5808 37.3566 55.5216 40.659 57.2051C44.0926 58.9332 47.0672 61.4703 49.3194 64.5537L50.391 66.0187H41.8392L41.5771 65.7781C39.9808 64.3131 38.0999 63.1538 36.0445 62.3664C34.0764 61.6011 31.9113 61.1851 29.6583 61.1851C27.406 61.1851 25.2619 61.6011 23.2721 62.3664C21.2157 63.1543 19.3573 64.3131 17.7396 65.7781L17.4775 66.0187H8.9472L10.0187 64.5537C12.2717 61.4698 15.2241 58.9327 18.6577 57.2051C21.9601 55.521 25.6993 54.5808 29.6583 54.5808ZM39.8284 58.8449C36.7888 57.2927 33.333 56.4177 29.6589 56.4177C26.0062 56.4177 22.5516 57.2928 19.4893 58.8449C16.8866 60.1576 14.5681 61.9729 12.6657 64.1596H16.7995C18.5056 62.6726 20.4738 61.4698 22.6169 60.6387C24.8035 59.8077 27.1877 59.3481 29.6585 59.3481C32.1299 59.3481 34.514 59.8077 36.7001 60.6387C38.8658 61.4696 40.8334 62.6726 42.54 64.1596H46.6518C44.7493 61.9729 42.4308 60.1576 39.8287 58.8449H39.8284Z" fill="#E70C53"/>
<path d="M0.919573 36.8213H29.285V41.742C29.285 42.8576 28.8259 43.8634 28.1036 44.5852V44.6068C27.3599 45.329 26.354 45.7881 25.2389 45.7881H4.0461C2.93097 45.7881 1.92462 45.329 1.18132 44.6068V44.5852C0.460144 43.8641 0 42.8577 0 41.742V36.8213H0.919573ZM27.4484 38.6592H1.83716V41.7431C1.83716 42.334 2.07773 42.9018 2.49375 43.2962C2.88717 43.6896 3.4345 43.9302 4.04594 43.9302H25.2387C25.8511 43.9302 26.3974 43.6896 26.7918 43.2962H26.8134C27.2068 42.9028 27.4474 42.3339 27.4474 41.7431L27.4484 38.6592Z" fill="#E70C53"/>
</svg>
