<svg width="66" height="67" viewBox="0 0 66 67" fill="none" xmlns="http://www.w3.org/2000/svg">
<path d="M58.5334 38.5305C59.3214 34.8945 59.3214 31.1318 58.5334 27.4959C66.0471 15.8832 68.0195 6.44702 63.792 2.20812C60.0502 -1.52263 52.1975 -0.436024 42.2456 5.19165L43.317 7.08671C52.2202 2.05268 59.3004 0.802292 62.2512 3.74786C65.4188 6.9243 63.6352 15.0056 57.7471 24.6561H57.7476C55.6985 18.5696 51.4783 13.4514 45.8935 10.2792C40.3087 7.10811 33.7517 6.10564 27.4746 7.46393C15.8607 -0.0412558 6.41856 -2.01883 2.1847 2.20961C-1.56007 5.96463 -0.454059 13.8465 5.22071 23.8447L7.11574 22.7688C2.03561 13.8242 0.769181 6.71428 3.72442 3.74979C6.9043 0.581075 14.9853 2.36674 24.6324 8.2539V8.25341C19.4501 10.0001 14.946 13.3288 11.7553 17.7703C8.56474 22.2121 6.84867 27.5433 6.84867 33.0121C6.84867 38.481 8.56474 43.8123 11.7553 48.254C14.9459 52.6955 19.4499 56.0241 24.6324 57.7708C14.9756 63.659 6.89422 65.4436 3.72442 62.2769C0.784239 59.3236 2.0259 52.2487 7.05638 43.35L5.16135 42.2785C-0.460407 52.2246 -1.546 60.0742 2.18669 63.8165C3.86431 65.3508 6.09088 66.1413 8.36014 66.0075C13.242 66.0075 19.8944 63.4537 27.4685 58.5558C33.7465 59.9161 40.3058 58.9146 45.8924 55.7434C51.4787 52.5718 55.6999 47.4522 57.749 41.364C63.6371 51.0189 65.4208 59.0999 62.255 62.2723C59.2278 65.2931 51.9382 63.9251 42.7633 58.6154L41.6744 60.4993C47.9719 64.1483 53.4482 66.0074 57.6204 66.0074C59.8902 66.1411 62.1177 65.3501 63.7949 63.8154C68.0199 59.5825 66.0457 50.1416 58.5343 38.5289L58.5334 38.5305ZM51.0662 39.688L50.1819 38.512C51.2529 37.2776 52.2806 36.038 53.266 34.7929C54.3068 36.1838 55.2868 37.5684 56.2062 38.9461V38.9466C55.5533 41.4848 54.4862 43.898 53.0482 46.0891L51.5017 44.5451V40.9948C51.4993 40.5242 51.3467 40.0663 51.0662 39.6881L51.0662 39.688ZM48.2349 35.9204V32.4031C48.2315 31.8246 48.0026 31.2699 47.5966 30.8576L46.219 29.4911H46.2194C45.9365 29.2028 45.5792 28.9986 45.1874 28.9009C44.795 28.8037 44.3838 28.8168 43.9987 28.9388L41.6531 29.7011L38.2383 28.8747L37.4226 25.5912L39.0224 23.212H42.4633L44.5945 24.6277C47.2211 27.3588 49.682 30.1814 51.9071 33.0128C50.9299 34.2558 49.9095 35.4941 48.8458 36.7283L48.2349 35.9204ZM52.3248 18.8901V18.8896C53.144 20.0078 53.8649 21.1949 54.479 22.4376L51.3123 24.245L46.4849 23.2737L45.9885 22.947C45.5092 22.4516 45.0304 21.9538 44.5403 21.4648C43.6166 20.5401 42.676 19.6408 41.7299 18.7545L41.7294 18.755C41.9652 18.7793 42.2029 18.7633 42.4329 18.7069L45.9306 17.8357L49.3589 19.5454C49.7011 19.7166 50.0832 19.7948 50.4653 19.7715C50.8479 19.7482 51.2174 19.6242 51.5368 19.4127L52.3248 18.8901ZM55.3563 24.4439L55.3568 24.4434C55.6894 25.3053 55.9713 26.1857 56.2017 27.0798C55.2878 28.4557 54.3077 29.8397 53.2616 31.232C51.8566 29.4634 50.3671 27.7016 48.8022 25.9636L50.9159 26.387V26.3875C51.4239 26.474 51.9465 26.3831 52.3958 26.1294L55.3563 24.4439ZM54.6466 33.0128C55.3782 32.0478 56.0913 31.0832 56.7656 30.1226C57.0067 32.0424 57.0067 33.9845 56.7656 35.9038C56.0918 34.9422 55.3782 33.9777 54.6466 33.0128ZM50.9572 17.1872L50.3374 17.6L46.928 15.8999C46.4598 15.6525 45.9163 15.5883 45.4035 15.7196L41.9057 16.5907L39.9456 15.2927L41.2003 13.4118H45.7301C45.997 13.4055 46.261 13.3501 46.5075 13.2475C48.1473 14.3729 49.6417 15.6963 50.9571 17.1872L50.9572 17.1872ZM42.9514 11.2339H41.2004C40.4692 11.2353 39.7867 11.6004 39.3808 12.2086L38.1207 14.0914C37.9044 14.4259 37.7843 14.8139 37.7731 15.212C37.0152 14.5649 36.2549 13.9335 35.4926 13.317H35.4931C35.5427 12.77 35.3833 12.2246 35.0473 11.7904C34.7109 11.3563 34.2229 11.0656 33.6809 10.9766L32.1563 10.7184C31.4709 10.2104 30.7869 9.71601 30.1039 9.2362V9.23668C31.0611 9.11855 32.0251 9.05827 32.9897 9.05584C36.4286 9.0539 39.8272 9.79721 42.9517 11.2338L42.9514 11.2339ZM26.6457 9.9149L27.4167 11.2805C27.7269 11.8765 28.3015 12.2903 28.965 12.3948L31.2626 12.7793C31.7677 13.1585 32.2742 13.5416 32.7794 13.9349L32.3112 14.632L28.7177 15.5304L28.7182 15.53C28.2437 15.6539 27.8256 15.9364 27.5334 16.3302L24.6521 20.1809L20.6566 22.178L16.2278 23.0579C15.7339 23.1566 15.2896 23.4235 14.9702 23.8129C14.6508 24.2028 14.4768 24.6909 14.4768 25.1946V26.9807V26.9803C14.4792 27.7129 14.8468 28.3959 15.4569 28.8014L17.7437 30.3347V32.3458L13.0077 29.971L10.0384 26.1596V26.1591C11.209 22.2694 13.346 18.7391 16.2503 15.8985C19.1545 13.058 22.731 10.9997 26.6459 9.91504L26.6457 9.9149ZM9.03201 33.0135C9.03395 31.6285 9.15549 30.2459 9.39564 28.8818L11.2751 31.2916V31.2921C11.4759 31.5546 11.7336 31.768 12.0286 31.9168L16.7709 34.2959L16.7714 34.2964C17.0733 34.4452 17.4058 34.523 17.7427 34.5239H17.7719C17.7587 34.5959 17.749 34.6688 17.7437 34.7417V38.0174C17.748 38.591 17.977 39.1404 18.382 39.5473L20.1156 41.2809C20.2809 41.4467 20.4724 41.5847 20.6819 41.6893L22.0976 42.3981V45.9177C22.0956 46.1516 22.1326 46.384 22.2065 46.6061L24.15 52.434C24.3703 53.086 24.8831 53.5964 25.5361 53.8127L26.8604 54.2483C27.5244 54.4681 28.2536 54.3553 28.8205 53.9455C29.3873 53.5356 29.7228 52.8789 29.7223 52.1793V48.9318L32.8739 47.3538V47.3543C33.2341 47.1758 33.538 46.9002 33.7509 46.5589C33.9633 46.2176 34.0766 45.8234 34.0781 45.4213L34.0902 43.6027L35.9853 42.9731H35.9848C36.6936 42.7393 37.2322 42.1579 37.4116 41.4335L38.0212 38.9853C38.1836 38.3348 38.0373 37.6459 37.6245 37.1175C37.2118 36.5895 36.5789 36.2803 35.9085 36.2803H34.6377L33.1326 33.9935H33.1331C32.731 33.3804 32.0465 33.0119 31.3134 33.0134H27.9984L25.6572 30.6449C25.3121 30.2963 24.8599 30.0747 24.3729 30.0154C23.8862 29.956 23.3938 30.063 22.9753 30.3182L19.9218 32.1802V30.3289C19.9194 29.5968 19.5519 28.9138 18.9418 28.5083L16.655 26.9804V25.1942L21.1197 24.3065V24.307C21.2986 24.2666 21.4712 24.2049 21.635 24.1218L25.6282 22.1237C25.932 21.9749 26.194 21.7527 26.3904 21.4766L29.2684 17.6326L32.8293 16.742C33.3626 16.6238 33.8279 16.3001 34.1239 15.8412L34.4875 15.2967C36.6805 17.0857 38.8599 18.9992 40.9853 21.0289H39.0252V21.0294C38.2945 21.0308 37.6124 21.3954 37.2056 22.0026L35.595 24.4106C35.2737 24.9181 35.174 25.535 35.3199 26.1179L36.1259 29.4043L36.1254 29.4048C36.2246 29.7893 36.4259 30.1403 36.7088 30.4193C36.9912 30.6989 37.3447 30.8958 37.7307 30.9901L41.1011 31.8078C41.5055 31.9196 41.9338 31.9074 42.3315 31.7733L44.6693 31.0207L46.0567 32.4038V35.9211C46.0591 36.3917 46.2118 36.8496 46.4923 37.2278L47.3722 38.3985C45.9688 39.9643 44.5127 41.5127 42.9998 43.0247V43.0242C38.1296 47.9352 32.7889 52.3572 27.055 56.2262C21.903 54.9019 17.3371 51.9035 14.0747 47.7016C10.8122 43.4998 9.03871 38.3331 9.03187 33.0136L9.03201 33.0135ZM23.0802 40.4501L21.6645 39.7413L19.9222 38.0077V34.7321L24.1103 32.1774L26.4559 34.5445C26.8643 34.9563 27.4195 35.1887 27.9989 35.1916H31.3139L32.82 37.4784C33.223 38.0905 33.9066 38.459 34.6397 38.4585H35.9079L35.2983 40.9077L33.4058 41.5349C32.9736 41.6783 32.5968 41.953 32.329 42.3214C32.0616 42.6895 31.9158 43.1323 31.9128 43.5874L31.9007 45.406L28.7491 46.9841C28.3864 47.1635 28.0811 47.4416 27.8682 47.7858C27.6553 48.13 27.5434 48.5271 27.5449 48.9321V52.1796L26.2216 51.744L24.278 45.9181V42.3984C24.28 41.9944 24.1691 41.5977 23.9572 41.2535C23.7457 40.9089 23.4419 40.6308 23.0802 40.4504L23.0802 40.4501ZM32.9897 56.9714C32.0232 56.9689 31.0578 56.9087 30.0986 56.7905C35.2532 53.1357 40.0844 49.0453 44.5401 44.5649C45.9766 43.1299 47.366 41.6607 48.7064 40.1754L49.3237 40.9961V44.5464C49.3247 45.1215 49.5532 45.6733 49.9587 46.0816L51.7574 47.8804C49.5182 50.7145 46.6665 53.0044 43.4162 54.579C40.1659 56.153 36.601 56.9713 32.9895 56.9713L32.9897 56.9714Z" fill="#E70C53"/>
</svg>
