<svg width="40" height="41" viewBox="0 0 40 41" fill="none" xmlns="http://www.w3.org/2000/svg">
<path fill-rule="evenodd" clip-rule="evenodd" d="M5.56315e-06 20.0314C6.5288e-06 8.98547 8.95431 0.031007 20 0.0310079C31.0457 0.0310089 40 8.98548 40 20.0314C40 31.0773 31.0457 40.0317 20 40.0317C14.6957 40.0317 9.6086 37.9246 5.85787 34.1738C2.10714 30.423 5.09943e-06 25.3358 5.56315e-06 20.0314ZM16.2 28.6318L7.59997 20.0319L16.2 11.4319L17.6 12.8319L11.4 19.0319L30 19.0319L30 21.0319L11.6 21.0319L17.6 27.2318L16.2 28.6318ZM20 38.032C10.0589 38.032 2 29.9729 2 20.0315C2 10.0901 10.0589 2.03101 20 2.03101C29.9411 2.03101 38 10.0901 38 20.0315C38 29.9729 29.9411 38.032 20 38.032Z" fill="#0B2C6E"/>
</svg>
