<svg width="64" height="67" viewBox="0 0 64 67" fill="none" xmlns="http://www.w3.org/2000/svg">
<path d="M20.8477 48.6484H23.1641V50.9649H20.8477V48.6484Z" fill="#E70C53"/>
<path d="M51.4007 52.2196L54.412 52.2708H54.4306V52.2703C54.8644 52.2708 55.2615 52.0283 55.4606 51.6426C55.6591 51.2568 55.6255 50.7925 55.3732 50.4394L49.5822 42.3318C49.3753 42.0417 49.0465 41.8633 48.6902 41.8478C48.3345 41.8266 47.9901 41.9766 47.7637 42.2517L47.1396 42.9802C45.3697 39.1478 42.168 36.1622 38.2214 34.6643V15.0606H44.0124C44.471 15.0606 44.8868 14.7901 45.0719 14.3708C45.2575 13.9515 45.1784 13.4623 44.8697 13.1226L33.2876 0.382156C33.0622 0.151543 32.7529 0.0212402 32.4303 0.0212402C32.1077 0.0212402 31.7985 0.151541 31.573 0.382156L19.9909 13.1226C19.6822 13.4623 19.6031 13.9515 19.7887 14.3708C19.9739 14.7901 20.3896 15.0606 20.8482 15.0606H26.6393V34.6789C21.8828 36.4959 18.2567 40.4426 16.8487 45.3361C15.4407 50.2296 16.4144 55.5 19.4779 59.567C22.5416 63.6343 27.3383 66.0246 32.4303 66.0221C32.7669 66.0221 33.1014 66.0123 33.4344 65.9921V65.9699C33.908 66.0024 34.3724 66.0221 34.8243 66.0221C46.6903 66.0221 50.4978 55.5075 51.4006 52.22L51.4007 52.2196ZM52.1478 49.9161L50.5124 49.8872C49.9421 49.8706 49.4478 50.2776 49.3542 50.8401C49.2766 51.2688 47.7766 59.0169 41.2364 62.2775C44.5456 59.4854 46.7513 55.6043 47.4571 51.3323C47.5228 50.9931 47.4333 50.642 47.2131 50.3752C46.9933 50.1084 46.6655 49.9538 46.3196 49.9538H44.2038L48.5527 44.8809L52.1478 49.9161ZM27.7976 12.7445H23.4672L32.4304 2.88356L41.3937 12.7445H37.0633C36.4237 12.7445 35.9051 13.2631 35.9051 13.9027V33.975C33.6171 33.4642 31.2438 33.4642 28.9558 33.975V13.9027C28.9558 13.5956 28.8338 13.3008 28.6166 13.0837C28.3994 12.8665 28.1047 12.7445 27.7976 12.7445ZM18.5319 49.8076C18.5376 45.4332 20.6028 41.3164 24.1052 38.6965C27.6083 36.076 32.1403 35.2579 36.3383 36.488C40.5363 37.7176 43.9101 40.8526 45.4453 44.9487L40.8067 50.3598C40.513 50.7037 40.4458 51.1866 40.6346 51.5972C40.8233 52.0077 41.2338 52.2709 41.6857 52.2709H44.8661C44.2343 55.0956 42.7952 57.6763 40.725 59.6985C38.6541 61.7212 36.0404 63.0982 33.2018 63.6633C33.1785 63.6633 33.1599 63.6809 33.1372 63.6855C32.9055 63.6969 32.6739 63.7062 32.4309 63.7062H32.4304C28.7453 63.7021 25.2128 62.2367 22.6068 59.6313C20.0012 57.0252 18.5359 53.4927 18.5318 49.8076L18.5319 49.8076Z" fill="#E70C53"/>
<path d="M17.3732 32.433V27.8002H20.8478C21.2863 27.8002 21.6875 27.5525 21.884 27.1601C22.08 26.7676 22.0376 26.2981 21.7744 25.9471L14.8251 16.6814C14.5971 16.4043 14.2574 16.244 13.8986 16.244C13.5397 16.244 13.2 16.4043 12.972 16.6814L6.02271 25.9471C5.75953 26.2981 5.71713 26.7676 5.9131 27.1601C6.10958 27.5525 6.51081 27.8002 6.94928 27.8002H10.4239V32.433C10.4239 32.7401 10.5459 33.0348 10.7631 33.252C10.9803 33.4692 11.275 33.5912 11.5821 33.5912H16.215C16.5221 33.5912 16.8168 33.4692 17.034 33.252C17.2512 33.0348 17.3732 32.7401 17.3732 32.433H17.3732ZM15.0568 26.642V31.2748H12.7403V26.642C12.7403 26.3349 12.6183 26.0401 12.4012 25.823C12.184 25.6058 11.8893 25.4838 11.5821 25.4838H9.26571L13.8986 19.3071L18.5314 25.4838H16.215C15.5754 25.4838 15.0568 26.0024 15.0568 26.642Z" fill="#E70C53"/>
<path d="M6.94922 55.4506V53.1342H9.26563V50.8177H6.94922V48.5013H4.63281V50.8177H2.31641V53.1342H4.63281V55.4506H6.94922Z" fill="#E70C53"/>
<path d="M0 42.7102H2.31642V45.0266H0V42.7102Z" fill="#E70C53"/>
<path d="M11.582 54.2925H13.8984V56.6089H11.582V54.2925Z" fill="#E70C53"/>
<path d="M60.2266 31.2749V28.9585H62.543V26.6421H60.2266V24.3257H57.9102V26.6421H55.5938V28.9585H57.9102V31.2749H60.2266Z" fill="#E70C53"/>
<path d="M48.6445 23.1674H50.9609V25.4838H48.6445V23.1674Z" fill="#E70C53"/>
<path d="M61.3848 35.9077H63.7012V38.2241H61.3848V35.9077Z" fill="#E70C53"/>
<path d="M57.9102 13.9014H60.2266V16.2178H57.9102V13.9014Z" fill="#E70C53"/>
<path d="M1.1582 60.0835H3.47462V62.3999H1.1582V60.0835Z" fill="#E70C53"/>
<path d="M36.7164 53.0368C36.594 52.928 36.4036 52.928 36.2948 53.0504C35.6556 53.6896 34.8396 54.0296 34.0236 54.0296C32.8268 54.0296 31.6844 53.2952 31.0316 52.0848L34.1324 52.0847C34.3093 52.0847 34.4452 51.9487 34.4452 51.772V50.7112C34.4452 50.5343 34.3092 50.3984 34.1324 50.3984H30.4876C30.4604 50.1943 30.4604 49.9904 30.4604 49.8C30.4604 49.6096 30.474 49.4056 30.5012 49.188H34.1324C34.3092 49.188 34.4452 49.0519 34.4452 48.8752V47.8144C34.4452 47.6376 34.3091 47.5016 34.1324 47.5016L31.0316 47.5015C31.6844 46.3047 32.8132 45.5568 34.0236 45.5568C34.8532 45.5568 35.6556 45.9104 36.2948 46.5496C36.4172 46.6719 36.6076 46.6719 36.7164 46.5631L37.8995 45.4751C37.9676 45.4207 37.9948 45.3391 38.0084 45.2439C38.0084 45.1623 37.9811 45.0807 37.9268 45.0127C36.8524 43.9247 35.4788 43.3263 34.0372 43.3263C31.6572 43.3263 29.4948 44.9991 28.638 47.4879H27.3323C27.1555 47.4879 27.0195 47.6239 27.0195 47.8007V48.8615C27.0195 49.0383 27.1556 49.1742 27.3323 49.1742H28.2843C28.2707 49.3919 28.2571 49.5958 28.2571 49.7862C28.2571 49.9766 28.2706 50.1806 28.2843 50.3846H27.3323C27.1555 50.3846 27.0195 50.5207 27.0195 50.6974V51.7582C27.0195 51.9351 27.1556 52.071 27.3323 52.071H28.638C29.4948 54.5598 31.6572 56.2326 34.0372 56.2326C35.4787 56.2326 36.866 55.6342 37.9268 54.5462C37.9811 54.4918 38.022 54.4101 38.022 54.315C38.022 54.2334 37.9812 54.1518 37.9132 54.0838L36.7164 53.0368Z" fill="#E70C53"/>
</svg>
