<svg width="240" height="60" viewBox="0 0 240 60" fill="none" xmlns="http://www.w3.org/2000/svg">
<g clip-path="url(#clip0_4659_26785)">
<path d="M0 2.35294C0 0.784314 0.849949 0 2.60934 0C4.36874 0 5.21868 0.784314 5.21868 2.35294C5.2314 2.6669 5.17989 2.98014 5.06734 3.27338C4.95478 3.56661 4.78356 3.83362 4.56422 4.05797C4.01809 4.51254 3.31687 4.73577 2.60934 4.68031C0.849949 4.71441 0 3.93009 0 2.35294ZM4.9977 24.5183H0.203988V6.90537H4.9977V24.5183Z" fill="#0B2C6E"/>
<path d="M26.2548 24.5357H21.4611V14.2374C21.5286 13.2355 21.2916 12.2367 20.7811 11.3729C20.53 11.0476 20.2016 10.7906 19.826 10.6253C19.4504 10.46 19.0395 10.3917 18.6308 10.4266C18.0712 10.3774 17.5086 10.4759 16.9987 10.7122C16.4888 10.9485 16.0493 11.3144 15.724 11.7736C15.1177 12.6659 14.8173 14.1549 14.823 16.2408V24.5357H10.0293V6.90572H13.6926L14.3385 9.16489H14.602C15.1338 8.31664 15.9022 7.64373 16.8119 7.22968C17.8165 6.77929 18.9074 6.55522 20.0077 6.57324C20.8595 6.5184 21.7133 6.64164 22.5151 6.93515C23.3168 7.22865 24.0491 7.68602 24.6654 8.27827C25.8021 9.61066 26.3727 11.3369 26.2548 13.0865V24.5357Z" fill="#0B2C6E"/>
<path d="M38.3244 24.8514C32.8564 24.8514 30.1224 21.8392 30.1224 15.8147C30.1224 12.8224 30.8619 10.5291 32.3493 8.99461C33.8367 7.46008 35.9701 6.61609 38.7494 6.61609C40.6303 6.57563 42.4951 6.97246 44.1976 7.77551L42.7782 11.4925C42.0217 11.1941 41.3248 10.9383 40.6703 10.7423C40.0383 10.5544 39.3831 10.4568 38.7239 10.4524C36.2336 10.4524 34.9841 12.2342 34.9841 15.7806C34.9841 19.3271 36.2336 20.9554 38.7239 20.9554C39.5874 20.9629 40.4471 20.8393 41.2738 20.5888C42.1086 20.3143 42.901 19.924 43.6281 19.4294V23.5385C42.9053 24.0101 42.1098 24.3586 41.2738 24.5701C40.3042 24.7738 39.3149 24.8682 38.3244 24.8514Z" fill="#0B2C6E"/>
<path d="M55.6973 24.8505C52.8641 24.8505 50.6514 24.0662 49.0592 22.4976C47.4698 20.9375 46.6708 18.7124 46.6708 15.848C46.6708 12.9835 47.4103 10.605 48.8807 9.02783C49.6626 8.20079 50.6135 7.55316 51.6684 7.12936C52.7232 6.70556 53.8569 6.51563 54.9918 6.57259C56.0523 6.50854 57.1145 6.66478 58.1119 7.03151C59.1093 7.39825 60.0206 7.96759 60.7885 8.70388C61.514 9.49326 62.0744 10.4205 62.4364 11.4309C62.7985 12.4413 62.9549 13.5142 62.8964 14.5862V16.9221H51.5325C51.5109 18.1036 51.943 19.2483 52.7395 20.1191C53.1591 20.5264 53.658 20.8426 54.2049 21.0479C54.7518 21.2533 55.3351 21.3434 55.9183 21.3126C56.9278 21.3177 57.9345 21.2062 58.9186 20.9801C59.9387 20.7327 60.9301 20.3783 61.8764 19.923V23.6485C61.0212 24.0734 60.1159 24.3885 59.1821 24.5862C58.0327 24.7945 56.8649 24.8831 55.6973 24.8505ZM55.0173 9.9997C54.5734 9.97718 54.1299 10.0517 53.7176 10.218C53.3052 10.3843 52.9338 10.6385 52.629 10.963C52.0038 11.7452 51.6568 12.7143 51.643 13.7167H58.3661C58.4109 12.715 58.0805 11.7327 57.4397 10.963C57.1277 10.6386 56.7501 10.3848 56.3324 10.2187C55.9146 10.0525 55.4662 9.97786 55.0173 9.9997Z" fill="#0B2C6E"/>
<path d="M82.9888 24.5357H78.1951V14.2374C78.2626 13.2355 78.0255 12.2367 77.5151 11.3729C77.2639 11.0476 76.9356 10.7906 76.56 10.6253C76.1843 10.46 75.7734 10.3917 75.3647 10.4266C74.8041 10.3785 74.2406 10.4773 73.7295 10.7135C73.2184 10.9496 72.7773 11.3149 72.4494 11.7736C71.8828 12.6659 71.5994 14.1549 71.5994 16.2408V24.5357H66.7632V6.90572H70.4265L71.0725 9.16489H71.336C71.8677 8.31664 72.6361 7.64373 73.5458 7.22968C74.5505 6.77929 75.6414 6.55522 76.7416 6.57324C77.5934 6.5184 78.4472 6.64164 79.249 6.93515C80.0508 7.22865 80.7831 7.68602 81.3994 8.27827C82.536 9.61066 83.1066 11.3369 82.9888 13.0865V24.5357Z" fill="#0B2C6E"/>
<path d="M95.33 21.0148C96.3571 20.9832 97.3738 20.7993 98.3473 20.4692V24.0498C96.9505 24.6186 95.4515 24.8914 93.9446 24.8511C92.0237 24.8511 90.6269 24.3652 89.7543 23.3933C88.7888 22.1503 88.3192 20.5913 88.4369 19.0199V10.4948H86.142V8.52548L88.7854 6.91423L90.1708 3.19727H93.2391V6.90571H98.1518V10.5204H93.2391V19.0455C93.2155 19.3237 93.2544 19.6037 93.3529 19.8649C93.4515 20.126 93.6072 20.3617 93.8086 20.5545C94.2445 20.8854 94.7843 21.0488 95.33 21.0148Z" fill="#0B2C6E"/>
<path d="M101.697 2.35294C101.697 0.784314 102.547 0 104.306 0C106.065 0 106.915 0.784314 106.915 2.35294C106.928 2.6669 106.877 2.98014 106.764 3.27338C106.651 3.56661 106.48 3.83362 106.261 4.05797C105.715 4.51254 105.014 4.73577 104.306 4.68031C102.564 4.71441 101.697 3.93009 101.697 2.35294ZM106.694 24.5183H101.901V6.90537H106.694V24.5183Z" fill="#0B2C6E"/>
<path d="M115.908 24.5353L109.21 6.90527H114.225L117.625 16.9479C117.986 18.1246 118.222 19.3362 118.33 20.5626H118.432C118.521 19.3336 118.758 18.1199 119.137 16.9479L122.537 6.90527H127.492L120.795 24.5353H115.908Z" fill="#0B2C6E"/>
<path d="M129.83 2.35294C129.83 0.784314 130.68 0 132.439 0C134.198 0 135.048 0.784314 135.048 2.35294C135.063 2.66635 135.013 2.97937 134.902 3.27264C134.79 3.56592 134.621 3.8332 134.402 4.05797C133.853 4.51226 133.149 4.73531 132.439 4.68031C130.705 4.71441 129.83 3.93009 129.83 2.35294ZM134.827 24.5183H130.042V6.90537H134.836L134.827 24.5183Z" fill="#0B2C6E"/>
<path d="M140.037 22.276C140.01 21.9125 140.058 21.5473 140.18 21.2038C140.301 20.8603 140.493 20.546 140.743 20.2811C141.31 19.7936 142.046 19.5514 142.791 19.6076C143.157 19.5836 143.524 19.6323 143.871 19.7508C144.218 19.8693 144.539 20.0553 144.814 20.2981C145.062 20.5625 145.254 20.8753 145.377 21.217C145.499 21.5587 145.551 21.922 145.528 22.2845C145.548 22.6449 145.495 23.0057 145.371 23.3444C145.246 23.6832 145.054 23.9927 144.805 24.2538C144.534 24.5018 144.216 24.6929 143.87 24.8159C143.524 24.9388 143.158 24.9912 142.791 24.9699C142.046 25.015 141.313 24.7638 140.751 24.2709C140.501 24.0061 140.308 23.692 140.185 23.3486C140.063 23.0052 140.012 22.64 140.037 22.276Z" fill="#E70C53"/>
<path d="M167.738 6.90537V9.37766L164.984 10.0852C165.492 10.8745 165.755 11.7972 165.74 12.7366C165.783 13.5766 165.627 14.4148 165.284 15.1825C164.941 15.9501 164.422 16.6253 163.768 17.1526C162.178 18.3005 160.243 18.8663 158.286 18.7553L157.436 18.7127L156.722 18.636C156.508 18.7717 156.33 18.9573 156.203 19.1769C156.075 19.3966 156.003 19.6439 155.991 19.8977C155.991 20.5882 156.841 20.9378 158.626 20.9378H161.618C163.18 20.8273 164.732 21.2609 166.012 22.1654C166.531 22.6153 166.938 23.1798 167.202 23.8144C167.466 24.4491 167.58 25.1365 167.534 25.8227C167.565 26.7755 167.346 27.7199 166.899 28.5609C166.451 29.402 165.791 30.11 164.984 30.6138C163.284 31.7477 160.811 32.3188 157.598 32.3188C155.641 32.4404 153.69 31.9934 151.98 31.0315C151.368 30.6556 150.866 30.1239 150.526 29.4905C150.186 28.8571 150.019 28.1446 150.042 27.4254C150.018 26.9332 150.092 26.4412 150.258 25.9775C150.424 25.5138 150.68 25.0875 151.011 24.7229C151.807 23.9341 152.818 23.4 153.917 23.1884C153.405 22.9705 152.961 22.6168 152.634 22.1654C152.281 21.7386 152.086 21.2025 152.082 20.6479C152.055 20.027 152.261 19.4185 152.66 18.9429C153.155 18.4175 153.729 17.9718 154.359 17.6215C153.441 17.2423 152.665 16.5832 152.141 15.7374C151.589 14.7925 151.309 13.7123 151.334 12.6172C151.285 11.7788 151.427 10.9403 151.752 10.1659C152.076 9.39157 152.572 8.70198 153.204 8.15004C154.744 7.00666 156.638 6.44785 158.55 6.57289C159.136 6.57836 159.721 6.62394 160.301 6.70929C160.981 6.79454 161.406 6.86274 161.601 6.90537H167.738ZM154.138 27.0247C154.133 27.3486 154.22 27.6674 154.388 27.9436C154.557 28.2199 154.8 28.4423 155.09 28.5848C155.91 29.0105 156.829 29.2078 157.751 29.156C159.135 29.2174 160.515 28.9759 161.797 28.4484C162.205 28.3068 162.562 28.0462 162.823 27.7C163.083 27.3538 163.235 26.9377 163.258 26.5047C163.28 26.2151 163.209 25.9263 163.056 25.6797C162.903 25.4331 162.677 25.2414 162.408 25.1321C161.568 24.835 160.681 24.6963 159.791 24.7229H157.241C156.458 24.6946 155.685 24.9122 155.031 25.3453C154.756 25.5272 154.532 25.7775 154.382 26.0718C154.231 26.366 154.159 26.6943 154.172 27.0247H154.138ZM155.881 12.6769C155.838 13.4852 156.068 14.2843 156.535 14.9446C156.775 15.2358 157.08 15.4651 157.426 15.6135C157.772 15.7618 158.149 15.8248 158.524 15.7971C158.899 15.8277 159.275 15.7661 159.62 15.6175C159.965 15.4689 160.269 15.2379 160.505 14.9446C160.955 14.2778 161.176 13.4814 161.134 12.6769C161.134 10.557 160.264 9.49417 158.524 9.48849C156.785 9.48281 155.915 10.5456 155.915 12.6769H155.881Z" fill="#0B2C6E"/>
<path d="M186.598 15.6866C186.598 18.5596 185.85 20.8017 184.337 22.4215C183.518 23.2524 182.532 23.8989 181.444 24.3178C180.357 24.7368 179.193 24.9186 178.03 24.8511C176.47 24.8811 174.931 24.4957 173.568 23.7343C172.28 22.9979 171.245 21.8859 170.602 20.5459C169.88 19.0304 169.525 17.3656 169.565 15.6866C169.565 12.8051 170.313 10.5715 171.808 8.96876C172.634 8.14594 173.623 7.5072 174.711 7.09437C175.799 6.68155 176.962 6.50395 178.124 6.5732C179.685 6.53691 181.227 6.91638 182.594 7.67294C183.877 8.40429 184.911 9.50647 185.561 10.8358C186.285 12.3474 186.64 14.0101 186.598 15.6866ZM174.452 15.6866C174.358 17.0591 174.653 18.4303 175.302 19.6423C175.604 20.0957 176.023 20.4597 176.513 20.6965C177.003 20.9333 177.547 21.0344 178.09 20.9892C178.626 21.0345 179.165 20.9341 179.649 20.6986C180.134 20.4631 180.546 20.1012 180.843 19.6508C181.485 18.4328 181.779 17.0612 181.693 15.6866C181.784 14.3252 181.49 12.9657 180.843 11.765C180.506 11.3558 180.083 11.0263 179.604 10.8002C179.125 10.574 178.602 10.4568 178.073 10.4568C177.543 10.4568 177.02 10.574 176.541 10.8002C176.062 11.0263 175.639 11.3558 175.302 11.765C174.655 12.9656 174.36 14.3251 174.452 15.6866Z" fill="#0B2C6E"/>
<path d="M194.74 24.5354L188.051 6.9054H193.066L196.466 16.948C196.823 18.1257 197.059 19.3369 197.171 20.5627H197.265C197.361 19.334 197.601 18.1209 197.979 16.948L201.378 6.9054H206.393L199.695 24.5354H194.74Z" fill="#0B2C6E"/>
<path d="M209.087 22.2766C209.06 21.9131 209.109 21.5479 209.23 21.2044C209.351 20.8609 209.543 20.5466 209.793 20.2817C210.074 20.0377 210.4 19.8519 210.753 19.7348C211.106 19.6178 211.479 19.5719 211.85 19.5997C212.216 19.5757 212.583 19.6244 212.93 19.7428C213.277 19.8613 213.597 20.0473 213.873 20.2902C214.121 20.5546 214.312 20.8673 214.435 21.209C214.558 21.5507 214.609 21.9141 214.586 22.2766C214.607 22.637 214.553 22.9977 214.429 23.3365C214.305 23.6753 214.113 23.9848 213.864 24.2459C213.593 24.4939 213.275 24.685 212.929 24.8079C212.583 24.9309 212.216 24.9833 211.85 24.962C211.105 25.0071 210.372 24.7559 209.81 24.2629C209.559 23.9999 209.365 23.6875 209.241 23.3457C209.117 23.0038 209.064 22.6398 209.087 22.2766Z" fill="#E70C53"/>
<path d="M219.55 2.35294C219.55 0.784314 220.4 0 222.159 0C223.919 0 224.769 0.784314 224.769 2.35294C224.783 2.66635 224.733 2.97937 224.622 3.27264C224.511 3.56592 224.341 3.8332 224.123 4.05797C223.573 4.51226 222.869 4.73531 222.159 4.68031C220.425 4.71441 219.55 3.93009 219.55 2.35294ZM224.548 24.5183H219.754V6.90537H224.548V24.5183Z" fill="#0B2C6E"/>
<path d="M236.983 21.0148C238.01 20.9838 239.027 20.7999 240 20.4692V24.0498C238.607 24.6196 237.11 24.8925 235.606 24.8511C233.685 24.8511 232.288 24.3652 231.416 23.3933C230.45 22.1503 229.981 20.5913 230.098 19.0199V10.4948H227.786V8.52548L230.43 6.91423L231.815 3.19727H234.875V6.90571H239.796V10.5204H234.875V19.0455C234.852 19.3244 234.893 19.6048 234.993 19.866C235.093 20.1272 235.25 20.3625 235.453 20.5545C235.89 20.8895 236.434 21.0532 236.983 21.0148Z" fill="#0B2C6E"/>
<path d="M177.784 60.0007C169.261 60.0195 161.006 57.0113 154.483 51.5092C147.96 46.0071 143.589 38.3664 142.146 29.941L145.494 29.3613C146.817 36.991 150.782 43.9076 156.69 48.8926C162.599 53.8775 170.072 56.6108 177.792 56.6108C185.513 56.6108 192.986 53.8775 198.895 48.8926C204.803 43.9076 208.768 36.991 210.09 29.3613L213.439 29.941C211.995 38.3693 207.622 46.0123 201.095 51.5147C194.568 57.0172 186.31 60.0235 177.784 60.0007Z" fill="#E70C53"/>
</g>
<defs>
<clipPath id="clip0_4659_26785">
<rect width="240" height="60" fill="white"/>
</clipPath>
</defs>
</svg>
