<svg width="341" height="100" viewBox="0 0 341 100" fill="none" xmlns="http://www.w3.org/2000/svg">
<g clip-path="url(#clip0_4217_26601)">
<path d="M120.357 42.2462V25.4942H126.471L129.59 37.7097L132.709 25.4942H138.831V42.2462H135.238V29.2825H134.847L131.387 41.5059H127.793L124.333 29.2825H123.942V42.2462H120.357Z" fill="#0066CC"/>
<path d="M152.564 42.2462H149.078V29.9283H152.539V30.6214C153.51 30.0214 154.633 29.6787 155.791 29.6291C157.521 29.6291 158.716 30.1147 159.376 31.0861C160.138 32.4641 160.481 34.0157 160.366 35.5675V42.2462H156.881V35.6699C156.936 34.8646 156.803 34.0576 156.49 33.3071C156.339 33.0494 156.11 32.8404 155.833 32.7071C155.556 32.5737 155.243 32.5221 154.934 32.5589C154.233 32.5542 153.536 32.6717 152.88 32.9054L152.564 32.9999V42.2147" fill="#0066CC"/>
<path d="M179.521 33.0078C178.024 32.8002 176.517 32.6688 175.005 32.614C174.44 32.5658 173.871 32.6413 173.341 32.8345C173.218 32.9092 173.118 33.0133 173.051 33.1364C172.983 33.2594 172.952 33.3971 172.959 33.5355C172.954 33.6844 173.001 33.8306 173.093 33.9517C173.184 34.0727 173.316 34.1617 173.466 34.2049C174.321 34.4352 175.191 34.6141 176.07 34.7405C177.16 34.855 178.193 35.2621 179.047 35.914C179.374 36.2735 179.622 36.6916 179.775 37.1436C179.928 37.5955 179.983 38.0719 179.937 38.5445C179.937 41.2145 178.191 42.5376 174.705 42.5376C173.308 42.514 171.915 42.3664 170.547 42.0966L169.715 41.9469L169.823 39.1904C171.309 39.3972 172.805 39.5286 174.306 39.5841C174.891 39.6254 175.479 39.5448 176.028 39.3479C176.165 39.2824 176.281 39.1823 176.361 39.0586C176.442 38.9348 176.485 38.7924 176.485 38.6469C176.488 38.4998 176.443 38.3555 176.357 38.2331C176.271 38.1107 176.147 38.0161 176.003 37.9617C175.194 37.6988 174.357 37.5167 173.508 37.4183C172.429 37.299 171.4 36.9253 170.513 36.3314C170.148 35.9755 169.87 35.5472 169.7 35.0773C169.53 34.6074 169.473 34.1077 169.532 33.6142C169.493 33.0503 169.601 32.486 169.844 31.9701C170.088 31.4541 170.46 31.002 170.929 30.6529C171.989 29.957 173.259 29.6085 174.547 29.6605C175.945 29.7003 177.337 29.8558 178.706 30.1252L179.538 30.2749L179.488 33.0078" fill="#0066CC"/>
<path d="M189.644 32.7321H186.45V37.8042C186.45 38.2925 186.45 38.639 186.45 38.8517C186.476 39.0553 186.58 39.2429 186.741 39.3794C186.958 39.5407 187.231 39.6193 187.506 39.5999L189.486 39.5527L189.644 42.1832C188.773 42.3945 187.881 42.5186 186.982 42.5534C185.424 42.5534 184.36 42.2226 183.788 41.561C183.214 40.8916 182.957 39.6629 182.957 37.8751V32.7321H181.426V29.9283H182.99V26.5023H186.483V29.9283H189.644V32.7321Z" fill="#0066CC"/>
<path d="M195.466 39.1274C195.969 39.4946 196.597 39.674 197.23 39.6314C198.838 39.6314 200.277 39.5842 201.547 39.4897L202.27 39.4109L202.32 41.8524C200.553 42.2818 198.738 42.5118 196.914 42.5376C194.951 42.5376 193.528 42.0467 192.647 41.0648C191.765 40.083 191.319 38.471 191.308 36.229C191.308 31.8133 193.226 29.6028 197.063 29.5975C200.901 29.5923 202.792 31.4484 202.736 35.1658L202.47 37.4577H194.818C194.798 37.7579 194.846 38.0586 194.956 38.3406C195.066 38.6227 195.237 38.8799 195.458 39.0959L195.466 39.1274ZM199.301 34.9453C199.373 34.227 199.198 33.5058 198.802 32.8897C198.313 32.5102 197.7 32.3029 197.068 32.3029C196.435 32.3029 195.823 32.5102 195.333 32.8897C194.93 33.4952 194.743 34.2077 194.801 34.9216H199.301" fill="#0066CC"/>
<path d="M205.198 42.2462V29.9283H208.658V31.2357C209.939 30.4879 211.346 29.955 212.817 29.6606V32.992C211.42 33.2677 210.206 33.5512 209.199 33.8505L208.683 34.0238V42.2462H205.198Z" fill="#0066CC"/>
<path d="M215.579 31.3224C216.502 30.1961 218.032 29.6291 220.187 29.6291C222.341 29.6291 223.872 30.1961 224.787 31.3224C225.788 32.7086 226.274 34.3712 226.167 36.0479C226.167 40.3639 224.174 42.5245 220.187 42.5297C216.2 42.535 214.204 40.3744 214.198 36.0479C214.091 34.3712 214.577 32.7086 215.579 31.3224ZM218.274 38.8438C218.5 39.1202 218.79 39.3439 219.122 39.4978C219.453 39.6517 219.818 39.7317 220.187 39.7317C220.556 39.7317 220.92 39.6517 221.252 39.4978C221.584 39.3439 221.874 39.1202 222.1 38.8438C222.512 37.9714 222.695 37.0175 222.632 36.0637C222.698 35.1147 222.515 34.1652 222.1 33.2992C221.866 33.0344 221.573 32.8214 221.242 32.6753C220.912 32.5292 220.552 32.4535 220.187 32.4535C219.822 32.4535 219.462 32.5292 219.131 32.6753C218.801 32.8214 218.508 33.0344 218.274 33.2992C217.851 34.1631 217.665 35.1138 217.733 36.0637C217.669 37.0184 217.854 37.9735 218.274 38.8438Z" fill="#0066CC"/>
<path d="M245.498 24.998V42.2462H242.046V41.7421C241.07 42.2166 239.997 42.4853 238.902 42.5297C237.005 42.5297 235.691 42.0178 234.942 40.9545C234.194 39.8913 233.828 38.2846 233.828 36.04C233.828 33.7954 234.269 32.1651 235.167 31.1412C235.668 30.6021 236.293 30.1796 236.994 29.9064C237.695 29.6332 238.453 29.5168 239.209 29.566C239.989 29.5902 240.765 29.6745 241.53 29.8181L242.021 29.9126V24.998H245.498ZM241.647 39.2927L242.013 39.214V32.74C241.171 32.5842 240.316 32.4999 239.459 32.488C238.062 32.488 237.355 33.6694 237.355 36.04C237.29 36.9726 237.449 37.907 237.82 38.7729C237.975 39.0278 238.202 39.2366 238.475 39.3758C238.749 39.515 239.058 39.579 239.367 39.5605C240.137 39.5519 240.902 39.4541 241.647 39.2691" fill="#0066CC"/>
<path d="M252.227 39.1274C252.727 39.4934 253.351 39.6727 253.982 39.6314C255.595 39.6314 257.034 39.5842 258.299 39.4896L259.022 39.4109L259.08 41.8524C257.318 42.2767 255.509 42.504 253.691 42.5297C251.733 42.5297 250.311 42.0388 249.424 41.0569C248.536 40.0751 248.087 38.4658 248.076 36.229C248.076 31.8133 249.992 29.6028 253.824 29.5975C257.655 29.5923 259.552 31.4589 259.513 35.1973L259.255 37.4892H251.603C251.581 37.7896 251.628 38.0908 251.738 38.3731C251.848 38.6555 252.02 38.9125 252.243 39.1274H252.227ZM256.078 34.9768C256.148 34.2597 255.976 33.5399 255.587 32.9212C255.361 32.7087 255.087 32.5468 254.786 32.4474C254.486 32.3479 254.165 32.3133 253.849 32.3462C253.53 32.3146 253.208 32.3521 252.906 32.4558C252.605 32.5595 252.333 32.7267 252.11 32.9448C251.711 33.5519 251.524 34.2632 251.578 34.9768H256.078Z" fill="#0066CC"/>
<path d="M265.635 24.998H262.15V42.2383H265.635V24.998Z" fill="#0066CC"/>
<path d="M272.655 24.998H269.17V42.2383H272.655V24.998Z" fill="#0066CC"/>
<path d="M276.747 31.3224C277.662 30.1935 279.198 29.6291 281.355 29.6291C283.501 29.6291 285.04 30.1961 285.955 31.3224C286.957 32.7086 287.443 34.3712 287.336 36.0479C287.336 40.3639 285.342 42.5245 281.355 42.5297C277.368 42.535 275.372 40.3744 275.367 36.0479C275.26 34.3712 275.745 32.7086 276.747 31.3224ZM279.476 38.8438C279.701 39.1201 279.99 39.3438 280.321 39.4977C280.652 39.6515 281.016 39.7316 281.384 39.7316C281.753 39.7316 282.117 39.6515 282.448 39.4977C282.779 39.3438 283.068 39.1201 283.293 38.8438C283.709 37.9726 283.892 37.0177 283.826 36.0637C283.895 35.1145 283.712 34.164 283.293 33.2992C283.059 33.0358 282.767 32.824 282.437 32.6787C282.107 32.5334 281.748 32.4581 281.384 32.4581C281.021 32.4581 280.661 32.5334 280.332 32.6787C280.002 32.824 279.71 33.0358 279.476 33.2992C279.053 34.1631 278.867 35.1138 278.935 36.0637C278.87 37.0184 279.056 37.9735 279.476 38.8438Z" fill="#0066CC"/>
<path d="M163.46 24.998H166.953V28.3531H163.46V24.998ZM163.46 29.9283H166.953V42.2462H163.46V29.9283Z" fill="#0066CC"/>
<path d="M142.366 24.998H145.851V28.3531H142.366V24.998ZM142.366 29.9283H145.851V42.2462H142.366V29.9283Z" fill="#0066CC"/>
<path d="M130.372 60.5891C128.875 60.3816 127.367 60.2501 125.855 60.1953C125.29 60.1471 124.721 60.2226 124.192 60.4158C124.07 60.4915 123.972 60.596 123.906 60.719C123.84 60.842 123.81 60.9792 123.818 61.1168C123.811 61.266 123.858 61.4129 123.95 61.5342C124.042 61.6555 124.174 61.7442 124.325 61.7862C125.178 62.017 126.044 62.1985 126.92 62.3297C128.013 62.4387 129.05 62.8433 129.906 63.4953C130.233 63.8609 130.48 64.2848 130.631 64.742C130.783 65.1991 130.836 65.6804 130.788 66.1574C130.788 68.7827 129.058 70.0953 125.598 70.0953C124.2 70.069 122.807 69.9187 121.439 69.6464L120.607 69.4967L120.707 66.7402C122.195 66.9468 123.695 67.0782 125.198 67.134C125.781 67.1756 126.366 67.0949 126.912 66.8977C127.049 66.8322 127.164 66.7321 127.245 66.6084C127.326 66.4847 127.369 66.3422 127.369 66.1967C127.372 66.0497 127.327 65.9053 127.241 65.7829C127.155 65.6605 127.031 65.5659 126.887 65.5115C126.077 65.2488 125.241 65.0666 124.392 64.9681C123.307 64.8534 122.271 64.4794 121.38 63.8812C120.723 63.3772 120.399 62.4636 120.399 61.1641C120.36 60.5993 120.468 60.0341 120.713 59.5179C120.958 59.0017 121.333 58.5501 121.805 58.2027C122.859 57.5031 124.129 57.1541 125.415 57.2104C126.813 57.2501 128.204 57.4056 129.573 57.675L130.405 57.8247L130.355 60.5576" fill="#0066CC"/>
<path d="M131.961 57.5096H135.604L137.683 67.0158H138.407L140.594 57.5096H144.13L141.01 69.8275H135.08L131.961 57.5096Z" fill="#0066CC"/>
<path d="M156.49 52.5872H153.005V69.8275H156.49V52.5872Z" fill="#0066CC"/>
<path d="M167.552 57.4939H171.037V69.8275H167.577V69.1344C166.594 69.706 165.476 70.0363 164.325 70.0953C162.517 70.0953 161.303 69.6227 160.682 68.6776C160.061 67.7325 159.747 66.1574 159.742 63.9521V57.4939H163.227V63.9994C163.173 64.8402 163.28 65.6834 163.543 66.4881C163.751 66.9292 164.25 67.1497 165.048 67.1497C165.785 67.1571 166.518 67.0397 167.211 66.8032L167.552 66.7087V57.4939Z" fill="#0066CC"/>
<path d="M174.265 75.002V57.4939H177.725V58.1555C178.605 57.5941 179.627 57.2651 180.686 57.2025C181.41 57.1461 182.138 57.2514 182.811 57.5099C183.484 57.7684 184.084 58.173 184.562 58.691C185.394 59.6834 185.818 61.3688 185.818 63.7552C185.818 66.1416 185.352 67.7877 184.429 68.717C183.506 69.6464 182.008 70.0953 179.904 70.0953C179.286 70.0914 178.668 70.0441 178.057 69.9535L177.75 69.9063V74.9783L174.265 75.002ZM180.012 60.1717C179.341 60.1742 178.678 60.2999 178.057 60.5419L177.75 60.66V67.1182C178.378 67.2041 179.011 67.2541 179.646 67.2679C180.039 67.3111 180.437 67.256 180.8 67.1082C181.164 66.9603 181.48 66.7248 181.717 66.4251C182.16 65.5364 182.352 64.5541 182.274 63.5741C182.274 61.3058 181.52 60.1717 180.012 60.1717Z" fill="#0066CC"/>
<path d="M188.413 75.002V57.4939H191.873V58.1555C192.757 57.5948 193.781 57.2659 194.843 57.2025C195.567 57.1473 196.294 57.2532 196.967 57.5116C197.64 57.7701 198.24 58.174 198.719 58.691C199.551 59.6834 199.966 61.3715 199.966 63.7552C199.966 66.139 199.506 67.7929 198.586 68.717C197.671 69.6464 196.157 70.1032 194.061 70.1032C193.442 70.0998 192.825 70.0524 192.214 69.9614L191.898 69.9142V74.9862L188.413 75.002ZM194.161 60.1717C193.493 60.1742 192.831 60.2999 192.214 60.5419L191.898 60.66V67.1182C192.529 67.2041 193.165 67.2541 193.803 67.2679C194.195 67.3113 194.592 67.2562 194.954 67.1083C195.316 66.9604 195.63 66.7247 195.866 66.4251C196.312 65.5375 196.504 64.5543 196.423 63.5741C196.423 61.3058 195.674 60.1717 194.161 60.1717Z" fill="#0066CC"/>
<path d="M203.268 58.9037C204.192 57.7774 205.764 57.2182 207.876 57.2182C209.989 57.2182 211.561 57.7774 212.485 58.9037C213.48 60.2924 213.962 61.9538 213.857 63.6292C213.857 67.9452 211.863 70.1032 207.876 70.1032C203.89 70.1032 201.893 67.9452 201.888 63.6292C201.785 61.9529 202.27 60.2914 203.268 58.9037ZM205.963 66.4251C206.19 66.7015 206.48 66.9252 206.811 67.0791C207.143 67.2329 207.507 67.313 207.876 67.313C208.246 67.313 208.61 67.2329 208.942 67.0791C209.273 66.9252 209.563 66.7015 209.79 66.4251C210.202 65.5529 210.385 64.5988 210.322 63.6449C210.387 62.696 210.204 61.7465 209.79 60.8805C209.555 60.6157 209.263 60.4027 208.932 60.2566C208.602 60.1105 208.241 60.0347 207.876 60.0347C207.512 60.0347 207.151 60.1105 206.821 60.2566C206.49 60.4027 206.198 60.6157 205.963 60.8805C205.545 61.7453 205.361 62.6958 205.431 63.6449C205.364 64.5991 205.547 65.5542 205.963 66.4251Z" fill="#0066CC"/>
<path d="M225.635 66.7087C226.135 67.0747 226.759 67.254 227.39 67.2127C229.004 67.2127 230.442 67.1655 231.707 67.071L232.439 66.9922L232.489 69.4337C230.717 69.8545 228.9 70.0765 227.074 70.0953C225.116 70.0953 223.694 69.6044 222.807 68.6225C221.92 67.6406 221.479 66.0392 221.484 63.8182C221.484 59.4025 223.4 57.1946 227.232 57.1946C231.064 57.1946 232.952 59.0559 232.896 62.7786L232.638 65.0705H224.986C224.964 65.3709 225.01 65.6723 225.12 65.9547C225.231 66.2371 225.403 66.4941 225.627 66.7087H225.635ZM229.461 62.5581C229.531 61.841 229.359 61.1212 228.97 60.5025C228.48 60.1224 227.866 59.9148 227.232 59.9148C226.598 59.9148 225.984 60.1224 225.493 60.5025C225.094 61.1096 224.907 61.8209 224.961 62.5345H229.461" fill="#0066CC"/>
<path d="M240.266 57.2182C241.43 57.2438 242.589 57.3757 243.726 57.612L244.433 57.7538L244.325 60.3686C242.961 60.2347 241.946 60.1717 241.28 60.1717C240.083 60.1717 239.293 60.4158 238.902 60.8963C238.425 61.7378 238.222 62.6944 238.319 63.6449C238.225 64.603 238.427 65.5663 238.902 66.4173C239.293 66.9213 240.091 67.2048 241.314 67.2048L244.325 67.0079L244.433 69.6464C243.038 69.9397 241.618 70.1137 240.191 70.1662C238.261 70.1662 236.875 69.6411 236.032 68.591C235.189 67.5409 234.768 65.8948 234.768 63.6528C234.768 61.3846 235.209 59.7149 236.074 58.7383C236.939 57.7617 238.336 57.2261 240.232 57.2261" fill="#0066CC"/>
<path d="M247.602 58.9037C248.525 57.7774 250.056 57.2182 252.21 57.2182C254.364 57.2182 255.895 57.7774 256.818 58.9037C257.813 60.2924 258.296 61.9538 258.19 63.6292C258.19 67.9452 256.197 70.1032 252.21 70.1032C248.223 70.1032 246.221 67.9504 246.205 63.6449C246.101 61.9687 246.587 60.3072 247.585 58.9194L247.602 58.9037ZM250.28 66.4409C250.506 66.7172 250.796 66.9409 251.128 67.0948C251.46 67.2487 251.824 67.3287 252.193 67.3287C252.563 67.3287 252.927 67.2487 253.259 67.0948C253.59 66.9409 253.88 66.7172 254.106 66.4409C254.523 65.5699 254.706 64.6148 254.639 63.6607C254.708 62.7116 254.525 61.7611 254.106 60.8963C253.872 60.6315 253.579 60.4185 253.249 60.2724C252.918 60.1262 252.558 60.0505 252.193 60.0505C251.829 60.0505 251.468 60.1262 251.138 60.2724C250.807 60.4185 250.514 60.6315 250.28 60.8963C249.861 61.7611 249.678 62.7116 249.748 63.6607C249.68 64.6148 249.863 65.5699 250.28 66.4409Z" fill="#0066CC"/>
<path d="M264.229 69.8275H260.744V57.4939H264.204V58.187C265.175 57.5887 266.299 57.2487 267.456 57.2025C269.186 57.2025 270.384 57.6855 271.05 58.6516C271.805 60.0319 272.144 61.5823 272.031 63.133V69.8118H268.546V63.2512C268.602 62.4459 268.468 61.6389 268.155 60.8884C268.004 60.6315 267.775 60.4231 267.498 60.2898C267.221 60.1565 266.908 60.1045 266.6 60.1402C265.898 60.1355 265.202 60.253 264.545 60.4867L264.229 60.5812V69.796" fill="#0066CC"/>
<path d="M275.832 58.9037C276.756 57.7774 278.286 57.2182 280.44 57.2182C282.595 57.2182 284.125 57.7774 285.04 58.9037C286.042 60.2899 286.528 61.9525 286.421 63.6292C286.421 67.9452 284.427 70.1032 280.44 70.1032C276.453 70.1032 274.468 67.9504 274.485 63.6449C274.382 61.9687 274.867 60.3072 275.866 58.9194L275.832 58.9037ZM278.56 66.4409C278.787 66.7172 279.077 66.9409 279.408 67.0948C279.74 67.2487 280.104 67.3287 280.474 67.3287C280.843 67.3287 281.207 67.2487 281.539 67.0948C281.87 66.9409 282.16 66.7172 282.387 66.4409C282.799 65.5687 282.982 64.6146 282.919 63.6607C282.984 62.7118 282.802 61.7623 282.387 60.8963C282.152 60.6315 281.86 60.4185 281.529 60.2724C281.199 60.1262 280.838 60.0505 280.474 60.0505C280.109 60.0505 279.748 60.1262 279.418 60.2724C279.087 60.4185 278.795 60.6315 278.56 60.8963C278.142 61.7611 277.959 62.7116 278.028 63.6607C277.961 64.6148 278.144 65.5699 278.56 66.4409Z" fill="#0066CC"/>
<path d="M292.459 69.8275H288.974V57.4939H292.435V58.187C293.351 57.6138 294.408 57.2747 295.504 57.2025C296.101 57.1656 296.699 57.2491 297.26 57.4473C297.821 57.6455 298.331 57.954 298.756 58.3524C300.096 57.6487 301.592 57.2547 303.123 57.2025C304.845 57.2025 306.034 57.675 306.708 58.6123C307.381 59.5495 307.706 61.0695 307.706 63.133V69.8118H304.221V63.2512C304.269 62.4482 304.145 61.6443 303.855 60.8884C303.722 60.6376 303.511 60.4314 303.251 60.2977C302.991 60.1639 302.693 60.1089 302.399 60.1402C301.708 60.1595 301.024 60.2763 300.37 60.4867L299.979 60.6049C300.045 61.844 300.079 62.7812 300.079 63.4166V69.796H296.593V63.4953C296.645 62.6249 296.533 61.7528 296.261 60.9199C296.126 60.6636 295.91 60.4536 295.643 60.3194C295.376 60.1852 295.071 60.1336 294.772 60.1717C294.087 60.1712 293.408 60.2886 292.767 60.5182L292.459 60.6127V69.8275Z" fill="#0066CC"/>
<path d="M322.378 57.2182C323.542 57.2438 324.701 57.3757 325.838 57.612L326.537 57.7538L326.437 60.3686C325.065 60.2347 324.05 60.1717 323.393 60.1717C322.195 60.1717 321.405 60.4158 321.014 60.8963C320.537 61.7378 320.335 62.6944 320.432 63.6449C320.338 64.603 320.54 65.5663 321.014 66.4173C321.405 66.9213 322.204 67.2048 323.418 67.2048L326.437 67.0079L326.537 69.6464C325.145 69.9391 323.728 70.1131 322.303 70.1662C320.374 70.1662 318.987 69.6411 318.145 68.591C317.302 67.5409 316.889 65.8922 316.905 63.6449C316.905 61.3767 317.338 59.7385 318.203 58.7304C319.068 57.7223 320.454 57.2182 322.362 57.2182" fill="#0066CC"/>
<path d="M329.714 58.9037C330.638 57.7774 332.21 57.2182 334.322 57.2182C336.435 57.2182 338.007 57.7774 338.922 58.9037C339.924 60.2899 340.41 61.9525 340.303 63.6292C340.303 67.9452 338.309 70.1032 334.322 70.1032C330.336 70.1032 328.339 67.9452 328.334 63.6292C328.227 61.9525 328.713 60.2899 329.714 58.9037ZM332.409 66.4251C332.636 66.7015 332.926 66.9252 333.257 67.0791C333.589 67.2329 333.953 67.313 334.322 67.313C334.692 67.313 335.056 67.2329 335.388 67.0791C335.719 66.9252 336.009 66.7015 336.236 66.4251C336.648 65.5529 336.831 64.5988 336.768 63.6449C336.833 62.696 336.65 61.7465 336.236 60.8805C336.001 60.6157 335.709 60.4027 335.378 60.2566C335.048 60.1105 334.687 60.0347 334.322 60.0347C333.958 60.0347 333.597 60.1105 333.267 60.2566C332.936 60.4027 332.644 60.6157 332.409 60.8805C331.991 61.7453 331.807 62.6958 331.877 63.6449C331.81 64.5991 331.993 65.5542 332.409 66.4251Z" fill="#0066CC"/>
<path d="M146.134 52.5872H149.619V55.9187H146.134V52.5872ZM146.134 57.5096H149.619V69.8275H146.134V57.5096Z" fill="#0066CC"/>
<path d="M310.8 52.5872H314.285V55.9187H310.8V52.5872ZM310.8 57.5096H314.285V69.8275H310.8V57.5096Z" fill="#0066CC"/>
<path d="M27.1657 61.6209L26.833 61.2979C22.0555 56.6257 19.3933 50.3719 19.4136 43.8686C19.4144 42.8155 19.4839 41.7633 19.6215 40.7183L19.6797 40.2615L37.8623 46.3968L27.1657 61.6209ZM20.3368 41.2617C20.2385 42.1276 20.1886 42.9978 20.1871 43.8686C20.1674 50.0234 22.624 55.9543 27.0576 60.4552L36.6645 46.7748L20.3368 41.2617Z" fill="#0066CC"/>
<path d="M40.9481 37.4025L22.3081 32.4801L22.5327 32.0784C24.4059 28.7656 27.0377 25.8914 30.2355 23.666C33.4334 21.4407 37.1163 19.9207 41.0147 19.2171L41.4888 19.1305L40.9481 37.4025ZM23.4809 32.0154L40.2328 36.4417L40.7235 20.0283C37.1061 20.7405 33.6921 22.179 30.7119 24.2469C27.7317 26.3147 25.2545 28.9638 23.4476 32.0154H23.4809Z" fill="#0066CC"/>
<path d="M45.8639 68.9927C41.9503 69.0018 38.0826 68.1951 34.5352 66.6299L34.1027 66.4173L45.8639 51.9808L57.6252 66.4173L57.1843 66.6063C53.6379 68.1686 49.7754 68.9828 45.8639 68.9927ZM35.3087 66.1573C38.6299 67.5616 42.2267 68.2862 45.8639 68.2838C49.4996 68.2721 53.0933 67.5481 56.4191 66.1573L45.8639 53.1543L35.3087 66.1573Z" fill="#0066CC"/>
<path d="M64.5539 61.6209L53.8573 46.3968L72.0398 40.2615L72.0981 40.7183C72.236 41.7633 72.3054 42.8155 72.306 43.8686C72.3276 50.3737 69.6618 56.6289 64.8783 61.2979L64.5539 61.6209ZM55.0551 46.7748L64.662 60.4552C69.0955 55.9543 71.5522 50.0234 71.5325 43.8686C71.531 42.9978 71.481 42.1276 71.3827 41.2617L55.0551 46.7748Z" fill="#0066CC"/>
<path d="M50.7797 37.4025L50.2307 19.1305L50.7048 19.2171C54.6047 19.9169 58.2893 21.4355 61.4877 23.6612C64.6861 25.8869 67.317 28.7632 69.1868 32.0784L69.4197 32.4801L50.7797 37.4025ZM51.0375 20.0283L51.5699 36.4417L68.3134 32.0154C66.5061 28.9642 64.0288 26.3153 61.0487 24.2475C58.0685 22.1797 54.6547 20.741 51.0375 20.0283Z" fill="#0066CC"/>
<path d="M70.6258 36.1503L52.044 35.7643L45.8473 19.1305L39.7005 35.7407L21.0938 36.1739L35.8743 46.8457L30.551 63.7473L45.8473 53.745L61.1685 63.7473L55.8452 46.893L70.6258 36.1503ZM59.8128 61.9595L46.2881 53.1385L45.8473 52.8471L45.4065 53.1385L31.9234 61.9595L36.598 47.0505L36.756 46.57L36.3235 46.2629L23.2896 36.8591L39.6922 36.4732H40.2245L40.4075 35.9927L45.8223 21.3515L51.2871 36.0242L51.4701 36.4968H52.0024L68.38 36.8433L55.3461 46.2944L54.9219 46.6015L55.08 47.0898L59.8128 61.9595Z" fill="#0066CC"/>
<path d="M47.6522 10.9475L48.2427 13.4993L48.3425 13.9324L48.8083 13.9797C50.121 14.0991 51.4241 14.299 52.7094 14.5783L53.1751 14.6728L53.408 14.2868L54.7805 12.0265L58.3072 13.1133L58.0493 15.7045L57.9994 16.1456L58.4319 16.3267C59.6392 16.824 60.8166 17.384 61.9587 18.0043L62.3662 18.2327L62.7156 17.9334L64.7534 16.2086L67.7561 18.272L66.6499 20.6348L66.4585 21.0365L66.8079 21.3358C67.7887 22.17 68.7216 23.0533 69.6026 23.982L69.9104 24.305L70.3429 24.1317L71.7819 23.541L71.6904 22.9188L70.0851 23.6276C69.1874 22.6832 68.2379 21.7841 67.2404 20.9341L68.5629 18.0988L64.7118 15.421L62.2831 17.4766C61.1209 16.8375 59.9212 16.2616 58.6898 15.7518L58.9976 12.6644L54.481 11.2861L52.8175 13.9797C51.5167 13.7096 50.2002 13.5123 48.8749 13.389L48.1762 10.3568H43.4185L42.7281 13.389C41.3884 13.5189 40.058 13.724 38.7439 14.0033L37.0804 11.3098L32.5888 12.6802L32.9049 15.7518C31.6815 16.2502 30.4925 16.8211 29.3449 17.4608L26.8496 15.4052L25.8265 16.1062L25.2442 17.3269L26.8496 16.2322L28.9124 17.957L29.2617 18.2484L29.6609 18.0279C30.7939 17.4067 31.963 16.8466 33.1627 16.3503L33.5952 16.1771V15.7281L33.2708 13.0897L36.7809 12.0186L38.17 14.2868L38.4112 14.6728L38.8687 14.5783C40.154 14.299 41.457 14.0991 42.7697 13.9797L43.2355 13.9324L43.3353 13.4993L43.9258 10.9475H47.6355H47.6522ZM79.5506 54.0994L80.2077 52.1383L77.4213 50.5631C77.7042 49.3167 77.9207 48.0576 78.0701 46.7906L81.2225 46.1369V41.6713L78.0701 41.0097C77.9329 39.7437 77.7162 38.4866 77.4213 37.245L78.852 36.4574L78.5192 35.9298L77.0969 36.7173L76.6893 36.9379L76.7892 37.3789C77.0841 38.5959 77.2952 39.8298 77.4213 41.0727L77.4712 41.5137L77.9287 41.6083L80.5737 42.1596V45.6801L77.9287 46.2393L77.4795 46.3338L77.4213 46.767C77.2806 48.0107 77.0695 49.2463 76.7892 50.4686L76.6893 50.9018L77.0969 51.1302L79.4342 52.4218L79.0682 53.556L79.5506 54.0994ZM74.8594 62.0619L72.8299 64.6925L70.3346 63.6686L69.9021 63.4874L69.5943 63.8182C68.7163 64.7525 67.7774 65.6337 66.7829 66.4566L66.4253 66.7559L66.6166 67.1655L67.7228 69.5282L64.7201 71.5917L62.6823 69.8827L62.333 69.5913L61.9337 69.8118C60.7917 70.4415 59.6144 71.012 58.407 71.5208L57.9745 71.6705L58.0244 72.1115L58.2822 74.6791L54.7472 75.7502L53.3581 73.5292L53.1169 73.1511L52.6594 73.2457C51.3807 73.5105 50.0864 73.7025 48.7834 73.8206H48.3176L48.2178 74.2616L47.6272 76.7898H43.9175L43.327 74.2616L43.2521 73.8915L42.7946 73.8442C41.4812 73.711 40.1762 73.5112 38.8853 73.2457L38.4278 73.1511L38.1866 73.5292L36.7976 75.7738L33.2708 74.6869L33.5536 72.1194L33.6035 71.6705L33.171 71.4972C31.9636 70.9884 30.7863 70.4179 29.6443 69.7881L29.2451 69.5676L28.8957 69.859L26.8496 71.5917L23.8469 69.5204L24.9531 67.1103L25.1444 66.7008L24.7868 66.4094C23.7933 65.5911 22.8518 64.718 21.9671 63.7946L21.626 63.4638L21.2018 63.6371L18.7065 64.6688L18.3904 64.2593L17.8914 64.6373L18.4903 65.4249L21.4846 64.2041C22.374 65.1462 23.324 66.0352 24.3293 66.8662L23.0151 69.733L26.8579 72.3714L29.2867 70.3158C30.4487 70.9599 31.6484 71.541 32.8799 72.0564L32.5472 75.1122L37.0637 76.5063L38.7273 73.8442C40.0402 74.1132 41.3674 74.3157 42.7031 74.4507L43.4018 77.4593H48.1596L48.8582 74.4507C50.1866 74.3332 51.506 74.1386 52.8092 73.8679L54.4727 76.5063L58.9726 75.1359L58.6648 72.08C59.8964 71.5646 61.0961 70.9835 62.2581 70.3395L64.6869 72.3714L68.5297 69.733L67.2155 66.945C68.229 66.1061 69.1874 65.2092 70.0851 64.2593L73.0545 65.48L75.2837 62.5817L74.8594 62.0619ZM13.5662 36.8591L14.165 37.1899C13.8803 38.4316 13.6775 39.6889 13.5578 40.9546L10.3306 41.6161V46.1133L13.5329 46.7748C13.6519 48.0457 13.8547 49.3083 14.1401 50.5553L11.3287 52.1304L12.3934 55.2808L12.8009 54.4932L12.1022 52.4612L14.4728 51.146L14.872 50.9175L14.7805 50.4056C14.4869 49.1933 14.273 47.965 14.1401 46.7276V46.2787L13.6743 46.1841L10.9793 45.6328V42.1202L13.6992 41.561L14.165 41.4665L14.2066 41.0176C14.3326 39.7839 14.5354 38.5584 14.8138 37.3474L14.9136 36.9142L14.5061 36.6937L14.1734 36.5047L13.5662 36.8591ZM23.7554 19.6109L24.3459 20.8947C23.7221 21.4145 23.1232 21.9501 22.5576 22.5093V23.3835C23.2529 22.6713 23.9888 21.9956 24.7618 21.3594L25.1195 21.0601L24.9531 20.6821L24.2627 19.1856L23.7554 19.6109Z" fill="#0066CC"/>
<path d="M93.4163 46.7985C93.7241 44.8925 93.5161 43.6954 92.8257 43.2071C92.1354 42.7188 91.1622 42.8605 90.0809 43.6717C89.4404 43.3488 88.5837 43.6717 87.5024 44.5696C87.683 44.1836 87.7008 43.7469 87.5523 43.3488C88.3236 43.0884 88.9856 42.5995 89.4404 41.9548C89.7603 41.1867 89.8939 40.3604 89.8314 39.5369C90.2609 38.2386 90.9251 37.0208 91.7943 35.9376C92.6261 34.1971 92.0272 33.5749 90.0643 34.1262C91.1289 33.2204 91.6696 32.4171 91.6696 31.7634C91.6655 30.8853 91.375 30.0298 90.8378 29.314C90.58 28.7548 90.1973 28.6524 89.6567 28.999C89.8692 28.6043 89.9749 28.1659 89.9645 27.7231C89.8173 26.624 89.4682 25.5579 88.9331 24.5727C88.8249 22.4935 88.3092 21.635 87.3776 21.9816C87.2191 20.8721 86.8349 19.8023 86.2464 18.8312C85.3648 17.5553 84.6411 17.256 84.1254 17.831C82.6781 15.7754 81.3057 14.9405 80.0414 15.2871C79.9974 14.4229 79.6622 13.5949 79.0849 12.9243C78.9032 11.91 78.4793 10.9483 77.8455 10.1126C77.1718 9.86847 76.706 10.2071 76.4482 11.168C76.3338 10.3315 76.0782 9.51775 75.6912 8.75797C75.5416 8.37467 75.2752 8.04206 74.9258 7.8023C74.5763 7.56253 74.1595 7.42642 73.7283 7.4112C73.3985 7.38192 73.0668 7.44201 72.7717 7.58447C72.3333 7.28643 71.8135 7.11418 71.2745 7.08829C70.0102 5.8124 68.8458 5.71789 67.7894 6.76538L67.6314 5.67063C67.2404 4.34748 66.5168 4.09546 65.3856 4.81216C64.067 3.36285 62.4871 2.14683 60.7193 1.22076C59.6297 0.882098 58.931 0.952981 58.5983 1.49642C58.1097 0.997234 57.4758 0.646414 56.7767 0.488304C56.1363 0.346539 55.5374 0.173269 54.9718 0C54.14 0 53.7574 0.417421 53.8572 1.32315C52.8894 1.29381 51.9324 1.52308 51.0957 1.98472C50.8444 2.16116 50.6677 2.41673 50.5976 2.70548C50.5274 2.99423 50.5684 3.2972 50.7131 3.5599C50.8574 3.92613 51.0795 4.26046 51.3656 4.54223C51.6517 4.82399 51.9958 5.04721 52.3767 5.19808C52.122 5.53837 52.0203 5.96039 52.0939 6.37158C52.0939 6.90714 52.7177 7.34819 53.8739 7.68685C54.6865 7.90999 55.5464 7.92899 56.3692 7.74199C56.305 7.89868 56.2782 8.06685 56.2907 8.23449C56.3031 8.40213 56.3544 8.5651 56.441 8.71179C56.5276 8.85848 56.6473 8.98526 56.7916 9.0831C56.9359 9.18094 57.1012 9.24741 57.2758 9.27778C57.7778 9.78809 58.4349 10.138 59.1561 10.2791C59.8774 10.4202 60.6271 10.3455 61.3016 10.0654L61.1435 11.0656L63.3145 11.9241C63.3303 12.3662 63.4734 12.7959 63.7285 13.1665C63.9836 13.5372 64.3409 13.8347 64.7618 14.0269L65.6434 14.3971C65.2484 14.5574 64.9023 14.8093 64.637 15.1296C64.4996 15.2305 64.3991 15.3697 64.3496 15.5275C64.3001 15.6854 64.304 15.854 64.361 16.0095C64.4179 16.1651 64.5249 16.2999 64.6669 16.395C64.8089 16.49 64.9788 16.5405 65.1527 16.5393C66.0768 16.6494 67.0078 16.6994 67.9391 16.689C67.9982 17.0401 68.1221 17.3787 68.3051 17.6892C68.6298 18.2191 69.0301 18.7041 69.4945 19.1305C70.2804 19.8345 71.2007 20.3905 72.2061 20.7687C72.1562 20.8159 71.8984 21.5011 71.6405 22.1391C71.3494 22.9267 71.1997 24.1711 71.7653 24.8563C71.6405 24.7854 71.1165 25.1477 70.9335 25.4155C70.2348 26.4472 71.7653 27.9121 71.9899 28.4004C71.7204 28.4724 71.4668 28.5898 71.2413 28.7469C70.7256 29.0856 70.9002 30.8498 72.3725 31.1648C73.4185 31.677 74.3866 32.3208 75.2504 33.0787C75.4334 33.2204 75.8992 34.0789 76.5729 34.9138C76.9306 35.3784 77.3215 36.1345 78.2365 36.1345C79.1144 38.6804 80.363 41.098 81.9462 43.3173C82.7341 44.1953 83.402 45.1638 83.9341 46.1999C83.8338 46.744 83.7727 47.294 83.7511 47.8459C83.5922 49.4464 83.2719 51.0288 82.7946 52.5715C81.1976 51.839 80.9397 52.8393 80.7068 53.7922C80.7567 53.745 79.9832 53.6505 79.8751 53.9891C79.9582 53.4063 78.9185 52.8865 78.461 53.2015C78.461 53.2015 77.937 53.5402 77.6293 53.7607C77.5295 53.8316 77.4463 53.2724 77.3964 52.855C77.3533 52.2979 77.3982 51.7378 77.5295 51.1932C77.5295 51.1223 77.937 50.7049 78.1699 50.3111C78.6357 49.5235 78.303 46.9875 77.7041 45.2469C77.6424 45.0482 77.5361 44.8645 77.3925 44.7082C77.249 44.5519 77.0716 44.4267 76.8724 44.3412C76.7393 44.3412 75.9158 44.3412 75.7328 44.9555C75.7328 44.609 75.1173 44.4199 74.6765 44.3176C73.4621 44.0261 72.1812 46.2786 72.2976 48.3342C72.1539 48.2211 71.9867 48.138 71.8069 48.0901C71.0333 47.7672 70.2598 48.0901 70.3596 49.0431C70.5166 49.6962 70.7774 50.3229 71.1331 50.9018C71.9649 52.3667 73.1793 53.934 73.2292 54.8397C72.4557 54.1781 70.7339 54.1782 70.7339 55.7454C70.8242 56.3209 71.0243 56.876 71.3244 57.3836C70.9668 59.0691 72.988 60.3213 74.6515 61.9123C74.6515 62.6998 74.9094 62.6998 75.1672 62.9598C74.8595 63.4008 72.9713 66.2125 72.9464 66.2597C72.9214 66.307 71.574 65.6297 71.1331 65.9683C70.7418 66.3371 70.3958 66.7466 70.1017 67.1891L70.3346 69.1502C70.4927 69.9378 70.0269 70.8593 68.9622 71.8674C68.0677 72.6532 67.3492 73.6013 66.8495 74.6554C66.6665 75.2934 65.9429 75.9786 64.6786 76.7347C64.4597 76.3321 64.1502 75.9799 63.7719 75.7029C63.6971 75.5848 63.564 75.5375 63.3311 75.5612C62.0668 75.8762 59.5133 77.2466 55.6622 79.058C54.9884 79.3731 53.9986 80.1843 52.8175 82.2084H50.605C50.0182 81.6199 49.3872 81.0724 48.7169 80.5702C48.2261 80.2079 47.3777 80.1843 46.1384 80.7671C45.5482 80.6356 44.9356 80.6222 44.3397 80.728C43.7438 80.8338 43.1779 81.0564 42.6782 81.3814C42.186 81.608 41.6215 81.6502 41.0978 81.4996L38.3613 78.6642C32.672 76.3487 29.6027 75.3249 29.0621 75.6084C28.5055 75.9223 28.0775 76.4053 27.8477 76.9788C26.9105 76.427 26.0688 75.7416 25.3524 74.9468L23.6223 73.0881C22.358 71.765 21.8423 70.497 22.0502 69.2762L22.333 67.6301C22.3583 67.5312 22.3618 67.4283 22.3432 67.3281C22.3245 67.2278 22.2843 67.1322 22.2249 67.0473C21.8001 66.6728 21.2727 66.419 20.7028 66.3149C20.6279 66.2676 20.395 66.1889 20.1122 67.1025C19.4631 66.3465 18.8578 65.5577 18.299 64.7397C19.1826 63.6108 19.8318 62.3333 20.212 60.975C20.6965 59.3395 20.9757 57.6555 21.0438 55.9581C21.1519 55.7848 21.1519 55.7612 21.2767 55.6667C22.1085 55.0287 23.2397 49.1297 22.9818 47.7121C22.882 47.1529 22.724 46.8536 22.5743 46.83C22.4877 46.819 22.3998 46.8246 22.3155 46.8462C22.2312 46.8678 22.1524 46.9052 22.0835 46.956L22.4162 46.318C22.6242 45.877 22.6242 45.5304 22.4162 45.4359C21.7341 45.3193 21.0304 45.4336 20.4283 45.7588C20.2709 44.8087 19.9916 43.8804 19.5965 42.9944C19.5133 42.8211 19.2804 42.9944 19.2555 42.9944C17.7084 43.8765 17.0097 45.8534 16.4441 48.3027L16.0033 48.665C13.8863 51.0751 12.3937 53.9206 11.6448 56.9741C11.2811 56.2901 11.002 55.5686 10.813 54.824C10.5632 54.2265 10.4663 53.5814 10.5302 52.9416C10.6787 52.7241 10.7338 52.4611 10.6843 52.2064C10.6348 51.9517 10.4845 51.7245 10.264 51.5712C9.88142 51.2037 9.39067 49.6128 8.7918 46.7985C8.95671 45.6483 9.27823 44.5232 9.74834 43.4512C10.5708 41.5495 11.5382 39.7069 12.6429 37.9381C12.7261 37.8357 13.2917 37.2529 13.4747 37.2293C15.4127 36.7646 23.9883 26.203 23.1315 21.3279C23.3145 21.3279 26.8246 15.4288 27.1407 14.1608L27.6065 14.0112L28.1721 13.8143C30.0353 13.1055 31.6073 12.3494 33.0795 11.7114L35.3253 10.5615C36.9401 9.90472 38.447 9.03213 39.8003 7.97039C40.4529 7.51005 41.0018 6.93081 41.4146 6.26671C41.8274 5.60262 42.0958 4.86707 42.2041 4.10333C41.9462 3.7883 41.1893 3.61503 39.925 3.56777C40.5439 2.9653 40.9205 2.17677 40.9897 1.3389C40.5073 0.732457 39.0933 0.637946 36.5979 1.07899C34.2139 1.60238 31.9561 2.54839 29.9438 3.86705C27.9891 5.04678 26.2242 6.48712 24.7036 8.14366C23.2408 9.73703 21.9971 11.4995 21.0022 13.389L22.1334 10.9396C22.6741 9.78971 23.2979 8.42719 23.9134 6.88352C24.0917 6.37203 24.0917 5.81982 23.9134 5.30834C23.7554 4.99331 23.3894 4.89092 22.8238 5.04056C22.2582 5.1902 21.1603 5.92266 19.5716 7.26156C17.7541 9.08115 16.232 11.1461 15.055 13.389C13.9971 15.2451 13.0906 17.175 12.3435 19.162C12.6078 17.8061 12.5625 16.4123 12.2104 15.0744C12.0357 14.6334 11.6198 14.4916 10.996 14.7121C10.2939 15.1969 9.68364 15.7907 9.19105 16.4685L7.48592 18.6895C6.76343 19.6829 6.09976 20.7136 5.49798 21.7768C4.6615 23.3016 3.9765 24.8968 3.45182 26.5417C2.78128 28.9407 2.34142 31.3922 2.13762 33.8663C1.96628 35.9637 2.12324 38.0736 2.60341 40.1276C2.9983 41.8243 3.59546 43.4731 4.38341 45.0421C4.98228 46.1211 5.54789 46.7354 6.04695 46.9087C6.38798 47.6963 6.8205 48.9879 7.39442 50.7679C7.66037 51.3905 7.79052 52.0575 7.77704 52.729C7.74774 52.8971 7.76619 53.0696 7.8305 53.2288C7.89481 53.3879 8.00267 53.528 8.14302 53.6347C8.48849 53.9138 8.73285 54.2884 8.8417 54.7058C9.30515 56.3462 9.96369 57.9316 10.8047 59.4314C10.6661 60.2121 10.5965 61.0024 10.5967 61.7941C8.79457 56.8271 7.34451 53.1018 6.24658 50.6183C4.07565 46.066 2.37052 43.9631 1.13118 44.3569C0.81042 44.4971 0.536683 44.7183 0.34005 44.9962C0.143416 45.2741 0.0315003 45.5979 0.0166016 45.9321C0.0166016 46.255 0.0166016 47.0584 0.0166016 48.3815C0.0166016 49.7047 0.199591 51.0672 0.407535 52.5163C1.34898 56.7937 3.3217 60.8072 6.17172 64.2435L10.2724 68.7958C10.9546 69.4719 11.7396 70.048 12.6013 70.5048C13.2325 70.8587 13.9854 70.9633 14.6974 70.7962C15.7366 72.3706 16.9106 73.8615 18.2075 75.254C19.1307 76.5693 20.0457 77.1836 21.0022 77.1127C21.1337 77.4805 21.383 77.8003 21.7155 78.0275C22.048 78.2548 22.447 78.3783 22.8571 78.3807L23.6888 78.2862C24.6777 79.1976 25.7279 80.0474 26.8329 80.8301L25.7849 83.6891C24.0734 83.9251 22.3486 84.0645 20.6196 84.1065C19.1723 83.1299 17.1012 81.7437 14.4728 80.0662L14.2898 76.9158C14.2097 75.965 14.4236 75.0127 14.9053 74.175C15.0384 73.5607 14.6807 73.0251 13.849 72.5368C12.6096 71.9461 12.0939 71.7492 11.5782 71.828C11.3453 71.8989 11.5782 72.0958 11.5782 72.4108V74.175L5.82237 74.2459C5.5701 74.2465 5.32087 74.2981 5.09136 74.3972C4.86185 74.4964 4.65735 74.6408 4.49154 74.8208C4.15051 75.1595 4.07565 75.8683 4.35845 76.9237C4.39357 77.2601 4.35967 77.5997 4.25864 77.9239C3.83296 79.412 3.12251 80.8135 2.16257 82.0588C2.01285 82.3265 2.08771 82.6967 2.34556 83.185C2.94027 84.048 3.64109 84.8412 4.43331 85.5478C5.13585 86.1382 5.87765 86.6854 6.65414 87.1859C7.63563 87.8475 9.39067 88.8793 11.8694 90.2497C14.5955 91.7882 17.4177 93.169 20.3202 94.3845C20.8858 94.4317 24.6287 93.9434 31.5324 92.959L31.5824 93.526C29.5944 94.9437 28.3301 95.5344 27.7812 95.2823C26.9494 95.3611 26.7498 95.8967 27.0326 96.9284C27.1554 97.1632 27.3305 97.3701 27.5459 97.5346C27.7613 97.6991 28.0118 97.8174 28.2802 97.8814L29.0039 98.669L31.075 99.8188C31.8054 100.04 32.5903 100.04 33.3208 99.8188C33.6732 99.6757 33.9816 99.4504 34.2172 99.164C34.4528 98.8775 34.608 98.5392 34.6682 98.1807L37.1635 95.8179L38.7855 94.6444C39.2775 94.6298 39.7592 94.507 40.1923 94.2855C40.6254 94.064 40.9981 93.7501 41.2808 93.3685C41.2826 93.1684 41.3304 92.971 41.4209 92.7901C41.5114 92.6092 41.6424 92.4491 41.8048 92.321L43.7678 91.0451C43.8427 90.8797 44.5996 91.1711 46.1716 91.9509C46.8209 92.1263 47.5141 92.0846 48.1346 91.8327L49.5819 91.0451C50.8961 91.3129 53.1669 92.8566 56.4524 95.6446C56.4708 95.8617 56.5347 96.0731 56.6403 96.2664C56.746 96.4598 56.8914 96.6313 57.0679 96.7709C57.6781 97.2403 58.4289 97.5159 59.2138 97.5585L59.9874 98.9525L60.7692 99.2203C61.9702 99.2282 63.1307 98.8095 64.0215 98.0468L65.2608 97.6766C65.8846 97.2119 66.1674 96.7473 66.0926 96.2826L65.6018 95.8179L64.5205 95.5501C63.0705 94.8745 61.7013 94.0534 60.4365 93.1007L59.6048 92.4628C64.6262 93.241 69.6877 93.7668 74.768 94.038C75.4916 94.1876 76.4981 93.8174 77.7374 92.9668C78.9767 92.1162 82.7779 89.5408 89.0828 85.3036C90.0182 84.337 90.7771 83.2298 91.3286 82.0272C90.6883 81.4173 90.1797 80.695 89.8314 79.9008C89.4573 79.1467 89.1781 78.3537 88.9996 77.538C88.8542 77.0237 88.8371 76.4844 88.9497 75.9628C89.0007 75.7116 88.9798 75.452 88.8891 75.2111C88.7984 74.9701 88.6413 74.7565 88.434 74.5924C88.251 74.3483 87.8434 74.1986 87.1447 74.1277C85.8019 74.011 84.45 74.0268 83.1106 74.175C82.412 74.1041 82.0044 73.9545 81.8963 73.6867L81.9462 72.4423C82.0543 71.8516 81.8963 71.6075 81.4554 71.6547C79.7919 72.0485 78.827 72.4423 78.486 72.8282C78.373 72.9312 78.2841 73.0553 78.2248 73.1928C78.1656 73.3302 78.1375 73.4779 78.1422 73.6263C78.1469 73.7747 78.1843 73.9205 78.2521 74.0543C78.3199 74.1882 78.4166 74.3071 78.5359 74.4034C78.721 74.5755 78.861 74.7862 78.9448 75.0187C79.0285 75.2512 79.0537 75.499 79.0183 75.7423C78.7854 78.0631 78.5775 79.6382 78.3945 80.4678C76.6557 81.8627 74.8004 83.1217 72.8466 84.2325C72.0647 84.4766 70.3097 84.3821 67.5981 83.9175C66.8932 83.2211 66.4415 82.3299 66.3089 81.3736C67.3381 80.7952 68.3297 80.1587 69.2783 79.4676C69.8817 79.381 70.4768 79.2493 71.0583 79.0738C71.549 78.9005 71.7819 78.4831 71.7819 77.7743C72.0451 77.6728 72.2789 77.5135 72.4641 77.3094C72.6492 77.1053 72.7803 76.8624 72.8466 76.6008L76.0988 72.907C77.051 72.0964 78.2398 71.5775 79.5091 71.4184C81.0063 71.3161 82.9443 70.5127 85.3315 69.0557C85.6891 68.6934 85.6891 68.1263 85.3315 67.4175C86.642 66.485 87.8068 65.382 88.7916 64.1411C89.0964 63.7396 89.2954 63.275 89.3721 62.7859C89.4488 62.2968 89.4009 61.7975 89.2325 61.3294C90.7297 59.644 91.5615 58.2972 91.7278 57.2891C91.872 56.3468 91.8467 55.3881 91.653 54.4538C92.1983 54.1464 92.7012 53.776 93.1501 53.3512C93.4509 53.0016 93.5996 52.5566 93.566 52.1068C93.5674 51.8569 93.5125 51.6096 93.4049 51.3815C93.2974 51.1533 93.1396 50.9495 92.9422 50.7836C94.115 49.2715 94.2398 47.972 93.4163 46.7985ZM61.809 10.3568L61.9171 9.13602L60.8524 9.33291C60.3174 9.48021 59.7491 9.47989 59.2143 9.33202C58.6795 9.18414 58.2003 8.89483 57.8331 8.49807C57.1594 8.59258 56.8766 8.34843 57.0013 7.71048C57.2592 7.19067 57.2093 6.92289 56.7934 6.87564L55.1298 7.02528C54.3644 7.015 53.6322 6.72753 53.0837 6.22194C52.8508 5.85178 53.0088 5.43435 53.5245 4.87517C52.7586 4.67326 52.0909 4.22486 51.6364 3.60715C51.4035 3.1661 51.5615 2.81956 52.1022 2.50453C53.0684 2.18726 54.1102 2.13808 55.1049 2.36276C54.9435 2.20867 54.8307 2.01496 54.7793 1.80346C54.7278 1.59195 54.7398 1.37105 54.8138 1.16563C54.8138 0.724581 55.8285 0.968733 57.7083 1.85083L58.8479 2.48878C58.9118 2.36318 59.0013 2.25083 59.1114 2.1582C59.2214 2.06557 59.3497 1.9945 59.4889 1.9491C59.6282 1.90369 59.7755 1.88486 59.9224 1.89368C60.0694 1.90249 60.213 1.93879 60.345 2.00047C61.2016 2.38321 62.0083 2.85895 62.7489 3.41813C63.6677 4.11878 64.5042 4.91091 65.2442 5.78089C66.026 5.29259 66.5917 5.3871 66.9077 6.09593L67.0658 7.37182C66.234 6.63936 65.2608 6.58423 64.0464 7.22218L63.2646 6.90714C62.4631 6.06987 61.8011 5.12174 61.3016 4.09546C61.0936 3.30787 60.9689 3.21336 60.9689 3.87493C61.1808 4.8659 61.669 5.78507 62.3829 6.53698C61.0388 6.1776 59.8024 5.5248 58.773 4.63102C58.1492 4.00167 57.5606 3.34181 57.0096 2.65417C56.6021 2.01622 56.444 2.01622 56.5189 2.65417C56.9951 3.4734 57.617 4.20875 58.3571 4.82791C57.7582 4.58376 57.2176 4.33961 56.6936 4.09546C55.679 3.63303 54.5867 3.34249 53.4663 3.23698C53.0504 3.23698 53.0254 3.30787 53.3831 3.45751C54.4721 3.68855 55.5358 4.01551 56.5605 4.43412C57.0501 4.63604 57.4979 4.91871 57.883 5.26896C56.8546 5.68598 55.7399 5.87716 54.6224 5.82815C53.9321 5.82815 53.5911 5.82815 53.6742 5.90691C53.8818 6.00977 54.1072 6.07646 54.3396 6.1038C55.7168 6.24139 57.1092 6.09908 58.4236 5.68638C59.5554 6.22951 60.7254 6.69793 61.9254 7.08829C61.0556 7.29108 60.238 7.65808 59.5216 8.16728C59.2055 8.50595 59.3635 8.52957 59.9624 8.21454C60.7723 7.73916 61.6972 7.46802 62.6491 7.42695L63.6056 7.82074C63.5368 8.83753 63.7856 9.851 64.3209 10.7348L63.7054 10.9238L61.809 10.3568ZM68.2053 16.0117C66.1175 16.0589 65.71 16.0117 65.5769 15.6887C65.4438 15.3658 65.4438 15.2477 66.1924 14.8618L66.5584 14.2475C65.344 13.7355 64.2294 13.0976 64.1795 11.6799L65.186 11.3098C65.6268 10.7978 65.6268 10.4277 65.186 10.1835C64.7451 9.93936 64.5122 9.27778 64.4873 8.23029C64.8754 7.37444 65.8846 7.37444 67.5149 8.23029C68.2053 6.93077 69.0787 6.53698 70.0851 7.08829C69.6589 7.04047 69.2293 7.14585 68.8812 7.38356C68.5331 7.62128 68.2919 7.97404 68.2053 8.37206C68.1049 9.06187 68.1049 9.76147 68.2053 10.4513C67.8485 9.95156 67.3939 9.52114 66.8661 9.18327C65.8597 8.69497 65.6767 8.74222 66.3255 9.33291C66.9236 9.91624 67.4794 10.5372 67.989 11.1916C67.6224 11.4939 67.1963 11.7246 66.7353 11.8705C66.2742 12.0165 65.7873 12.0748 65.3024 12.0422C64.9697 12.1919 65.0196 12.2627 65.4604 12.31C65.9882 12.4159 66.5371 12.3748 67.0408 12.1919C66.9833 12.8999 67.0971 13.611 67.3735 14.2711C67.7485 14.7759 68.2128 15.2155 68.7459 15.5706C68.6269 15.6015 68.5166 15.6572 68.4231 15.7334C68.3296 15.8097 68.2552 15.9048 68.2053 16.0117ZM69.3698 17.0355C69.3698 16.5945 69.7358 16.3503 70.5592 16.3031C71.3827 16.2558 71.4908 16.0353 70.9501 15.6415C69.8871 15.3111 68.9519 14.6888 68.2635 13.8537C67.7728 13.2472 67.7728 12.8298 68.2635 12.5856L69.0953 12.3651L69.4862 11.8768L68.9955 10.0417C68.8825 9.66346 68.9025 9.26063 69.0526 8.89407C69.2026 8.52752 69.4745 8.21713 69.8272 8.00977C70.358 7.95086 70.8959 7.99674 71.4069 8.14449C71.918 8.29225 72.3912 8.53867 72.7967 8.86824C72.8466 8.37206 73.1876 8.23029 73.8281 8.42719C74.4685 8.62408 75.1007 9.91573 75.6663 12.3651L76.548 12.6802C76.8557 11.995 77.0886 11.6799 77.2966 11.6799C77.5045 11.6799 77.8871 12.2627 78.1283 13.4126C78.5403 13.8308 78.8494 14.3301 79.0335 14.8748C79.2176 15.4195 79.272 15.996 79.193 16.563C78.7006 17.2111 78.4279 17.9857 78.4111 18.784L77.9786 17.831C77.7078 16.7426 77.593 15.6247 77.6376 14.5074C77.5877 13.9954 77.5378 13.9954 77.4546 14.5074C77.3529 15.3677 77.3362 16.2352 77.4047 17.0985C76.4299 15.8918 75.3413 14.7715 74.1525 13.7513C73.9342 12.8854 73.864 11.9919 73.9445 11.105C73.8198 10.2465 73.7366 10.0575 73.6617 10.5222C73.5798 11.5071 73.6133 12.4976 73.7615 13.4756C72.6536 12.3751 71.6437 11.1897 70.7422 9.93148C70.4594 9.44318 70.3263 9.34866 70.3513 9.61644C70.9557 10.7544 71.7134 11.8133 72.6054 12.7668C73.3789 13.6253 73.9944 14.2868 74.4852 14.7751C73.6711 14.5295 72.8362 14.3504 71.9899 14.2396C71.3058 14.1597 70.6416 13.9678 70.0269 13.6725C69.4613 13.578 69.4862 13.6725 70.0768 14.0427C70.7159 14.3543 71.409 14.5544 72.1229 14.6334C73.1248 14.8026 74.0965 15.1048 75.0092 15.5312C75.8031 16.1345 76.4692 16.8748 76.9722 17.7128L77.6459 19.1305C76.5564 18.5835 75.3788 18.2109 74.1608 18.0279C73.3908 17.9552 72.6396 17.7581 71.9399 17.4451C70.9585 17.0513 70.8503 17.0749 71.5989 17.5396C72.3279 17.9372 73.1398 18.1791 73.9778 18.2484C75.3701 18.5342 76.6989 19.0486 77.9038 19.7684L78.0368 20.0835C77.9014 20.2488 77.8065 20.4405 77.759 20.6449C77.7115 20.8492 77.7127 21.061 77.7624 21.2649L78.1866 22.3202C77.8539 21.9264 77.3548 22.0997 76.7975 22.8558C76.9065 22.6518 76.9474 22.4213 76.9147 22.1948C76.882 21.9683 76.7773 21.7566 76.6145 21.5878C76.0988 20.8002 74.8262 20.0126 72.8133 19.1856L72.4806 19.7763C71.7543 19.6149 71.0848 19.2774 70.5379 18.7968C69.991 18.3163 69.5856 17.7093 69.3615 17.0355H69.3698ZM84.8407 45.9242L84.7076 45.7588C83.984 44.7507 83.4184 43.9946 83.0441 43.3961C82.6698 42.7975 82.1125 42.0336 81.3806 40.8837C80.7975 40.0015 80.2725 39.0862 79.8085 38.1429C79.4741 37.4597 79.4092 36.6858 79.6255 35.9613C79.8584 35.2288 80.0414 34.6696 80.1911 34.2758C80.3409 33.882 80.3242 33.8111 80.1412 34.0553C79.6789 34.7251 79.3282 35.4582 79.1015 36.229L77.9952 33.1968C78.2871 31.5384 78.9756 29.9651 80.0081 28.5973C80.3658 27.9594 80.3408 27.9121 79.8751 28.4319C78.8424 29.7061 78.1029 31.171 77.7041 32.7321L75.974 29.062C75.9241 28.4004 76.3899 27.1324 77.3215 25.2501C77.7873 24.2656 77.6792 24.2971 76.9805 25.3682C76.4356 26.315 76.0032 27.3161 75.6912 28.3532C75.1755 26.3448 74.6598 24.6357 74.1691 23.2181L73.7782 23.1157L74.0111 23.6828C74.239 25.2784 74.6547 26.845 75.2504 28.3532C74.526 27.7402 73.707 27.2355 72.8216 26.8567C72.3558 26.6126 72.3558 26.6677 72.8216 27.03C73.744 27.5031 74.5854 28.1059 75.3169 28.8178C75.7495 29.8181 76.1487 30.7238 76.5313 31.535C75.4598 30.8919 74.316 30.3635 73.1211 29.9598C72.5222 29.8574 72.5222 29.9598 73.1211 30.1804C75.134 30.9679 76.3982 31.6925 76.864 32.4565L78.0036 35.2682C77.5877 35.2682 77.047 34.6775 76.34 33.504C75.7744 32.5274 74.377 31.5744 72.1313 30.645C71.9121 30.5553 71.7325 30.3963 71.6233 30.1953C71.5141 29.9942 71.482 29.7634 71.5324 29.5424C71.5823 29.1486 72.0231 28.9832 72.7967 29.0541C72.6389 28.5383 72.3761 28.0567 72.0231 27.6364L71.5823 26.9985C70.9917 25.825 71.3244 25.2343 72.6469 25.2343C72.4419 25.0123 72.2897 24.751 72.2007 24.4684C72.1118 24.1857 72.0881 23.8882 72.1313 23.5961C72.0997 22.9115 72.2788 22.2329 72.6469 21.6429C72.8735 21.2165 73.0573 20.7709 73.1959 20.3119C73.9196 20.7057 74.56 21.0207 75.134 21.2885C75.4161 21.4304 75.652 21.6426 75.8162 21.9022C75.9803 22.1617 76.0665 22.4588 76.0655 22.7613L75.7411 24.4152C75.8493 24.7302 76.157 24.6121 76.6478 24.1002C76.9268 23.6359 77.328 23.2479 77.8123 22.9739C78.2905 23.1863 78.7051 23.5085 79.0183 23.9112C79.376 24.5964 79.2512 25.8171 78.6024 27.6286L78.0119 29.0935C79.2762 27.5183 80.2826 26.7307 81.0811 26.8174C81.339 26.9906 81.4221 27.3608 81.314 27.92C81.2391 28.4901 81.2391 29.0668 81.314 29.6369C81.3687 29.9232 81.3386 30.2183 81.227 30.4894C81.1154 30.7605 80.9268 30.997 80.6819 31.1727C80.0771 31.717 79.6918 32.4439 79.5923 33.2283C80.8066 32.4407 81.2558 32.5431 81.0645 33.7166L80.3908 35.9928C80.2161 37.0954 80.3907 37.5679 80.9397 37.5679C81.4887 37.5679 81.838 37.5679 81.9961 37.7885C82.1462 38.1387 82.1725 38.5255 82.0709 38.8911C81.816 39.3459 81.6578 39.8435 81.6051 40.356C81.6522 40.5671 81.7618 40.761 81.9212 40.9152C82.0959 41.0884 82.4619 41.0648 83.0275 40.8207C83.5931 40.5765 83.8592 40.7498 83.8592 41.309C83.8592 41.8682 83.8592 42.388 83.8592 42.8841C83.8983 43.4167 84.0848 43.9301 84.3999 44.3727C84.6296 44.7153 84.9902 44.9608 85.4063 45.0579L85.8971 44.4987C85.1485 44.4987 84.8158 44.0576 84.8657 43.1047C84.9316 42.363 84.9316 41.6174 84.8657 40.8758C84.5579 40.2142 84.2668 39.8519 83.9591 39.781C83.6513 39.7102 82.9776 37.946 81.8963 34.4727L83.0857 34.52C83.9175 37.5049 84.6328 39.0958 85.1485 39.3164C85.6642 39.5369 85.922 39.8283 85.8721 40.104C85.884 40.7556 85.9789 41.4035 86.1549 42.0336C86.8287 41.8682 87.2196 41.246 87.3194 40.3009C87.4423 39.9089 87.4277 39.4898 87.2777 39.1064C87.1277 38.723 86.8505 38.396 86.4876 38.1744C85.7058 37.757 85.24 37.3868 85.1402 37.0009C84.9073 36.4102 85.1402 36.04 85.8638 35.8982C86.2797 35.6777 85.2982 34.8192 82.8944 33.3543C81.68 32.5195 81.2891 31.7792 81.7798 31.1727C81.9628 30.8577 82.2955 30.8577 82.8112 31.1727C83.3269 31.4878 83.643 31.5901 83.7927 31.4169C84.0589 30.9286 83.8509 30.5663 83.1772 30.3694C82.5035 30.1725 82.1957 29.9756 82.2206 29.7078C82.1765 28.9647 82.1932 28.2196 82.2706 27.4789C82.3484 27.0209 82.3143 26.5521 82.1707 26.1085C81.7549 25.5493 80.9813 25.573 79.8168 26.2109C80.0762 25.6655 80.1489 25.0569 80.0248 24.4703C79.8685 23.8711 79.5698 23.3135 79.1514 22.84L78.5858 21.2019C78.461 20.619 78.7938 20.2489 79.5923 20.0284C79.3223 19.275 79.3223 18.4583 79.5923 17.705C79.8058 17.3266 79.9974 16.9375 80.1662 16.5393C80.266 16.2164 80.5987 16.1692 81.1726 16.437C81.7465 16.7047 82.6199 17.6105 83.8592 19.225C84.4498 18.5949 85.0154 18.8391 85.5893 19.9102C86.2887 20.9776 86.5821 22.2391 86.4211 23.4859C87.7935 22.777 88.2843 23.2417 87.8684 24.9035C88.3445 25.7732 88.7103 26.6932 88.958 27.6443C89.0929 28.2672 88.9709 28.9154 88.617 29.4558C88.3303 29.835 88.1604 30.2822 88.1262 30.7474C88.1262 31.0703 88.2593 31.0467 88.5172 30.7474C88.9096 30.3464 89.4242 30.0711 89.9894 29.9598C90.3721 30.5485 90.5843 31.2221 90.6049 31.913C90.5406 32.4145 90.272 32.8723 89.8563 33.1889C89.378 33.6211 89.0823 34.2035 89.0245 34.8271C89.0149 34.8934 89.0216 34.9609 89.0441 35.0243C89.0666 35.0877 89.1043 35.1453 89.1542 35.1926C89.2042 35.2399 89.2651 35.2756 89.332 35.2969C89.399 35.3182 89.4703 35.3246 89.5402 35.3154L90.5467 35.0476C91.0624 34.9768 91.0873 35.3627 90.5966 36.1975C90.1612 36.9635 89.7724 37.7523 89.4321 38.5603C89.2245 39.0638 89.1037 39.5956 89.0745 40.1355C89.0745 40.923 88.8915 41.4035 88.6336 41.5531C88.7074 40.4846 88.6824 39.412 88.5588 38.3476C88.3967 37.0897 88.1634 35.8409 87.8601 34.6066C88.4016 33.8121 88.7876 32.9317 88.9996 32.0076C89.2574 31.3224 89.2075 31.22 88.8416 31.7634C88.634 32.5132 88.2039 33.1911 87.6022 33.7166C87.1863 32.4014 86.7704 30.8104 86.2631 28.9517C86.8824 27.9239 87.2491 26.7771 87.3361 25.5966C87.386 24.4703 87.3361 24.3995 87.1281 25.3524C86.9878 26.4815 86.5627 27.562 85.8888 28.5028C85.398 27.03 84.8823 25.636 84.3167 24.3128C84.5191 23.4633 84.5947 22.5911 84.5413 21.7217C84.5413 20.7451 84.4165 20.6978 84.2585 21.6272C84.2693 22.2725 84.1739 22.9156 83.9757 23.5331L82.7447 20.4773L81.9129 18.7918C81.6551 18.2248 81.5719 18.2248 81.655 18.7918L82.3787 21.0128C81.9128 20.5128 81.3818 20.0709 80.7983 19.6976C80.3076 19.3983 80.2327 19.4219 80.5155 19.7448C81.3094 20.3961 82.0287 21.1247 82.6615 21.9186C83.1273 23.0448 83.618 24.2183 84.1088 25.4155C83.2363 24.6299 82.233 23.986 81.1394 23.5095C80.4407 23.2653 80.4407 23.3914 81.1394 23.8797C82.4809 24.7696 83.6871 25.8296 84.7243 27.03C85.1651 28.2744 85.606 29.4715 85.9969 30.6214C85.0097 29.9747 84.1437 29.1761 83.435 28.2586C82.9942 27.8412 82.9692 27.92 83.3851 28.4792C84.1766 29.6196 85.1343 30.6484 86.2298 31.535L87.0616 34.7641C86.0411 33.8405 84.9267 33.0147 83.7345 32.299C83.1439 31.9288 83.094 31.9997 83.6097 32.488C85.0413 33.5197 86.3101 34.7397 87.3776 36.1109C87.7436 37.0875 87.8933 38.8989 87.8684 41.5689C87.8185 42.2304 87.3028 42.7188 86.2963 43.0338L86.105 45.6801C85.5644 48.3736 84.8906 51.5319 84.4415 53.3669L83.6097 52.9495C84.1963 50.6385 84.6077 48.2908 84.8407 45.9242ZM74.8595 61.0459C74.6515 60.8726 74.0277 60.3843 72.9963 59.581C71.9649 58.7777 71.757 58.0846 72.0897 57.4466C71.8168 57.1075 71.5852 56.7402 71.3993 56.3519C71.3003 56.1566 71.2604 55.9392 71.2839 55.7237C71.3074 55.5083 71.3934 55.3032 71.5324 55.1311C71.8152 54.7137 72.5139 54.9106 73.6035 55.6982C73.7782 55.1378 73.7782 54.5416 73.6035 53.9813C73.3955 53.4693 73.1876 52.9338 72.9298 52.4061C72.5054 51.6507 72.039 50.9172 71.5324 50.2087C71.4891 50.1086 71.4391 50.0113 71.3827 49.9173C71.4575 49.5786 71.5573 49.24 71.6156 48.8698C71.8704 48.9683 72.1043 49.1098 72.3059 49.2872C73.2375 48.3343 73.8613 48.0586 74.1441 48.4524C74.5213 49.0673 74.7645 49.7475 74.8595 50.4529C75.0558 51.4374 75.0811 52.4456 74.9343 53.4378L74.7014 53.6347L74.9343 53.8552C74.9349 54.6504 74.84 55.4431 74.6515 56.218C74.6491 56.5178 74.7482 56.8104 74.9343 57.0528C74.8692 56.7498 74.8441 56.4403 74.8595 56.1314C74.9094 55.9581 75.0425 55.5407 75.2171 54.8791C75.3652 54.5238 75.4712 54.154 75.5332 53.7765C75.5332 53.682 75.5332 53.6347 75.2421 53.5875C75.357 53.56 75.4625 53.505 75.5484 53.4278C75.6344 53.3505 75.6979 53.2536 75.7328 53.1464C75.8328 52.9642 75.8537 52.7523 75.7911 52.5557C75.7139 52.0049 75.6805 51.4494 75.6912 50.8939C75.7109 50.1979 75.6241 49.5029 75.4334 48.8304C75.2937 48.4731 75.1907 48.1038 75.1256 47.7278C75.1256 47.46 74.8678 47.3104 74.4519 47.2631C74.036 47.2159 73.4704 47.6333 72.7218 48.4366C72.889 47.372 73.2373 46.34 73.7532 45.3808C74.1192 44.8925 74.4769 44.7192 74.8428 44.9397C75.1541 45.0905 75.4073 45.3302 75.5665 45.625C75.6912 45.8691 75.8493 45.8455 76.0822 45.4989C76.3151 45.1524 76.4897 45.0343 76.6478 45.1603C76.8509 45.3377 77.01 45.5556 77.1136 45.7982C77.2785 46.1154 77.3987 46.4517 77.4712 46.7985C77.578 47.4375 77.6475 48.0817 77.6792 48.728C77.7961 49.3594 77.6816 50.0097 77.3548 50.571C77.0454 50.8937 76.8787 51.3166 76.889 51.7524C76.9639 53.556 77.1219 54.4617 77.3548 54.4617C77.6666 54.4003 77.9544 54.2585 78.1866 54.0521C78.2858 53.9381 78.4147 53.8506 78.5606 53.7981C78.7064 53.7457 78.8642 53.73 79.0183 53.7529C79.2512 53.8316 79.376 54.3435 79.4259 55.328C79.4758 56.3125 79.559 56.3519 79.717 55.6194C79.8751 54.887 80.1246 54.4696 80.5488 54.4696C80.973 54.4696 81.0395 55.5013 80.7817 57.5569C79.6285 58.4761 78.5727 59.4996 77.6293 60.6127C77.4156 60.0097 77.4156 59.3571 77.6293 58.754C77.8468 58.376 78.0358 57.9838 78.1949 57.5805C78.3779 57.1395 78.5026 56.7221 78.6108 56.3834C78.9185 55.5249 78.8686 55.4462 78.4527 56.1629C78.2198 56.596 78.0119 56.9505 77.8622 57.2812C77.6811 57.6116 77.4812 57.9324 77.2633 58.2421C77.088 57.2157 76.8463 56.2004 76.5396 55.202C76.2069 54.2254 76.1321 54.249 76.2568 55.2571C76.557 56.8599 76.7653 58.4768 76.8807 60.1008C76.2685 59.4714 75.5914 58.9015 74.8595 58.3996C74.2509 57.9694 73.6932 57.4783 73.1959 56.9347C72.78 56.6906 72.7301 56.7142 72.988 57.0292C73.582 57.7495 74.2477 58.4142 74.9759 59.0139C75.5364 59.478 76.054 59.9865 76.523 60.534C76.6867 60.7151 76.8009 60.9314 76.8557 61.1641C76.4937 61.6251 76.1049 62.0668 75.6912 62.4872C75.5588 62.4157 75.4485 62.3127 75.3711 62.1884C75.2938 62.064 75.2522 61.9227 75.2504 61.7784C75.2402 61.6377 75.2003 61.5005 75.1332 61.3747C75.0661 61.2489 74.973 61.1371 74.8595 61.0459ZM54.8138 80.3969C55.3169 79.8696 55.9067 79.4228 56.5605 79.0738C58.5933 78.0501 60.7101 77.1836 62.8903 76.4826C63.0649 76.4118 63.223 76.4826 63.381 76.6559L63.8385 77.1678L63.223 77.5301C62.8267 77.8242 62.3273 77.965 61.8256 77.9239C61.1517 77.9225 60.4872 78.0737 59.8876 78.365C59.5517 78.4602 59.2495 78.6403 59.0136 78.8859C58.7776 79.1315 58.6168 79.4333 58.5484 79.759C58.4568 80.0885 58.233 80.371 57.9246 80.5466C57.0928 80.9561 56.3525 81.3342 55.6788 81.6413L53.9487 81.5468L54.8138 80.3969ZM59.9624 79.4203C60.5143 78.9973 61.2182 78.794 61.9254 78.8533C62.2082 78.8533 62.2332 79.3652 61.9753 80.3497C61.7923 80.7592 60.9689 81.3735 59.5465 81.9249L59.2887 82.0194C59.0807 82.0903 58.8978 82.1139 58.6649 82.1926L56.835 81.9485L59.3303 80.9167C59.2393 80.6365 59.2524 80.3352 59.3675 80.0629C59.4825 79.7907 59.6924 79.5639 59.9624 79.4203ZM29.4197 76.27C29.6203 76.2099 29.8319 76.1901 30.041 76.2118C30.2501 76.2335 30.4521 76.2963 30.6341 76.396L33.3208 77.6168L37.9205 79.2549C38.6775 79.9738 39.3702 80.751 39.9916 81.5783C39.06 81.6807 38.0535 81.7516 36.9639 81.7988L34.5601 80.2237L32.4141 77.8609C32.0572 77.4454 31.63 77.0887 31.1498 76.8055C30.7205 76.5245 30.1929 76.4116 29.6776 76.4905C29.4197 76.5614 29.1369 76.9079 28.8458 77.538L28.7127 77.4435C28.7372 77.2173 28.813 76.9989 28.9351 76.8031C29.0571 76.6073 29.2225 76.4389 29.4197 76.3094V76.27ZM32.0315 78.5697C31.7874 78.6899 31.5164 78.7526 31.2413 78.7526C30.9663 78.7526 30.6952 78.6899 30.4511 78.5697L29.6194 77.9318C29.9022 77.223 30.3181 76.9788 30.7839 77.223L31.6822 78.0106L32.0315 78.5697ZM22.2915 48.8304C22.1022 50.7979 21.7292 52.7456 21.1769 54.6507C21.1899 53.3671 21.0953 52.0846 20.8941 50.8151L21.4098 49.5156C21.4098 49.051 21.3349 49.0273 21.127 49.4447L20.7943 50.0276L20.736 48.9801L21.5678 47.9956C22.1334 47.4915 22.3663 47.7593 22.2915 48.8304ZM21.4597 45.8455C21.9504 45.751 22.0336 45.94 21.7508 46.4834L20.6612 47.972C20.6183 47.4414 20.5321 46.9148 20.4033 46.3968C20.7372 46.1855 21.0908 46.0036 21.4597 45.8534V45.8455ZM17.043 48.3421C17.8165 45.4044 18.5734 43.8371 19.2638 43.6717C19.8358 45.5258 20.1764 47.4369 20.2786 49.366C20.5371 51.8645 20.5371 54.381 20.2786 56.8796C19.9375 59.6913 19.4468 61.6051 18.7731 62.6053L18.0494 64.0703C18.0494 61.8965 18.0494 60.1323 18.1326 58.7147C18.2158 57.297 18.2324 55.5092 18.2823 53.2015C18.3322 50.8939 18.5152 48.3343 18.7731 45.4438C18.9311 44.735 18.8812 44.5696 18.6483 44.9555C17.9817 48.6906 17.6257 52.4695 17.5836 56.2574L17.5337 59.266L17.4672 63.4402L16.7435 62.6526C16.2034 60.084 15.9773 57.4651 16.0698 54.8476C16.1937 52.659 16.5194 50.4849 17.043 48.35V48.3421ZM12.0523 57.2182C12.837 54.2687 14.2713 51.5096 16.2611 49.1218C15.965 50.1798 15.7674 51.2603 15.6706 52.3509C14.0973 54.8814 12.8146 57.5639 11.8444 60.3528C11.5955 61.3196 11.4149 62.301 11.3038 63.2905C11.252 61.2438 11.5154 59.2009 12.0856 57.2261L12.0523 57.2182ZM41.2808 4.51288C41.2493 4.94197 41.1252 5.3604 40.9164 5.74237C40.7075 6.12435 40.4183 6.46178 40.0664 6.73387C38.6196 7.98251 37.0027 9.04204 35.2588 9.88422C33.2958 10.8372 30.6591 11.9635 27.8477 13.2866V12.9637C31.0871 10.4923 34.5432 8.28699 38.1783 6.37158C39.06 5.88328 38.719 5.73364 37.7125 5.95416C36.4474 6.5342 35.2148 7.17563 34.0195 7.87588C31.7986 9.24628 29.6277 10.6167 27.4817 11.9635L27.5566 11.3255C31.7986 7.78137 35.2865 5.49999 38.0203 4.48137C39.09 4.21138 40.2171 4.22227 41.2808 4.51288ZM28.5963 5.78089C30.7666 4.12555 33.247 2.87241 35.9076 2.08711C37.061 1.75104 38.2607 1.57853 39.4676 1.57518C39.9583 1.66969 40.0914 1.94534 39.8585 2.36276L38.6441 3.93794C37.0641 4.26995 35.5598 4.86746 34.2024 5.70213C32.0544 6.8884 30.0224 8.25371 28.1305 9.78184L27.2987 10.2465C26.8828 9.97873 26.1342 10.1047 25.0696 10.6403C27.8741 8.33227 30.876 6.24852 34.0444 4.41049C35.0824 4.00394 36.0498 3.45168 36.914 2.77231C35.7035 3.13913 34.5357 3.62206 33.4289 4.21359C30.8702 5.65296 28.4013 7.23075 26.0344 8.93912L22.7573 11.8138C24.4297 9.57969 26.3913 7.55291 28.5963 5.78089ZM25.1611 11.6799C25.7516 11.357 26.1675 11.2389 26.3755 11.3098C26.5412 11.7732 26.584 12.2682 26.5002 12.751C26.1631 14.0955 25.6693 15.4004 25.028 16.6417L22.9652 20.4773C21.4114 20.7125 19.9651 21.3753 18.8063 22.3832C19.4718 21.3042 20.2786 20.0205 21.2351 18.6422C22.1916 17.2639 23.6639 15.0902 25.6768 12.2785C26.0095 11.7429 26.0344 11.5933 25.6768 11.8611C24.7853 12.8374 23.9522 13.8603 23.1815 14.9248C21.1837 17.5721 19.3292 20.3138 17.6252 23.1393C17.0014 24.0214 15.787 25.8329 13.3582 29.377C13.4185 29.2653 13.4362 29.1373 13.4081 29.0147C13.4271 28.9894 13.4373 28.9591 13.4373 28.9281C13.4373 28.897 13.4271 28.8668 13.4081 28.8415L16.6354 23.4465L19.8627 17.7207C21.1685 15.3817 22.9726 13.3248 25.1611 11.6799ZM16.8434 14.909C17.6285 13.432 18.5646 12.0312 19.6381 10.7269C20.0207 9.8921 19.8211 9.93936 19.0143 10.7742C16.5317 13.9766 14.3944 17.4066 12.6346 21.0128L13.7159 18.4689C14.2433 17.1601 14.8402 15.8773 15.5042 14.6255C16.308 12.952 17.3038 11.3673 18.4736 9.89998C19.0924 9.1012 19.7647 8.34092 20.4865 7.62385C21.834 6.52123 22.6075 6.00929 22.8404 6.04867C22.9337 6.13633 22.9982 6.24763 23.0262 6.36919C23.0543 6.49075 23.0446 6.61738 22.9985 6.73387L20.2203 13.389C18.2147 17.0044 15.8531 20.4325 13.1669 23.6276C11.9525 24.8956 11.179 25.7305 10.8712 26.0691C10.6077 26.3903 10.3659 26.727 10.1476 27.0773L10.3805 26.1715L11.4368 24.5964C13.4147 21.4633 15.2085 18.2293 16.8101 14.909H16.8434ZM10.0894 56.218C9.70675 55.1941 9.39067 54.1388 9.10787 53.0676C8.77843 52.0633 8.38966 51.0773 7.94339 50.1142C7.53582 48.9879 7.16984 47.8381 6.78723 46.7118C6.78723 46.6409 6.83713 46.6094 6.86209 46.5386C5.92834 46.1356 5.19729 45.4038 4.82424 44.4987C4.29735 43.2199 3.88011 41.903 3.57659 40.5608C3.15847 38.6475 2.99362 36.6923 3.08584 34.7405C3.26013 32.0859 3.67758 29.4508 4.3335 26.8646C5.37666 23.135 7.33123 19.6898 10.0395 16.8071C10.6633 16.1219 11.0459 15.9723 11.2039 16.3188C11.3664 17.6849 11.3664 19.0639 11.2039 20.43C11.0046 21.9374 10.6395 23.4208 10.1143 24.8563C8.64208 29.4558 7.76872 32.5352 7.48592 34.1262C6.94526 36.0085 6.32975 38.4343 5.65602 41.4429C5.31499 40.0016 5.48966 36.9379 6.13844 32.2911C6.78723 27.6443 7.63563 24.3443 8.63376 22.3596C9.09955 21.3357 9.09955 21.1861 8.5589 21.8949C6.28539 25.5703 4.96842 30.9942 4.60798 38.1665C4.46839 39.9856 4.61414 41.8143 5.04051 43.593C5.43144 44.6956 5.87228 45.3572 6.33807 45.5304C6.42217 45.579 6.51694 45.6085 6.61504 45.6167C6.71314 45.6249 6.81191 45.6115 6.90368 45.5777C6.90017 45.4394 6.93763 45.303 7.01181 45.1839C7.41937 43.5221 7.46928 41.7815 7.7604 40.0725C7.84125 38.8011 8.12158 37.5482 8.59217 36.355C8.75021 36.0636 8.59217 35.7644 8.64208 35.4729C8.49039 35.2603 8.42305 35.0037 8.45197 34.7486C8.4809 34.4934 8.60422 34.2562 8.80012 34.0789C9.31597 33.3435 9.73234 32.5497 10.0395 31.7162C10.1393 31.5193 10.1725 31.2751 10.2724 31.0782C10.5629 30.7246 10.7005 30.2797 10.6572 29.8336C10.614 29.3875 10.3931 28.9736 10.0395 28.6761C9.75665 28.361 9.80656 28.3138 9.98955 27.6286C10.3722 27.6286 10.4803 27.9672 10.6882 28.1641C11.0209 28.5107 11.0958 28.5107 11.3287 28.1641C11.8444 27.3765 12.3102 26.5023 12.8009 25.6675C14.0985 23.5174 15.5707 21.4618 16.9598 19.3668C17.1841 19.0691 17.4346 18.7898 17.7084 18.5319C17.7414 18.4761 17.7868 18.4277 17.8415 18.3902C17.8914 18.335 17.9746 18.2878 17.9995 18.2169C18.0245 18.146 18.0993 17.9727 18.2075 17.9255C18.5572 17.3348 18.9638 16.7759 19.4218 16.2558C19.7296 16.2558 19.6797 16.4054 19.6215 16.6023C19.2984 17.2331 18.9373 17.8458 18.5402 18.4374C18.4071 18.5083 18.4404 18.6816 18.3572 18.7761V19.0754C18.2847 19.5104 18.0694 19.9127 17.7417 20.2253C15.641 22.7906 13.8733 25.5855 12.4765 28.5501C12.8093 28.8415 13.117 28.5028 13.3499 28.6682C13.4074 28.7061 13.4533 28.7578 13.483 28.8178L13.3083 29.062L13.2584 29.5267C13.0807 29.6641 12.8688 29.7563 12.6429 29.7944C12.2407 29.8771 11.8735 30.0709 11.5878 30.3513C11.302 30.6317 11.1105 30.9861 11.0376 31.3696C10.6799 32.299 10.3389 33.2519 10.0311 34.2049C9.77329 34.9216 9.77329 34.9216 10.6217 34.9925C10.6959 35.0006 10.7671 35.0249 10.8296 35.0634C10.7826 35.3367 10.6295 35.5836 10.4002 35.7555C10.1709 35.9275 9.88206 36.0121 9.5903 35.9928C9.40428 36.0513 9.24202 36.1631 9.12583 36.3126C9.00965 36.4621 8.94525 36.642 8.94152 36.8276C8.68367 38.4028 8.5589 40.0567 8.35096 41.6713C8.249 42.4079 8.23784 43.1532 8.31769 43.8923V44.1049C8.7003 43.2228 8.75853 42.3643 9.09124 41.5295L11.0542 36.7646L13.3083 31.7555C14.8396 29.0585 16.5683 26.4662 18.4819 23.9978C19.7961 22.5565 20.9773 21.8004 21.9671 21.6744C22.2249 22.0446 22.2249 22.7534 21.9671 23.856C21.673 25.055 21.2203 26.2141 20.6196 27.3057C20.5697 27.3057 20.5198 27.3057 20.6196 27.3529C18.1492 31.5586 15.8036 34.6539 13.5495 36.5283L17.4672 30.582L19.3054 27.4317C20.0041 26.2345 20.1372 25.8565 19.688 26.1558C15.8951 31.5219 13.6188 34.8796 12.8592 36.229C12.1023 37.5994 11.3287 38.899 10.63 40.0961C10.0142 40.9996 9.45858 41.9386 8.96647 42.9078C8.81414 43.6258 8.57119 44.3239 8.24283 44.987V45.0421C8.15965 45.1839 8.29273 45.3808 8.24283 45.5304C8.00993 45.8455 8.34264 46.2156 8.10975 46.507C8.13101 47.0456 8.24334 47.5774 8.44245 48.0822C8.75797 49.3553 9.1922 50.5993 9.74002 51.7996C9.96207 52.2519 10.0838 52.7424 10.0977 53.2409C10.1879 54.2912 10.4488 55.3219 10.8712 56.2968C11.1003 56.932 11.2919 57.5788 11.4452 58.2342C11.4452 58.3524 11.4452 58.5256 11.2871 58.5729C11.1291 58.6201 11.0792 58.4784 11.0293 58.376C10.6397 57.6886 10.3248 56.9656 10.0894 56.218ZM25.1528 77.6483L24.4291 76.7425C24.3162 76.6197 24.1634 76.536 23.9947 76.5047C23.826 76.4733 23.6511 76.496 23.4975 76.5693C23.1149 76.7189 22.7988 76.4984 22.5659 75.9392C21.5595 76.4984 20.5281 76.3015 19.4967 75.3012L17.6335 73.1984L15.9035 70.3788L15.5707 69.7724C15.3761 69.9374 15.1457 70.0603 14.8958 70.1324C14.6458 70.2045 14.3822 70.2241 14.1235 70.1898C13.1838 69.9841 12.3402 69.4948 11.7196 68.7958C11.2039 68.3311 10.0561 66.5196 8.39255 63.3378C6.65223 60.332 5.08888 57.2373 3.70967 54.0679C3.11911 52.3273 2.72818 51.2247 2.54519 50.76C2.3622 50.2953 2.26239 50.2953 2.31229 50.76C2.4955 51.7764 2.77386 52.7753 3.14407 53.745C3.68472 55.265 4.64125 57.5411 6.06359 60.4946C7.30293 62.8574 8.5589 65.0941 9.70675 67.0552C7.28554 64.7013 5.26268 62.0075 3.70967 59.0691C2.58068 56.9233 1.75565 54.6459 1.25594 52.2958C1.01159 51.169 0.900004 50.0199 0.923233 48.8698C0.842014 48.0148 0.858747 47.1539 0.97314 46.3023C1.14781 45.7903 1.41398 45.5147 1.74669 45.6171C2.0794 45.7195 2.49528 46.1369 3.32705 47.145C4.15883 48.1531 5.18191 50.4056 6.55433 53.9182C7.92676 57.4309 8.80012 59.7385 9.10787 60.8411C9.41563 61.9438 9.75665 62.8967 10.0644 63.7001C10.3954 64.5515 10.7759 65.385 11.2039 66.1967C11.657 67.197 12.3455 68.0859 13.2168 68.7958C13.559 69.0477 13.9572 69.2228 14.3813 69.3077C14.5258 69.3495 14.6795 69.3532 14.8261 69.3186C14.9726 69.2839 15.1064 69.2121 15.2131 69.1108L15.1382 68.9848L13.1669 65.6848C12.9602 65.5804 12.7191 65.555 12.4932 65.6139C12.2804 65.6326 12.0669 65.5851 11.8853 65.4785C11.7036 65.3719 11.5637 65.212 11.4867 65.0232C11.4569 64.9513 11.4319 64.8776 11.4119 64.8027C11.3842 64.5909 11.3842 64.3766 11.4119 64.1648C11.5854 63.0602 11.827 61.9662 12.1355 60.8884C12.9956 58.1776 14.1817 55.5693 15.6706 53.1149C15.4893 54.0584 15.3946 55.0149 15.3878 55.9739C14.2456 58.2827 13.2377 60.649 12.3684 63.0621C12.0274 64.3538 12.0274 64.9917 12.4183 64.9681L12.8592 64.7476L12.5181 64.0151L12.751 63.4244L13.4497 64.5822L13.8407 64.3144L14.1734 64.7791L13.8407 65.2674L16.336 68.717L16.9265 68.2287L17.3923 68.717C16.6437 69.4022 16.336 69.8669 16.494 70.0874C17.0421 71.0645 17.6619 72.0041 18.3489 72.8991C19.4634 74.4743 20.3701 74.8838 21.0937 74.2223C21.2933 74.049 21.5845 74.0726 21.9255 74.3168C22.4126 74.7645 22.8001 75.3001 23.065 75.8919L22.9818 74.6712L20.919 72.8361L19.7546 70.6072C19.0008 69.6366 18.3092 68.624 17.6834 67.575C17.2759 66.8662 16.7602 65.9998 16.1363 65.0311C15.5125 64.0624 14.7639 62.9282 13.8656 61.7075L14.0486 61.1168L15.8286 63.1724C17.4256 65.1335 18.5651 66.5984 19.2139 67.5986C19.8627 68.5989 20.2453 68.8509 20.3784 68.3075L20.7111 67.3072L21.2018 67.575L20.8691 69.6543L20.761 70.2922C20.7111 70.7805 20.8109 71.0798 21.0688 71.1507C21.3266 71.2215 21.5096 71.5681 21.7175 72.1273C22.1669 72.9509 22.7603 73.6965 23.4726 74.3325C24.4579 75.3932 25.5751 76.3373 26.7997 77.1442C27.9641 77.9318 28.9456 78.5146 29.6942 79.0029C30.4428 79.4912 30.8338 79.9559 30.8005 80.3969L31.8652 80.6175L31.6073 79.3337L32.2727 79.1683C32.6753 79.4652 32.9668 79.8765 33.1045 80.3418C34.086 81.0506 34.9344 81.6098 35.5998 82.0272L33.1045 82.4683L28.8957 80.1055L25.1528 77.6483ZM30.4012 82.9881L27.0742 83.5237L27.9059 81.3972L30.4012 82.9881ZM38.4112 92.9353C36.7595 94.4424 34.979 95.8175 33.0879 97.0465L32.4391 96.8733C33.6036 96.1881 35.2588 95.1091 37.3798 93.5733L38.3363 92.5652L37.8123 92.5179C37.0491 93.1794 36.2405 93.7925 35.3919 94.353C34.3744 94.9964 33.3129 95.5752 32.2145 96.0857L30.551 96.8181L30.8338 97.1411L32.0481 97.2828C32.7718 97.7239 33.0546 98.1413 32.9548 98.5587C32.5638 99.0943 31.9733 99.1652 31.1665 98.7792L29.8273 98.094C29.4165 97.6778 28.9138 97.3524 28.3551 97.1411L27.8144 96.7236L28.0141 96.2353L29.6776 96.9205H30.1933L29.9438 95.9282L31.965 94.731C32.4807 94.5578 32.7136 94.2427 32.6304 93.8253L32.7884 92.8723C33.7513 93.0283 34.7415 92.8817 35.6081 92.4549C36.4981 92.0383 37.4579 91.7718 38.4445 91.6673C39.035 92.0375 39.0018 92.4549 38.4112 92.9353ZM37.0721 90.738L31.7986 91.8091C27.8976 92.4707 24.0215 93.0377 20.2203 93.4473C19.2389 93.2031 16.4524 91.8721 11.8278 89.3676C9.37606 88.0657 7.06393 86.5411 4.92406 84.8153C3.45182 83.2953 2.86126 82.3659 3.14407 82.0509C3.9897 80.8063 4.65024 79.4573 5.10705 78.0421C5.25115 77.6639 5.28843 77.2567 5.21518 76.8607C4.79929 75.6635 5.10705 75.0571 6.11349 75.002C7.79074 74.8864 9.47327 74.8549 11.154 74.9075C11.52 74.9075 11.7779 74.8366 11.8777 74.5924L12.0357 72.5368C13.4248 72.8991 14.0736 73.3874 13.9737 73.9545C13.4811 74.7465 13.2494 75.6597 13.3083 76.5771L13.3582 79.3416C11.332 78.0826 9.19801 76.9867 6.97853 76.0652C7.25378 76.0195 7.53145 75.9879 7.81031 75.9707C7.94664 75.9858 8.08457 75.9606 8.20518 75.8985C8.3258 75.8365 8.4232 75.7407 8.48404 75.6242C8.59217 75.4273 8.38423 75.3091 7.86853 75.2619C7.11668 75.2053 6.36058 75.2964 5.6477 75.5296C5.35658 75.8211 5.43976 76.1125 5.79742 76.4354C8.24222 77.5728 10.6141 78.8456 12.9008 80.2473C16.1613 82.1848 18.6649 83.7678 20.4699 85.0201C22.9455 84.9117 25.4135 84.683 27.8643 84.3349L32.7052 83.4843C34.6682 83.1456 36.731 82.8227 38.852 82.5786C39.6256 82.484 40.632 82.4132 41.8215 82.358C42.9344 82.3347 44.0451 82.2532 45.1486 82.1139C45.9819 83.5244 46.5769 85.0498 46.9119 86.6346C47.0117 87.2962 46.9119 87.69 46.6291 87.7373C43.5072 88.9068 40.3161 89.9034 37.0721 90.7222V90.738ZM51.4035 88.9974L51.1207 88.1626L49.5985 89.9504L48.3842 90.738C48.1533 90.9386 47.8786 91.0885 47.5795 91.1769C47.2805 91.2654 46.9645 91.2903 46.6541 91.2499L44.6911 90.3442L45.6975 89.8795L45.9803 90.1C45.7724 90.612 45.9803 90.5411 46.6541 89.8795L48.3842 88.3043C48.4334 87.0353 48.1775 85.7722 47.6356 84.6105C47.2885 83.6299 46.8486 82.681 46.3214 81.7752C46.2382 81.4523 45.3648 81.4051 43.7346 81.5783C44.8104 81.1164 46.0343 81.0712 47.1448 81.4523L48.484 81.9957L49.1577 81.6965L47.8685 81.0349L48.5422 81.09L49.1078 81.602L49.2076 81.6965L49.5985 82.043C51.5116 83.9962 52.568 85.3194 52.8258 86.0282C53.0554 86.6926 53.0842 87.4046 52.909 88.0838C52.2103 88.9108 51.6946 89.2258 51.4035 88.9974ZM57.5004 96.5346C57.1677 96.2905 57.0679 96.0463 57.2176 95.8022L58.3322 96.6764C58.1242 96.8103 57.8414 96.763 57.5004 96.5189V96.5346ZM64.7618 96.6291L65.3856 96.7551L65.1776 96.9993L63.7054 97.4403C63.0685 97.9508 62.3038 98.298 61.4846 98.4484L60.528 98.3067L60.2951 97.6687C60.5072 97.354 60.8144 97.107 61.1768 96.9599C61.622 96.8071 62.0778 96.6834 62.5409 96.5897L63.8884 96.8103L64.7618 96.6291ZM62.699 96.3377C61.6925 96.3377 61.0354 96.952 60.8108 96.952H59.9791C59.2181 96.1116 58.3587 95.3559 57.4172 94.6995L54.7805 92.5967C55.2712 92.3525 56.311 92.4943 57.908 92.9353L62.699 96.3377ZM70.7089 85.3115C71.5296 85.4036 72.3612 85.3529 73.1627 85.1618C74.1691 84.7759 76.2319 83.3268 79.3843 80.838C81.7483 79.0504 84.3249 77.5305 87.0616 76.3094C87.6771 75.9628 87.7104 75.695 87.1364 75.5218C86.28 75.3374 85.4026 75.2554 84.5247 75.2776C84.167 75.569 84.192 75.7896 84.6328 75.9628C85.017 75.9086 85.4096 75.9493 85.7723 76.081C83.5668 77.1323 81.4651 78.3685 79.4924 79.7747C79.6929 78.3933 79.8123 77.0024 79.8501 75.6084C79.828 74.993 79.5944 74.4012 79.1847 73.923C78.9268 73.5528 79.2595 73.2378 80.2161 72.9621L80.9647 72.7495V73.923L79.9333 73.6473L80.058 74.1908C80.1957 74.3961 80.377 74.5722 80.5904 74.7078C80.8037 74.8434 81.0445 74.9355 81.2974 74.9783L84.325 75.1516L85.6642 75.1044C87.2446 75.1044 88.0181 75.4903 87.9682 76.1755C87.9362 76.8258 87.9949 77.4772 88.1429 78.1129C88.4311 79.6812 89.0846 81.169 90.0559 82.4683C89.7036 83.2832 89.2056 84.0346 88.5837 84.6893L85.6725 86.4377C83.1772 88.1468 79.7836 90.3757 75.4916 93.0692C71.8104 93.1064 68.1316 92.8773 64.4873 92.384C60.8691 91.8888 57.2941 91.1439 53.7907 90.1552L52.8924 89.9346L53.275 89.5723C53.7183 89.1119 54.068 88.5779 54.3064 87.9972C54.3377 87.3817 54.2417 86.7663 54.0236 86.1857C53.7012 84.9036 52.9623 83.7494 51.9109 82.8857V82.5628L52.7426 82.4683C54.8346 82.5718 56.9119 82.8592 58.9477 83.3268C60.7526 83.7363 62.8986 84.1144 65.4022 84.4766C67.9059 84.8389 69.6193 85.1697 70.7006 85.2642L70.7089 85.3115ZM66.5501 83.8938C65.5686 83.7442 63.9965 83.5 61.8506 83.1062L63.7886 82.4762C64.8449 82.6652 65.4521 82.4762 65.6018 81.8382C65.757 82.5645 66.0777 83.2499 66.5417 83.8466L66.5501 83.8938ZM78.1866 68.213C77.8422 68.5204 77.5929 68.9109 77.4654 69.3425C77.3379 69.774 77.337 70.2304 77.4629 70.6624C76.3163 71.2739 75.2938 72.074 74.4436 73.0251C73.6548 73.8457 72.9161 74.7082 72.2311 75.6084C71.8839 76.1984 71.3223 76.6489 70.6507 76.8764C70.2812 77.0116 69.8788 77.0449 69.4902 76.9724C69.1016 76.8999 68.7426 76.7246 68.4548 76.4669L68.2552 77.7822L64.479 79.9638L62.6491 80.6962C62.8336 80.1162 62.9288 79.5141 62.9319 78.9084L63.6056 78.3728C66.1841 77.0969 67.6563 75.9234 68.0722 74.876C68.5241 74.0761 69.0832 73.3349 69.7357 72.6707C70.3474 72.0665 70.7904 71.3275 71.025 70.5206L71.0749 69.2447L70.9252 67.9294C70.6341 67.0001 71.0999 65.9683 73.5037 66.7244C73.5037 66.7244 74.1525 65.7006 75.0591 64.5034C75.9345 63.3486 76.8816 62.244 77.8954 61.1956C78.9019 60.1717 79.7836 59.3132 80.4822 58.6044L80.4323 59.9275C78.9004 61.6204 77.4915 63.4098 76.2153 65.2831C74.7243 67.3079 73.4351 69.4594 72.3642 71.7099C71.9771 72.5559 71.36 73.2897 70.5758 73.8363C70.0713 74.0526 69.6163 74.3603 69.2367 74.7421C68.9788 75.1831 69.1036 75.3091 69.6775 75.1122C70.0223 74.7642 70.4461 74.4949 70.9169 74.3246C71.7486 73.9387 73.4704 72.1036 76.157 68.8115L76.1321 66.9449L76.7559 65.9447C76.7559 66.9764 76.8058 67.5199 77.0387 67.6301C77.2716 67.7404 77.5544 67.4648 77.9703 66.7559C78.3862 66.0471 79.3094 64.1805 80.8316 61.0774C80.4958 61.8682 80.478 62.7481 80.7817 63.5504C79.8751 64.1569 79.6422 65.1886 80.058 66.6299L78.1866 68.213ZM90.7713 56.4464C90.6661 57.2681 90.3427 58.0512 89.8314 58.7225C88.3092 60.3843 87.6604 61.3846 87.9183 61.7075C88.1181 62.0653 88.2055 62.4698 88.1701 62.8732C88.1348 63.2766 87.9781 63.6619 87.7187 63.9836C86.7071 65.1012 85.6178 66.1537 84.4581 67.134C84.8241 67.8428 84.5413 68.4335 83.6264 68.9218C82.4899 69.5269 81.295 70.028 80.058 70.4182C82.4868 68.6776 83.9591 66.8426 84.5247 64.9051C85.1241 64.3422 85.8257 63.886 86.5958 63.5583C87.1115 63.259 87.2196 63.1173 86.8786 63.1409C86.1172 63.4365 85.4033 63.8315 84.7576 64.3144C85.4753 62.9377 85.9823 61.4712 86.2631 59.959C87.3537 59.0601 88.2785 57.9954 88.9996 56.8087C89.5153 56.0762 89.5402 55.903 89.0745 56.344C88.3604 57.3645 87.4948 58.2823 86.5043 59.0691C87.0623 57.4057 87.526 55.7152 87.8933 54.0049C88.0763 52.9101 88.0264 52.7132 87.7187 53.4221L87.1697 55.2808C86.9815 54.6582 86.6742 54.0735 86.2631 53.556L86.9867 55.777C86.7283 57.0571 86.3724 58.3179 85.922 59.5495C85.4342 58.1881 84.7392 56.9013 83.8592 55.7297C83.0857 54.8003 82.9526 54.8003 83.4683 55.6824C84.4346 57.0963 85.151 58.6498 85.5893 60.282C85.243 61.7692 84.7126 63.2126 84.009 64.5822C83.6662 64.0347 83.1899 63.5729 82.6199 63.2354C82.2539 63.07 82.2539 63.1881 82.6199 63.5583C83.0682 63.9791 83.4644 64.4467 83.801 64.9523C83.3833 65.9364 82.7896 66.8449 82.046 67.638C81.3823 68.3523 80.6469 69.0038 79.8501 69.5834C80.7424 68.3086 81.0681 66.7523 80.7567 65.2516C80.7567 64.9602 80.9896 64.7397 81.4554 64.5664C81.9212 64.3932 82.0709 64.1726 81.9212 63.9836C81.5891 63.4095 81.3852 62.7768 81.3223 62.1249C81.7566 61.9702 82.2355 61.9702 82.6698 62.1249C83.1356 61.802 83.0857 61.3373 82.5118 60.7781C81.8852 60.0639 81.5075 59.1835 81.4305 58.2579C81.4305 57.6199 81.8713 57.3758 82.7696 57.5727C83.1855 57.5254 83.2105 57.0607 82.8778 56.1786L81.9212 54.95C81.2475 53.556 81.5303 53.044 82.753 53.4378L84.2003 54.2648C85.1818 54.635 85.6476 54.0206 85.5976 52.4376C85.5976 52.0674 85.9054 51.9965 86.4793 52.1856C87.0532 52.3746 87.5856 51.965 88.0763 50.9412C88.5671 50.4529 88.9081 50.8939 89.1909 52.3116C89.0828 54.1939 89.5486 55.076 90.6382 54.95C90.8877 55.076 90.9127 55.5643 90.7796 56.4464H90.7713ZM92.4348 51.8941C92.4605 52.0501 92.4508 52.2094 92.4063 52.3615C92.3619 52.5136 92.2837 52.655 92.177 52.7762C91.7999 53.0679 91.3598 53.2776 90.8877 53.3906L90.2639 52.3116C90.3041 51.4273 90.0091 50.5585 89.4321 49.8622C89.3009 49.9191 89.1601 49.9538 89.0162 49.9646H88.9081C89.223 48.7167 89.7877 47.5377 90.5716 46.4913C90.7546 46.0502 90.6465 45.9794 90.2389 46.4913C89.6039 47.3229 89.0472 48.2058 88.5754 49.1297C88.2948 48.7808 88.1168 48.3678 88.0597 47.9326C87.9266 47.2474 87.8018 47.2238 87.7187 47.8617C87.7792 48.4639 87.9539 49.0509 88.2344 49.5944C87.4026 50.7915 86.7621 51.2562 86.2714 51.012C86.5875 49.3266 86.9701 47.5388 87.4608 45.6565C88.2926 44.8689 89.0661 44.5775 89.6816 44.8689C90.5883 44.1837 91.3452 44.0813 91.9857 44.4987C92.3151 44.962 92.4704 45.5168 92.4265 46.0739C92.3731 46.6814 92.1861 47.2716 91.8775 47.8066C92.5762 47.8066 92.9422 48.0743 92.9921 48.5942C92.8953 49.1174 92.6877 49.6167 92.3818 50.062C92.0759 50.5073 91.678 50.8894 91.2121 51.1853C91.9441 51.2877 92.3849 51.5319 92.4598 51.8941H92.4348Z" fill="#0066CC"/>
<path d="M8.51731 79.3888C8.32451 79.2152 8.10594 79.0693 7.86853 78.9556C7.46096 78.7351 7.20311 78.5146 6.81218 78.2941V78.5382C6.94526 78.6327 7.20311 78.7587 7.09498 79.0029C6.30699 80.252 5.43458 81.4517 4.48321 82.5943C4.25864 82.7203 4.12555 82.5943 3.8677 82.4998L3.73462 82.6258C4.32287 82.9278 4.8922 83.2618 5.43975 83.626L5.57284 83.4843C5.31499 83.3661 5.1819 83.2638 5.15695 83.0196C5.29003 82.7754 5.62274 82.2871 5.75583 82.043L6.32143 81.2554C6.60423 81.4759 6.60423 81.4759 6.62919 81.8382V83.752L6.52937 84.3585C6.65414 84.4845 7.36115 84.7995 7.46096 84.9256L7.58573 84.7759C7.30292 84.5554 7.30292 84.4373 7.27797 84.0907V81.7279C7.43133 81.8171 7.602 81.8762 7.77989 81.9019C7.95779 81.9275 8.13931 81.9192 8.31374 81.8774C8.48818 81.8355 8.652 81.761 8.79553 81.6583C8.93907 81.5555 9.05941 81.4265 9.14946 81.279C9.7317 80.4206 9.19105 79.8614 8.51731 79.3888ZM8.35927 80.964C7.63563 81.8461 7.25302 81.5074 6.57928 81.0664L7.63563 79.5463C7.76872 79.5463 7.76872 79.4282 7.89348 79.4282C8.03248 79.477 8.16395 79.5433 8.28441 79.6251C8.4801 79.7926 8.59782 80.0266 8.61185 80.276C8.62587 80.5254 8.53507 80.7699 8.35927 80.9561V80.964Z" fill="#0066CC"/>
<path d="M10.7382 80.8853L10.4804 81.0349C10.7382 81.1294 10.9961 81.2554 10.8963 81.6177C10.7881 81.7437 8.54234 84.9492 8.40094 85.0673C8.29771 85.1183 8.18071 85.1388 8.06506 85.1261C7.94941 85.1135 7.84042 85.0683 7.75216 84.9965L7.65234 85.1146L10.8131 87.1229L11.5118 86.0203L11.412 85.9494C11.3255 86.0753 11.2125 86.1828 11.08 86.2652C10.9475 86.3476 10.7984 86.4032 10.6421 86.4283C10.4858 86.4535 10.3257 86.4477 10.1719 86.4114C10.0181 86.375 9.87391 86.3089 9.74841 86.2172C9.59442 86.1629 9.46088 86.0665 9.36466 85.9404C9.26844 85.8142 9.21384 85.6639 9.20776 85.5084C9.20776 85.2879 9.44065 85.0201 9.54047 84.7996L10.2392 83.6733C10.9129 83.9883 11.1707 84.2404 10.7049 84.9728L10.8131 85.0595C11.2149 84.5259 11.5842 83.971 11.9193 83.3977L11.8445 83.3268C11.5034 83.7127 11.1208 84.1144 10.3473 83.5237L11.4036 81.9485C11.6365 81.6965 11.5617 81.7752 11.7696 81.8225L12.1522 82.0194C12.826 82.4841 13.0838 82.7046 12.618 83.437L12.7511 83.5631L13.4748 82.5549L10.7382 80.8853Z" fill="#0066CC"/>
<path d="M15.8037 83.9647C15.5459 83.8702 15.288 83.6261 15.0302 83.5237C14.7723 83.4213 14.3565 83.2086 14.0986 82.9645L13.9655 83.1141C14.2234 83.2086 14.4812 83.3031 14.3814 83.6733C14.2816 83.7993 12.1606 87.1466 11.8861 87.2726C11.753 87.5167 11.4952 87.2726 11.2373 87.1702V87.4222C11.8275 87.7239 12.3971 88.0606 12.9424 88.4303L13.0755 88.3043C12.8177 88.0838 12.5598 87.9656 12.6596 87.7215C12.9606 87.1148 13.3139 86.5326 13.716 85.9809C13.716 85.9809 13.9822 86.2251 14.1069 86.2015C14.2663 86.3451 14.4585 86.452 14.6686 86.5138C14.8787 86.5756 15.101 86.5908 15.3183 86.558C15.5355 86.5252 15.7419 86.4455 15.9213 86.3249C16.1007 86.2043 16.2483 86.0462 16.3527 85.8628C16.4733 85.711 16.5555 85.535 16.5932 85.3484C16.6308 85.1618 16.6228 84.9695 16.5698 84.7863C16.5168 84.603 16.4202 84.4337 16.2874 84.2913C16.1547 84.1489 15.9892 84.0372 15.8037 83.9647ZM15.6457 85.5399C15.288 86.1542 14.7723 86.3275 14.2483 85.9573C14.1236 85.8628 13.9905 85.8628 13.9905 85.7368L14.8971 84.2719C15.13 83.8781 15.13 83.8781 15.4128 84.1222C15.5404 84.1891 15.6499 84.2831 15.7325 84.3969C15.8151 84.5107 15.8686 84.6412 15.8888 84.7779C15.9089 84.9147 15.8952 85.054 15.8487 85.1849C15.8022 85.3158 15.7241 85.4346 15.6207 85.532L15.6457 85.5399Z" fill="#0066CC"/>
<path d="M19.8627 86.0991V86.3432C19.9874 86.4614 20.2453 86.5638 20.0124 86.926C19.9126 87.1702 17.1178 89.596 17.1178 89.596C17.1178 89.596 17.9496 85.9494 18.0494 85.7053C18.1492 85.4611 18.5401 85.5556 18.6732 85.7053L18.798 85.5793L17.0929 84.6972L16.9681 84.8232C17.3507 85.1618 17.2509 85.532 17.176 86.0203L16.2694 90.3757L16.5273 90.4702L19.6797 87.6821C20.1704 87.2962 20.6362 86.6819 21.1519 86.9969V86.9024L19.8627 86.0991Z" fill="#0066CC"/>
<path d="M30.2682 89.9583V90.0843C30.2682 90.0843 33.9945 89.5172 34.0944 89.5172L33.9363 88.0996L33.7117 88.2492C33.7409 88.411 33.7353 88.5766 33.6953 88.7363C33.6553 88.896 33.5816 89.0464 33.4788 89.1785C33.246 89.4227 32.855 89.4227 32.6471 89.5487C31.7654 89.6905 31.5325 89.4699 31.3828 88.5406C31.3828 88.5406 30.917 85.5084 30.917 85.2642C30.917 85.0201 31.2747 85.0201 31.5075 85.0201L31.3828 84.7996L29.4198 85.0673L29.5446 85.3115C29.5914 85.2763 29.6455 85.2509 29.7035 85.2369C29.7614 85.2229 29.8218 85.2207 29.8807 85.2304C29.9396 85.24 29.9957 85.2614 30.0453 85.293C30.0948 85.3246 30.1368 85.3658 30.1684 85.4139C30.1684 85.6344 30.759 88.5642 30.759 88.5642C30.8128 88.9142 30.8128 89.2696 30.759 89.6196C30.7756 89.8401 30.2682 89.9583 30.2682 89.9583Z" fill="#0066CC"/>
<path d="M35.9325 88.6903C35.8244 88.5642 35.2089 84.8468 35.2089 84.6027C35.3335 84.4409 35.5035 84.3153 35.6996 84.2404V84.1144L33.7117 84.4058L33.8364 84.5318C33.9549 84.5225 34.0742 84.5374 34.1861 84.5754C34.298 84.6135 34.4 84.6738 34.4852 84.7523C34.4852 84.9728 35.2089 88.5879 35.0758 88.8084C35.0758 89.1786 34.585 89.1786 34.585 89.1786V89.2967L36.548 89.1313V88.8872C36.4363 88.9129 36.3191 88.9081 36.2101 88.8732C36.1011 88.8384 36.0049 88.7749 35.9325 88.6903Z" fill="#0066CC"/>
<path d="M40.4242 86.5874L40.2994 86.7055C40.2994 87.6349 40.0915 88.3437 39.2098 88.5879C37.9704 88.7375 37.4547 87.5876 37.1719 86.4141C37.0139 85.2642 37.0888 83.8466 38.3281 83.6969C39.085 83.5788 39.7255 84.138 39.9916 84.9492H40.1247L39.8419 83.4292H39.7088V83.7993C39.4856 83.674 39.2382 83.5921 38.9812 83.5583C38.7241 83.5245 38.4625 83.5395 38.2117 83.6024C36.8642 83.7442 36.1405 85.0437 36.3235 86.5638C36.5065 88.0838 37.7375 88.9974 39.0933 88.7139C39.6226 88.6418 40.1022 88.3795 40.4325 87.9814L40.6903 88.3201L40.4242 86.5874Z" fill="#0066CC"/>
<path d="M45.1569 87.1702C45.0238 86.9497 42.6615 82.7912 42.6615 82.7912H42.4203L41.8797 85.9415C41.7799 86.4298 41.7799 86.8945 41.6717 87.5167C41.6421 87.6596 41.5713 87.7919 41.467 87.899C41.3628 88.0061 41.2292 88.0837 41.0812 88.1232V88.2098L42.5784 88.0601V87.816C42.5784 87.816 41.9545 87.9656 41.9545 87.5955C41.9393 87.1169 42.001 86.6389 42.1375 86.1778L43.7096 85.91C43.9321 86.3307 44.132 86.7618 44.3085 87.2017C44.4332 87.5482 44.0756 87.5482 43.9425 87.6664V87.7924L45.8056 87.501V87.2804C45.5145 87.2726 45.2816 87.2962 45.1569 87.1702ZM42.2373 85.847L42.5701 83.8387L43.6014 85.6974L42.2373 85.847Z" fill="#0066CC"/>
<path d="M56.1613 84.1144C55.8154 84.0778 55.4767 83.9956 55.1548 83.8702V84.1144C55.4127 84.1144 55.6456 84.2404 55.6456 84.453C55.708 84.7785 55.708 85.112 55.6456 85.4375L55.2796 87.7136C55.2727 88.0384 55.1843 88.357 55.0218 88.643C54.897 88.8871 54.6308 88.8871 54.4062 88.8871V88.9974C54.7294 89.103 55.0717 89.1458 55.4127 89.1234C55.7704 89.2416 56.0282 89.2416 56.3942 89.3676V89.1234C56.1613 89.1234 55.9034 89.1234 55.9034 88.7533C55.8909 88.4313 55.933 88.1096 56.0282 87.8003L56.2861 85.5478C56.3524 85.2179 56.4385 84.8918 56.5439 84.5712C56.652 84.3506 57.0097 84.3506 57.1677 84.3506L57.2925 84.2325C56.9099 84.2719 56.5605 84.1144 56.1613 84.1144Z" fill="#0066CC"/>
<path d="M57.9911 84.3112L57.7333 85.5084L57.9911 85.6344C58.1242 84.6735 58.3571 84.6735 59.1306 84.7995C59.3635 84.7995 59.7462 84.9177 59.6214 85.0201L59.1306 88.7375C58.9976 89.3518 58.8728 89.4463 58.1242 89.4463V89.5723C58.4917 89.6711 58.874 89.7111 59.2554 89.6905C59.6099 89.8303 59.9867 89.9128 60.37 89.9346V89.785C59.7462 89.5408 59.7462 89.4148 59.7462 88.832L60.37 85.1067C60.37 84.8862 60.7609 84.9886 61.1435 84.9886C61.7674 85.1067 62.0252 85.3509 61.8921 86.0912L62.0252 86.1857L62.2581 84.9886L57.9911 84.3112Z" fill="#0066CC"/>
<path d="M65.3857 90.3521C65.3223 90.0293 65.2362 89.7109 65.1278 89.3991L64.3709 85.3115L64.1463 85.217L62.6159 88.0759C62.383 88.5642 62.1251 89.0289 61.8673 89.5172C61.6094 89.8638 61.4846 89.9819 61.1187 89.9819L60.9939 90.1079C61.2517 90.1079 61.4846 90.2339 61.7425 90.2339C62.0003 90.2339 62.2582 90.3521 62.4911 90.3521V90.2339C62.383 90.1079 62.0003 90.1079 62.0003 89.7377C62.1251 89.5172 62.383 88.9501 62.4911 88.6666L62.6159 88.4461L64.3709 88.6666L64.504 89.5172V90.2339C64.504 90.4781 64.1463 90.3521 64.0132 90.3521L63.8801 90.5962C64.2222 90.5723 64.5659 90.607 64.8949 90.6986C65.2775 90.6986 65.6435 90.8167 65.8764 90.8167V90.6986C65.6435 90.5726 65.5104 90.5726 65.3857 90.3521ZM62.8903 88.2019L63.8968 86.2881L64.2877 88.4461L62.8903 88.2019Z" fill="#0066CC"/>
<path d="M70.3929 90.1788C70.2681 90.6671 70.2681 90.9112 69.7774 91.1632C69.5196 91.2814 69.1286 91.1632 68.771 91.1632C67.9891 91.0372 67.8893 90.7931 67.9891 89.8401L68.38 87.564C68.5048 87.3198 68.5048 86.7291 68.6379 86.485C68.771 86.2408 69.1286 86.3668 69.2617 86.3668L69.3865 86.1463C68.9999 86.1683 68.6126 86.1174 68.2469 85.9967C67.9891 85.9967 67.6314 85.9022 67.4152 85.9022L67.2821 85.9967C67.4147 86.0005 67.544 86.0366 67.6576 86.1014C67.7712 86.1662 67.8653 86.2576 67.9309 86.3668C67.9309 86.611 67.7978 87.1544 67.7978 87.438L67.3736 89.5959C67.2489 89.9016 67.1705 90.2225 67.1407 90.5489C67.0428 90.6396 66.9249 90.7086 66.7954 90.7508C66.666 90.7931 66.5282 90.8075 66.3921 90.7931V90.9112C67.6314 91.1632 68.771 91.2814 70.0103 91.5019C70.0103 91.5019 70.2682 91.5019 70.2682 91.6279L70.6508 90.1788H70.3929Z" fill="#0066CC"/>
<path d="M73.7033 91.1317C73.5942 90.7846 73.5492 90.4223 73.5702 90.0606L73.3123 87.9027V86.8315C73.4454 86.5874 73.7033 86.5874 73.9611 86.5874V86.3432C73.5702 86.3432 73.1876 86.4614 72.9547 86.4614H71.9482V86.7055C72.1811 86.7055 72.439 86.5874 72.5638 86.9497C72.5638 87.0757 72.6968 87.6585 72.6968 87.9027L72.8216 90.1788C72.8216 90.4229 72.9547 90.8876 72.8216 91.1317C72.8216 91.4783 72.439 91.4783 72.3059 91.4783V91.5964C72.6463 91.6175 72.9877 91.5774 73.3123 91.4783H74.3188V91.3601C74.0859 91.3601 73.828 91.3601 73.7033 91.1317Z" fill="#0066CC"/>
<path d="M80.266 88.4461C80.1329 88.4461 79.875 88.5642 79.6421 88.4461C79.3662 88.2715 79.1073 88.0738 78.8686 87.8554L75.6164 85.0594H75.3585L75.999 88.2886C76.1422 88.803 76.2204 89.3318 76.2319 89.8637C76.297 90.0075 76.3095 90.1679 76.2673 90.3191C76.2251 90.4704 76.1307 90.604 75.999 90.6986L76.1321 90.8167C76.3132 90.6626 76.5215 90.54 76.7476 90.4544C77.0054 90.3284 77.1136 90.2103 77.3714 90.0843L77.2383 89.9583C77.1136 90.0843 76.7476 90.2103 76.6228 89.9583C76.4855 89.5788 76.3988 89.1846 76.365 88.7847L76.2319 88.5406L77.754 87.8318L78.3779 88.2964C78.5791 88.4211 78.7471 88.5882 78.8686 88.7847C79.0017 89.0053 78.7688 89.2494 78.5109 89.2494L78.6357 89.4936C78.8963 89.2801 79.1948 89.1121 79.5174 88.9974C79.7825 88.8023 80.0769 88.6457 80.3907 88.5327L80.266 88.4461ZM76.2319 88.2098L75.8742 86.1542L77.5378 87.5955L76.2319 88.2098Z" fill="#0066CC"/>
<path d="M82.4619 83.059C82.204 82.7203 81.7133 82.106 81.5802 81.8618C81.4471 81.6177 81.7133 81.5232 81.8381 81.279L81.7133 81.153C81.483 81.249 81.299 81.4232 81.1976 81.6413C80.9397 81.7437 80.7069 81.8618 80.449 81.9879L80.5738 82.106C80.9397 81.9879 81.0895 81.8618 81.4554 82.106C81.8214 82.3501 81.9462 82.8148 82.204 83.059L83.5931 84.8704L78.6856 83.2953C78.5461 83.4287 78.3656 83.5169 78.1699 83.5473C78.0452 83.7599 77.937 83.7599 77.6792 83.8859L77.8123 84.1301C78.0452 83.8859 78.303 83.8859 78.6441 84.012L80.4074 86.3747C80.6574 86.6262 80.8726 86.9067 81.0479 87.2096C81.156 87.5719 81.0479 87.6979 80.79 87.9184L80.8982 88.0365C81.0863 87.8526 81.3021 87.696 81.5386 87.5719C81.7987 87.4803 82.0186 87.3082 82.1625 87.0835V86.9575C81.9046 87.0836 81.6717 87.2096 81.4139 87.0835C81.1266 86.8377 80.8749 86.557 80.6653 86.2487L79.0017 84.0986L83.5432 85.5399C83.7694 85.681 84.0299 85.7651 84.3001 85.784L84.4249 85.6659L82.4619 83.059Z" fill="#0066CC"/>
<path d="M88.118 82.4525C87.8365 82.3388 87.5819 82.1728 87.3694 81.9642L83.7013 79.6015L83.5931 79.7275L84.6079 82.8306C84.7157 83.3698 84.8801 83.8975 85.0986 84.4058C85.0986 84.7759 85.0986 84.8704 84.8408 85.1146L84.9656 85.3587C85.0986 85.1146 85.3565 84.9965 85.4813 84.8704C85.7059 84.7876 85.9161 84.6734 86.1051 84.5318L85.972 84.2876C85.8472 84.4058 85.6144 84.6499 85.3565 84.4058C85.1523 84.0318 85.0199 83.6265 84.9656 83.2086L84.8408 83.0826L86.2299 82.1296L86.9785 82.5943C87.1115 82.7203 87.3694 82.8385 87.4692 82.9645C87.6023 83.2086 87.3694 83.4528 87.2363 83.5473L87.3694 83.6969C87.6023 83.4528 87.8601 83.3268 88.118 83.0826C88.3319 82.8756 88.5861 82.7098 88.8666 82.5943V82.3738C88.6087 82.4525 88.3509 82.5707 88.118 82.4525ZM84.8408 82.6967L84.0839 80.6411L85.972 81.8382L84.8408 82.6967Z" fill="#0066CC"/>
<path d="M25.7849 89.596C25.7697 89.3879 25.7031 89.1861 25.5904 89.0069C25.4777 88.8277 25.3221 88.676 25.1361 88.5642C24.811 88.468 24.4685 88.4358 24.1297 88.4697C24.3968 88.3737 24.6177 88.1887 24.7509 87.9494C24.8841 87.7102 24.9206 87.4331 24.8533 87.1702C24.8193 86.9869 24.7439 86.8127 24.6321 86.6595C24.5204 86.5064 24.375 86.3779 24.206 86.2829C24.0369 86.1879 23.8482 86.1287 23.6527 86.1092C23.4572 86.0897 23.2596 86.1104 23.0733 86.17C22.5327 86.2408 21.3433 86.4377 21.3433 86.4377V86.6819C21.651 86.6819 21.859 86.6819 21.9837 86.9024C22.1085 87.1229 22.7074 90.7458 22.7074 90.9664C22.7074 91.1869 22.0919 91.3287 22.0919 91.3287V91.5256C22.0919 91.5256 23.797 91.2105 24.2129 91.1633C24.6096 91.1341 24.9912 91.0064 25.3191 90.7931C25.5089 90.6561 25.6534 90.4707 25.7359 90.2587C25.8184 90.0467 25.8354 89.8168 25.7849 89.596ZM22.7074 86.5874L23.0733 86.5086C23.6889 86.3905 23.9051 86.7291 24.1047 87.2962C24.1237 87.4356 24.1128 87.5771 24.0728 87.7124C24.0328 87.8477 23.9645 87.974 23.8719 88.0838C23.6368 88.2787 23.3485 88.407 23.0401 88.454L22.7074 86.5874ZM24.2129 90.8167C23.8968 90.864 23.639 90.9664 23.4892 90.7458C23.3419 90.1137 23.2281 89.4749 23.1482 88.832C23.5178 88.781 23.8932 88.781 24.2628 88.832C24.6454 88.958 24.7785 89.2967 24.9032 89.6196C25.0779 90.3284 24.8201 90.6986 24.2295 90.8167H24.2129Z" fill="#0066CC"/>
<path d="M29.112 88.0051C28.8138 87.8163 28.4526 87.7378 28.0973 87.7845C28.3715 87.69 28.6035 87.5097 28.7547 87.2734C28.906 87.0371 28.9675 86.7589 28.929 86.485C28.771 85.5557 27.8976 85.4612 27.174 85.5793C26.9162 85.5793 25.4106 85.8786 25.4106 85.8786V85.9731C25.6768 85.9731 25.9347 85.9731 26.0594 86.1936C26.3733 87.5437 26.6149 88.908 26.7831 90.2812C26.7831 90.6435 26.4254 90.6435 26.2923 90.6435V90.864C26.2923 90.864 29.0039 90.4466 29.3699 90.0764C29.5297 89.9395 29.6508 89.7669 29.722 89.5742C29.7932 89.3816 29.8123 89.1752 29.7775 88.9738C29.7549 88.7741 29.6828 88.5823 29.5672 88.414C29.4516 88.2457 29.2956 88.1056 29.112 88.0051ZM27.2988 85.8471C27.7646 85.7526 28.0224 86.0676 28.1805 86.6347C28.2111 86.8002 28.2063 86.9698 28.1663 87.1336C28.1263 87.2973 28.0519 87.4517 27.9476 87.5876C27.7821 87.7297 27.5714 87.8156 27.3487 87.8318H27.2239L26.9162 85.9731C27.0338 85.9079 27.1638 85.8651 27.2988 85.8471ZM28.2803 90.2575C28.0224 90.2575 27.7895 90.2575 27.6648 90.037C27.4693 89.418 27.3219 88.7862 27.2239 88.1468C27.588 88.0684 27.9661 88.0684 28.3302 88.1468C28.4982 88.2441 28.6369 88.3807 28.7331 88.5435C28.8292 88.7062 28.8795 88.8897 28.8791 89.0762C28.9041 89.785 28.771 90.1079 28.2803 90.2575Z" fill="#0066CC"/>
</g>
<defs>
<clipPath id="clip0_4217_26601">
<rect width="340.303" height="100" fill="white"/>
</clipPath>
</defs>
</svg>
