<svg width="280" height="70" viewBox="0 0 280 70" fill="none" xmlns="http://www.w3.org/2000/svg">
<g clip-path="url(#clip0_4247_27051)">
<path d="M0 2.7451C0 0.915033 0.991607 0 3.04423 0C5.09686 0 6.08847 0.915033 6.08847 2.7451C6.1033 3.11138 6.04321 3.47683 5.91189 3.81894C5.78058 4.16104 5.58082 4.47256 5.32493 4.7343C4.68777 5.26463 3.86968 5.52507 3.04423 5.46036C0.991607 5.50014 0 4.58511 0 2.7451ZM5.83065 28.6047H0.237986V8.05627H5.83065V28.6047Z" fill="white"/>
<path d="M30.6306 28.625H25.0379V16.6102C25.1167 15.4414 24.8401 14.2762 24.2446 13.2684C23.9516 12.8889 23.5685 12.5891 23.1303 12.3962C22.6921 12.2034 22.2127 12.1237 21.7359 12.1644C21.0831 12.107 20.4267 12.2219 19.8318 12.4975C19.2369 12.7732 18.7242 13.2001 18.3446 13.7359C17.6372 14.7769 17.2869 16.5141 17.2935 18.9476V28.625H11.7008V8.05668H15.9746L16.7283 10.6924H17.0356C17.656 9.70275 18.5525 8.91768 19.6138 8.43463C20.7859 7.90917 22.0586 7.64776 23.3423 7.66879C24.336 7.60481 25.3321 7.74859 26.2675 8.09101C27.203 8.43343 28.0572 8.96703 28.7763 9.65799C30.1024 11.2124 30.7681 13.2264 30.6306 15.2675V28.625Z" fill="white"/>
<path d="M44.7118 28.9933C38.3325 28.9933 35.1428 25.479 35.1428 18.4505C35.1428 14.9595 36.0055 12.284 37.7408 10.4937C39.4761 8.70343 41.9651 7.71878 45.2076 7.71878C47.4021 7.67157 49.5776 8.13455 51.5638 9.07144L49.9079 13.4079C49.0253 13.0598 48.2122 12.7614 47.4487 12.5326C46.7113 12.3134 45.9469 12.1996 45.1779 12.1945C42.2725 12.1945 40.8148 14.2732 40.8148 18.4107C40.8148 22.5483 42.2725 24.448 45.1779 24.448C46.1853 24.4567 47.1883 24.3126 48.1527 24.0203C49.1267 23.7 50.0512 23.2447 50.8995 22.6676V27.4616C50.0562 28.0118 49.1281 28.4184 48.1527 28.6651C47.0215 28.9028 45.8674 29.0129 44.7118 28.9933Z" fill="white"/>
<path d="M64.9802 28.9923C61.6748 28.9923 59.0934 28.0772 57.2358 26.2472C55.3815 24.427 54.4493 21.8311 54.4493 18.4893C54.4493 15.1474 55.312 12.3725 57.0275 10.5325C57.9397 9.56758 59.0491 8.81201 60.2798 8.31758C61.5104 7.82315 62.8331 7.60156 64.1572 7.66802C65.3943 7.59329 66.6336 7.77557 67.7972 8.20343C68.9609 8.63129 70.024 9.29551 70.9199 10.1545C71.7664 11.0755 72.4202 12.1573 72.8425 13.3361C73.2649 14.5148 73.4474 15.7666 73.3791 17.0173V19.7425H60.1213C60.096 21.1209 60.6002 22.4563 61.5294 23.4722C62.019 23.9474 62.601 24.3164 63.2391 24.5559C63.8772 24.7955 64.5576 24.9006 65.238 24.8647C66.4158 24.8707 67.5903 24.7405 68.7384 24.4768C69.9286 24.1881 71.0852 23.7747 72.1892 23.2435V27.5899C71.1914 28.0856 70.1353 28.4532 69.0458 28.6839C67.7048 28.927 66.3424 29.0303 64.9802 28.9923ZM64.1869 11.6663C63.669 11.64 63.1516 11.7269 62.6705 11.921C62.1894 12.115 61.7561 12.4116 61.4005 12.7902C60.6711 13.7027 60.2663 14.8333 60.2502 16.0028H68.0939C68.1461 14.8341 67.7606 13.6881 67.013 12.7902C66.649 12.4117 66.2085 12.1156 65.7211 11.9218C65.2337 11.7279 64.7106 11.6408 64.1869 11.6663Z" fill="white"/>
<path d="M96.8203 28.625H91.2276V16.6102C91.3064 15.4414 91.0298 14.2762 90.4343 13.2684C90.1413 12.8889 89.7582 12.5891 89.32 12.3962C88.8818 12.2034 88.4024 12.1237 87.9256 12.1644C87.2715 12.1082 86.6141 12.2236 86.0178 12.4991C85.4216 12.7746 84.9069 13.2008 84.5244 13.7359C83.8633 14.7769 83.5327 16.5141 83.5327 18.9476V28.625H77.8905V8.05668H82.1643L82.918 10.6924H83.2253C83.8457 9.70275 84.7422 8.91768 85.8035 8.43463C86.9756 7.90917 88.2483 7.64776 89.532 7.66879C90.5257 7.60481 91.5218 7.74859 92.4572 8.09101C93.3927 8.43343 94.2469 8.96703 94.966 9.65799C96.2921 11.2124 96.9578 13.2264 96.8203 15.2675V28.625Z" fill="white"/>
<path d="M111.218 24.5173C112.417 24.4804 113.603 24.2659 114.738 23.8808V28.0581C113.109 28.7217 111.36 29.04 109.602 28.993C107.361 28.993 105.731 28.4261 104.713 27.2922C103.587 25.842 103.039 24.0232 103.176 22.1899V12.2439H100.499V9.9464L103.583 8.06661L105.199 3.73015H108.779V8.05666H114.51V12.2738H108.779V22.2198C108.751 22.5444 108.797 22.871 108.912 23.1757C109.027 23.4804 109.208 23.7553 109.443 23.9802C109.952 24.3664 110.582 24.5569 111.218 24.5173Z" fill="white"/>
<path d="M118.646 2.7451C118.646 0.915033 119.638 0 121.69 0C123.743 0 124.735 0.915033 124.735 2.7451C124.749 3.11138 124.689 3.47683 124.558 3.81894C124.427 4.16104 124.227 4.47256 123.971 4.7343C123.334 5.26463 122.516 5.52507 121.69 5.46036C119.658 5.50014 118.646 4.58511 118.646 2.7451ZM124.477 28.6047H118.884V8.05627H124.477V28.6047Z" fill="white"/>
<path d="M135.226 28.6245L127.412 8.05615H133.262L137.229 19.7725C137.65 21.1454 137.926 22.5589 138.052 23.9897H138.171C138.275 22.5558 138.551 21.1398 138.994 19.7725L142.96 8.05615H148.741L140.927 28.6245H135.226Z" fill="white"/>
<path d="M151.468 2.7451C151.468 0.915033 152.46 0 154.512 0C156.565 0 157.556 0.915033 157.556 2.7451C157.573 3.11074 157.515 3.47593 157.385 3.81808C157.256 4.16024 157.057 4.47207 156.803 4.7343C156.162 5.2643 155.341 5.52453 154.512 5.46036C152.489 5.50014 151.468 4.58511 151.468 2.7451ZM157.299 28.6047H151.716V8.05627H157.308L157.299 28.6047Z" fill="white"/>
<path d="M163.377 25.9886C163.345 25.5646 163.402 25.1386 163.543 24.7378C163.685 24.337 163.909 23.9703 164.2 23.6613C164.861 23.0925 165.721 22.8099 166.59 22.8755C167.017 22.8476 167.445 22.9043 167.85 23.0426C168.255 23.1808 168.628 23.3978 168.95 23.6812C169.239 23.9896 169.463 24.3545 169.606 24.7531C169.749 25.1518 169.809 25.5757 169.783 25.9986C169.807 26.419 169.744 26.8399 169.599 27.2352C169.454 27.6304 169.23 27.9915 168.94 28.2961C168.623 28.5854 168.252 28.8084 167.849 28.9518C167.445 29.0953 167.017 29.1564 166.59 29.1316C165.72 29.1841 164.865 28.8911 164.21 28.316C163.918 28.0071 163.693 27.6407 163.55 27.2401C163.406 26.8394 163.347 26.4133 163.377 25.9886Z" fill="#FFC46C"/>
<path d="M195.694 8.05626V10.9406L192.481 11.7661C193.074 12.6869 193.381 13.7634 193.364 14.8593C193.414 15.8394 193.231 16.8173 192.831 17.7129C192.431 18.6085 191.825 19.3962 191.063 20.0114C189.207 21.3506 186.95 22.0107 184.667 21.8812L183.676 21.8315L182.843 21.742C182.593 21.9003 182.385 22.1168 182.236 22.3731C182.088 22.6294 182.003 22.9179 181.99 23.214C181.99 24.0196 182.982 24.4274 185.064 24.4274H188.554C190.377 24.2985 192.187 24.8044 193.681 25.8596C194.286 26.3845 194.761 27.043 195.069 27.7835C195.377 28.5239 195.51 29.326 195.456 30.1265C195.493 31.2381 195.237 32.3399 194.715 33.3211C194.193 34.3023 193.422 35.1283 192.481 35.7161C190.498 37.0389 187.612 37.7053 183.864 37.7053C181.581 37.8471 179.305 37.3256 177.31 36.2035C176.596 35.7648 176.011 35.1445 175.614 34.4056C175.217 33.6666 175.022 32.8353 175.049 31.9963C175.021 31.422 175.107 30.848 175.301 30.307C175.495 29.7661 175.793 29.2687 176.179 28.8434C177.108 27.9231 178.288 27.3 179.57 27.0531C178.973 26.7989 178.455 26.3863 178.073 25.8596C177.661 25.3617 177.433 24.7363 177.428 24.0892C177.397 23.3648 177.638 22.655 178.103 22.1C178.681 21.487 179.35 20.9671 180.086 20.5584C179.015 20.1161 178.109 19.3471 177.498 18.3603C176.854 17.258 176.527 15.9976 176.556 14.7201C176.499 13.742 176.665 12.7637 177.044 11.8602C177.422 10.9568 178.001 10.1523 178.737 9.50838C180.534 8.17443 182.744 7.52249 184.975 7.66836C185.658 7.67475 186.341 7.72792 187.017 7.8275C187.811 7.92696 188.306 8.00653 188.534 8.05626H195.694ZM179.828 31.5288C179.822 31.9067 179.923 32.2786 180.12 32.6009C180.316 32.9233 180.6 33.1827 180.939 33.349C181.895 33.8456 182.967 34.0757 184.043 34.0153C185.657 34.0869 187.268 33.8053 188.763 33.1898C189.239 33.0246 189.656 32.7206 189.96 32.3167C190.264 31.9128 190.441 31.4273 190.468 30.9221C190.493 30.5843 190.41 30.2473 190.232 29.9596C190.054 29.6719 189.789 29.4482 189.477 29.3208C188.497 28.9742 187.461 28.8124 186.422 28.8434H183.448C182.534 28.8104 181.632 29.0642 180.869 29.5695C180.548 29.7818 180.287 30.0738 180.112 30.4171C179.936 30.7604 179.852 31.1434 179.868 31.5288H179.828ZM181.861 14.7897C181.811 15.7327 182.08 16.6651 182.625 17.4353C182.904 17.7751 183.26 18.0427 183.664 18.2157C184.068 18.3888 184.507 18.4622 184.945 18.4299C185.382 18.4657 185.821 18.3937 186.223 18.2204C186.626 18.047 186.98 17.7775 187.255 17.4353C187.781 16.6574 188.039 15.7283 187.989 14.7897C187.989 12.3165 186.974 11.0765 184.945 11.0699C182.915 11.0633 181.901 12.3032 181.901 14.7897H181.861Z" fill="white"/>
<path d="M217.697 18.301C217.697 21.6528 216.825 24.2686 215.059 26.1583C214.104 27.1278 212.954 27.882 211.685 28.3708C210.416 28.8595 209.058 29.0716 207.702 28.993C205.882 29.0279 204.086 28.5783 202.496 27.69C200.993 26.8309 199.786 25.5335 199.035 23.9702C198.193 22.2022 197.779 20.2599 197.825 18.301C197.825 14.9393 198.698 12.3334 200.443 10.4636C201.406 9.50359 202.56 8.7584 203.829 8.27677C205.099 7.79514 206.456 7.58793 207.811 7.66872C209.632 7.62639 211.432 8.06911 213.027 8.95176C214.524 9.80499 215.73 11.0909 216.487 12.6417C217.332 14.4053 217.747 16.3451 217.697 18.301ZM203.527 18.301C203.418 19.9023 203.762 21.502 204.519 22.916C204.872 23.445 205.36 23.8696 205.932 24.1459C206.503 24.4222 207.139 24.5401 207.771 24.4874C208.397 24.5402 209.026 24.4231 209.591 24.1484C210.156 23.8736 210.637 23.4514 210.984 22.9259C211.732 21.505 212.075 19.9047 211.976 18.301C212.082 16.7127 211.738 15.1267 210.984 13.7258C210.59 13.2484 210.097 12.864 209.538 12.6002C208.979 12.3364 208.369 12.1995 207.751 12.1995C207.134 12.1995 206.524 12.3364 205.965 12.6002C205.406 12.864 204.912 13.2484 204.519 13.7258C203.764 15.1265 203.42 16.7126 203.527 18.301Z" fill="white"/>
<path d="M227.197 28.6246L219.393 8.05627H225.244L229.21 19.7727C229.626 21.1467 229.902 22.5597 230.033 23.9898H230.142C230.255 22.5563 230.534 21.141 230.975 19.7727L234.941 8.05627H240.792L232.978 28.6246H227.197Z" fill="white"/>
<path d="M243.935 25.9893C243.903 25.5653 243.96 25.1393 244.102 24.7385C244.243 24.3377 244.467 23.971 244.758 23.662C245.086 23.3773 245.467 23.1605 245.879 23.024C246.291 22.8874 246.725 22.8338 247.158 22.8663C247.585 22.8383 248.013 22.8951 248.418 23.0333C248.823 23.1716 249.197 23.3886 249.518 23.6719C249.808 23.9804 250.031 24.3452 250.174 24.7439C250.318 25.1425 250.378 25.5664 250.351 25.9893C250.375 26.4098 250.312 26.8307 250.167 27.2259C250.022 27.6212 249.798 27.9823 249.508 28.2869C249.192 28.5762 248.821 28.7991 248.417 28.9426C248.013 29.0861 247.585 29.1472 247.158 29.1223C246.289 29.1749 245.434 28.8819 244.778 28.3068C244.486 27.9998 244.26 27.6355 244.115 27.2366C243.97 26.8377 243.908 26.4131 243.935 25.9893Z" fill="#E70C53"/>
<path d="M256.142 2.7451C256.142 0.915033 257.133 0 259.186 0C261.238 0 262.23 0.915033 262.23 2.7451C262.247 3.11074 262.189 3.47593 262.059 3.81808C261.929 4.16024 261.731 4.47207 261.476 4.7343C260.835 5.2643 260.014 5.52453 259.186 5.46036C257.163 5.50014 256.142 4.58511 256.142 2.7451ZM261.972 28.6047H256.38V8.05627H261.972V28.6047Z" fill="white"/>
<path d="M276.48 24.5173C277.678 24.4811 278.865 24.2666 280 23.8808V28.0581C278.374 28.7228 276.629 29.0412 274.874 28.993C272.632 28.993 271.003 28.4261 269.985 27.2922C268.858 25.842 268.311 24.0232 268.448 22.1899V12.2439H265.751V9.9464L268.835 8.06661L270.451 3.73015H274.021V8.05666H279.762V12.2738H274.021V22.2198C273.994 22.5451 274.041 22.8723 274.158 23.177C274.275 23.4817 274.458 23.7562 274.695 23.9802C275.205 24.3711 275.84 24.5621 276.48 24.5173Z" fill="white"/>
<path d="M207.414 70.0008C197.471 70.0228 187.841 66.5132 180.23 60.0941C172.62 53.675 167.521 44.7608 165.836 34.9312L169.743 34.2549C171.286 43.1561 175.912 51.2256 182.805 57.0413C189.698 62.8571 198.417 66.0459 207.424 66.0459C216.432 66.0459 225.151 62.8571 232.044 57.0413C238.937 51.2256 243.563 43.1561 245.105 34.2549L249.012 34.9312C247.328 44.7642 242.226 53.681 234.611 60.1005C226.997 66.52 217.362 70.0275 207.414 70.0008Z" fill="url(#paint0_linear_4247_27051)"/>
</g>
<defs>
<linearGradient id="paint0_linear_4247_27051" x1="169.5" y1="34" x2="247" y2="34" gradientUnits="userSpaceOnUse">
<stop stop-color="#FFC46C"/>
<stop offset="1" stop-color="#E70C53"/>
</linearGradient>
<clipPath id="clip0_4247_27051">
<rect width="280" height="70" fill="white"/>
</clipPath>
</defs>
</svg>
