<svg width="129" height="40" viewBox="0 0 129 40" fill="none" xmlns="http://www.w3.org/2000/svg">
<g clip-path="url(#clip0_4659_26428)">
<path d="M45.5856 16.8984V10.1976H47.9011L49.0825 15.0838L50.2638 10.1976H52.5825V16.8984H51.2215V11.713H51.0735L49.7629 16.6023H48.402L47.0914 11.713H46.9434V16.8984H45.5856Z" fill="white"/>
<path d="M57.7837 16.8984H56.4637V11.9713H57.7743V12.2485C58.142 12.0085 58.5674 11.8714 59.0061 11.8516C59.6614 11.8516 60.114 12.0458 60.3639 12.4344C60.6527 12.9856 60.7825 13.6062 60.7388 14.2269V16.8984H59.4188V14.2679C59.4399 13.9458 59.3893 13.623 59.2707 13.3228C59.2137 13.2197 59.1271 13.1361 59.0221 13.0828C58.9171 13.0294 58.7985 13.0088 58.6816 13.0235C58.4159 13.0216 58.1521 13.0686 57.9035 13.1621L57.7837 13.1999V16.8858" fill="white"/>
<path d="M67.994 13.2031C67.427 13.1201 66.856 13.0675 66.2833 13.0456C66.0693 13.0263 65.8538 13.0565 65.6533 13.1338C65.6066 13.1637 65.5686 13.2053 65.5432 13.2545C65.5177 13.3038 65.5057 13.3588 65.5084 13.4142C65.5065 13.4737 65.5243 13.5323 65.559 13.5807C65.5938 13.6291 65.6435 13.6647 65.7005 13.682C66.0244 13.7741 66.3537 13.8456 66.6866 13.8962C67.0996 13.942 67.4909 14.1048 67.8144 14.3656C67.9383 14.5094 68.032 14.6767 68.0899 14.8574C68.1478 15.0382 68.1688 15.2288 68.1515 15.4178C68.1515 16.4858 67.4899 17.015 66.1699 17.015C65.6405 17.0056 65.1131 16.9465 64.5948 16.8386L64.2797 16.7788L64.3207 15.6761C64.8835 15.7589 65.4503 15.8115 66.0187 15.8337C66.2404 15.8502 66.463 15.8179 66.6708 15.7391C66.7228 15.713 66.7665 15.6729 66.7971 15.6234C66.8276 15.5739 66.8439 15.5169 66.8441 15.4588C66.8451 15.3999 66.8281 15.3422 66.7955 15.2932C66.7628 15.2443 66.7161 15.2064 66.6614 15.1847C66.3548 15.0795 66.038 15.0067 65.7163 14.9673C65.3078 14.9196 64.9179 14.7701 64.5822 14.5326C64.4436 14.3902 64.3384 14.2189 64.2741 14.0309C64.2098 13.843 64.1881 13.6431 64.2104 13.4457C64.1959 13.2201 64.2364 12.9944 64.3287 12.788C64.4209 12.5816 64.5619 12.4008 64.7397 12.2612C65.1409 11.9828 65.6222 11.8434 66.1101 11.8642C66.6395 11.8801 67.1666 11.9423 67.6852 12.0501L68.0003 12.1099L67.9814 13.2031" fill="white"/>
<path d="M71.828 13.0929H70.6183V15.1217C70.6183 15.317 70.6183 15.4556 70.6183 15.5407C70.6281 15.6221 70.6673 15.6972 70.7285 15.7518C70.8108 15.8163 70.9141 15.8478 71.0184 15.84L71.7681 15.8211L71.828 16.8733C71.4981 16.9578 71.1602 17.0075 70.8199 17.0214C70.2297 17.0214 69.8265 16.8891 69.6102 16.6244C69.3928 16.3566 69.2951 15.8652 69.2951 15.1501V13.0929H68.7155V11.9714H69.3077V10.601H70.6309V11.9714H71.828V13.0929Z" fill="white"/>
<path d="M74.0332 15.6509C74.2236 15.7978 74.4613 15.8696 74.7011 15.8525C75.3102 15.8525 75.8552 15.8336 76.3361 15.7958L76.6102 15.7643L76.6291 16.7409C75.9597 16.9127 75.2724 17.0047 74.5814 17.015C73.8379 17.015 73.2992 16.8186 72.9653 16.4259C72.6313 16.0332 72.4623 15.3884 72.4581 14.4916C72.4581 12.7253 73.1847 11.8411 74.6381 11.839C76.0915 11.8369 76.8076 12.5793 76.7866 14.0663L76.6858 14.983H73.7875C73.7802 15.1031 73.798 15.2234 73.8398 15.3362C73.8816 15.449 73.9464 15.5519 74.0301 15.6383L74.0332 15.6509ZM75.4856 13.9781C75.513 13.6908 75.4467 13.4023 75.2965 13.1558C75.1113 13.0041 74.8792 12.9211 74.6397 12.9211C74.4002 12.9211 74.1681 13.0041 73.9828 13.1558C73.83 13.3981 73.7593 13.6831 73.7812 13.9686H75.4856" fill="white"/>
<path d="M77.7191 16.8985V11.9714H79.0297V12.4943C79.5145 12.1952 80.0474 11.9821 80.6048 11.8643V13.1969C80.0756 13.3071 79.6156 13.4205 79.2344 13.5402L79.0391 13.6096V16.8985H77.7191Z" fill="white"/>
<path d="M81.6508 12.5289C82.0005 12.0784 82.5801 11.8516 83.3961 11.8516C84.212 11.8516 84.7917 12.0784 85.1382 12.5289C85.5177 13.0834 85.7017 13.7484 85.6612 14.4191C85.6612 16.1455 84.9062 17.0097 83.3961 17.0118C81.886 17.0139 81.1299 16.1497 81.1278 14.4191C81.0873 13.7484 81.2713 13.0834 81.6508 12.5289ZM82.6715 15.5375C82.7572 15.648 82.867 15.7375 82.9926 15.799C83.1182 15.8606 83.2562 15.8926 83.3961 15.8926C83.5359 15.8926 83.674 15.8606 83.7995 15.799C83.9251 15.7375 84.035 15.648 84.1207 15.5375C84.2767 15.1885 84.3459 14.8069 84.3223 14.4254C84.347 14.0458 84.2778 13.666 84.1207 13.3196C84.032 13.2137 83.9211 13.1285 83.7959 13.0701C83.6707 13.0116 83.5342 12.9813 83.3961 12.9813C83.2579 12.9813 83.1214 13.0116 82.9962 13.0701C82.8711 13.1285 82.7602 13.2137 82.6715 13.3196C82.5115 13.6652 82.4411 14.0455 82.4667 14.4254C82.4423 14.8073 82.5126 15.1893 82.6715 15.5375Z" fill="white"/>
<path d="M92.9826 9.99927V16.8985H91.6752V16.6969C91.3057 16.8867 90.8994 16.9942 90.4844 17.0119C89.7661 17.0119 89.2683 16.8072 88.9848 16.3819C88.7013 15.9566 88.5627 15.3139 88.5627 14.4161C88.5627 13.5182 88.7296 12.8661 89.0699 12.4565C89.2595 12.2409 89.4962 12.0719 89.7618 11.9626C90.0273 11.8534 90.3145 11.8068 90.6009 11.8265C90.8962 11.8361 91.1901 11.8699 91.4799 11.9273L91.6658 11.9651V9.99927H92.9826ZM91.524 15.7172L91.6626 15.6857V13.0961C91.3439 13.0337 91.0202 13 90.6954 12.9953C90.1662 12.9953 89.8984 13.4678 89.8984 14.4161C89.8738 14.7891 89.9341 15.1629 90.0748 15.5092C90.1334 15.6112 90.2193 15.6947 90.3228 15.7504C90.4264 15.8061 90.5435 15.8317 90.6608 15.8243C90.9522 15.8208 91.2421 15.7817 91.524 15.7077" fill="white"/>
<path d="M95.5312 15.6509C95.7206 15.7973 95.9571 15.8691 96.1959 15.8525C96.8071 15.8525 97.3521 15.8336 97.831 15.7958L98.1051 15.7643L98.1271 16.7409C97.4595 16.9106 96.7744 17.0016 96.0857 17.0119C95.3443 17.0119 94.8056 16.8155 94.4696 16.4228C94.1335 16.03 93.9634 15.3863 93.9592 14.4916C93.9592 12.7253 94.6848 11.8411 96.1361 11.839C97.5873 11.8369 98.3056 12.5835 98.2909 14.0789L98.1933 14.9956H95.2949C95.2869 15.1158 95.3043 15.2363 95.3461 15.3492C95.3879 15.4622 95.4532 15.565 95.5375 15.6509H95.5312ZM96.9898 13.9907C97.0165 13.7038 96.9514 13.4159 96.804 13.1684C96.7183 13.0835 96.6147 13.0187 96.5008 12.9789C96.3869 12.9391 96.2655 12.9253 96.1455 12.9385C96.0248 12.9258 95.9028 12.9408 95.7887 12.9823C95.6747 13.0238 95.5715 13.0907 95.4871 13.1779C95.3358 13.4207 95.2652 13.7053 95.2855 13.9907H96.9898Z" fill="white"/>
<path d="M100.61 9.99927H99.2896V16.8954H100.61V9.99927Z" fill="white"/>
<path d="M103.268 9.99927H101.948V16.8954H103.268V9.99927Z" fill="white"/>
<path d="M104.818 12.5289C105.165 12.0773 105.747 11.8516 106.564 11.8516C107.377 11.8516 107.959 12.0784 108.306 12.5289C108.685 13.0834 108.869 13.7484 108.829 14.4191C108.829 16.1455 108.074 17.0097 106.564 17.0118C105.054 17.0139 104.298 16.1497 104.296 14.4191C104.255 13.7484 104.439 13.0834 104.818 12.5289ZM105.852 15.5375C105.937 15.648 106.047 15.7374 106.172 15.799C106.297 15.8606 106.435 15.8926 106.575 15.8926C106.714 15.8926 106.852 15.8606 106.978 15.799C107.103 15.7374 107.212 15.648 107.298 15.5375C107.455 15.189 107.525 14.807 107.499 14.4254C107.526 14.0457 107.456 13.6655 107.298 13.3196C107.209 13.2142 107.098 13.1295 106.974 13.0714C106.849 13.0133 106.713 12.9832 106.575 12.9832C106.437 12.9832 106.301 13.0133 106.176 13.0714C106.051 13.1295 105.94 13.2142 105.852 13.3196C105.692 13.6652 105.621 14.0455 105.647 14.4254C105.623 14.8073 105.693 15.1893 105.852 15.5375Z" fill="white"/>
<path d="M61.9107 9.99927H63.2339V11.3413H61.9107V9.99927ZM61.9107 11.9714H63.2339V16.8985H61.9107V11.9714Z" fill="white"/>
<path d="M53.9214 9.99927H55.2414V11.3413H53.9214V9.99927ZM53.9214 11.9714H55.2414V16.8985H53.9214V11.9714Z" fill="white"/>
<path d="M49.3786 24.2357C48.8116 24.1527 48.2406 24.1001 47.668 24.0782C47.4539 24.0589 47.2384 24.0891 47.0379 24.1664C46.9918 24.1966 46.9544 24.2384 46.9296 24.2876C46.9047 24.3368 46.8932 24.3917 46.8961 24.4468C46.8937 24.5064 46.9113 24.5652 46.9461 24.6137C46.981 24.6622 47.031 24.6977 47.0883 24.7145C47.4112 24.8069 47.7395 24.8794 48.0712 24.9319C48.4851 24.9755 48.8778 25.1374 49.2022 25.3982C49.3261 25.5444 49.4194 25.7139 49.4768 25.8968C49.5341 26.0797 49.5543 26.2722 49.5361 26.463C49.5361 27.5131 48.8808 28.0382 47.5703 28.0382C47.0408 28.0277 46.5134 27.9675 45.9951 27.8586L45.6801 27.7987L45.7179 26.6961C46.2818 26.7787 46.8496 26.8313 47.4191 26.8536C47.6397 26.8703 47.8613 26.838 48.0681 26.7591C48.12 26.7329 48.1637 26.6929 48.1943 26.6434C48.2249 26.5939 48.2411 26.5369 48.2413 26.4787C48.2423 26.4199 48.2253 26.3622 48.1927 26.3132C48.16 26.2643 48.1133 26.2264 48.0586 26.2047C47.752 26.0995 47.4352 26.0267 47.1135 25.9873C46.7026 25.9414 46.3102 25.7918 45.9731 25.5525C45.7242 25.3509 45.6013 24.9855 45.6013 24.4657C45.5866 24.2398 45.6274 24.0137 45.7202 23.8072C45.813 23.6007 45.955 23.4201 46.1337 23.2811C46.5331 23.0013 47.0139 22.8617 47.501 22.8842C48.0305 22.9001 48.5575 22.9623 49.0762 23.0701L49.3912 23.1299L49.3723 24.2231" fill="white"/>
<path d="M49.9803 23.0039H51.3601L52.1477 26.8064H52.4218L53.2503 23.0039H54.5892L53.4079 27.9311H51.1617L49.9803 23.0039Z" fill="white"/>
<path d="M59.2707 21.0349H57.9507V27.931H59.2707V21.0349Z" fill="white"/>
<path d="M63.4607 22.9976H64.7807V27.931H63.4701V27.6538C63.0979 27.8824 62.6745 28.0145 62.2383 28.0381C61.5537 28.0381 61.0937 27.8491 60.8585 27.4711C60.6233 27.093 60.5046 26.4629 60.5025 25.5808V22.9976H61.8225V25.5997C61.802 25.9361 61.8425 26.2734 61.9422 26.5953C62.021 26.7717 62.21 26.8599 62.5124 26.8599C62.7915 26.8628 63.0689 26.8159 63.3315 26.7213L63.4607 26.6835V22.9976Z" fill="white"/>
<path d="M66.003 30.0008V22.9976H67.3135V23.2622C67.6468 23.0377 68.034 22.9061 68.4351 22.881C68.7093 22.8585 68.985 22.9006 69.24 23.004C69.495 23.1074 69.7221 23.2692 69.9031 23.4765C70.2182 23.8734 70.3788 24.5476 70.3788 25.5021C70.3788 26.4567 70.2024 27.1151 69.8527 27.4869C69.503 27.8586 68.936 28.0382 68.1389 28.0382C67.9047 28.0366 67.671 28.0177 67.4396 27.9815L67.323 27.9626V29.9914L66.003 30.0008ZM68.1799 24.0687C67.9259 24.0697 67.6744 24.12 67.4396 24.2168L67.323 24.2641V26.8473C67.561 26.8817 67.8009 26.9017 68.0413 26.9072C68.1901 26.9245 68.3408 26.9025 68.4785 26.8433C68.6161 26.7842 68.7358 26.69 68.8257 26.5701C68.9934 26.2146 69.0662 25.8217 69.0368 25.4297C69.0368 24.5224 68.7511 24.0687 68.1799 24.0687Z" fill="white"/>
<path d="M71.3618 30.0007V22.9975H72.6723V23.2621C73.0069 23.0378 73.395 22.9063 73.797 22.8809C74.0712 22.8589 74.3467 22.9012 74.6016 23.0046C74.8565 23.108 75.0837 23.2695 75.265 23.4763C75.5801 23.8733 75.7376 24.5485 75.7376 25.502C75.7376 26.4555 75.5633 27.1171 75.2146 27.4867C74.8681 27.8585 74.2947 28.0412 73.5008 28.0412C73.2666 28.0399 73.0328 28.0209 72.8015 27.9845L72.6818 27.9656V29.9944L71.3618 30.0007ZM73.5386 24.0686C73.2856 24.0696 73.0352 24.1199 72.8015 24.2167L72.6818 24.2639V26.8472C72.9208 26.8816 73.1617 26.9016 73.4032 26.9071C73.5515 26.9244 73.7019 26.9024 73.839 26.8433C73.9762 26.7841 74.0953 26.6898 74.1845 26.57C74.3536 26.2149 74.4264 25.8216 74.3955 25.4296C74.3955 24.5223 74.112 24.0686 73.5386 24.0686Z" fill="white"/>
<path d="M76.9883 23.5615C77.3379 23.111 77.9334 22.8873 78.7335 22.8873C79.5337 22.8873 80.1291 23.111 80.4788 23.5615C80.8559 24.117 81.0386 24.7816 80.9986 25.4517C80.9986 27.1781 80.2436 28.0413 78.7335 28.0413C77.2235 28.0413 76.4674 27.1781 76.4653 25.4517C76.4262 24.7812 76.6101 24.1166 76.9883 23.5615ZM78.009 26.5701C78.0946 26.6806 78.2045 26.7701 78.3301 26.8317C78.4557 26.8932 78.5937 26.9252 78.7335 26.9252C78.8734 26.9252 79.0114 26.8932 79.137 26.8317C79.2626 26.7701 79.3724 26.6806 79.4581 26.5701C79.6144 26.2212 79.6836 25.8396 79.6597 25.458C79.6845 25.0784 79.6153 24.6986 79.4581 24.3522C79.3694 24.2463 79.2586 24.1611 79.1334 24.1027C79.0082 24.0442 78.8717 24.0139 78.7335 24.0139C78.5954 24.0139 78.4589 24.0442 78.3337 24.1027C78.2085 24.1611 78.0977 24.2463 78.009 24.3522C77.8503 24.6982 77.781 25.0784 77.8073 25.458C77.7818 25.8397 77.8511 26.2217 78.009 26.5701Z" fill="white"/>
<path d="M85.4596 26.6834C85.6489 26.8298 85.8855 26.9016 86.1243 26.8851C86.7354 26.8851 87.2805 26.8662 87.7593 26.8283L88.0365 26.7968L88.0554 27.7735C87.3846 27.9418 86.6962 28.0306 86.0046 28.0381C85.2632 28.0381 84.7245 27.8417 84.3884 27.449C84.0524 27.0562 83.8854 26.4156 83.8875 25.5273C83.8875 23.761 84.6132 22.8778 86.0644 22.8778C87.5157 22.8778 88.2308 23.6223 88.2098 25.1114L88.1121 26.0282H85.2138C85.2056 26.1483 85.2229 26.2689 85.2647 26.3819C85.3065 26.4948 85.3719 26.5976 85.4564 26.6834H85.4596ZM86.9087 25.0232C86.9353 24.7364 86.8703 24.4485 86.7228 24.201C86.5371 24.0489 86.3045 23.9659 86.0644 23.9659C85.8244 23.9659 85.5918 24.0489 85.406 24.201C85.2546 24.4438 85.1841 24.7283 85.2044 25.0137H86.9087" fill="white"/>
<path d="M91.001 22.8873C91.4419 22.8976 91.8808 22.9503 92.3116 23.0448L92.5794 23.1016L92.5384 24.1475C92.0217 24.0939 91.6374 24.0687 91.3854 24.0687C90.9317 24.0687 90.6324 24.1664 90.4844 24.3585C90.3037 24.6952 90.227 25.0778 90.2638 25.458C90.2281 25.8412 90.3047 26.2266 90.4844 26.5669C90.6324 26.7686 90.9349 26.882 91.398 26.882L92.5384 26.8032L92.5794 27.8586C92.0511 27.9759 91.5134 28.0455 90.9727 28.0665C90.2418 28.0665 89.7167 27.8565 89.3975 27.4364C89.0783 27.0164 88.9186 26.358 88.9186 25.4612C88.9186 24.5539 89.0856 23.886 89.4132 23.4953C89.7409 23.1047 90.2701 22.8905 90.9884 22.8905" fill="white"/>
<path d="M93.7796 23.5615C94.1293 23.111 94.709 22.8873 95.5249 22.8873C96.3409 22.8873 96.9205 23.111 97.2702 23.5615C97.6472 24.117 97.83 24.7816 97.79 25.4517C97.79 27.1781 97.035 28.0413 95.5249 28.0413C94.0148 28.0413 93.2567 27.1802 93.2504 25.458C93.2113 24.7875 93.3952 24.1229 93.7733 23.5678L93.7796 23.5615ZM94.794 26.5764C94.8797 26.6869 94.9896 26.7764 95.1152 26.838C95.2407 26.8995 95.3788 26.9315 95.5186 26.9315C95.6585 26.9315 95.7965 26.8995 95.9221 26.838C96.0477 26.7764 96.1575 26.6869 96.2432 26.5764C96.4011 26.228 96.4704 25.846 96.4448 25.4643C96.4712 25.0847 96.4019 24.7045 96.2432 24.3585C96.1545 24.2526 96.0436 24.1674 95.9185 24.109C95.7933 24.0505 95.6568 24.0202 95.5186 24.0202C95.3805 24.0202 95.244 24.0505 95.1188 24.109C94.9936 24.1674 94.8827 24.2526 94.794 24.3585C94.6354 24.7045 94.5661 25.0847 94.5924 25.4643C94.5669 25.846 94.6361 26.228 94.794 26.5764Z" fill="white"/>
<path d="M100.077 27.931H98.7572V22.9975H100.068V23.2748C100.436 23.0355 100.861 22.8995 101.3 22.881C101.955 22.881 102.408 23.0742 102.66 23.4606C102.946 24.0128 103.075 24.6329 103.032 25.2532V27.9247H101.712V25.3005C101.733 24.9783 101.683 24.6556 101.564 24.3553C101.507 24.2526 101.42 24.1692 101.315 24.1159C101.21 24.0626 101.092 24.0418 100.975 24.0561C100.709 24.0542 100.446 24.1012 100.197 24.1947L100.077 24.2325V27.9184" fill="white"/>
<path d="M104.472 23.5615C104.822 23.111 105.401 22.8873 106.217 22.8873C107.033 22.8873 107.613 23.111 107.959 23.5615C108.339 24.116 108.523 24.781 108.482 25.4517C108.482 27.1781 107.727 28.0413 106.217 28.0413C104.707 28.0413 103.955 27.1802 103.962 25.458C103.923 24.7875 104.106 24.1229 104.485 23.5678L104.472 23.5615ZM105.505 26.5764C105.591 26.6869 105.701 26.7764 105.826 26.838C105.952 26.8995 106.09 26.9315 106.23 26.9315C106.37 26.9315 106.508 26.8995 106.633 26.838C106.759 26.7764 106.869 26.6869 106.954 26.5764C107.111 26.2275 107.18 25.8459 107.156 25.4643C107.181 25.0848 107.112 24.7049 106.954 24.3585C106.866 24.2526 106.755 24.1674 106.63 24.109C106.504 24.0505 106.368 24.0202 106.23 24.0202C106.092 24.0202 105.955 24.0505 105.83 24.109C105.705 24.1674 105.594 24.2526 105.505 24.3585C105.347 24.7045 105.277 25.0847 105.304 25.4643C105.278 25.846 105.347 26.228 105.505 26.5764Z" fill="white"/>
<path d="M110.769 27.931H109.449V22.9975H110.76V23.2748C111.107 23.0455 111.508 22.9098 111.922 22.881C112.149 22.8662 112.375 22.8996 112.588 22.9789C112.8 23.0582 112.993 23.1815 113.154 23.3409C113.662 23.0594 114.228 22.9018 114.808 22.881C115.46 22.881 115.911 23.07 116.166 23.4449C116.421 23.8198 116.544 24.4278 116.544 25.2532V27.9247H115.224V25.3004C115.242 24.9793 115.195 24.6577 115.085 24.3553C115.035 24.255 114.955 24.1725 114.857 24.119C114.758 24.0655 114.646 24.0435 114.534 24.056C114.272 24.0638 114.013 24.1105 113.765 24.1947L113.617 24.2419C113.643 24.7376 113.655 25.1125 113.655 25.3666V27.9184H112.335V25.3981C112.355 25.0499 112.312 24.7011 112.209 24.3679C112.158 24.2654 112.076 24.1814 111.975 24.1277C111.874 24.074 111.759 24.0534 111.645 24.0686C111.386 24.0684 111.129 24.1154 110.886 24.2073L110.769 24.2451V27.931Z" fill="white"/>
<path d="M122.101 22.8873C122.542 22.8976 122.981 22.9503 123.412 23.0448L123.676 23.1016L123.639 24.1475C123.119 24.0939 122.734 24.0687 122.486 24.0687C122.032 24.0687 121.733 24.1664 121.585 24.3585C121.404 24.6952 121.327 25.0778 121.364 25.458C121.328 25.8412 121.405 26.2266 121.585 26.5669C121.733 26.7686 122.035 26.882 122.495 26.882L123.639 26.8032L123.676 27.8586C123.149 27.9757 122.613 28.0453 122.073 28.0665C121.342 28.0665 120.817 27.8565 120.498 27.4364C120.179 27.0164 120.022 26.3569 120.028 25.458C120.028 24.5507 120.192 23.8954 120.52 23.4922C120.847 23.089 121.372 22.8873 122.095 22.8873" fill="white"/>
<path d="M124.88 23.5615C125.23 23.111 125.825 22.8873 126.625 22.8873C127.425 22.8873 128.021 23.111 128.367 23.5615C128.747 24.116 128.931 24.781 128.89 25.4517C128.89 27.1781 128.135 28.0413 126.625 28.0413C125.115 28.0413 124.359 27.1781 124.357 25.4517C124.316 24.781 124.5 24.116 124.88 23.5615ZM125.901 26.5701C125.986 26.6806 126.096 26.7701 126.222 26.8317C126.347 26.8932 126.485 26.9252 126.625 26.9252C126.765 26.9252 126.903 26.8932 127.029 26.8317C127.154 26.7701 127.264 26.6806 127.35 26.5701C127.506 26.2212 127.575 25.8396 127.551 25.458C127.576 25.0784 127.507 24.6986 127.35 24.3522C127.261 24.2463 127.15 24.1611 127.025 24.1027C126.9 24.0442 126.763 24.0139 126.625 24.0139C126.487 24.0139 126.351 24.0442 126.225 24.1027C126.1 24.1611 125.989 24.2463 125.901 24.3522C125.742 24.6982 125.673 25.0784 125.699 25.458C125.673 25.8397 125.743 26.2217 125.901 26.5701Z" fill="white"/>
<path d="M55.3485 21.0349H56.6685V22.3675H55.3485V21.0349ZM55.3485 23.0039H56.6685V27.931H55.3485V23.0039Z" fill="white"/>
<path d="M117.716 21.0349H119.036V22.3675H117.716V21.0349ZM117.716 23.0039H119.036V27.931H117.716V23.0039Z" fill="white"/>
<path d="M10.2891 24.6484L10.1631 24.5192C8.35357 22.6503 7.34528 20.1488 7.35295 17.5475C7.35328 17.1262 7.37958 16.7054 7.43171 16.2873L7.45376 16.1046L14.3404 18.5587L10.2891 24.6484ZM7.70264 16.5047C7.66541 16.8511 7.64648 17.1991 7.64593 17.5475C7.63846 20.0094 8.56892 22.3817 10.2481 24.1821L13.8868 18.71L7.70264 16.5047Z" fill="white"/>
<path d="M15.5092 14.961L8.44922 12.9921L8.53428 12.8314C9.24375 11.5063 10.2406 10.3566 11.4517 9.46644C12.6629 8.57631 14.0578 7.96829 15.5344 7.68688L15.7139 7.65222L15.5092 14.961ZM8.89342 12.8062L15.2382 14.5767L15.4241 8.01136C14.054 8.29621 12.7609 8.87162 11.6322 9.69877C10.5034 10.5259 9.56518 11.5856 8.88082 12.8062H8.89342Z" fill="white"/>
<path d="M17.371 27.5971C15.8888 27.6008 14.4238 27.2781 13.0803 26.652L12.9164 26.567L17.371 20.7924L21.8256 26.567L21.6587 26.6426C20.3154 27.2675 18.8525 27.5932 17.371 27.5971ZM13.3732 26.463C14.6311 27.0247 15.9934 27.3145 17.371 27.3136C18.748 27.3089 20.1092 27.0193 21.3688 26.463L17.371 21.2618L13.3732 26.463Z" fill="white"/>
<path d="M24.4499 24.6484L20.3985 18.5587L27.2852 16.1046L27.3072 16.2873C27.3594 16.7054 27.3857 17.1262 27.386 17.5475C27.3941 20.1495 26.3845 22.6516 24.5727 24.5192L24.4499 24.6484ZM20.8521 18.71L24.4908 24.1821C26.17 22.3817 27.1005 20.0094 27.093 17.5475C27.0924 17.1991 27.0735 16.8511 27.0363 16.5047L20.8521 18.71Z" fill="white"/>
<path d="M19.2329 14.961L19.025 7.65222L19.2045 7.68688C20.6816 7.96679 22.0772 8.57422 23.2886 9.46451C24.5 10.3548 25.4964 11.5053 26.2046 12.8314L26.2928 12.9921L19.2329 14.961ZM19.3305 8.01136L19.5322 14.5767L25.8738 12.8062C25.1893 11.5857 24.251 10.5262 23.1223 9.69902C21.9935 8.8719 20.7006 8.29641 19.3305 8.01136Z" fill="white"/>
<path d="M26.7497 14.4601L19.7118 14.3058L17.3648 7.65222L15.0367 14.2963L7.98932 14.4696L13.5875 18.7383L11.5713 25.499L17.3648 21.498L23.1677 25.499L21.1515 18.7572L26.7497 14.4601ZM22.6542 24.7838L17.5317 21.2554L17.3648 21.1389L17.1978 21.2554L12.0911 24.7838L13.8616 18.8202L13.9214 18.628L13.7576 18.5052L8.82101 14.7437L15.0335 14.5893H15.2351L15.3044 14.3971L17.3553 8.54062L19.4251 14.4097L19.4944 14.5987H19.696L25.8991 14.7374L20.9625 18.5178L20.8018 18.6406L20.8617 18.836L22.6542 24.7838Z" fill="white"/>
<path d="M18.0483 4.37898L18.272 5.39969L18.3098 5.57296L18.4862 5.59186C18.9834 5.63961 19.4769 5.71959 19.9638 5.83129L20.1402 5.86909L20.2284 5.71473L20.7482 4.81057L22.0839 5.24532L21.9863 6.28179L21.9674 6.45821L22.1312 6.53067C22.5885 6.72959 23.0344 6.9536 23.4669 7.20169L23.6213 7.29305L23.7536 7.17334L24.5255 6.48341L25.6627 7.3088L25.2437 8.25391L25.1713 8.41458L25.3036 8.53429C25.6751 8.86797 26.0284 9.22132 26.3621 9.59281L26.4787 9.72197L26.6425 9.65266L27.1875 9.41639L27.1529 9.16751L26.5448 9.45104C26.2048 9.07326 25.8452 8.71362 25.4674 8.37362L25.9683 7.23949L24.5097 6.16838L23.5898 6.99062C23.1496 6.73497 22.6952 6.50462 22.2289 6.30069L22.3454 5.06575L20.6348 4.51444L20.0047 5.59186C19.512 5.48382 19.0134 5.40493 18.5114 5.35559L18.2468 4.1427H16.4448L16.1833 5.35559C15.6759 5.40755 15.172 5.48961 14.6743 5.60131L14.0442 4.52389L12.3431 5.07205L12.4628 6.30069C11.9994 6.50008 11.5491 6.72841 11.1144 6.98432L10.1693 6.16207L9.78182 6.44246L9.5613 6.93076L10.1693 6.49286L10.9506 7.18279L11.0829 7.29935L11.2341 7.21114C11.6632 6.96266 12.106 6.73862 12.5604 6.54012L12.7242 6.47081V6.29124L12.6014 5.23587L13.9308 4.80742L14.4569 5.71473L14.5483 5.86909L14.7216 5.83129C15.2084 5.71959 15.7019 5.63961 16.1991 5.59186L16.3755 5.57296L16.4133 5.39969L16.637 4.37898H18.042H18.0483ZM30.1299 21.6397L30.3788 20.8553L29.3234 20.2252C29.4306 19.7267 29.5126 19.223 29.5692 18.7162L30.7632 18.4547V16.6685L29.5692 16.4039C29.5172 15.8975 29.4352 15.3946 29.3234 14.898L29.8653 14.583L29.7393 14.3719L29.2006 14.6869L29.0462 14.7751L29.084 14.9516C29.1957 15.4384 29.2757 15.9319 29.3234 16.4291L29.3423 16.6055L29.5156 16.6433L30.5174 16.8638V18.272L29.5156 18.4957L29.3455 18.5335L29.3234 18.7068C29.2701 19.2042 29.1902 19.6985 29.084 20.1874L29.0462 20.3607L29.2006 20.4521L30.0858 20.9687L29.9472 21.4224L30.1299 21.6397ZM28.3531 24.8248L27.5844 25.877L26.6393 25.4674L26.4755 25.395L26.359 25.5273C26.0264 25.901 25.6708 26.2534 25.2941 26.5826L25.1587 26.7024L25.2311 26.8662L25.6501 27.8113L24.5129 28.6367L23.741 27.953L23.6087 27.8365L23.4575 27.9247C23.0249 28.1766 22.579 28.4048 22.1217 28.6083L21.9579 28.6682L21.9768 28.8446L22.0745 29.8716L20.7356 30.3001L20.2095 29.4117L20.1181 29.2604L19.9448 29.2982C19.4605 29.4042 18.9703 29.481 18.4768 29.5282H18.3004L18.2626 29.7046L18.0389 30.7159H16.6338L16.4102 29.7046L16.3818 29.5566L16.2085 29.5377C15.7111 29.4844 15.2168 29.4044 14.7279 29.2982L14.5546 29.2604L14.4632 29.4117L13.9371 30.3095L12.6014 29.8748L12.7085 28.8477L12.7274 28.6682L12.5636 28.5989C12.1063 28.3953 11.6604 28.1671 11.2278 27.9152L11.0766 27.827L10.9443 27.9436L10.1693 28.6367L9.03204 27.8081L9.45103 26.8441L9.52349 26.6803L9.38803 26.5637C9.01176 26.2364 8.65515 25.8872 8.32006 25.5178L8.19089 25.3855L8.03023 25.4548L7.08512 25.8675L6.96541 25.7037L6.77639 25.8549L7.00321 26.17L8.13734 25.6816C8.47419 26.0584 8.83402 26.4141 9.21476 26.7465L8.717 27.8932L10.1725 28.9486L11.0924 28.1263C11.5325 28.3839 11.9869 28.6164 12.4533 28.8225L12.3273 30.0449L14.0379 30.6025L14.668 29.5377C15.1653 29.6453 15.668 29.7262 16.1739 29.7803L16.4385 30.9837H18.2405L18.5051 29.7803C19.0083 29.7333 19.508 29.6554 20.0016 29.5471L20.6316 30.6025L22.336 30.0543L22.2194 28.832C22.6858 28.6258 23.1402 28.3934 23.5804 28.1358L24.5003 28.9486L25.9557 27.8932L25.458 26.778C25.8419 26.4424 26.2048 26.0837 26.5448 25.7037L27.6695 26.192L28.5138 25.0327L28.3531 24.8248ZM5.13821 14.7436L5.36503 14.8759C5.25717 15.3726 5.18036 15.8756 5.13506 16.3818L3.91272 16.6464V18.4453L5.1256 18.7099C5.17069 19.2183 5.2475 19.7233 5.35558 20.2221L4.29076 20.8522L4.69401 22.1123L4.84837 21.7973L4.58374 20.9845L5.48159 20.4584L5.63281 20.367L5.59816 20.1622C5.48693 19.6773 5.40592 19.186 5.35558 18.691V18.5114L5.17916 18.4736L4.15845 18.2531V16.8481L5.18861 16.6244L5.36503 16.5866L5.38078 16.407C5.4285 15.9136 5.50529 15.4234 5.61076 14.939L5.64856 14.7657L5.4942 14.6775L5.36818 14.6019L5.13821 14.7436ZM8.99738 7.84436L9.22106 8.35787C8.98478 8.56579 8.75796 8.78002 8.54373 9.00369V9.35338C8.80709 9.06852 9.08578 8.79824 9.37858 8.54374L9.51404 8.42403L9.45103 8.27281L9.18956 7.67424L8.99738 7.84436Z" fill="white"/>
<path d="M35.3816 18.7194C35.4981 17.957 35.4194 17.4781 35.1579 17.2828C34.8964 17.0875 34.5278 17.1442 34.1183 17.4687C33.8757 17.3395 33.5512 17.4687 33.1417 17.8278C33.2101 17.6734 33.2168 17.4987 33.1606 17.3395C33.4527 17.2353 33.7034 17.0398 33.8757 16.7819C33.9969 16.4747 34.0475 16.1442 34.0238 15.8148C34.1864 15.2955 34.438 14.8083 34.7673 14.375C35.0823 13.6788 34.8555 13.4299 34.112 13.6505C34.5152 13.2882 34.72 12.9668 34.72 12.7054C34.7185 12.3541 34.6084 12.0119 34.405 11.7256C34.3073 11.5019 34.1624 11.461 33.9576 11.5996C34.0381 11.4417 34.0781 11.2664 34.0742 11.0892C34.0184 10.6496 33.8862 10.2231 33.6835 9.82909C33.6426 8.9974 33.4473 8.65401 33.0944 8.79263C33.0344 8.34884 32.8889 7.9209 32.666 7.53249C32.332 7.02213 32.058 6.90242 31.8626 7.13239C31.3145 6.31015 30.7947 5.97621 30.3158 6.11483C30.2991 5.76918 30.1722 5.43795 29.9535 5.16972C29.8847 4.76399 29.7242 4.37932 29.4841 4.04505C29.2289 3.94739 29.0525 4.08285 28.9549 4.4672C28.9115 4.13258 28.8147 3.8071 28.6682 3.50319C28.6115 3.34987 28.5106 3.21682 28.3783 3.12092C28.2459 3.02501 28.088 2.97057 27.9247 2.96448C27.7998 2.95277 27.6742 2.97681 27.5624 3.03379C27.3964 2.91457 27.1995 2.84567 26.9953 2.83532C26.5165 2.32496 26.0754 2.28715 25.6753 2.70615L25.6155 2.26825C25.4674 1.73899 25.1933 1.63818 24.7649 1.92486C24.2655 1.34514 23.6671 0.858733 22.9975 0.488304C22.5849 0.352839 22.3202 0.381192 22.1942 0.598567C22.0092 0.398894 21.7691 0.258566 21.5043 0.195322C21.2617 0.138615 21.0349 0.0693077 20.8207 0C20.5056 0 20.3607 0.166969 20.3985 0.529259C20.0319 0.517523 19.6695 0.609232 19.3526 0.793888C19.2574 0.864463 19.1905 0.966694 19.1639 1.08219C19.1373 1.19769 19.1529 1.31888 19.2077 1.42396C19.2623 1.57045 19.3464 1.70419 19.4548 1.81689C19.5632 1.9296 19.6935 2.01888 19.8377 2.07923C19.7413 2.21535 19.7028 2.38416 19.7306 2.54863C19.7306 2.76286 19.9669 2.93928 20.4048 3.07474C20.7126 3.164 21.0383 3.1716 21.3499 3.09679C21.3256 3.15947 21.3155 3.22674 21.3202 3.2938C21.3249 3.36085 21.3443 3.42604 21.3771 3.48472C21.4099 3.54339 21.4553 3.59411 21.5099 3.63324C21.5646 3.67237 21.6272 3.69896 21.6933 3.71111C21.8834 3.91524 22.1323 4.0552 22.4055 4.11165C22.6787 4.16809 22.9626 4.13821 23.2181 4.02615L23.1582 4.42624L23.9805 4.76963C23.9864 4.94649 24.0407 5.11835 24.1373 5.26661C24.2339 5.41487 24.3692 5.53388 24.5286 5.61077L24.8626 5.75884C24.7129 5.82298 24.5818 5.92373 24.4814 6.05182C24.4293 6.0922 24.3913 6.14788 24.3725 6.21101C24.3538 6.27415 24.3553 6.34158 24.3768 6.40382C24.3984 6.46605 24.4389 6.51997 24.4927 6.55798C24.5465 6.59599 24.6108 6.61619 24.6767 6.61574C25.0267 6.65975 25.3793 6.67975 25.732 6.67559C25.7544 6.81605 25.8014 6.95148 25.8707 7.07569C25.9936 7.28763 26.1452 7.48163 26.3212 7.6522C26.6188 7.93381 26.9674 8.15619 27.3482 8.30747C27.3293 8.32638 27.2316 8.60046 27.134 8.85564C27.0237 9.17067 26.967 9.66843 27.1812 9.94251C27.134 9.91415 26.9355 10.0591 26.8662 10.1662C26.6015 10.5789 27.1812 11.1648 27.2663 11.3602C27.1642 11.3889 27.0681 11.4359 26.9827 11.4988C26.7874 11.6342 26.8536 12.3399 27.4112 12.4659C27.8074 12.6708 28.174 12.9283 28.5012 13.2315C28.5705 13.2882 28.7469 13.6316 29.0021 13.9655C29.1376 14.1514 29.2856 14.4538 29.6322 14.4538C29.9647 15.4722 30.4376 16.4392 31.0372 17.3269C31.3357 17.6781 31.5886 18.0655 31.7902 18.48C31.7522 18.6976 31.729 18.9176 31.7209 19.1384C31.6607 19.7786 31.5393 20.4115 31.3586 21.0286C30.7537 20.7356 30.656 21.1357 30.5678 21.5169C30.5867 21.498 30.2938 21.4602 30.2528 21.5957C30.2843 21.3625 29.8905 21.1546 29.7172 21.2806C29.7172 21.2806 29.5188 21.4161 29.4022 21.5043C29.3644 21.5326 29.3329 21.309 29.314 21.142C29.2977 20.9192 29.3147 20.6951 29.3644 20.4773C29.3644 20.4489 29.5188 20.282 29.607 20.1244C29.7834 19.8094 29.6574 18.795 29.4306 18.0988C29.4072 18.0193 29.3669 17.9458 29.3125 17.8833C29.2582 17.8207 29.191 17.7707 29.1155 17.7365C29.0651 17.7365 28.7532 17.7365 28.6839 17.9822C28.6839 17.8436 28.4508 17.768 28.2838 17.727C27.8239 17.6105 27.3387 18.5115 27.3828 19.3337C27.3284 19.2885 27.2651 19.2552 27.197 19.236C26.904 19.1069 26.611 19.236 26.6488 19.6172C26.7083 19.8785 26.8071 20.1291 26.9418 20.3607C27.2568 20.9467 27.7168 21.5736 27.7357 21.9359C27.4427 21.6713 26.7906 21.6713 26.7906 22.2982C26.8248 22.5284 26.9006 22.7504 27.0142 22.9535C26.8788 23.6276 27.6443 24.1285 28.2744 24.7649C28.2744 25.0799 28.372 25.0799 28.4697 25.1839C28.3531 25.3603 27.638 26.485 27.6286 26.5039C27.6191 26.5228 27.1088 26.2519 26.9418 26.3873C26.7936 26.5349 26.6625 26.6987 26.5511 26.8756L26.6393 27.6601C26.6992 27.9751 26.5228 28.3437 26.1195 28.7469C25.7807 29.0613 25.5086 29.4405 25.3194 29.8622C25.25 30.1174 24.976 30.3914 24.4971 30.6939C24.4142 30.5328 24.297 30.392 24.1537 30.2812C24.1254 30.2339 24.075 30.215 23.9868 30.2245C23.5079 30.3505 22.5407 30.8986 21.0821 31.6232C20.827 31.7492 20.4521 32.0737 20.0047 32.8834H19.1667C18.9445 32.648 18.7055 32.429 18.4516 32.2281C18.2657 32.0832 17.9444 32.0737 17.475 32.3068C17.2515 32.2542 17.0194 32.2489 16.7937 32.2912C16.5681 32.3335 16.3537 32.4226 16.1644 32.5526C15.978 32.6432 15.7642 32.6601 15.5659 32.5998L14.5294 31.4657C12.3746 30.5395 11.2121 30.13 11.0073 30.2434C10.7965 30.3689 10.6344 30.5621 10.5474 30.7915C10.1924 30.5708 9.87362 30.2967 9.60225 29.9787L8.94698 29.2353C8.46813 28.706 8.27281 28.1988 8.35157 27.7105L8.45868 27.0521C8.46825 27.0125 8.46955 26.9713 8.4625 26.9312C8.45546 26.8911 8.44021 26.8529 8.41772 26.8189C8.25683 26.6691 8.05705 26.5676 7.84121 26.5259C7.81285 26.507 7.72465 26.4755 7.61753 26.841C7.37169 26.5386 7.14243 26.2231 6.93076 25.8959C7.26544 25.4443 7.51133 24.9333 7.65534 24.39C7.83882 23.7358 7.94456 23.0622 7.97037 22.3832C8.01133 22.3139 8.01133 22.3045 8.05858 22.2667C8.37362 22.0115 8.80206 19.6519 8.7044 19.0848C8.6666 18.8611 8.60674 18.7414 8.55004 18.732C8.51726 18.7276 8.48394 18.7298 8.45203 18.7385C8.42012 18.7471 8.39025 18.7621 8.36417 18.7824L8.49018 18.5272C8.56894 18.3508 8.56894 18.2122 8.49018 18.1744C8.23182 18.1277 7.96528 18.1734 7.73725 18.3035C7.67763 17.9235 7.57184 17.5522 7.42221 17.1978C7.39071 17.1285 7.3025 17.1978 7.29305 17.1978C6.70708 17.5506 6.44245 18.3413 6.22823 19.3211L6.06126 19.466C5.25944 20.4301 4.69413 21.5682 4.41048 22.7896C4.27273 22.516 4.16702 22.2274 4.09544 21.9296C4.00082 21.6906 3.96412 21.4326 3.98833 21.1767C4.04456 21.0896 4.06543 20.9845 4.0467 20.8826C4.02796 20.7807 3.97102 20.6898 3.88752 20.6285C3.7426 20.4815 3.55673 19.8451 3.32991 18.7194C3.39237 18.2593 3.51414 17.8093 3.6922 17.3805C4.0037 16.6198 4.37011 15.8828 4.78852 15.1752C4.82002 15.1343 5.03425 14.9012 5.10355 14.8917C5.83759 14.7058 9.0856 10.4812 8.76111 8.53115C8.83042 8.53115 10.1599 6.17154 10.2796 5.66433L10.456 5.60447L10.6702 5.52571C11.3759 5.24218 11.9713 4.93975 12.5289 4.68457L13.3795 4.22462C13.9911 3.96189 14.5619 3.61285 15.0744 3.18815C15.3216 3.00402 15.5295 2.77232 15.6858 2.50668C15.8422 2.24105 15.9439 1.94683 15.9849 1.64133C15.8872 1.51532 15.6005 1.44601 15.1217 1.42711C15.356 1.18612 15.4987 0.870707 15.5249 0.53556C15.3422 0.292983 14.8066 0.255178 13.8615 0.431598C12.9586 0.640952 12.1034 1.01936 11.3412 1.54682C10.6009 2.01871 9.93247 2.59485 9.35653 3.25746C8.80247 3.89481 8.33142 4.59981 7.95462 5.3556L8.38307 4.37584C8.58784 3.91589 8.82412 3.37087 9.05724 2.75341C9.12478 2.54881 9.12478 2.32793 9.05724 2.12334C8.99739 1.99732 8.85877 1.95637 8.64455 2.01622C8.43032 2.07608 8.01448 2.36906 7.41276 2.90462C6.7244 3.63246 6.1479 4.45845 5.70212 5.3556C5.30143 6.09803 4.95809 6.87002 4.67511 7.6648C4.77523 7.12244 4.75805 6.56493 4.6247 6.02977C4.55854 5.85335 4.40103 5.79665 4.16475 5.88485C3.89884 6.07875 3.66769 6.31628 3.48112 6.58738L2.8353 7.47578C2.56166 7.87317 2.31029 8.28545 2.08237 8.71072C1.76555 9.32066 1.5061 9.95872 1.30738 10.6167C1.05341 11.5763 0.886814 12.5569 0.809626 13.5465C0.744729 14.3855 0.804178 15.2294 0.986046 16.051C1.13561 16.7297 1.36178 17.3892 1.66022 18.0169C1.88705 18.4485 2.10127 18.6942 2.29029 18.7635C2.41946 19.0785 2.58327 19.5952 2.80065 20.3072C2.90138 20.5562 2.95067 20.823 2.94556 21.0916C2.93447 21.1588 2.94145 21.2278 2.96581 21.2915C2.99017 21.3552 3.03102 21.4112 3.08418 21.4539C3.21503 21.5655 3.30758 21.7154 3.34881 21.8823C3.52434 22.5385 3.77376 23.1726 4.09229 23.7725C4.0398 24.0848 4.01345 24.401 4.01353 24.7176C3.33096 22.7308 2.78175 21.2407 2.3659 20.2473C1.54366 18.4264 0.897836 17.5853 0.428434 17.7428C0.306947 17.7988 0.203268 17.8873 0.128793 17.9985C0.054318 18.1096 0.0119296 18.2392 0.00628662 18.3728C0.00628662 18.502 0.00628662 18.8233 0.00628662 19.3526C0.00628662 19.8819 0.0755943 20.4269 0.154353 21.0065C0.510926 22.7175 1.2581 24.3229 2.33755 25.6974L3.89067 27.5183C4.14907 27.7888 4.44638 28.0192 4.77277 28.2019C5.01184 28.3435 5.29698 28.3853 5.56666 28.3185C5.96026 28.9482 6.4049 29.5446 6.8961 30.1016C7.24579 30.6277 7.59233 30.8734 7.95462 30.8451C8.00442 30.9922 8.09886 31.1201 8.22478 31.211C8.3507 31.3019 8.50184 31.3513 8.65715 31.3523L8.97218 31.3145C9.34672 31.6791 9.7445 32.019 10.163 32.332L9.76607 33.4756C9.11784 33.57 8.46456 33.6258 7.8097 33.6426C7.26154 33.2519 6.47711 32.6975 5.4816 32.0265L5.41229 30.7663C5.38196 30.386 5.46296 30.0051 5.64541 29.67C5.69582 29.4243 5.56035 29.21 5.24532 29.0147C4.77592 28.7785 4.5806 28.6997 4.38527 28.7312C4.29706 28.7595 4.38527 28.8383 4.38527 28.9643V29.67L2.20523 29.6984C2.10968 29.6986 2.01529 29.7192 1.92836 29.7589C1.84143 29.7986 1.76398 29.8563 1.70118 29.9283C1.57201 30.0638 1.54366 30.3473 1.65077 30.7695C1.66407 30.904 1.65123 31.0399 1.61297 31.1696C1.45174 31.7648 1.18265 32.3254 0.819077 32.8235C0.762371 32.9306 0.790724 33.0787 0.888385 33.274C1.11363 33.6192 1.37907 33.9365 1.67912 34.2191C1.94521 34.4553 2.22617 34.6742 2.52027 34.8744C2.89201 35.139 3.55673 35.5517 4.49554 36.0999C5.52809 36.7153 6.59696 37.2676 7.69629 37.7538C7.91052 37.7727 9.32817 37.5774 11.943 37.1836L11.9619 37.4104C11.2089 37.9775 10.7301 38.2138 10.5222 38.1129C10.2071 38.1444 10.1315 38.3587 10.2386 38.7714C10.2851 38.8653 10.3515 38.948 10.4331 39.0138C10.5146 39.0797 10.6095 39.127 10.7112 39.1526L10.9853 39.4676L11.7697 39.9275C12.0464 40.0158 12.3436 40.0158 12.6203 39.9275C12.7538 39.8703 12.8706 39.7802 12.9598 39.6656C13.0491 39.551 13.1078 39.4157 13.1306 39.2723L14.0758 38.3272L14.6901 37.8578C14.8764 37.8519 15.0588 37.8028 15.2229 37.7142C15.3869 37.6256 15.5281 37.5 15.6352 37.3474C15.6358 37.2673 15.654 37.1884 15.6882 37.116C15.7225 37.0437 15.7721 36.9796 15.8336 36.9284L16.5771 36.418C16.6055 36.3519 16.8922 36.4685 17.4876 36.7803C17.7335 36.8505 17.996 36.8338 18.2311 36.7331L18.7792 36.418C19.277 36.5252 20.137 37.1426 21.3814 38.2579C21.3884 38.3447 21.4126 38.4292 21.4526 38.5066C21.4926 38.5839 21.5477 38.6525 21.6145 38.7084C21.8457 38.8961 22.13 39.0064 22.4273 39.0234L22.7203 39.581L23.0164 39.6881C23.4713 39.6913 23.9108 39.5238 24.2482 39.2187L24.7176 39.0706C24.9539 38.8848 25.061 38.6989 25.0327 38.513L24.8468 38.3272L24.4373 38.2201C23.888 37.9498 23.3695 37.6213 22.8904 37.2403L22.5754 36.9851C24.4773 37.2964 26.3943 37.5067 28.3185 37.6152C28.5926 37.675 28.9738 37.527 29.4432 37.1867C29.9126 36.8465 31.3523 35.8163 33.7402 34.1214C34.0945 33.7348 34.382 33.2919 34.5908 32.8109C34.3483 32.5669 34.1557 32.278 34.0238 31.9603C33.8821 31.6587 33.7764 31.3415 33.7087 31.0152C33.6537 30.8095 33.6472 30.5938 33.6898 30.3851C33.7092 30.2846 33.7012 30.1808 33.6669 30.0844C33.6325 29.988 33.573 29.9026 33.4945 29.837C33.4252 29.7393 33.2708 29.6795 33.0062 29.6511C32.4976 29.6044 31.9856 29.6107 31.4783 29.67C31.2137 29.6416 31.0593 29.5818 31.0183 29.4747L31.0372 28.9769C31.0782 28.7406 31.0183 28.643 30.8514 28.6619C30.2213 28.8194 29.8559 28.9769 29.7267 29.1313C29.6839 29.1725 29.6502 29.2221 29.6278 29.2771C29.6054 29.3321 29.5947 29.3912 29.5965 29.4505C29.5982 29.5099 29.6124 29.5682 29.6381 29.6217C29.6638 29.6753 29.7004 29.7228 29.7456 29.7614C29.8157 29.8302 29.8687 29.9145 29.9005 30.0075C29.9322 30.1005 29.9417 30.1996 29.9283 30.2969C29.8401 31.2252 29.7613 31.8553 29.692 32.1871C29.0335 32.7451 28.3308 33.2487 27.5908 33.693C27.2946 33.7907 26.6299 33.7529 25.6029 33.567C25.3359 33.2885 25.1648 32.932 25.1146 32.5494C25.5044 32.3181 25.88 32.0635 26.2393 31.787C26.4678 31.7524 26.6932 31.6997 26.9134 31.6295C27.0993 31.5602 27.1875 31.3932 27.1875 31.1097C27.2872 31.0691 27.3757 31.0054 27.4459 30.9238C27.516 30.8421 27.5657 30.745 27.5908 30.6403L28.8225 29.1628C29.1832 28.8386 29.6334 28.631 30.1142 28.5674C30.6812 28.5264 31.4153 28.2051 32.3194 27.6223C32.4549 27.4774 32.4549 27.2505 32.3194 26.967C32.8158 26.594 33.257 26.1528 33.63 25.6565C33.7454 25.4959 33.8208 25.31 33.8498 25.1144C33.8789 24.9187 33.8607 24.719 33.7969 24.5318C34.364 23.8576 34.679 23.3189 34.7421 22.9156C34.7967 22.5387 34.7871 22.1553 34.7137 21.7815C34.9203 21.6586 35.1107 21.5104 35.2808 21.3405C35.3947 21.2006 35.451 21.0226 35.4383 20.8427C35.4388 20.7428 35.418 20.6439 35.3773 20.5526C35.3365 20.4613 35.2768 20.3798 35.202 20.3135C35.6462 19.7086 35.6935 19.1888 35.3816 18.7194ZM23.4102 4.14271L23.4512 3.65441L23.048 3.73317C22.8453 3.79208 22.6301 3.79196 22.4275 3.73281C22.2249 3.67365 22.0435 3.55793 21.9044 3.39923C21.6492 3.43703 21.5421 3.33937 21.5893 3.08419C21.687 2.87627 21.6681 2.76916 21.5106 2.75026L20.8805 2.81011C20.5906 2.806 20.3133 2.69101 20.1055 2.48878C20.0173 2.34071 20.0772 2.17374 20.2725 1.95007C19.9824 1.8693 19.7295 1.68995 19.5574 1.44286C19.4692 1.26644 19.529 1.12783 19.7338 1.00181C20.0997 0.874906 20.4943 0.855231 20.8711 0.945105C20.8099 0.883468 20.7672 0.805985 20.7477 0.721383C20.7282 0.636781 20.7328 0.54842 20.7608 0.466252C20.7608 0.289832 21.1451 0.387493 21.8571 0.740332L22.2887 0.995511C22.3129 0.945274 22.3468 0.900332 22.3885 0.863279C22.4302 0.826227 22.4788 0.7978 22.5315 0.779639C22.5843 0.761478 22.6401 0.753943 22.6957 0.757471C22.7514 0.760998 22.8058 0.775517 22.8558 0.800189C23.1802 0.953283 23.4858 1.14358 23.7662 1.36725C24.1142 1.64751 24.4311 1.96437 24.7113 2.31236C25.0075 2.11704 25.2217 2.15484 25.3414 2.43837L25.4013 2.94873C25.0862 2.65575 24.7176 2.63369 24.2577 2.88887L23.9616 2.76286C23.658 2.42795 23.4073 2.04869 23.2181 1.63818C23.1393 1.32315 23.0921 1.28534 23.0921 1.54997C23.1723 1.94636 23.3572 2.31403 23.6276 2.61479C23.1185 2.47104 22.6503 2.20992 22.2604 1.85241C22.0241 1.60067 21.8012 1.33673 21.5925 1.06167C21.4381 0.80649 21.3783 0.80649 21.4066 1.06167C21.587 1.38936 21.8225 1.6835 22.1028 1.93116C21.876 1.8335 21.6712 1.73584 21.4728 1.63818C21.0885 1.45321 20.6748 1.33699 20.2504 1.29479C20.0929 1.29479 20.0835 1.32315 20.2189 1.383C20.6314 1.47542 21.0343 1.6062 21.4224 1.77365C21.6078 1.85441 21.7774 1.96748 21.9233 2.10758C21.5338 2.27439 21.1116 2.35086 20.6883 2.33126C20.4269 2.33126 20.2977 2.33126 20.3292 2.36276C20.4078 2.40391 20.4932 2.43058 20.5812 2.44152C21.1028 2.49656 21.6302 2.43963 22.128 2.27455C22.5567 2.4918 22.9999 2.67917 23.4543 2.83532C23.1249 2.91643 22.8152 3.06323 22.5439 3.26691C22.4242 3.40238 22.484 3.41183 22.7109 3.28582C23.0176 3.09566 23.3679 2.98721 23.7284 2.97078L24.0907 3.1283C24.0647 3.53501 24.1589 3.9404 24.3616 4.29393L24.1285 4.36954L23.4102 4.14271ZM25.8329 6.40466C25.0421 6.42356 24.8878 6.40466 24.8373 6.2755C24.7869 6.14633 24.7869 6.09908 25.0705 5.94471L25.2091 5.69898C24.7491 5.49421 24.327 5.23903 24.3081 4.67197L24.6893 4.5239C24.8563 4.31913 24.8563 4.17106 24.6893 4.0734C24.5223 3.97574 24.4341 3.71111 24.4247 3.29212C24.5717 2.94978 24.9539 2.94978 25.5714 3.29212C25.8329 2.77231 26.1636 2.61479 26.5448 2.83532C26.3834 2.81619 26.2207 2.85834 26.0889 2.95343C25.957 3.04851 25.8657 3.18961 25.8329 3.34882C25.7948 3.62475 25.7948 3.90459 25.8329 4.18052C25.6977 3.98062 25.5255 3.80845 25.3257 3.67331C24.9445 3.47799 24.8752 3.49689 25.1209 3.73317C25.3474 3.96649 25.5579 4.21489 25.751 4.47665C25.6121 4.59754 25.4507 4.68983 25.2761 4.74821C25.1015 4.8066 24.917 4.82994 24.7334 4.81689C24.6074 4.87674 24.6263 4.9051 24.7932 4.924C24.9931 4.96635 25.201 4.94994 25.3918 4.87674C25.37 5.15995 25.4131 5.44439 25.5178 5.70844C25.6598 5.91036 25.8357 6.08622 26.0376 6.22824C25.9925 6.24061 25.9508 6.26286 25.9154 6.29338C25.8799 6.32389 25.8518 6.3619 25.8329 6.40466ZM26.2739 6.81421C26.2739 6.63779 26.4125 6.54013 26.7244 6.52123C27.0363 6.50232 27.0772 6.41411 26.8725 6.2566C26.4699 6.12444 26.1157 5.8755 25.8549 5.54147C25.669 5.29889 25.669 5.13192 25.8549 5.03426L26.1699 4.94605L26.318 4.75073L26.1321 4.0167C26.0893 3.86538 26.0969 3.70425 26.1538 3.55763C26.2106 3.41101 26.3136 3.28685 26.4472 3.20391C26.6482 3.18035 26.8519 3.1987 27.0455 3.2578C27.2391 3.3169 27.4183 3.41547 27.5719 3.54729C27.5908 3.34882 27.7199 3.29212 27.9625 3.37087C28.2051 3.44963 28.4445 3.96629 28.6587 4.94605L28.9927 5.07206C29.1092 4.79798 29.1974 4.67197 29.2762 4.67197C29.355 4.67197 29.4999 4.9051 29.5912 5.36505C29.7473 5.53232 29.8643 5.73206 29.9341 5.94993C30.0038 6.1678 30.0244 6.3984 29.9945 6.62519C29.808 6.88445 29.7047 7.19428 29.6983 7.51359L29.5345 7.13239C29.4319 6.69706 29.3885 6.24989 29.4054 5.80295C29.3865 5.59817 29.3676 5.59817 29.3361 5.80295C29.2975 6.14709 29.2912 6.49409 29.3171 6.83941C28.9479 6.35673 28.5357 5.90859 28.0854 5.50051C28.0027 5.15415 27.9761 4.79677 28.0066 4.44199C27.9593 4.09861 27.9278 4.023 27.8995 4.20887C27.8685 4.60285 27.8811 4.99906 27.9373 5.39025C27.5177 4.95004 27.1352 4.47587 26.7937 3.97259C26.6866 3.77727 26.6362 3.73947 26.6457 3.84658C26.8746 4.30176 27.1615 4.72534 27.4994 5.10672C27.7924 5.45011 28.0255 5.71474 28.2114 5.91006C27.903 5.81181 27.5868 5.74014 27.2663 5.69583C27.0072 5.66388 26.7556 5.58713 26.5228 5.46901C26.3086 5.4312 26.318 5.46901 26.5417 5.61707C26.7837 5.74171 27.0463 5.82174 27.3167 5.85335C27.6962 5.92102 28.0642 6.04193 28.4098 6.21249C28.7106 6.45381 28.9628 6.74991 29.1533 7.08514L29.4085 7.6522C28.9958 7.43338 28.5498 7.28435 28.0885 7.21115C27.7969 7.18208 27.5124 7.10323 27.2474 6.97803C26.8756 6.82051 26.8347 6.82996 27.1182 7.01583C27.3943 7.17486 27.7018 7.27163 28.0192 7.29936C28.5466 7.41367 29.0498 7.61945 29.5062 7.90738L29.5566 8.03339C29.5053 8.09951 29.4693 8.17622 29.4513 8.25795C29.4334 8.33969 29.4338 8.4244 29.4526 8.50595L29.6133 8.92809C29.4873 8.77058 29.2982 8.83988 29.0872 9.14232C29.1285 9.06073 29.1439 8.96851 29.1316 8.87791C29.1192 8.78732 29.0795 8.70263 29.0179 8.63511C28.8225 8.32008 28.3405 8.00504 27.5782 7.67425L27.4521 7.91053C27.177 7.84597 26.9235 7.71095 26.7163 7.51874C26.5092 7.32652 26.3557 7.08373 26.2708 6.81421H26.2739ZM32.1336 18.3697L32.0832 18.3035C31.8091 17.9003 31.5949 17.5979 31.4531 17.3584C31.3113 17.119 31.1002 16.8134 30.823 16.3535C30.6022 16.0006 30.4033 15.6345 30.2276 15.2571C30.101 14.9839 30.0764 14.6743 30.1583 14.3845C30.2465 14.0915 30.3158 13.8678 30.3725 13.7103C30.4292 13.5528 30.4229 13.5245 30.3536 13.6221C30.1785 13.89 30.0457 14.1833 29.9598 14.4916L29.5408 13.2787C29.6514 12.6154 29.9121 11.986 30.3032 11.4389C30.4387 11.1837 30.4292 11.1648 30.2528 11.3728C29.8617 11.8825 29.5816 12.4684 29.4306 13.0929L28.7753 11.6248C28.7564 11.3602 28.9328 10.853 29.2856 10.1C29.4621 9.70623 29.4211 9.71883 29.1565 10.1473C28.9501 10.526 28.7863 10.9265 28.6682 11.3413C28.4729 10.5379 28.2775 9.8543 28.0917 9.28723L27.9436 9.24628L28.0318 9.4731C28.1181 10.1114 28.2756 10.738 28.5012 11.3413C28.2268 11.0961 27.9166 10.8942 27.5813 10.7427C27.4049 10.645 27.4049 10.6671 27.5813 10.812C27.9307 11.0013 28.2493 11.2424 28.5264 11.5271C28.6902 11.9272 28.8414 12.2895 28.9864 12.614C28.5805 12.3567 28.1473 12.1454 27.6947 11.9839C27.4679 11.943 27.4679 11.9839 27.6947 12.0721C28.4571 12.3872 28.936 12.677 29.1124 12.9826L29.544 14.1073C29.3865 14.1073 29.1817 13.871 28.9139 13.4016C28.6997 13.0109 28.1704 12.6298 27.3198 12.258C27.2368 12.2221 27.1688 12.1585 27.1274 12.0781C27.0861 11.9977 27.0739 11.9054 27.093 11.817C27.1119 11.6594 27.2789 11.5933 27.5719 11.6216C27.5121 11.4153 27.4126 11.2227 27.2789 11.0546L27.1119 10.7994C26.8882 10.33 27.0142 10.0937 27.5151 10.0937C27.4375 10.0049 27.3798 9.90042 27.3461 9.78735C27.3124 9.67429 27.3035 9.55529 27.3198 9.43845C27.3079 9.1646 27.3757 8.89316 27.5151 8.65716C27.601 8.48659 27.6706 8.30834 27.7231 8.12475C27.9972 8.28227 28.2397 8.40829 28.4571 8.5154C28.564 8.57218 28.6533 8.65705 28.7155 8.76086C28.7777 8.86468 28.8103 8.9835 28.8099 9.10451L28.6871 9.76609C28.728 9.8921 28.8446 9.84484 29.0305 9.64007C29.1361 9.45436 29.2881 9.29916 29.4715 9.18957C29.6526 9.27451 29.8097 9.40338 29.9283 9.56446C30.0638 9.83854 30.0165 10.3268 29.7708 11.0514L29.5471 11.6374C30.026 11.0073 30.4072 10.6923 30.7096 10.7269C30.8073 10.7963 30.8388 10.9443 30.7978 11.168C30.7694 11.396 30.7694 11.6267 30.7978 11.8548C30.8185 11.9693 30.8071 12.0873 30.7649 12.1957C30.7226 12.3042 30.6511 12.3988 30.5584 12.4691C30.3293 12.6868 30.1834 12.9776 30.1457 13.2913C30.6056 12.9763 30.7758 13.0172 30.7033 13.4867L30.4481 14.3971C30.382 14.8382 30.4481 15.0272 30.656 15.0272C30.864 15.0272 30.9963 15.0272 31.0561 15.1154C31.113 15.2555 31.123 15.4102 31.0845 15.5564C30.9879 15.7383 30.928 15.9374 30.9081 16.1424C30.9259 16.2268 30.9674 16.3044 31.0278 16.3661C31.0939 16.4354 31.2326 16.4259 31.4468 16.3283C31.661 16.2306 31.7618 16.2999 31.7618 16.5236C31.7618 16.7473 31.7618 16.9552 31.7618 17.1537C31.7766 17.3667 31.8472 17.572 31.9666 17.7491C32.0536 17.8861 32.1902 17.9843 32.3478 18.0232L32.5337 17.7995C32.2501 17.7995 32.1241 17.6231 32.143 17.2419C32.168 16.9452 32.168 16.647 32.143 16.3503C32.0265 16.0857 31.9162 15.9408 31.7996 15.9124C31.6831 15.8841 31.4279 15.1784 31.0183 13.7891L31.4688 13.808C31.7839 15.002 32.0548 15.6383 32.2501 15.7265C32.4454 15.8148 32.5431 15.9313 32.5242 16.0416C32.5287 16.3022 32.5646 16.5614 32.6313 16.8134C32.8865 16.7473 33.0346 16.4984 33.0724 16.1203C33.1189 15.9636 33.1134 15.7959 33.0566 15.6426C32.9998 15.4892 32.8948 15.3584 32.7573 15.2697C32.4612 15.1028 32.2848 14.9547 32.247 14.8003C32.1588 14.5641 32.247 14.416 32.5211 14.3593C32.6786 14.2711 32.3068 13.9277 31.3964 13.3417C30.9364 13.0078 30.7884 12.7117 30.9742 12.4691C31.0435 12.3431 31.1696 12.3431 31.3649 12.4691C31.5602 12.5951 31.6799 12.6361 31.7366 12.5667C31.8374 12.3714 31.7587 12.2265 31.5035 12.1478C31.2483 12.069 31.1318 11.9902 31.1412 11.8831C31.1245 11.5859 31.1308 11.2878 31.1601 10.9916C31.1896 10.8084 31.1767 10.6208 31.1223 10.4434C30.9648 10.2197 30.6718 10.2292 30.2307 10.4844C30.329 10.2662 30.3565 10.0227 30.3095 9.78814C30.2503 9.54843 30.1372 9.32539 29.9787 9.13602L29.7645 8.48074C29.7172 8.24762 29.8433 8.09955 30.1457 8.01134C30.0434 7.71 30.0434 7.38333 30.1457 7.08199C30.2266 6.93063 30.2991 6.77498 30.3631 6.61574C30.4009 6.48657 30.5269 6.46767 30.7443 6.57478C30.9616 6.68189 31.2924 7.04418 31.7618 7.69001C31.9855 7.43798 32.1997 7.53564 32.4171 7.96409C32.682 8.39103 32.7931 8.89562 32.7321 9.39435C33.2519 9.11081 33.4378 9.29668 33.2803 9.96141C33.4606 10.3093 33.5992 10.6773 33.693 11.0577C33.7441 11.3069 33.6979 11.5662 33.5638 11.7823C33.4553 11.934 33.3909 12.1129 33.3779 12.299C33.3779 12.4281 33.4284 12.4187 33.526 12.299C33.6746 12.1386 33.8695 12.0285 34.0836 11.9839C34.2286 12.2194 34.309 12.4888 34.3168 12.7652C34.2924 12.9658 34.1906 13.1489 34.0332 13.2756C33.8521 13.4485 33.7401 13.6814 33.7182 13.9309C33.7145 13.9574 33.7171 13.9844 33.7256 14.0097C33.7341 14.0351 33.7484 14.0581 33.7673 14.077C33.7862 14.096 33.8093 14.1103 33.8346 14.1188C33.86 14.1273 33.887 14.1298 33.9135 14.1262L34.2947 14.0191C34.49 13.9907 34.4995 14.1451 34.3136 14.479C34.1487 14.7854 34.0015 15.1009 33.8726 15.4241C33.7939 15.6255 33.7482 15.8383 33.7371 16.0542C33.7371 16.3692 33.6678 16.5614 33.5701 16.6212C33.5981 16.1938 33.5886 15.7648 33.5418 15.3391C33.4804 14.8359 33.392 14.3364 33.2771 13.8426C33.4823 13.5248 33.6284 13.1727 33.7087 12.803C33.8064 12.5289 33.7875 12.488 33.6489 12.7054C33.5703 13.0053 33.4074 13.2764 33.1795 13.4867C33.022 12.9605 32.8644 12.3242 32.6723 11.5807C32.9068 11.1695 33.0457 10.7108 33.0787 10.2386C33.0976 9.78814 33.0787 9.75979 32.9999 10.141C32.9468 10.5926 32.7858 11.0248 32.5305 11.4011C32.3446 10.812 32.1493 10.2544 31.9351 9.72513C32.0117 9.38532 32.0404 9.03643 32.0201 8.68867C32.0201 8.29802 31.9729 8.27912 31.913 8.65086C31.9171 8.90901 31.881 9.16622 31.8059 9.41325L31.3397 8.19091L31.0246 7.51674C30.927 7.28991 30.8955 7.28991 30.927 7.51674L31.2011 8.40514C31.0246 8.20514 30.8235 8.02835 30.6025 7.87903C30.4166 7.75931 30.3883 7.76876 30.4954 7.89793C30.7961 8.15845 31.0685 8.44988 31.3082 8.76743C31.4846 9.21793 31.6705 9.68733 31.8563 10.1662C31.5259 9.85198 31.1459 9.5944 30.7317 9.4038C30.467 9.30614 30.467 9.35654 30.7317 9.55186C31.2398 9.90784 31.6966 10.3318 32.0895 10.812C32.2564 11.3098 32.4234 11.7886 32.5715 12.2486C32.1975 11.9899 31.8696 11.6704 31.6012 11.3035C31.4342 11.1365 31.4247 11.168 31.5823 11.3917C31.882 11.8478 32.2447 12.2593 32.6597 12.614L32.9747 13.9056C32.5882 13.5362 32.1661 13.2059 31.7146 12.9196C31.4909 12.7715 31.472 12.7999 31.6673 12.9952C32.2095 13.4079 32.6901 13.8959 33.0944 14.4444C33.233 14.835 33.2897 15.5596 33.2803 16.6276C33.2614 16.8922 33.0661 17.0875 32.6849 17.2135L32.6124 18.272C32.4076 19.3495 32.1525 20.6127 31.9823 21.3468L31.6673 21.1798C31.8895 20.2554 32.0453 19.3163 32.1336 18.3697ZM28.3531 24.4184C28.2744 24.3491 28.0381 24.1537 27.6475 23.8324C27.2568 23.5111 27.1781 23.2338 27.3041 22.9787C27.2007 22.843 27.113 22.6961 27.0426 22.5408C27.0051 22.4626 26.99 22.3757 26.9989 22.2895C27.0078 22.2033 27.0404 22.1213 27.093 22.0525C27.2001 21.8855 27.4647 21.9642 27.8774 22.2793C27.9436 22.0551 27.9436 21.8166 27.8774 21.5925C27.7987 21.3877 27.7199 21.1735 27.6223 20.9624C27.4616 20.6603 27.2849 20.3669 27.093 20.0835C27.0766 20.0435 27.0577 20.0045 27.0363 19.9669C27.0646 19.8315 27.1025 19.696 27.1245 19.5479C27.221 19.5873 27.3096 19.6439 27.386 19.7149C27.7388 19.3337 27.9751 19.2234 28.0822 19.381C28.225 19.6269 28.3172 19.899 28.3531 20.1811C28.4275 20.5749 28.4371 20.9782 28.3815 21.3751L28.2933 21.4539L28.3815 21.5421C28.3817 21.8602 28.3458 22.1772 28.2744 22.4872C28.2735 22.6071 28.311 22.7241 28.3815 22.8211C28.3568 22.6999 28.3473 22.5761 28.3531 22.4525C28.372 22.3832 28.4224 22.2163 28.4886 21.9516C28.5447 21.8095 28.5848 21.6616 28.6083 21.5106C28.6083 21.4728 28.6083 21.4539 28.4981 21.435C28.5416 21.424 28.5815 21.402 28.6141 21.3711C28.6466 21.3402 28.6707 21.3015 28.6839 21.2586C28.7218 21.1857 28.7297 21.1009 28.706 21.0223C28.6767 20.802 28.6641 20.5798 28.6682 20.3576C28.6756 20.0792 28.6427 19.8011 28.5705 19.5322C28.5176 19.3892 28.4786 19.2415 28.454 19.0911C28.454 18.984 28.3563 18.9242 28.1988 18.9053C28.0413 18.8864 27.827 19.0533 27.5435 19.3747C27.6068 18.9488 27.7388 18.536 27.9341 18.1523C28.0728 17.957 28.2082 17.8877 28.3468 17.9759C28.4647 18.0362 28.5606 18.1321 28.6209 18.25C28.6682 18.3476 28.728 18.3382 28.8162 18.1996C28.9045 18.061 28.9706 18.0137 29.0305 18.0641C29.1074 18.1351 29.1676 18.2222 29.2069 18.3193C29.2694 18.4462 29.3149 18.5807 29.3424 18.7194C29.3828 18.975 29.4091 19.2327 29.4211 19.4912C29.4654 19.7438 29.422 20.0039 29.2982 20.2284C29.1811 20.3575 29.1179 20.5267 29.1218 20.701C29.1502 21.4224 29.21 21.7847 29.2982 21.7847C29.4163 21.7601 29.5253 21.7034 29.6133 21.6209C29.6509 21.5753 29.6997 21.5402 29.7549 21.5193C29.8102 21.4983 29.8699 21.492 29.9283 21.5011C30.0165 21.5326 30.0638 21.7374 30.0827 22.1312C30.1016 22.525 30.1331 22.5408 30.1929 22.2478C30.2528 21.9548 30.3473 21.7878 30.508 21.7878C30.6686 21.7878 30.6939 22.2005 30.5962 23.0228C30.1594 23.3904 29.7595 23.7998 29.4022 24.2451C29.3213 24.0039 29.3213 23.7428 29.4022 23.5016C29.4846 23.3504 29.5562 23.1935 29.6164 23.0322C29.6857 22.8558 29.733 22.6888 29.774 22.5534C29.8905 22.21 29.8716 22.1785 29.7141 22.4651C29.6259 22.6384 29.5471 22.7802 29.4904 22.9125C29.4219 23.0446 29.3461 23.1729 29.2636 23.2968C29.1972 22.8863 29.1057 22.4802 28.9895 22.0808C28.8635 21.6902 28.8351 21.6996 28.8824 22.1029C28.9961 22.7439 29.075 23.3907 29.1187 24.0403C28.8868 23.7886 28.6303 23.5606 28.3531 23.3598C28.1226 23.1878 27.9114 22.9913 27.7231 22.7739C27.5656 22.6762 27.5467 22.6857 27.6443 22.8117C27.8693 23.0998 28.1214 23.3657 28.3972 23.6056C28.6095 23.7912 28.8056 23.9946 28.9832 24.2136C29.0452 24.286 29.0885 24.3726 29.1092 24.4656C28.9721 24.6501 28.8249 24.8267 28.6682 24.9949C28.618 24.9663 28.5762 24.9251 28.5469 24.8753C28.5176 24.8256 28.5019 24.7691 28.5012 24.7113C28.4973 24.6551 28.4823 24.6002 28.4568 24.5499C28.4314 24.4996 28.3961 24.4548 28.3531 24.4184ZM20.7608 32.1588C20.9514 31.9479 21.1748 31.7691 21.4224 31.6295C22.1923 31.22 22.994 30.8734 23.8198 30.5931C23.8859 30.5647 23.9458 30.5931 24.0057 30.6624L24.1789 30.8671L23.9458 31.0121C23.7957 31.1297 23.6065 31.186 23.4165 31.1696C23.1613 31.169 22.9096 31.2295 22.6825 31.346C22.5553 31.3841 22.4408 31.4561 22.3515 31.5544C22.2621 31.6526 22.2012 31.7733 22.1753 31.9036C22.1406 32.0354 22.0558 32.1484 21.939 32.2186C21.624 32.3825 21.3436 32.5337 21.0884 32.6565L20.4332 32.6187L20.7608 32.1588ZM22.7109 31.7681C22.9199 31.5989 23.1865 31.5176 23.4543 31.5413C23.5615 31.5413 23.5709 31.7461 23.4732 32.1399C23.4039 32.3037 23.0921 32.5494 22.5533 32.7699L22.4557 32.8078C22.3769 32.8361 22.3076 32.8456 22.2194 32.8771L21.5263 32.7794L22.4714 32.3667C22.437 32.2546 22.442 32.1341 22.4855 32.0252C22.5291 31.9163 22.6086 31.8256 22.7109 31.7681ZM11.1428 30.508C11.2187 30.484 11.2989 30.4761 11.3781 30.4847C11.4573 30.4934 11.5338 30.5185 11.6027 30.5584L12.6203 31.0467L14.3624 31.702C14.6492 31.9895 14.9115 32.3004 15.1469 32.6313C14.794 32.6723 14.4128 32.7006 14.0001 32.7195L13.0897 32.0895L12.2769 31.1444C12.1417 30.9781 11.9799 30.8355 11.798 30.7222C11.6354 30.6098 11.4356 30.5646 11.2404 30.5962C11.1428 30.6246 11.0357 30.7632 10.9254 31.0152L10.875 30.9774C10.8843 30.8869 10.913 30.7996 10.9592 30.7212C11.0054 30.6429 11.068 30.5756 11.1428 30.5237V30.508ZM12.132 31.4279C12.0395 31.4759 11.9369 31.501 11.8327 31.501C11.7285 31.501 11.6259 31.4759 11.5334 31.4279L11.2184 31.1727C11.3255 30.8892 11.483 30.7915 11.6594 30.8892L11.9997 31.2042L12.132 31.4279ZM8.44292 19.5322C8.37125 20.3192 8.22999 21.0982 8.02078 21.8603C8.02571 21.3468 7.98989 20.8338 7.91367 20.3261L8.10899 19.8063C8.10899 19.6204 8.08063 19.6109 8.00188 19.7779L7.87586 20.011L7.85381 19.592L8.16884 19.1982C8.38307 18.9966 8.47128 19.1037 8.44292 19.5322ZM8.12789 18.3382C8.31376 18.3004 8.34526 18.376 8.23815 18.5934L7.82546 19.1888C7.8092 18.9766 7.77655 18.7659 7.7278 18.5587C7.85425 18.4742 7.98817 18.4014 8.12789 18.3413V18.3382ZM6.45505 19.3369C6.74804 18.1618 7.03472 17.5349 7.2962 17.4687C7.51285 18.2103 7.64184 18.9748 7.68054 19.7464C7.77848 20.7458 7.77848 21.7524 7.68054 22.7518C7.55138 23.8765 7.36551 24.642 7.11033 25.0421L6.83625 25.6281C6.83625 24.7586 6.83625 24.0529 6.86775 23.4859C6.89925 22.9188 6.90555 22.2037 6.92446 21.2806C6.94336 20.3576 7.01267 19.3337 7.11033 18.1775C7.17018 17.894 7.15128 17.8278 7.06307 17.9822C6.81059 19.4762 6.67576 20.9878 6.65983 22.503L6.64092 23.7064L6.61572 25.3761L6.34164 25.061C6.13707 24.0336 6.05144 22.986 6.08646 21.939C6.13341 21.0636 6.25674 20.194 6.45505 19.34V19.3369ZM4.56484 22.8873C4.86203 21.7075 5.40527 20.6039 6.15892 19.6487C6.04678 20.0719 5.97194 20.5041 5.93525 20.9404C5.33938 21.9525 4.85356 23.0256 4.48608 24.1411C4.39181 24.5278 4.3234 24.9204 4.28131 25.3162C4.26173 24.4975 4.36148 23.6804 4.57745 22.8904L4.56484 22.8873ZM15.6352 1.80515C15.6232 1.97679 15.5762 2.14416 15.4971 2.29695C15.418 2.44974 15.3085 2.58471 15.1752 2.69355C14.6272 3.193 14.0148 3.61682 13.3543 3.95369C12.6108 4.33488 11.6122 4.78538 10.5474 5.31464V5.18548C11.7743 4.19694 13.0833 3.3148 14.4601 2.54863C14.794 2.35331 14.6649 2.29346 14.2837 2.38166C13.8045 2.61368 13.3376 2.87025 12.8849 3.15035C12.0438 3.69851 11.2215 4.24667 10.4087 4.78538L10.4371 4.5302C12.0438 3.11255 13.3648 2.19999 14.4002 1.79255C14.8054 1.68455 15.2323 1.68891 15.6352 1.80515ZM10.8309 2.31236C11.6529 1.65022 12.5924 1.14897 13.6 0.834843C14.0369 0.700416 14.4913 0.631411 14.9484 0.63007C15.1343 0.667874 15.1847 0.778137 15.0965 0.945105L14.6365 1.57518C14.0381 1.70798 13.4683 1.94698 12.9542 2.28085C12.1406 2.75536 11.371 3.30149 10.6545 3.91274L10.3394 4.09861C10.1819 3.99149 9.89839 4.0419 9.49514 4.25612C10.5574 3.33291 11.6943 2.49941 12.8944 1.7642C13.2875 1.60157 13.6539 1.38067 13.9812 1.10892C13.5228 1.25565 13.0805 1.44883 12.6612 1.68544C11.6922 2.26118 10.7571 2.8923 9.86058 3.57565L8.61934 4.72553C9.25278 3.83187 9.99576 3.02116 10.8309 2.31236ZM9.5298 4.67197C9.75347 4.54281 9.91099 4.49555 9.98975 4.5239C10.0525 4.7093 10.0687 4.90728 10.037 5.10042C9.90931 5.63822 9.72229 6.16017 9.47939 6.65669L8.6981 8.19091C8.10961 8.28498 7.56181 8.55012 7.12293 8.9533C7.37496 8.5217 7.68054 8.00819 8.04283 7.45688C8.40512 6.90557 8.96273 6.03607 9.72512 4.9114C9.85113 4.69717 9.86058 4.63732 9.72512 4.74443C9.38747 5.13497 9.07194 5.54411 8.78001 5.96991C8.02335 7.02885 7.32097 8.12553 6.67558 9.25573C6.4393 9.60857 5.97935 10.3331 5.05945 11.7508C5.08228 11.7061 5.08896 11.6549 5.07835 11.6059C5.08554 11.5958 5.0894 11.5837 5.0894 11.5712C5.0894 11.5588 5.08554 11.5467 5.07835 11.5366L6.30069 9.37859L7.52302 7.08829C8.01759 6.1527 8.70092 5.32992 9.5298 4.67197ZM6.37945 5.96361C6.67683 5.37279 7.03136 4.8125 7.43796 4.29078C7.58288 3.95684 7.50727 3.97574 7.20169 4.30968C6.2614 5.59064 5.45191 6.96266 4.78537 8.40514L5.19491 7.38757C5.39467 6.86404 5.62073 6.35093 5.87224 5.8502C6.17666 5.18079 6.55382 4.5469 6.99691 3.95999C7.23126 3.64048 7.48592 3.33637 7.7593 3.04954C8.26966 2.60849 8.56264 2.40372 8.65085 2.41947C8.68617 2.45453 8.7106 2.49905 8.72122 2.54768C8.73184 2.5963 8.72819 2.64695 8.7107 2.69355L7.65849 5.3556C6.89885 6.80177 6.00438 8.17301 4.98699 9.45105C4.52704 9.95826 4.23406 10.2922 4.11749 10.4277C4.01766 10.5561 3.92612 10.6908 3.84341 10.8309L3.93162 10.4686L4.33172 9.83854C5.08084 8.58531 5.76025 7.2917 6.36684 5.96361H6.37945ZM3.82136 22.4872C3.67644 22.0777 3.55673 21.6555 3.44962 21.2271C3.32484 20.8253 3.1776 20.4309 3.00857 20.0457C2.8542 19.5952 2.71559 19.1352 2.57067 18.6847C2.57067 18.6564 2.58957 18.6438 2.59903 18.6154C2.24537 18.4542 1.96848 18.1615 1.82719 17.7995C1.62763 17.288 1.4696 16.7612 1.35464 16.2243C1.19628 15.459 1.13384 14.6769 1.16877 13.8962C1.23478 12.8344 1.39289 11.7803 1.64132 10.7458C2.03642 9.25399 2.77671 7.87592 3.80246 6.72285C4.03873 6.44877 4.18365 6.38891 4.24351 6.52753C4.30505 7.07396 4.30505 7.62558 4.24351 8.17201C4.16803 8.77495 4.02971 9.36834 3.83081 9.94251C3.2732 11.7823 2.94241 13.0141 2.8353 13.6505C2.63053 14.4034 2.3974 15.3737 2.14222 16.5771C2.01306 16.0006 2.07922 14.7751 2.32494 12.9164C2.57067 11.0577 2.89201 9.73773 3.27005 8.94384C3.44647 8.5343 3.44647 8.47444 3.2417 8.75797C2.3806 10.2281 1.8818 12.3977 1.74528 15.2666C1.69241 15.9942 1.74761 16.7257 1.9091 17.4372C2.05716 17.8782 2.22413 18.1429 2.40055 18.2122C2.4324 18.2316 2.4683 18.2434 2.50546 18.2467C2.54261 18.2499 2.58002 18.2446 2.61478 18.2311C2.61345 18.1758 2.62764 18.1212 2.65573 18.0736C2.8101 17.4088 2.829 16.7126 2.93926 16.029C2.96988 15.5204 3.07606 15.0193 3.2543 14.542C3.31415 14.4255 3.2543 14.3057 3.2732 14.1892C3.21575 14.1041 3.19024 14.0015 3.2012 13.8994C3.21215 13.7974 3.25886 13.7025 3.33306 13.6316C3.52844 13.3374 3.68614 13.0199 3.80246 12.6865C3.84026 12.6077 3.85286 12.51 3.89067 12.4313C4.00071 12.2899 4.05282 12.1119 4.03644 11.9334C4.02006 11.755 3.93641 11.5895 3.80246 11.4704C3.69535 11.3444 3.71425 11.3255 3.78356 11.0514C3.92847 11.0514 3.96943 11.1869 4.04819 11.2657C4.1742 11.4043 4.20255 11.4043 4.29076 11.2657C4.48608 10.9506 4.6625 10.6009 4.84838 10.267C5.33983 9.40695 5.89744 8.58471 6.42355 7.74671C6.50852 7.62764 6.60336 7.51593 6.70708 7.41278C6.71957 7.39044 6.73677 7.37109 6.75749 7.35607C6.77639 7.33402 6.80789 7.31511 6.81734 7.28676C6.8268 7.25841 6.85515 7.1891 6.8961 7.1702C7.02858 6.93392 7.18255 6.71035 7.35605 6.50232C7.47262 6.50232 7.45371 6.56218 7.43166 6.64094C7.30928 6.89324 7.17254 7.13832 7.02212 7.37497C6.97171 7.40332 6.98431 7.47263 6.95281 7.51044V7.63015C6.92538 7.80416 6.8438 7.9651 6.71968 8.0901C5.92406 9.11624 5.25454 10.2342 4.72551 11.42C4.85153 11.5366 4.96809 11.4011 5.0563 11.4673C5.07806 11.4825 5.09544 11.5031 5.1067 11.5271L5.04055 11.6248L5.02164 11.8107C4.95432 11.8656 4.87408 11.9025 4.78852 11.9178C4.6362 11.9508 4.49712 12.0284 4.38888 12.1405C4.28065 12.2527 4.20813 12.3944 4.1805 12.5478C4.04504 12.9196 3.91587 13.3008 3.79931 13.682C3.70165 13.9687 3.70165 13.9687 4.02298 13.997C4.05108 14.0002 4.07804 14.0099 4.10174 14.0254C4.08394 14.1347 4.02593 14.2334 3.93909 14.3022C3.85225 14.371 3.74285 14.4048 3.63234 14.3971C3.56189 14.4205 3.50043 14.4652 3.45642 14.525C3.41242 14.5848 3.38803 14.6568 3.38661 14.731C3.28895 15.3611 3.2417 16.0227 3.16294 16.6685C3.12432 16.9631 3.12009 17.2613 3.15034 17.5569V17.642C3.29525 17.2891 3.3173 16.9457 3.44332 16.6118L4.1868 14.7058L5.04055 12.7022C5.62051 11.6234 6.27528 10.5865 7.00006 9.59912C7.49782 9.0226 7.94517 8.72017 8.32006 8.66976C8.41772 8.81783 8.41772 9.10136 8.32006 9.54241C8.20868 10.022 8.03721 10.4856 7.8097 10.9223C7.7908 10.9223 7.7719 10.9223 7.8097 10.9412C6.87405 12.6235 5.98565 13.8615 5.13191 14.6113L6.61572 12.2328L7.31195 10.9727C7.57658 10.4938 7.62698 10.3426 7.45687 10.4623C6.02031 12.6088 5.15816 13.9519 4.87043 14.4916C4.58375 15.0398 4.29076 15.5596 4.02613 16.0384C3.79289 16.3998 3.58245 16.7755 3.39606 17.1631C3.33837 17.4503 3.24635 17.7296 3.12198 17.9948V18.0169C3.09048 18.0736 3.14089 18.1523 3.12198 18.2122C3.03377 18.3382 3.15979 18.4863 3.07158 18.6028C3.07963 18.8182 3.12218 19.031 3.19759 19.2329C3.3171 19.7421 3.48156 20.2397 3.68905 20.7199C3.77315 20.9007 3.81925 21.097 3.82451 21.2964C3.85869 21.7165 3.95752 22.1288 4.11749 22.5187C4.20426 22.7728 4.27682 23.0315 4.33487 23.2937C4.33487 23.3409 4.33487 23.4103 4.27501 23.4292C4.21515 23.4481 4.19625 23.3914 4.17735 23.3504C4.02981 23.0754 3.91054 22.7862 3.82136 22.4872ZM9.52665 31.0593L9.25257 30.697C9.20982 30.6479 9.15192 30.6144 9.08803 30.6019C9.02413 30.5893 8.95788 30.5984 8.89973 30.6277C8.75481 30.6876 8.6351 30.5994 8.54689 30.3757C8.16569 30.5994 7.77505 30.5206 7.38441 30.1205L6.67873 29.2794L6.02346 28.1515L5.89744 27.909C5.82371 27.975 5.73647 28.0241 5.64179 28.053C5.54712 28.0818 5.4473 28.0896 5.34928 28.0759C4.99339 27.9936 4.67387 27.7979 4.43883 27.5183C4.24351 27.3324 3.80876 26.6079 3.17869 25.3351C2.51954 24.1328 1.92742 22.8949 1.40504 21.6272C1.18137 20.9309 1.0333 20.4899 0.963993 20.304C0.894685 20.1181 0.856881 20.1181 0.875783 20.304C0.945175 20.7106 1.0506 21.1101 1.19082 21.498C1.39559 22.106 1.75788 23.0165 2.29659 24.1978C2.76599 25.1429 3.2417 26.0376 3.67644 26.8221C2.75941 25.8805 1.99325 24.803 1.40504 23.6276C0.977435 22.7693 0.664954 21.8584 0.475689 20.9183C0.38314 20.4676 0.340877 20.008 0.349675 19.5479C0.318913 19.2059 0.32525 18.8616 0.368577 18.5209C0.434734 18.3161 0.535545 18.2059 0.661559 18.2468C0.787574 18.2878 0.945091 18.4548 1.26013 18.858C1.57516 19.2612 1.96265 20.1622 2.48246 21.5673C3.00227 22.9724 3.33306 23.8954 3.44962 24.3365C3.56618 24.7775 3.69535 25.1587 3.81191 25.48C3.93729 25.8206 4.08137 26.154 4.24351 26.4787C4.41512 26.8788 4.67589 27.2344 5.00589 27.5183C5.1355 27.6191 5.28631 27.6891 5.44694 27.7231C5.50166 27.7398 5.55989 27.7413 5.61539 27.7274C5.67089 27.7135 5.72157 27.6848 5.76198 27.6443L5.73362 27.5939L4.98699 26.2739C4.9087 26.2321 4.81736 26.222 4.73181 26.2456C4.65121 26.2531 4.57037 26.234 4.50157 26.1914C4.43277 26.1487 4.37977 26.0848 4.35062 26.0093C4.33933 25.9805 4.32986 25.9511 4.32227 25.9211C4.31179 25.8363 4.31179 25.7506 4.32227 25.6659C4.38799 25.2241 4.47951 24.7865 4.59635 24.3554C4.92209 23.271 5.37134 22.2277 5.93525 21.246C5.86658 21.6233 5.83074 22.006 5.82813 22.3895C5.39555 23.3131 5.01378 24.2596 4.68456 25.2249C4.55539 25.7415 4.55539 25.9967 4.70346 25.9872L4.87043 25.899L4.74126 25.606L4.82947 25.3698L5.0941 25.8329L5.24217 25.7258L5.36818 25.9116L5.24217 26.107L6.18727 27.4868L6.41095 27.2915L6.58737 27.4868C6.30384 27.7609 6.18727 27.9468 6.24713 28.035C6.45474 28.4258 6.68949 28.8016 6.94966 29.1596C7.37181 29.7897 7.71519 29.9535 7.98927 29.6889C8.06488 29.6196 8.17515 29.629 8.30431 29.7267C8.48882 29.9058 8.63557 30.12 8.73591 30.3568L8.7044 29.8685L7.92312 29.1344L7.48207 28.2429C7.19659 27.8546 6.93464 27.4496 6.69763 27.03C6.54326 26.7465 6.34794 26.3999 6.11167 26.0124C5.87539 25.625 5.59186 25.1713 5.25162 24.683L5.32093 24.4467L5.9951 25.269C6.59997 26.0534 7.03157 26.6394 7.2773 27.0395C7.52302 27.4396 7.66794 27.5404 7.71834 27.323L7.84436 26.9229L8.03023 27.03L7.90422 27.8617L7.86326 28.1169C7.84436 28.3122 7.88216 28.4319 7.97982 28.4603C8.07748 28.4886 8.14679 28.6272 8.22555 28.8509C8.39577 29.1803 8.62051 29.4786 8.89028 29.733C9.26348 30.1573 9.68659 30.5349 10.1504 30.8577C10.5915 31.1727 10.9632 31.4058 11.2467 31.6012C11.5303 31.7965 11.6783 31.9824 11.6657 32.1588L12.069 32.247L11.9713 31.7335L12.2233 31.6673C12.3758 31.7861 12.4862 31.9506 12.5384 32.1367C12.9101 32.4203 13.2315 32.6439 13.4835 32.8109L12.5384 32.9873L10.9443 32.0422L9.52665 31.0593ZM11.5145 33.1952L10.2544 33.4095L10.5694 32.5589L11.5145 33.1952ZM14.5483 37.1741C13.9227 37.777 13.2484 38.327 12.5321 38.8186L12.2864 38.7493C12.7274 38.4752 13.3543 38.0436 14.1577 37.4293L14.52 37.0261L14.3215 37.0072C14.0324 37.2718 13.7261 37.517 13.4047 37.7412C13.0193 37.9986 12.6173 38.2301 12.2013 38.4343L11.5712 38.7273L11.6783 38.8564L12.1383 38.9131C12.4124 39.0895 12.5195 39.2565 12.4817 39.4235C12.3336 39.6377 12.1099 39.6661 11.8043 39.5117L11.2971 39.2376C11.1416 39.0711 10.9512 38.9409 10.7395 38.8564L10.5348 38.6895L10.6104 38.4941L11.2404 38.7682H11.4358L11.3412 38.3713L12.1068 37.8924C12.3021 37.8231 12.3903 37.6971 12.3588 37.5301L12.4187 37.1489C12.7833 37.2113 13.1584 37.1527 13.4866 36.982C13.8237 36.8153 14.1872 36.7087 14.5609 36.6669C14.7846 36.815 14.772 36.982 14.5483 37.1741ZM14.0411 36.2952L12.0438 36.7236C10.5663 36.9883 9.0982 37.2151 7.65849 37.3789C7.28675 37.2812 6.23138 36.7488 4.47978 35.747C3.55119 35.2263 2.67547 34.6165 1.86499 33.9261C1.30738 33.3181 1.08371 32.9464 1.19082 32.8204C1.5111 32.3225 1.76128 31.7829 1.9343 31.2168C1.98888 31.0656 2.003 30.9027 1.97526 30.7443C1.81774 30.2654 1.9343 30.0228 2.31549 30.0008C2.95075 29.9546 3.58801 29.942 4.22461 29.963C4.36322 29.963 4.46088 29.9346 4.49869 29.837L4.55854 29.0147C5.08465 29.1596 5.33038 29.355 5.29257 29.5818C5.10598 29.8986 5.01822 30.2639 5.04055 30.6309L5.05945 31.7366C4.29203 31.2331 3.48376 30.7947 2.64313 30.4261C2.74738 30.4078 2.85255 30.3952 2.95816 30.3883C3.0098 30.3943 3.06204 30.3842 3.10773 30.3594C3.15341 30.3346 3.1903 30.2963 3.21334 30.2497C3.2543 30.1709 3.17554 30.1236 2.98022 30.1047C2.69545 30.0821 2.40908 30.1186 2.13907 30.2119C2.02881 30.3284 2.06032 30.445 2.19578 30.5742C3.12175 31.0291 4.02011 31.5383 4.88618 32.0989C6.12112 32.8739 7.06937 33.5071 7.753 34.008C8.69063 33.9647 9.62541 33.8732 10.5537 33.734L12.3872 33.3937C13.1306 33.2583 13.9119 33.1291 14.7153 33.0314C15.0083 32.9936 15.3894 32.9653 15.8399 32.9432C16.2615 32.9339 16.6822 32.9013 17.1001 32.8456C17.4157 33.4098 17.6411 34.0199 17.768 34.6539C17.8058 34.9185 17.768 35.076 17.6609 35.0949C16.4784 35.5627 15.2698 35.9614 14.0411 36.2889V36.2952ZM19.4692 35.599L19.362 35.265L18.7855 35.9802L18.3256 36.2952C18.2381 36.3754 18.1341 36.4354 18.0208 36.4708C17.9075 36.5062 17.7879 36.5161 17.6703 36.5L16.9268 36.1377L17.308 35.9518L17.4151 36.04C17.3364 36.2448 17.4151 36.2164 17.6703 35.9518L18.3256 35.3217C18.3442 34.8141 18.2473 34.3089 18.042 33.8442C17.9106 33.452 17.744 33.0724 17.5443 32.7101C17.5128 32.5809 17.182 32.562 16.5645 32.6313C16.972 32.4466 17.4355 32.4285 17.8562 32.5809L18.3634 32.7983L18.6186 32.6786L18.1303 32.414L18.3854 32.436L18.5997 32.6408L18.6375 32.6786L18.7855 32.8172C19.5101 33.5985 19.9102 34.1277 20.0079 34.4113C20.0948 34.6771 20.1057 34.9619 20.0394 35.2335C19.7747 35.5643 19.5794 35.6903 19.4692 35.599ZM21.7784 38.6138C21.6523 38.5162 21.6145 38.4185 21.6712 38.3209L22.0934 38.6706C22.0146 38.7241 21.9075 38.7052 21.7784 38.6075V38.6138ZM24.5286 38.6516L24.7649 38.7021L24.6861 38.7997L24.1285 38.9761C23.8873 39.1803 23.5977 39.3192 23.2874 39.3794L22.9251 39.3227L22.8369 39.0675C22.9172 38.9416 23.0336 38.8428 23.1708 38.784C23.3394 38.7228 23.5121 38.6734 23.6875 38.6359L24.1978 38.7241L24.5286 38.6516ZM23.7473 38.5351C23.3661 38.5351 23.1173 38.7808 23.0322 38.7808H22.7172C22.429 38.4446 22.1034 38.1424 21.7469 37.8798L20.7482 37.0387C20.9341 36.941 21.3279 36.9977 21.9327 37.1741L23.7473 38.5351ZM26.7811 34.1246C27.092 34.1615 27.4069 34.1412 27.7105 34.0647C28.0917 33.9104 28.8729 33.3307 30.0669 32.3352C30.9623 31.6202 31.9382 31.0122 32.9747 30.5237C33.2078 30.3851 33.2204 30.278 33.0031 30.2087C32.6787 30.135 32.3464 30.1022 32.0138 30.111C31.8784 30.2276 31.8878 30.3158 32.0548 30.3851C32.2003 30.3634 32.349 30.3797 32.4864 30.4324C31.6511 30.8529 30.8551 31.3474 30.1079 31.9099C30.1838 31.3573 30.229 30.801 30.2434 30.2434C30.235 29.9972 30.1465 29.7605 29.9913 29.5692C29.8937 29.4211 30.0197 29.2951 30.382 29.1848L30.6655 29.0998V29.5692L30.2749 29.4589L30.3221 29.6763C30.3743 29.7585 30.4429 29.8289 30.5237 29.8831C30.6045 29.9373 30.6957 29.9742 30.7915 29.9913L31.9382 30.0606L32.4454 30.0417C33.044 30.0417 33.337 30.1961 33.3181 30.4702C33.306 30.7303 33.3282 30.9909 33.3843 31.2452C33.4934 31.8725 33.7409 32.4676 34.1088 32.9873C33.9754 33.3133 33.7868 33.6138 33.5512 33.8757L32.4486 34.5751C31.5035 35.2587 30.2181 36.1503 28.5926 37.2277C27.1983 37.2426 25.805 37.1509 24.4247 36.9536C23.0543 36.7555 21.7002 36.4576 20.3733 36.0621L20.0331 35.9739L20.178 35.8289C20.3459 35.6448 20.4783 35.4312 20.5686 35.1989C20.5805 34.9527 20.5441 34.7065 20.4615 34.4743C20.3394 33.9614 20.0595 33.4998 19.6613 33.1543V33.0251L19.9764 32.9873C20.7687 33.0287 21.5555 33.1437 22.3265 33.3307C23.0101 33.4945 23.8229 33.6457 24.7712 33.7907C25.7194 33.9356 26.3684 34.0679 26.778 34.1057L26.7811 34.1246ZM25.2059 33.5575C24.8342 33.4977 24.2388 33.4 23.426 33.2425L24.16 32.9905C24.5601 33.0661 24.7901 32.9905 24.8468 32.7353C24.9056 33.0258 25.027 33.3 25.2028 33.5386L25.2059 33.5575ZM29.6133 27.2852C29.4829 27.4082 29.3884 27.5644 29.3401 27.737C29.2918 27.9096 29.2915 28.0921 29.3392 28.2649C28.9049 28.5096 28.5177 28.8296 28.1956 29.2101C27.8969 29.5383 27.6171 29.8833 27.3576 30.2434C27.2261 30.4794 27.0134 30.6596 26.7591 30.7506C26.6191 30.8046 26.4667 30.8179 26.3195 30.789C26.1723 30.76 26.0364 30.6899 25.9274 30.5868L25.8518 31.1129L24.4215 31.9855L23.7284 32.2785C23.7983 32.0465 23.8344 31.8056 23.8355 31.5634L24.0907 31.3491C25.0673 30.8388 25.6249 30.3694 25.7825 29.9504C25.9536 29.6304 26.1654 29.3339 26.4125 29.0683C26.6442 28.8266 26.812 28.531 26.9008 28.2082L26.9197 27.6979L26.863 27.1718C26.7528 26.8 26.9292 26.3873 27.8396 26.6898C27.8396 26.6898 28.0854 26.2802 28.4287 25.8014C28.7603 25.3394 29.119 24.8976 29.503 24.4782C29.8842 24.0687 30.2181 23.7253 30.4828 23.4418L30.4639 23.971C29.8837 24.6482 29.35 25.3639 28.8666 26.1133C28.3019 26.9232 27.8136 27.7838 27.408 28.6839C27.2614 29.0224 27.0277 29.3159 26.7307 29.5345C26.5396 29.621 26.3673 29.7441 26.2235 29.8968C26.1258 30.0732 26.1731 30.1237 26.3905 30.0449C26.5211 29.9057 26.6816 29.798 26.8599 29.7299C27.1749 29.5755 27.827 28.8415 28.8446 27.5246L28.8351 26.778L29.0714 26.3779C29.0714 26.7906 29.0903 27.008 29.1785 27.0521C29.2667 27.0962 29.3739 26.9859 29.5314 26.7024C29.6889 26.4188 30.0386 25.6722 30.6151 24.431C30.4879 24.7473 30.4812 25.0992 30.5962 25.4202C30.2528 25.6628 30.1646 26.0755 30.3221 26.652L29.6133 27.2852ZM34.3798 22.5786C34.3399 22.9072 34.2174 23.2205 34.0238 23.489C33.4473 24.1537 33.2015 24.5538 33.2992 24.683C33.3749 24.8261 33.408 24.9879 33.3946 25.1493C33.3812 25.3106 33.3218 25.4648 33.2236 25.5934C32.8404 26.0405 32.4279 26.4615 31.9886 26.8536C32.1273 27.1371 32.0201 27.3734 31.6736 27.5687C31.2432 27.8108 30.7906 28.0112 30.3221 28.1673C31.242 27.4711 31.7996 26.737 32.0138 25.962C32.2409 25.7369 32.5066 25.5544 32.7983 25.4233C32.9936 25.3036 33.0346 25.2469 32.9054 25.2564C32.617 25.3746 32.3466 25.5326 32.1021 25.7258C32.3739 25.1751 32.5659 24.5885 32.6723 23.9836C33.0854 23.6241 33.4356 23.1982 33.7087 22.7235C33.9041 22.4305 33.9135 22.3612 33.7371 22.5376C33.4666 22.9458 33.1388 23.3129 32.7636 23.6276C32.975 22.9623 33.1506 22.2861 33.2897 21.602C33.359 21.1641 33.3401 21.0853 33.2236 21.3688L33.0157 22.1123C32.9444 21.8633 32.828 21.6294 32.6723 21.4224L32.9464 22.3108C32.8485 22.8228 32.7137 23.3272 32.5431 23.8198C32.3583 23.2752 32.0951 22.7605 31.7618 22.2919C31.4688 21.9201 31.4184 21.9201 31.6138 22.273C31.9798 22.8385 32.2511 23.4599 32.4171 24.1128C32.2859 24.7077 32.085 25.2851 31.8185 25.8329C31.6887 25.6139 31.5083 25.4291 31.2924 25.2942C31.1538 25.228 31.1538 25.2753 31.2924 25.4233C31.4622 25.5916 31.6123 25.7787 31.7398 25.9809C31.5816 26.3746 31.3567 26.738 31.075 27.0552C30.8237 27.3409 30.5451 27.6015 30.2434 27.8333C30.5813 27.3234 30.7047 26.7009 30.5867 26.1007C30.5867 25.9841 30.6749 25.8959 30.8514 25.8266C31.0278 25.7573 31.0845 25.6691 31.0278 25.5934C30.902 25.3638 30.8248 25.1107 30.801 24.85C30.9655 24.7881 31.1468 24.7881 31.3113 24.85C31.4877 24.7208 31.4688 24.5349 31.2515 24.3113C31.0141 24.0256 30.8711 23.6734 30.8419 23.3031C30.8419 23.048 31.0089 22.9503 31.3491 23.0291C31.5066 23.0102 31.5161 22.8243 31.3901 22.4715L31.0278 21.98C30.7726 21.4224 30.8797 21.2176 31.3428 21.3751L31.891 21.7059C32.2627 21.854 32.4391 21.6083 32.4202 20.975C32.4202 20.827 32.5368 20.7986 32.7542 20.8742C32.9716 20.9498 33.1732 20.786 33.359 20.3765C33.5449 20.1811 33.6741 20.3576 33.7812 20.9246C33.7402 21.6776 33.9167 22.0304 34.3294 21.98C34.4239 22.0304 34.4333 22.2257 34.3829 22.5786H34.3798ZM35.0098 20.7577C35.0196 20.82 35.0159 20.8838 34.999 20.9446C34.9822 21.0054 34.9526 21.062 34.9122 21.1105C34.7693 21.2272 34.6027 21.311 34.4239 21.3562L34.1876 20.9246C34.2028 20.5709 34.0911 20.2234 33.8726 19.9449C33.8229 19.9676 33.7695 19.9815 33.715 19.9858H33.6741C33.7934 19.4867 34.0072 19.0151 34.3042 18.5965C34.3735 18.4201 34.3325 18.3917 34.1781 18.5965C33.9376 18.9292 33.7268 19.2823 33.5481 19.6519C33.4418 19.5123 33.3744 19.3471 33.3527 19.173C33.3023 18.899 33.2551 18.8895 33.2236 19.1447C33.2465 19.3856 33.3127 19.6203 33.4189 19.8378C33.1039 20.3166 32.8613 20.5025 32.6754 20.4048C32.7951 19.7306 32.9401 19.0155 33.1259 18.2626C33.441 17.9475 33.7339 17.831 33.9671 17.9475C34.3105 17.6735 34.5971 17.6325 34.8397 17.7995C34.9645 17.9848 35.0233 18.2067 35.0067 18.4296C34.9865 18.6725 34.9156 18.9086 34.7988 19.1226C35.0634 19.1226 35.202 19.2297 35.2209 19.4377C35.1842 19.647 35.1056 19.8467 34.9898 20.0248C34.8739 20.2029 34.7232 20.3558 34.5467 20.4741C34.824 20.5151 34.9909 20.6127 35.0193 20.7577H35.0098Z" fill="white"/>
<path d="M3.22594 31.7555C3.15292 31.6861 3.07013 31.6277 2.98021 31.5823C2.82585 31.494 2.72819 31.4058 2.58012 31.3176V31.4153C2.63053 31.4531 2.72819 31.5035 2.68723 31.6012C2.38878 32.1008 2.05835 32.5807 1.69802 33.0377C1.61296 33.0881 1.56256 33.0377 1.4649 32.9999L1.41449 33.0503C1.63729 33.1711 1.85293 33.3047 2.06031 33.4504L2.11072 33.3937C2.01306 33.3465 1.96265 33.3055 1.9532 33.2078C2.00361 33.1102 2.12962 32.9149 2.18003 32.8172L2.39425 32.5022C2.50136 32.5904 2.50136 32.5904 2.51081 32.7353V33.5008L2.47301 33.7434C2.52026 33.7938 2.78804 33.9198 2.82585 33.9702L2.8731 33.9104C2.76599 33.8222 2.76599 33.7749 2.75654 33.6363V32.6912C2.81463 32.7268 2.87927 32.7505 2.94664 32.7608C3.01402 32.771 3.08277 32.7677 3.14884 32.7509C3.21491 32.7342 3.27696 32.7044 3.33132 32.6633C3.38568 32.6222 3.43126 32.5706 3.46537 32.5116C3.68589 32.1682 3.48112 31.9445 3.22594 31.7555ZM3.16609 32.3856C2.892 32.7384 2.74709 32.603 2.49191 32.4265L2.892 31.8185C2.94241 31.8185 2.94241 31.7713 2.98967 31.7713C3.04231 31.7908 3.09211 31.8173 3.13773 31.85C3.21185 31.917 3.25643 32.0106 3.26175 32.1104C3.26706 32.2102 3.23267 32.308 3.16609 32.3824V32.3856Z" fill="white"/>
<path d="M4.0671 32.3541L3.96943 32.414C4.0671 32.4518 4.16476 32.5022 4.12695 32.6471C4.086 32.6975 3.2354 33.9797 3.18185 34.027C3.14275 34.0473 3.09844 34.0555 3.05463 34.0505C3.01083 34.0454 2.96955 34.0274 2.93612 33.9986L2.89832 34.0459L4.09545 34.8492L4.36008 34.4082L4.32227 34.3798C4.28954 34.4301 4.24673 34.4731 4.19654 34.5061C4.14636 34.5391 4.08989 34.5613 4.0307 34.5714C3.9715 34.5814 3.91087 34.5791 3.85261 34.5646C3.79435 34.55 3.73974 34.5236 3.6922 34.4869C3.63388 34.4652 3.5833 34.4266 3.54686 34.3762C3.51041 34.3257 3.48973 34.2656 3.48743 34.2034C3.48743 34.1152 3.57564 34.0081 3.61345 33.9199L3.87807 33.4694C4.13325 33.5954 4.23091 33.6962 4.05449 33.9892L4.09545 34.0238C4.24763 33.8104 4.38752 33.5884 4.51445 33.3591L4.48609 33.3307C4.35693 33.4851 4.21201 33.6458 3.91903 33.4095L4.31912 32.7794C4.40733 32.6786 4.37898 32.7101 4.45774 32.729L4.60266 32.8078C4.85783 32.9936 4.95549 33.0819 4.77907 33.3748L4.82948 33.4252L5.10356 33.022L4.0671 32.3541Z" fill="white"/>
<path d="M5.98565 33.5859C5.88798 33.5481 5.79032 33.4504 5.69266 33.4095C5.595 33.3685 5.43749 33.2835 5.33982 33.1858L5.28942 33.2456C5.38708 33.2835 5.48474 33.3213 5.44694 33.4693C5.40913 33.5197 4.60579 34.8586 4.50183 34.909C4.45143 35.0067 4.35376 34.909 4.2561 34.8681V34.9689C4.47966 35.0896 4.69536 35.2242 4.90193 35.3721L4.95233 35.3217C4.85467 35.2335 4.75701 35.1863 4.79481 35.0886C4.9088 34.8459 5.04262 34.613 5.19491 34.3924C5.19491 34.3924 5.29572 34.49 5.34297 34.4806C5.40333 34.538 5.47613 34.5808 5.5557 34.6055C5.63528 34.6303 5.71948 34.6363 5.80177 34.6232C5.88406 34.6101 5.96222 34.5782 6.03018 34.53C6.09813 34.4817 6.15404 34.4185 6.19357 34.3451C6.23924 34.2844 6.27039 34.214 6.28465 34.1394C6.2989 34.0647 6.29588 33.9878 6.2758 33.9145C6.25573 33.8412 6.21915 33.7735 6.16885 33.7165C6.11856 33.6596 6.05589 33.6149 5.98565 33.5859ZM5.92579 34.216C5.79032 34.4617 5.595 34.531 5.39653 34.3829C5.34927 34.3451 5.29887 34.3451 5.29887 34.2947L5.64226 33.7087C5.73047 33.5512 5.73047 33.5512 5.83758 33.6489C5.88592 33.6756 5.92737 33.7132 5.95866 33.7588C5.98995 33.8043 6.01021 33.8565 6.01786 33.9112C6.0255 33.9659 6.0203 34.0216 6.00268 34.074C5.98506 34.1263 5.9555 34.1738 5.91634 34.2128L5.92579 34.216Z" fill="white"/>
<path d="M7.52306 34.4397V34.5373C7.57032 34.5846 7.66798 34.6255 7.57977 34.7705C7.54196 34.8681 6.48345 35.8384 6.48345 35.8384C6.48345 35.8384 6.79848 34.3798 6.83628 34.2822C6.87409 34.1845 7.02216 34.2223 7.07256 34.2822L7.11982 34.2317L6.47399 33.8789L6.42674 33.9293C6.57165 34.0648 6.53385 34.2128 6.5055 34.4082L6.16211 36.1503L6.25977 36.1881L7.45375 35.0729C7.63962 34.9185 7.81604 34.6728 8.01137 34.7988V34.761L7.52306 34.4397Z" fill="white"/>
<path d="M11.4641 35.9833V36.0337C11.4641 36.0337 12.8755 35.8069 12.9133 35.8069L12.8534 35.2398L12.7683 35.2997C12.7794 35.3644 12.7773 35.4306 12.7621 35.4945C12.7469 35.5584 12.7191 35.6185 12.6801 35.6714C12.5919 35.7691 12.4439 35.7691 12.3651 35.8195C12.0312 35.8762 11.943 35.788 11.8862 35.4162C11.8862 35.4162 11.7098 34.2033 11.7098 34.1057C11.7098 34.008 11.8453 34.008 11.9335 34.008L11.8862 33.9198L11.1428 34.0269L11.19 34.1246C11.2078 34.1105 11.2283 34.1003 11.2502 34.0947C11.2721 34.0891 11.295 34.0883 11.3173 34.0921C11.3396 34.096 11.3609 34.1045 11.3797 34.1172C11.3984 34.1298 11.4143 34.1463 11.4263 34.1655C11.4263 34.2537 11.65 35.4257 11.65 35.4257C11.6703 35.5656 11.6703 35.7078 11.65 35.8478C11.6563 35.936 11.4641 35.9833 11.4641 35.9833Z" fill="white"/>
<path d="M13.6095 35.4761C13.5686 35.4257 13.3354 33.9387 13.3354 33.8411C13.3826 33.7763 13.447 33.7261 13.5213 33.6962V33.6458L12.7684 33.7623L12.8156 33.8127C12.8605 33.809 12.9057 33.815 12.9481 33.8302C12.9904 33.8454 13.0291 33.8695 13.0614 33.9009C13.0614 33.9891 13.3354 35.4352 13.285 35.5234C13.285 35.6714 13.0992 35.6714 13.0992 35.6714V35.7187L13.8426 35.6525V35.5549C13.8003 35.5652 13.7559 35.5632 13.7147 35.5493C13.6734 35.5353 13.6369 35.51 13.6095 35.4761Z" fill="white"/>
<path d="M15.3107 34.635L15.2634 34.6823C15.2634 35.054 15.1847 35.3375 14.8507 35.4352C14.3813 35.495 14.186 35.0351 14.0789 34.5657C14.019 34.1057 14.0474 33.5387 14.5168 33.4788C14.8035 33.4316 15.046 33.6552 15.1469 33.9797H15.1973L15.0902 33.3717H15.0397V33.5198C14.9552 33.4697 14.8615 33.4369 14.7641 33.4234C14.6668 33.4098 14.5677 33.4158 14.4727 33.441C13.9623 33.4977 13.6882 34.0175 13.7576 34.6255C13.8269 35.2336 14.2931 35.599 14.8066 35.4856C15.0071 35.4568 15.1887 35.3518 15.3138 35.1926L15.4115 35.3281L15.3107 34.635Z" fill="white"/>
<path d="M17.1032 34.868C17.0528 34.7798 16.1581 33.1165 16.1581 33.1165H16.0668L15.862 34.3766C15.8242 34.5719 15.8242 34.7578 15.7832 35.0067C15.772 35.0638 15.7452 35.1168 15.7057 35.1596C15.6662 35.2024 15.6156 35.2334 15.5596 35.2492V35.2839L16.1266 35.224V35.1264C16.1266 35.1264 15.8904 35.1862 15.8904 35.0382C15.8846 34.8467 15.908 34.6555 15.9597 34.4711L16.5551 34.364C16.6394 34.5323 16.7151 34.7047 16.7819 34.8806C16.8292 35.0193 16.6937 35.0193 16.6433 35.0665V35.1169L17.349 35.0004V34.9122C17.2387 34.909 17.1505 34.9185 17.1032 34.868ZM15.9975 34.3388L16.1235 33.5354L16.5141 34.2789L15.9975 34.3388Z" fill="white"/>
<path d="M21.2712 33.6458C21.1402 33.6311 21.0119 33.5983 20.89 33.5481V33.6458C20.9876 33.6458 21.0758 33.6962 21.0758 33.7812C21.0995 33.9114 21.0995 34.0448 21.0758 34.175L20.9372 35.0855C20.9346 35.2154 20.9011 35.3428 20.8396 35.4572C20.7923 35.5549 20.6915 35.5549 20.6064 35.5549V35.599C20.7288 35.6412 20.8585 35.6583 20.9876 35.6494C21.1231 35.6966 21.2208 35.6966 21.3594 35.747V35.6494C21.2712 35.6494 21.1735 35.6494 21.1735 35.5013C21.1687 35.3725 21.1847 35.2438 21.2208 35.1201L21.3184 34.2191C21.3435 34.0872 21.3761 33.9567 21.4161 33.8285C21.457 33.7403 21.5925 33.7403 21.6524 33.7403L21.6996 33.693C21.5547 33.7088 21.4224 33.6458 21.2712 33.6458Z" fill="white"/>
<path d="M21.9642 33.7245L21.8666 34.2033L21.9642 34.2537C22.0146 33.8694 22.1029 33.8694 22.3958 33.9198C22.484 33.9198 22.629 33.9671 22.5817 34.008L22.3958 35.495C22.3454 35.7407 22.2982 35.7785 22.0146 35.7785V35.8289C22.1538 35.8684 22.2986 35.8844 22.4431 35.8762C22.5774 35.9321 22.7201 35.9651 22.8652 35.9738V35.914C22.629 35.8163 22.629 35.7659 22.629 35.5328L22.8652 34.0427C22.8652 33.9545 23.0133 33.9954 23.1582 33.9954C23.3945 34.0427 23.4922 34.1403 23.4418 34.4365L23.4922 34.4743L23.5804 33.9954L21.9642 33.7245Z" fill="white"/>
<path d="M24.7649 36.1408C24.7409 36.0117 24.7083 35.8844 24.6672 35.7596L24.3805 34.1246L24.2955 34.0868L23.7158 35.2304C23.6276 35.4257 23.5299 35.6116 23.4323 35.8069C23.3346 35.9455 23.2874 35.9928 23.1488 35.9928L23.1015 36.0432C23.1992 36.0432 23.2874 36.0936 23.385 36.0936C23.4827 36.0936 23.5804 36.1408 23.6686 36.1408V36.0936C23.6276 36.0432 23.4827 36.0432 23.4827 35.8951C23.5299 35.8069 23.6276 35.5801 23.6686 35.4666L23.7158 35.3784L24.3805 35.4666L24.431 35.8069V36.0936C24.431 36.1912 24.2955 36.1408 24.2451 36.1408L24.1947 36.2385C24.3242 36.2289 24.4544 36.2428 24.579 36.2794C24.7239 36.2794 24.8625 36.3267 24.9508 36.3267V36.2794C24.8625 36.229 24.8121 36.229 24.7649 36.1408ZM23.8198 35.2808L24.201 34.5152L24.349 35.3784L23.8198 35.2808Z" fill="white"/>
<path d="M26.6614 36.0715C26.6142 36.2668 26.6142 36.3645 26.4283 36.4653C26.3306 36.5125 26.1826 36.4653 26.0471 36.4653C25.751 36.4149 25.7132 36.3172 25.751 35.936L25.8991 35.0256C25.9463 34.9279 25.9463 34.6916 25.9967 34.594C26.0471 34.4963 26.1826 34.5467 26.233 34.5467L26.2802 34.4585C26.1338 34.4673 25.9871 34.4469 25.8486 34.3986C25.751 34.3986 25.6155 34.3608 25.5336 34.3608L25.4832 34.3986C25.5334 34.4002 25.5824 34.4146 25.6254 34.4405C25.6685 34.4665 25.7041 34.503 25.7289 34.5467C25.7289 34.6444 25.6785 34.8617 25.6785 34.9752L25.5179 35.8384C25.4706 35.9606 25.4409 36.089 25.4297 36.2195C25.3926 36.2558 25.3479 36.2834 25.2989 36.3003C25.2498 36.3172 25.1977 36.323 25.1461 36.3172V36.3645C25.6155 36.4653 26.0471 36.5125 26.5165 36.6007C26.5165 36.6007 26.6142 36.6007 26.6142 36.6511L26.7591 36.0715H26.6614Z" fill="white"/>
<path d="M27.9153 36.4528C27.874 36.3139 27.8569 36.169 27.8649 36.0243L27.7672 35.1611V34.7327C27.8176 34.635 27.9153 34.635 28.0129 34.635V34.5374C27.8649 34.5374 27.72 34.5846 27.6317 34.5846H27.2505V34.6823C27.3388 34.6823 27.4364 34.635 27.4837 34.7799C27.4837 34.8303 27.5341 35.0635 27.5341 35.1611L27.5813 36.0716C27.5813 36.1692 27.6317 36.3551 27.5813 36.4528C27.5813 36.5914 27.4364 36.5914 27.386 36.5914V36.6386C27.5149 36.6471 27.6443 36.631 27.7672 36.5914H28.1484V36.5441C28.0602 36.5441 27.9625 36.5441 27.9153 36.4528Z" fill="white"/>
<path d="M30.4009 35.3785C30.3505 35.3785 30.2528 35.4257 30.1646 35.3785C30.0601 35.3086 29.962 35.2295 29.8716 35.1422L28.6398 34.0238H28.5422L28.7848 35.3154C28.839 35.5212 28.8686 35.7327 28.873 35.9455C28.8976 36.003 28.9024 36.0672 28.8864 36.1277C28.8704 36.1882 28.8346 36.2416 28.7848 36.2795L28.8352 36.3267C28.9037 36.2651 28.9827 36.216 29.0683 36.1818C29.1659 36.1314 29.2069 36.0841 29.3046 36.0337L29.2542 35.9833C29.2069 36.0337 29.0683 36.0841 29.021 35.9833C28.969 35.8315 28.9362 35.6739 28.9234 35.5139L28.873 35.4163L29.4495 35.1327L29.6858 35.3186C29.762 35.3685 29.8256 35.4353 29.8716 35.5139C29.922 35.6021 29.8338 35.6998 29.7362 35.6998L29.7834 35.7975C29.8821 35.7121 29.9952 35.6449 30.1173 35.599C30.2178 35.521 30.3293 35.4583 30.4481 35.4131L30.4009 35.3785ZM28.873 35.2839L28.7375 34.4617L29.3676 35.0382L28.873 35.2839Z" fill="white"/>
<path d="M31.2326 33.2236C31.1349 33.0881 30.9491 32.8424 30.8987 32.7447C30.8483 32.6471 30.9491 32.6092 30.9963 32.5116L30.9491 32.4612C30.8618 32.4996 30.7921 32.5693 30.7537 32.6565C30.6561 32.6975 30.5679 32.7447 30.4702 32.7951L30.5175 32.8424C30.6561 32.7951 30.7128 32.7447 30.8514 32.8424C30.99 32.94 31.0373 33.1259 31.1349 33.2236L31.661 33.9481L29.8023 33.3181C29.7495 33.3714 29.6811 33.4067 29.607 33.4189C29.5598 33.5039 29.5188 33.5039 29.4211 33.5544L29.4715 33.652C29.5598 33.5544 29.6574 33.5544 29.7866 33.6048L30.4545 34.5499C30.5491 34.6504 30.6307 34.7627 30.697 34.8838C30.738 35.0287 30.697 35.0791 30.5994 35.1673L30.6403 35.2146C30.7116 35.141 30.7933 35.0784 30.8829 35.0287C30.9814 34.9921 31.0647 34.9233 31.1192 34.8334V34.783C31.0215 34.8334 30.9333 34.8838 30.8356 34.8334C30.7269 34.735 30.6315 34.6228 30.5521 34.4995L29.922 33.6394L31.6421 34.2159C31.7278 34.2724 31.8265 34.306 31.9288 34.3136L31.9761 34.2663L31.2326 33.2236Z" fill="white"/>
<path d="M33.3748 32.981C33.2682 32.9355 33.1718 32.8691 33.0913 32.7857L31.702 31.8406L31.661 31.891L32.0454 33.1322C32.0862 33.3479 32.1485 33.559 32.2312 33.7623C32.2312 33.9104 32.2312 33.9482 32.1336 34.0458L32.1808 34.1435C32.2312 34.0458 32.3289 33.9986 32.3761 33.9482C32.4612 33.915 32.5408 33.8694 32.6124 33.8127L32.562 33.715C32.5148 33.7623 32.4265 33.86 32.3289 33.7623C32.2515 33.6127 32.2014 33.4506 32.1808 33.2834L32.1336 33.233L32.6597 32.8518L32.9432 33.0377C32.9936 33.0881 33.0913 33.1354 33.1291 33.1858C33.1795 33.2834 33.0913 33.3811 33.0409 33.4189L33.0913 33.4788C33.1795 33.3811 33.2771 33.3307 33.3748 33.233C33.4558 33.1502 33.5521 33.0839 33.6583 33.0377V32.9495C33.5607 32.981 33.463 33.0283 33.3748 32.981ZM32.1336 33.0787L31.8469 32.2564L32.562 32.7353L32.1336 33.0787Z" fill="white"/>
<path d="M9.76609 35.8384C9.76033 35.7551 9.73509 35.6744 9.69241 35.6027C9.64972 35.531 9.59079 35.4704 9.52036 35.4257C9.39721 35.3872 9.26748 35.3743 9.13917 35.3879C9.24032 35.3495 9.32398 35.2755 9.37445 35.1798C9.42491 35.084 9.43871 34.9732 9.41325 34.8681C9.40036 34.7947 9.37179 34.725 9.32947 34.6638C9.28715 34.6025 9.23209 34.5511 9.16806 34.5131C9.10404 34.4751 9.03255 34.4514 8.95851 34.4436C8.88447 34.4358 8.80961 34.4441 8.73907 34.468C8.5343 34.4963 8.0838 34.5751 8.0838 34.5751V34.6727C8.20036 34.6727 8.27912 34.6727 8.32638 34.7609C8.37363 34.8491 8.60046 36.2983 8.60046 36.3865C8.60046 36.4747 8.36733 36.5314 8.36733 36.5314V36.6102C8.36733 36.6102 9.01315 36.4842 9.17067 36.4653C9.32093 36.4536 9.46545 36.4026 9.58967 36.3172C9.66152 36.2624 9.71628 36.1882 9.74752 36.1034C9.77877 36.0186 9.78521 35.9267 9.76609 35.8384ZM8.60046 34.6349L8.73907 34.6034C8.9722 34.5562 9.05411 34.6916 9.12972 34.9185C9.13689 34.9742 9.13278 35.0308 9.11763 35.0849C9.10248 35.1391 9.07659 35.1896 9.04151 35.2335C8.95248 35.3115 8.8433 35.3628 8.72647 35.3816L8.60046 34.6349ZM9.17067 36.3267C9.05096 36.3456 8.9533 36.3865 8.89659 36.2983C8.84078 36.0454 8.79768 35.79 8.76743 35.5328C8.9074 35.5124 9.0496 35.5124 9.18957 35.5328C9.33449 35.5832 9.3849 35.7186 9.43215 35.8478C9.49831 36.1313 9.40065 36.2794 9.17697 36.3267H9.17067Z" fill="white"/>
<path d="M11.0262 35.202C10.9133 35.1265 10.7765 35.0951 10.6419 35.1138C10.7458 35.076 10.8336 35.0038 10.8909 34.9093C10.9482 34.8148 10.9715 34.7035 10.9569 34.594C10.8971 34.2222 10.5663 34.1844 10.2922 34.2317C10.1945 34.2317 9.62433 34.3514 9.62433 34.3514V34.3892C9.72514 34.3892 9.8228 34.3892 9.87006 34.4774C9.98895 35.0174 10.0804 35.5631 10.1441 36.1124C10.1441 36.2573 10.0087 36.2573 9.95827 36.2573V36.3456C9.95827 36.3456 10.9853 36.1786 11.1239 36.0305C11.1844 35.9758 11.2303 35.9067 11.2573 35.8297C11.2842 35.7526 11.2915 35.67 11.2783 35.5895C11.2697 35.5096 11.2424 35.4329 11.1986 35.3656C11.1548 35.2982 11.0958 35.2422 11.0262 35.202ZM10.3395 34.3388C10.5159 34.301 10.6135 34.427 10.6734 34.6538C10.685 34.72 10.6832 34.7879 10.6681 34.8534C10.6529 34.9189 10.6247 34.9806 10.5852 35.035C10.5225 35.0918 10.4427 35.1262 10.3584 35.1327H10.3111L10.1945 34.3892C10.2391 34.3631 10.2883 34.346 10.3395 34.3388ZM10.7112 36.103C10.6135 36.103 10.5253 36.103 10.4781 36.0148C10.404 35.7672 10.3482 35.5144 10.3111 35.2587C10.449 35.2273 10.5922 35.2273 10.7301 35.2587C10.7937 35.2976 10.8463 35.3522 10.8827 35.4173C10.9191 35.4824 10.9382 35.5558 10.938 35.6304C10.9475 35.914 10.8971 36.0431 10.7112 36.103Z" fill="white"/>
</g>
<defs>
<clipPath id="clip0_4659_26428">
<rect width="128.89" height="40" fill="white"/>
</clipPath>
</defs>
</svg>
