<svg width="24" height="24" viewBox="0 0 24 24" fill="none" xmlns="http://www.w3.org/2000/svg">
<path d="M14.625 19C14.2083 19 13.8542 18.8542 13.5625 18.5625C13.2708 18.2708 13.125 17.9167 13.125 17.5V6.5C13.125 6.08333 13.2708 5.72917 13.5625 5.4375C13.8542 5.14583 14.2083 5 14.625 5H17.5C17.9167 5 18.2708 5.14583 18.5625 5.4375C18.8542 5.72917 19 6.08333 19 6.5V17.5C19 17.9167 18.8542 18.2708 18.5625 18.5625C18.2708 18.8542 17.9167 19 17.5 19H14.625ZM6.5 19C6.08333 19 5.72917 18.8542 5.4375 18.5625C5.14583 18.2708 5 17.9167 5 17.5V6.5C5 6.08333 5.14583 5.72917 5.4375 5.4375C5.72917 5.14583 6.08333 5 6.5 5H9.375C9.79167 5 10.1458 5.14583 10.4375 5.4375C10.7292 5.72917 10.875 6.08333 10.875 6.5V17.5C10.875 17.9167 10.7292 18.2708 10.4375 18.5625C10.1458 18.8542 9.79167 19 9.375 19H6.5Z" fill="white"/>
</svg>
