<svg width="14" height="14" viewBox="0 0 14 14" fill="none" xmlns="http://www.w3.org/2000/svg">
<path d="M9.625 14C9.20833 14 8.85417 13.8542 8.5625 13.5625C8.27083 13.2708 8.125 12.9167 8.125 12.5V1.5C8.125 1.08333 8.27083 0.729167 8.5625 0.4375C8.85417 0.145833 9.20833 0 9.625 0H12.5C12.9167 0 13.2708 0.145833 13.5625 0.4375C13.8542 0.729167 14 1.08333 14 1.5V12.5C14 12.9167 13.8542 13.2708 13.5625 13.5625C13.2708 13.8542 12.9167 14 12.5 14H9.625ZM1.5 14C1.08333 14 0.729167 13.8542 0.4375 13.5625C0.145833 13.2708 0 12.9167 0 12.5V1.5C0 1.08333 0.145833 0.729167 0.4375 0.4375C0.729167 0.145833 1.08333 0 1.5 0H4.375C4.79167 0 5.14583 0.145833 5.4375 0.4375C5.72917 0.729167 5.875 1.08333 5.875 1.5V12.5C5.875 12.9167 5.72917 13.2708 5.4375 13.5625C5.14583 13.8542 4.79167 14 4.375 14H1.5Z" fill="#0B2C6E"/>
</svg>
