<svg width="31" height="24" viewBox="0 0 31 24" fill="none" xmlns="http://www.w3.org/2000/svg">
<path d="M19.8672 0.0624986L30.8438 0.0624995L30.8438 7.91406C30.8438 11.0911 30.5703 13.5911 30.0234 15.4141C29.4505 17.263 28.4089 18.9167 26.8984 20.375C25.388 21.8333 23.4609 22.9792 21.1172 23.8125L18.9688 19.2812C21.1563 18.5521 22.7318 17.5365 23.6953 16.2344C24.6328 14.9323 25.1276 13.2005 25.1797 11.0391L19.8672 11.0391L19.8672 0.0624986ZM1.54688 0.062497L12.5234 0.0624979L12.5234 7.91406C12.5234 11.1172 12.25 13.6302 11.7031 15.4531C11.1302 17.276 10.0885 18.9167 8.57813 20.375C7.04167 21.8333 5.11458 22.9792 2.79688 23.8125L0.648438 19.2812C2.83594 18.5521 4.41146 17.5365 5.375 16.2344C6.3125 14.9323 6.80729 13.2005 6.85938 11.0391L1.54688 11.0391L1.54688 0.062497Z" fill="#0B2C6E"/>
</svg>
