<svg width="31" height="24" viewBox="0 0 31 24" fill="none" xmlns="http://www.w3.org/2000/svg">
<path d="M11.1328 23.9375H0.15625V16.0859C0.15625 12.9089 0.429688 10.4089 0.976562 8.58594C1.54948 6.73698 2.59115 5.08333 4.10156 3.625C5.61198 2.16667 7.53906 1.02083 9.88281 0.1875L12.0312 4.71875C9.84375 5.44792 8.26823 6.46354 7.30469 7.76562C6.36719 9.06771 5.8724 10.7995 5.82031 12.9609H11.1328V23.9375ZM29.4531 23.9375H18.4766V16.0859C18.4766 12.8828 18.75 10.3698 19.2969 8.54688C19.8698 6.72396 20.9115 5.08333 22.4219 3.625C23.9583 2.16667 25.8854 1.02083 28.2031 0.1875L30.3516 4.71875C28.1641 5.44792 26.5885 6.46354 25.625 7.76562C24.6875 9.06771 24.1927 10.7995 24.1406 12.9609H29.4531V23.9375Z" fill="#0B2C6E"/>
</svg>
