<svg width="40" height="41" viewBox="0 0 40 41" fill="none" xmlns="http://www.w3.org/2000/svg">
<path fill-rule="evenodd" clip-rule="evenodd" d="M40 20.0314C40 31.0773 31.0457 40.0317 20 40.0317C8.9543 40.0317 0 31.0773 0 20.0314C0 8.98547 8.9543 0.0310059 20 0.0310059C25.3043 0.0310059 30.3914 2.13818 34.1421 5.88898C37.8929 9.63977 40 14.7269 40 20.0314ZM23.8 11.4307L32.4 20.0308L23.8 28.6309L22.4 27.2308L28.6 21.0308H10V19.0308H28.4L22.4 12.8307L23.8 11.4307ZM20 2.03101C29.9411 2.03101 38 10.0901 38 20.0315C38 29.9729 29.9411 38.032 20 38.032C10.0589 38.032 2 29.9729 2 20.0315C2 10.0901 10.0589 2.03101 20 2.03101Z" fill="#0B2C6E"/>
</svg>
