<svg width="26" height="26" viewBox="0 0 26 26" fill="none" xmlns="http://www.w3.org/2000/svg">
<path fill-rule="evenodd" clip-rule="evenodd" d="M18 17.125L25.375 24.375L24.375 25.375L17.125 18C15.2782 19.5845 12.9332 20.4694 10.5 20.5C4.97715 20.5 0.5 16.0228 0.5 10.5C0.5 4.97715 4.97715 0.5 10.5 0.5C16.0228 0.5 20.5 4.97715 20.5 10.5C20.4694 12.9332 19.5845 15.2782 18 17.125ZM1.75 10.5C1.75 15.3325 5.66751 19.25 10.5 19.25C12.8206 19.25 15.0462 18.3281 16.6872 16.6872C18.3281 15.0462 19.25 12.8206 19.25 10.5C19.25 5.66751 15.3325 1.75 10.5 1.75C5.66751 1.75 1.75 5.66751 1.75 10.5Z" fill="white"/>
</svg>
