<svg width="30" height="30" viewBox="0 0 30 30" fill="none" xmlns="http://www.w3.org/2000/svg">
<path fill-rule="evenodd" clip-rule="evenodd" d="M20 19.125L27.375 26.375L26.375 27.375L19.125 20C17.2782 21.5845 14.9332 22.4694 12.5 22.5C6.97715 22.5 2.5 18.0228 2.5 12.5C2.5 6.97715 6.97715 2.5 12.5 2.5C18.0228 2.5 22.5 6.97715 22.5 12.5C22.4694 14.9332 21.5845 17.2782 20 19.125ZM3.75 12.5C3.75 17.3325 7.66751 21.25 12.5 21.25C14.8206 21.25 17.0462 20.3281 18.6872 18.6872C20.3281 17.0462 21.25 14.8206 21.25 12.5C21.25 7.66751 17.3325 3.75 12.5 3.75C7.66751 3.75 3.75 7.66751 3.75 12.5Z" fill="#0B2C6E"/>
</svg>
