<svg width="88" height="88" viewBox="0 0 88 88" fill="none" xmlns="http://www.w3.org/2000/svg">
<path d="M69.0237 52.9194C68.0396 52.5015 66.9278 52.5015 65.9437 52.9194L58.8115 55.9489C58.8311 55.8168 58.8434 55.6832 58.8488 55.5497C58.8488 54.5287 58.4432 53.5495 57.7213 52.8272C56.9989 52.1053 56.0197 51.6997 54.9988 51.6997H52.7988V46.1997H58.2988C60.3402 46.1972 62.2972 45.385 63.7409 43.9417C65.1841 42.498 65.9963 40.541 65.9988 38.4997C65.9988 38.208 65.8829 37.9281 65.6767 37.7218C65.4704 37.5156 65.1905 37.3997 64.8988 37.3997H58.2988C56.227 37.3992 54.2435 38.237 52.7988 39.722V35.1437C58.5497 34.7592 63.6839 31.4017 66.3408 26.2868C68.998 21.1717 68.7932 15.0413 65.8011 10.1149C62.8084 5.18841 57.4627 2.18069 51.6984 2.18069C45.9342 2.18069 40.5884 5.18854 37.5958 10.1149C34.6037 15.0414 34.3989 21.1719 37.0561 26.2868C39.7133 31.4019 44.8475 34.7593 50.5981 35.1437V41.922C49.1533 40.4371 47.1698 39.5992 45.0981 39.5997H38.4981C37.8906 39.5997 37.3981 40.0922 37.3981 40.6997C37.4005 42.741 38.2127 44.698 39.656 46.1417C41.0997 47.5849 43.0567 48.3972 45.0981 48.3997H50.5981V51.6997H46.4652C45.6024 51.6982 44.7513 51.4974 43.9784 51.1133C40.4088 49.3337 36.4753 48.4046 32.4864 48.3997H29.6981C29.6981 48.108 29.5822 47.8281 29.3759 47.6218C29.1697 47.4156 28.8897 47.2997 28.5981 47.2997H19.798C19.1906 47.2997 18.698 47.7922 18.698 48.3997H10.998V50.5997H18.698V61.5997H10.998V63.7997H18.698C18.698 64.0914 18.8139 64.3713 19.0202 64.5775C19.2264 64.7838 19.5064 64.8997 19.798 64.8997H28.5981C28.8897 64.8997 29.1697 64.7838 29.3759 64.5775C29.5822 64.3713 29.6981 64.0914 29.6981 63.7997V63.3808L37.9107 66.7908C42.3878 68.6176 47.3928 68.6726 51.909 66.9445L68.9018 60.4668C69.908 60.0843 70.7178 59.3118 71.1479 58.3253C71.5938 57.324 71.6169 56.1856 71.2128 55.1667C70.818 54.1517 70.0273 53.3405 69.0226 52.9196L69.0237 52.9194ZM58.2988 39.6H63.6888C63.4335 40.8414 62.7582 41.9572 61.7766 42.7586C60.7944 43.56 59.5663 43.9985 58.2988 44H52.9088C53.1642 42.7586 53.8394 41.6429 54.821 40.8414C55.8032 40.04 57.0314 39.6015 58.2988 39.6ZM45.0988 46.2C43.8313 46.1985 42.6031 45.76 41.621 44.9586C40.6394 44.1572 39.9641 43.0414 39.7088 41.8H45.0988C46.3663 41.8015 47.5945 42.24 48.5766 43.0414C49.5582 43.8429 50.2335 44.9586 50.4888 46.2H45.0988ZM37.3988 18.7C37.3988 14.9075 38.9054 11.27 41.5871 8.5883C44.2688 5.90657 47.9062 4.4 51.6988 4.4C55.4914 4.4 59.1288 5.90657 61.8105 8.5883C64.4922 11.27 65.9988 14.9075 65.9988 18.7C65.9988 22.4926 64.4922 26.13 61.8105 28.8117C59.1288 31.4935 55.4914 33 51.6988 33C47.9078 32.9956 44.2729 31.4875 41.592 28.8068C38.9111 26.1261 37.4032 22.4912 37.3988 18.7ZM27.4988 62.7H20.8988V49.5H27.4988V62.7ZM69.1366 57.4367C68.9417 57.8851 68.5744 58.2362 68.1177 58.411L51.1249 64.8902H51.1253C47.1324 66.4194 42.7069 66.3713 38.7479 64.7561L29.6985 60.997V50.6001H32.4868C36.1345 50.6045 39.7311 51.4536 42.9953 53.0814C44.0737 53.6182 45.2615 53.8986 46.4656 53.9001H54.9985C55.8353 53.905 56.5356 54.535 56.6289 55.3669C56.7217 56.1983 56.1776 56.9677 55.3624 57.1573C55.2185 57.1706 55.0766 57.2 54.9303 57.2H41.7982V59.4H54.9303H54.9985C55.0206 59.4 55.0413 59.3937 55.0643 59.3937C55.9375 59.3789 56.7993 59.1967 57.6031 58.8564L66.8004 54.9515C67.2384 54.7649 67.7339 54.7649 68.1719 54.9515C68.6272 55.145 68.9847 55.5152 69.1619 55.9768C69.3495 56.4473 69.3402 56.9732 69.1369 57.4368L69.1366 57.4367Z" fill="#E70C53"/>
<path d="M23.0977 58.3H25.2976V60.5H23.0977V58.3Z" fill="#E70C53"/>
<path d="M63.7976 18.7C63.7976 15.4909 62.5228 12.4133 60.2536 10.144C57.9844 7.87475 54.9069 6.60001 51.6976 6.60001C48.4884 6.60001 45.4109 7.87488 43.1417 10.144C40.8724 12.4133 39.5977 15.4908 39.5977 18.7C39.5977 21.9092 40.8725 24.9867 43.1417 27.256C45.4109 29.5253 48.4884 30.8 51.6976 30.8C54.9059 30.7961 57.9808 29.5202 60.2496 27.252C62.5179 24.9832 63.7936 21.9081 63.7976 18.7ZM41.7977 18.7C41.7977 16.0742 42.8407 13.556 44.6974 11.6997C46.5537 9.84293 49.0719 8.80001 51.6976 8.80001C54.3234 8.80001 56.8416 9.84305 58.6979 11.6997C60.5547 13.556 61.5976 16.0742 61.5976 18.7C61.5976 21.3258 60.5546 23.844 58.6979 25.7003C56.8416 27.5571 54.3234 28.6 51.6976 28.6C49.0729 28.5971 46.5566 27.553 44.7004 25.6973C42.8446 23.841 41.8007 21.3248 41.7977 18.7Z" fill="#E70C53"/>
<path d="M54.7164 22.0368C54.594 21.928 54.4036 21.928 54.2948 22.0504C53.6556 22.6896 52.8396 23.0296 52.0236 23.0296C50.8268 23.0296 49.6844 22.2952 49.0316 21.0848L52.1324 21.0847C52.3093 21.0847 52.4452 20.9487 52.4452 20.772V19.7112C52.4452 19.5343 52.3092 19.3984 52.1324 19.3984H48.4876C48.4604 19.1943 48.4604 18.9904 48.4604 18.8C48.4604 18.6096 48.474 18.4056 48.5012 18.188H52.1324C52.3092 18.188 52.4452 18.0519 52.4452 17.8752V16.8144C52.4452 16.6376 52.3091 16.5016 52.1324 16.5016L49.0316 16.5015C49.6844 15.3047 50.8132 14.5568 52.0236 14.5568C52.8532 14.5568 53.6556 14.9104 54.2948 15.5496C54.4172 15.6719 54.6076 15.6719 54.7164 15.5631L55.8995 14.4751C55.9676 14.4207 55.9948 14.3391 56.0084 14.2439C56.0084 14.1623 55.9811 14.0807 55.9268 14.0127C54.8524 12.9247 53.4788 12.3263 52.0372 12.3263C49.6572 12.3263 47.4948 13.9991 46.638 16.4879H45.3323C45.1555 16.4879 45.0195 16.6239 45.0195 16.8007V17.8615C45.0195 18.0383 45.1556 18.1742 45.3323 18.1742H46.2843C46.2707 18.3919 46.2571 18.5958 46.2571 18.7862C46.2571 18.9766 46.2706 19.1806 46.2843 19.3846H45.3323C45.1555 19.3846 45.0195 19.5207 45.0195 19.6974V20.7582C45.0195 20.9351 45.1556 21.071 45.3323 21.071H46.638C47.4948 23.5598 49.6572 25.2326 52.0372 25.2326C53.4787 25.2326 54.866 24.6342 55.9268 23.5462C55.9811 23.4918 56.022 23.4101 56.022 23.315C56.022 23.2334 55.9812 23.1518 55.9132 23.0838L54.7164 22.0368Z" fill="#E70C53"/>
</svg>
