<svg width="64" height="65" viewBox="0 0 64 65" fill="none" xmlns="http://www.w3.org/2000/svg">
<path d="M2.18439 60.0908L0.361385 61.9132C-0.120462 62.3945 -0.120462 63.1758 0.361385 63.6576C0.601735 63.8985 0.918388 64.0184 1.23388 64.0184C1.54995 64.0184 1.86546 63.8985 2.10638 63.6576L3.92939 61.8352C4.41123 61.3539 4.41123 60.5726 3.92939 60.0908C3.44754 59.6089 2.66623 59.6089 2.18436 60.0908H2.18439Z" fill="#E70C53"/>
<path d="M4.48507 57.791L4.3692 57.9068C3.88735 58.3881 3.88735 59.17 4.3692 59.6513C4.61012 59.8922 4.9262 60.0121 5.2417 60.0121C5.55776 60.0121 5.87327 59.8922 6.11419 59.6513L6.23007 59.5354C6.71191 59.0541 6.71191 58.2722 6.23007 57.791C5.74706 57.3091 4.96692 57.3091 4.48504 57.791H4.48507Z" fill="#E70C53"/>
<path d="M15.7077 48.3132C15.2258 47.8313 14.4451 47.8313 13.9632 48.3132L6.77154 55.505C6.2897 55.9862 6.2897 56.7681 6.77154 57.2494C7.01246 57.4903 7.32854 57.6102 7.64403 57.6102C7.9601 57.6102 8.27561 57.4903 8.51653 57.2494L15.7082 50.0576C16.1889 49.5758 16.1889 48.7945 15.7076 48.3132H15.7077Z" fill="#E70C53"/>
<path d="M6.49309 48.8772C6.80916 48.8772 7.12466 48.7573 7.36559 48.5164L10.7661 45.1159C11.2479 44.6346 11.2479 43.8533 10.7661 43.3714C10.2842 42.8895 9.50348 42.8896 9.02162 43.3714L5.62115 46.7719C5.1393 47.2532 5.1393 48.0345 5.62115 48.5164C5.8615 48.7573 6.17758 48.8772 6.49307 48.8772H6.49309Z" fill="#E70C53"/>
<path d="M38.2052 16.5461C35.6503 19.1011 35.6503 23.2589 38.2052 25.8145C39.4833 27.0926 41.1606 27.7305 42.8391 27.7305C44.5176 27.7305 46.196 27.0926 47.473 25.8145C50.0279 23.2595 50.0279 19.1017 47.473 16.5461C44.9181 13.99 40.7603 13.99 38.2054 16.5461H38.2052ZM45.9333 23.8193H39.7442C39.5601 23.6036 39.4029 23.3753 39.2704 23.1344H46.4059C46.2745 23.3747 46.1179 23.6036 45.9332 23.8193H45.9333ZM39.6876 18.6112H45.9913C46.1679 18.8274 46.3188 19.0552 46.4444 19.2961H39.2349C39.3594 19.0552 39.5109 18.8274 39.6875 18.6112H39.6876ZM46.7668 20.1182C46.8276 20.3442 46.8672 20.5719 46.8884 20.8031H38.7903C38.8115 20.5714 38.8511 20.3436 38.9119 20.1182H46.7668ZM38.9326 22.3119C38.8678 22.0859 38.8225 21.8587 38.7966 21.6269H46.8815C46.8563 21.8587 46.8109 22.0864 46.7455 22.3119H38.9326ZM45.1147 17.7886H40.5635C41.2496 17.328 42.0429 17.0951 42.8391 17.0951C43.6342 17.0951 44.4286 17.3292 45.1147 17.7886ZM40.6833 24.6414H44.9947C43.6788 25.4606 42.0003 25.4606 40.6833 24.6414Z" fill="#E70C53"/>
<path d="M63.9386 2.26081L63.9145 1.30684C63.899 0.648868 63.3684 0.119406 62.7104 0.103913L61.7542 0.0798211C56.5485 -0.054985 50.0675 -0.224208 45.2893 2.56603C40.0325 5.63671 35.5387 10.172 31.1916 14.5568C30.7958 14.9555 30.4046 15.349 30.014 15.742L18.5705 16.2542C18.2619 16.268 17.971 16.3965 17.7531 16.6145L6.36348 28.0052C6.01071 28.358 5.90458 28.8886 6.09617 29.3498C6.2872 29.811 6.73693 30.1116 7.23598 30.1116H15.6477L13.8654 31.894C13.6342 32.1251 13.5046 32.4389 13.5046 32.7665C13.5046 33.094 13.6348 33.4072 13.8654 33.639L15.662 35.4356L12.449 37.2375C12.1117 37.4256 11.8834 37.7623 11.8307 38.1444C11.7779 38.527 11.907 38.9125 12.18 39.1855L24.835 51.8378C25.0679 52.0706 25.3828 52.1986 25.7075 52.1986C25.7631 52.1986 25.8199 52.1951 25.8761 52.1871C26.2587 52.1343 26.5949 51.906 26.7831 51.5687L28.5853 48.3557L30.3813 50.1517C30.6223 50.3927 30.9383 50.5126 31.2538 50.5126C31.5699 50.5126 31.8854 50.3927 32.1263 50.1517L33.9075 48.3706V56.7824C33.9075 57.2815 34.2075 57.7312 34.6693 57.9222C34.8224 57.9853 34.9825 58.0157 35.1414 58.0157C35.4632 58.0157 35.7781 57.8907 36.0139 57.6549L47.4045 46.2642C47.6224 46.0462 47.7509 45.7554 47.7647 45.4473L48.2781 34.0031C48.671 33.6119 49.0646 33.2212 49.4632 32.8254C53.8486 28.4783 58.3832 23.9839 61.4539 18.7276C64.2428 13.9498 64.0731 7.46873 63.9377 2.26105L63.9386 2.26081ZM10.2148 27.6428L19.1606 18.6968L27.433 18.3257L18.1161 27.6427L10.2148 27.6428ZM25.43 48.9408L15.0787 38.5894L17.4765 37.2448L26.7751 46.5423L25.43 48.9408ZM36.3755 53.8041V45.9027L45.6918 36.5862L45.3207 44.8587L36.3755 53.8041ZM59.3223 17.4831C56.4151 22.4601 51.9976 26.8392 47.7251 31.0738C47.1658 31.628 46.6117 32.1775 46.0661 32.7225L31.2548 47.5341L16.4845 32.7637L31.2959 17.9507C31.842 17.4045 32.3915 16.851 32.9446 16.2917C37.1792 12.0191 41.5582 7.60271 46.534 4.6943C50.6476 2.29135 56.3816 2.40546 61.4775 2.53792C61.61 7.63531 61.7253 13.3689 59.3211 17.4831H59.3223Z" fill="#E70C53"/>
<path d="M4.55421 50.8185C4.87028 50.8185 5.18578 50.6986 5.42671 50.4577L5.51332 50.3711C5.99517 49.8898 5.99517 49.1079 5.51332 48.6266C5.03148 48.1448 4.25075 48.1448 3.76889 48.6266L3.6817 48.7133C3.19985 49.1945 3.19985 49.9764 3.6817 50.4577C3.92262 50.6986 4.23813 50.8185 4.55419 50.8185H4.55421Z" fill="#E70C53"/>
<path d="M1.77239 53.5997C2.08845 53.5997 2.40396 53.4799 2.64488 53.2389L3.52713 52.3567C4.00898 51.8754 4.00898 51.0935 3.52713 50.6122C3.04529 50.1304 2.26456 50.1304 1.78269 50.6122L0.900447 51.4945C0.418601 51.9758 0.418601 52.7576 0.900447 53.2389C1.14137 53.4787 1.45631 53.5997 1.77237 53.5997H1.77239Z" fill="#E70C53"/>
<path d="M14.1818 57.9746L10.7813 61.3751C10.2995 61.8564 10.2995 62.6383 10.7813 63.1196C11.0222 63.3606 11.3383 63.4805 11.6538 63.4805C11.9699 63.4805 12.2854 63.3606 12.5263 63.1196L15.9268 59.7191C16.4086 59.2378 16.4086 58.4559 15.9268 57.9746C15.4438 57.4927 14.6636 57.4927 14.1817 57.9746H14.1818Z" fill="#E70C53"/>
<path d="M17.8198 56.0744C17.3551 55.5753 16.575 55.5472 16.0765 56.0124C15.578 56.4765 15.5499 57.2572 16.0146 57.7557L16.0805 57.8263C16.3232 58.0867 16.653 58.2192 16.9834 58.2192C17.2846 58.2192 17.5863 58.1096 17.8238 57.8877C18.3223 57.4236 18.3504 56.6429 17.8858 56.1444L17.8198 56.0744Z" fill="#E70C53"/>
<path d="M18.9038 53.2533L18.0215 54.1356C17.5397 54.6174 17.5397 55.3987 18.0215 55.8806C18.2625 56.1216 18.5785 56.2415 18.894 56.2415C19.2101 56.2415 19.5256 56.1216 19.7665 55.8806L20.6499 54.9984C21.1318 54.5165 21.1318 53.7352 20.6499 53.2533C20.1669 52.772 19.3856 52.772 18.9037 53.2533H18.9038Z" fill="#E70C53"/>
</svg>
