<svg width="38" height="67" viewBox="0 0 38 67" fill="none" xmlns="http://www.w3.org/2000/svg">
<path d="M26.5966 12.9201C26.5821 12.9062 26.5431 12.8719 26.5274 12.8585C23.7892 10.5758 20.3133 9.52337 16.7382 9.89232C10.7496 10.513 5.86232 15.2941 5.11951 21.2588C4.39542 27.0673 7.6498 32.5317 13.4094 35.18C22.0015 39.1313 24.999 41.2645 29.7177 48.7433C29.8717 48.9868 30.1384 49.1321 30.422 49.1321C30.4528 49.1321 30.4848 49.1303 30.5161 49.1269C30.834 49.0908 31.1037 48.8752 31.2083 48.573C31.5174 47.6856 38.6602 26.7169 28.3734 14.7482C27.8289 14.0665 27.2205 13.4423 26.597 12.9199L26.5966 12.9201ZM30.1455 46.3403C25.7416 39.742 22.3147 37.4414 14.1051 33.6657C9.01847 31.3271 6.14006 26.5374 6.77233 21.464C7.42088 16.2604 11.6841 12.0907 16.9097 11.5486C17.3206 11.5062 17.7297 11.4853 18.1359 11.4853C20.819 11.4853 23.3794 12.4023 25.4262 14.1056C25.4425 14.1219 25.4756 14.1527 25.4931 14.1672C26.0672 14.6495 26.6013 15.1981 27.0813 15.7991C27.0877 15.8072 27.0941 15.8148 27.1011 15.8229C35.1563 25.1822 31.5996 41.1484 30.1451 46.3405L30.1455 46.3403Z" fill="#E70C53"/>
<path d="M13.426 14.7292C13.0349 14.4875 12.5223 14.6078 12.2794 14.9983C12.0371 15.3894 12.1574 15.9031 12.5479 16.1455C12.642 16.2036 21.9792 22.076 24.6925 30.5917C24.8058 30.9462 25.1335 31.1722 25.4863 31.1722C25.57 31.1722 25.6554 31.1595 25.7391 31.1321C26.1778 30.9927 26.419 30.5237 26.2801 30.0855C23.3779 20.9761 13.831 14.979 13.4261 14.7291L13.426 14.7292Z" fill="#E70C53"/>
<path d="M23.9593 59.2225C23.9081 59.1906 18.7611 55.9856 17.0455 50.599C16.9054 50.1603 16.4394 49.9185 15.9983 50.0586C15.5595 50.198 15.3183 50.667 15.4572 51.1052C17.3657 57.0967 22.8585 60.5028 23.0909 60.6446C23.2257 60.7271 23.3757 60.7666 23.5239 60.7666C23.804 60.7666 24.0777 60.6248 24.2352 60.3679C24.4746 59.9757 24.3508 59.4625 23.9591 59.2225L23.9593 59.2225Z" fill="#E70C53"/>
<path d="M32.1442 64.3776C29.9672 63.8795 28.1454 62.5703 27.2244 61.8049C28.554 60.4659 29.4623 58.7081 29.7052 56.7577C30.1887 52.874 28.0194 49.2231 24.1792 47.4577C18.6909 44.9338 16.7773 43.5728 13.7687 38.8045C13.5978 38.5343 13.291 38.3832 12.9696 38.4215C12.6517 38.4576 12.3821 38.6732 12.2775 38.9754C12.0758 39.5553 7.40988 53.2551 14.1603 61.1155C14.5247 61.57 14.9298 61.9855 15.3296 62.3191C15.3453 62.3342 15.3749 62.3609 15.3912 62.3749C16.9823 63.7016 18.9449 64.4071 21.0003 64.4065C21.31 64.4065 21.6227 64.3908 21.9359 64.3583C23.3963 64.2072 24.7567 63.6824 25.9225 62.888C26.8831 63.7242 29.0525 65.3793 31.7739 66.0012C31.8367 66.0157 31.8983 66.0221 31.9605 66.0221C32.3405 66.0221 32.684 65.7606 32.7717 65.3747C32.8734 64.9261 32.5933 64.4792 32.1441 64.3769L32.1442 64.3776ZM21.764 62.7015C19.8294 62.9032 17.9424 62.3319 16.5025 61.136C16.4856 61.1192 16.456 61.0918 16.4374 61.0767C16.0817 60.778 15.7505 60.4375 15.4524 60.0638C15.446 60.0562 15.4396 60.0481 15.4326 60.0406C10.6046 54.4314 12.366 45.0295 13.3596 41.2106C16.0765 45.1292 18.3464 46.6093 23.483 48.9717C26.6502 50.4274 28.4436 53.4028 28.0519 56.5514C27.6503 59.779 25.0051 62.3645 21.764 62.701L21.764 62.7015Z" fill="#E70C53"/>
<path d="M7.67749 10.7079C8.16215 9.67518 8.26385 8.45072 7.96283 7.25938C7.66181 6.06807 6.99059 5.03885 6.073 4.36136C5.10541 3.64831 3.98561 3.40424 2.91044 3.67446C1.83884 3.94527 0.966613 4.69377 0.45514 5.78222C-0.0295233 6.81431 -0.131222 8.03935 0.169799 9.23069C0.471401 10.422 1.14262 11.4512 2.06082 12.1287C2.77096 12.6529 3.56414 12.9237 4.35976 12.9237C4.64859 12.9237 4.93741 12.8877 5.22217 12.8162C6.2932 12.5448 7.16541 11.7963 7.67748 10.7078L7.67749 10.7079ZM3.04999 10.7875C2.44155 10.3383 1.99232 9.64032 1.78544 8.82148C1.57798 8.00267 1.64132 7.17461 1.96269 6.49057C2.25907 5.86236 2.74025 5.43582 3.31906 5.28938C3.4655 5.25218 3.61544 5.23417 3.76595 5.23417C4.2111 5.23417 4.66555 5.39398 5.08339 5.70197C5.69183 6.15118 6.14105 6.84912 6.34793 7.66736V7.66794C6.55539 8.48675 6.49205 9.31422 6.16952 9.99826C5.8743 10.6265 5.39254 11.0536 4.81432 11.2C4.23435 11.3459 3.60846 11.2 3.05005 10.7874L3.04999 10.7875Z" fill="#E70C53"/>
<path d="M12.1298 6.92029C12.7075 7.34685 13.3543 7.56653 14.0034 7.56653C14.24 7.56653 14.4777 7.53747 14.7118 7.47819C15.5888 7.2562 16.3023 6.64599 16.7191 5.75913C17.1096 4.92868 17.1915 3.94544 16.9503 2.99121C16.4361 0.959578 14.5984 -0.333552 12.8482 0.107558C11.1007 0.549234 10.0977 2.5623 10.6108 4.59394C10.8526 5.54934 11.3918 6.37579 12.1299 6.9203L12.1298 6.92029ZM13.2567 1.72307C13.352 1.69924 13.4479 1.68704 13.5449 1.68704C14.3056 1.68704 15.0832 2.40359 15.3347 3.39911C15.4818 3.98142 15.4382 4.56722 15.2121 5.05019C15.0111 5.47675 14.6891 5.765 14.3044 5.86262C13.9174 5.95967 13.4989 5.85855 13.1206 5.57961C12.6918 5.26289 12.3745 4.76776 12.2274 4.18603C11.9427 3.06442 12.4146 1.93644 13.2566 1.7231L13.2567 1.72307Z" fill="#E70C53"/>
<path d="M23.2869 7.12549C24.9588 7.12549 26.3193 5.54941 26.3193 3.61316C26.3193 1.67616 24.9588 0.10083 23.2869 0.10083C21.6144 0.10083 20.2539 1.67631 20.2539 3.61316C20.2533 5.54956 21.6138 7.12549 23.2869 7.12549ZM23.2869 1.76676C24.0273 1.76676 24.6531 2.61232 24.6531 3.61301C24.6531 4.61373 24.0273 5.45926 23.2869 5.45926C22.5459 5.45926 21.9201 4.6137 21.9201 3.61301C21.9201 2.61229 22.5454 1.76676 23.2869 1.76676Z" fill="#E70C53"/>
<path d="M30.0115 11.4994C30.1748 11.5325 30.3404 11.5482 30.506 11.5482C31.1237 11.5482 31.7432 11.3227 32.2617 10.8991C32.8817 10.3929 33.3158 9.65191 33.4855 8.81219C33.6546 7.97243 33.5419 7.12106 33.1659 6.41497C32.7672 5.6647 32.096 5.14515 31.3231 4.98999C29.7756 4.67848 28.2117 5.88264 27.849 7.67717C27.4875 9.4717 28.458 11.1868 30.0114 11.4994L30.0115 11.4994ZM29.4826 8.00615C29.6448 7.20417 30.2352 6.60615 30.825 6.60615C30.8814 6.60615 30.9384 6.61196 30.9942 6.623C31.38 6.70029 31.5985 7.01528 31.6944 7.19602C31.8862 7.5575 31.9431 8.02649 31.8513 8.48211V8.4827C31.7595 8.9389 31.5253 9.34861 31.208 9.60781C31.0494 9.73741 30.7274 9.94429 30.341 9.86527C29.6988 9.73683 29.306 8.88486 29.4826 8.00617V8.00615Z" fill="#E70C53"/>
<path d="M35.4169 11.6289C33.8752 11.3215 32.3339 12.5123 31.976 14.2888C31.8086 15.1199 31.9213 15.9625 32.2933 16.6616C32.6878 17.4043 33.3532 17.9192 34.1191 18.0732C34.2801 18.1058 34.444 18.1215 34.6079 18.1215C35.2198 18.1215 35.834 17.8983 36.3483 17.4781C36.962 16.9772 37.3914 16.2438 37.5588 15.4127C37.9168 13.6367 36.9562 11.9392 35.4168 11.6288L35.4169 11.6289ZM35.9254 15.0845C35.8353 15.532 35.6057 15.9341 35.2948 16.1875C35.1397 16.3142 34.8264 16.5158 34.4481 16.4391C34.0721 16.3636 33.8583 16.0562 33.7647 15.8789C33.5758 15.5244 33.52 15.0647 33.6101 14.6172C33.7688 13.8309 34.3464 13.2451 34.9235 13.2451C34.9787 13.2451 35.0333 13.251 35.0885 13.262C35.7156 13.3887 36.0985 14.2232 35.9253 15.0845L35.9254 15.0845Z" fill="#E70C53"/>
</svg>
