<svg width="32" height="30" viewBox="0 0 32 30" fill="none" xmlns="http://www.w3.org/2000/svg">
<path d="M15.5556 14.4928C13.4167 14.4928 11.6667 13.8164 10.3056 12.4638C8.94444 11.1111 8.26389 9.37198 8.26389 7.24638C8.26389 5.12077 8.94444 3.38164 10.3056 2.02899C11.6667 0.676329 13.4167 0 15.5556 0C17.6944 0 19.4444 0.676329 20.8056 2.02899C22.1667 3.38164 22.8472 5.12077 22.8472 7.24638C22.8472 9.37198 22.1667 11.1111 20.8056 12.4638C19.4444 13.8164 17.6944 14.4928 15.5556 14.4928ZM0 30V25.4589C0 24.2351 0.30787 23.1884 0.923611 22.3188C1.53935 21.4493 2.33333 20.7891 3.30556 20.3382C5.47685 19.372 7.55903 18.6473 9.55208 18.1643C11.5451 17.6812 13.5463 17.4396 15.5556 17.4396C17.5648 17.4396 19.5579 17.6892 21.5347 18.1884C23.5116 18.6876 25.5856 19.4042 27.7569 20.3382C28.7616 20.7891 29.5718 21.4493 30.1875 22.3188C30.8032 23.1884 31.1111 24.2351 31.1111 25.4589V30H0ZM2.91667 27.1014H28.1944V25.4589C28.1944 24.9436 28.0405 24.4525 27.7326 23.9855C27.4248 23.5185 27.044 23.1723 26.5903 22.9469C24.5162 21.9485 22.6204 21.2641 20.9028 20.8937C19.1852 20.5234 17.4028 20.3382 15.5556 20.3382C13.7083 20.3382 11.9097 20.5234 10.1597 20.8937C8.40972 21.2641 6.51389 21.9485 4.47222 22.9469C4.01852 23.1723 3.64583 23.5185 3.35417 23.9855C3.0625 24.4525 2.91667 24.9436 2.91667 25.4589V27.1014ZM15.5556 11.5942C16.8194 11.5942 17.8646 11.1836 18.691 10.3623C19.5174 9.54106 19.9306 8.50242 19.9306 7.24638C19.9306 5.99034 19.5174 4.95169 18.691 4.13044C17.8646 3.30918 16.8194 2.89855 15.5556 2.89855C14.2917 2.89855 13.2465 3.30918 12.4201 4.13044C11.5937 4.95169 11.1806 5.99034 11.1806 7.24638C11.1806 8.50242 11.5937 9.54106 12.4201 10.3623C13.2465 11.1836 14.2917 11.5942 15.5556 11.5942Z" fill="#0B2C6E"/>
</svg>
