<svg width="318" height="50" viewBox="0 0 318 50" fill="none" xmlns="http://www.w3.org/2000/svg">
<path d="M193.846 20L197.899 5.23733H201.483L205.537 20H203.915L202.849 16.2027H196.534L195.467 20H193.846ZM199.137 6.64533L196.897 14.7307H202.486L200.246 6.64533H199.137ZM211.508 25.0133C209.801 25.0133 208.607 24.7787 207.924 24.3093C207.256 23.8542 206.921 23.0151 206.921 21.792C206.921 21.2089 207.049 20.7324 207.305 20.3627C207.561 20.0071 207.995 19.6018 208.607 19.1467C208.209 18.8764 208.009 18.3858 208.009 17.6747C208.009 17.4329 208.187 16.9849 208.543 16.3307L208.735 15.9893C207.611 15.4773 207.049 14.4036 207.049 12.768C207.049 10.336 208.379 9.12 211.039 9.12C211.721 9.12 212.354 9.19111 212.937 9.33333L213.257 9.39733L216.415 9.312V10.6773L214.388 10.6347C214.857 11.104 215.092 11.8151 215.092 12.768C215.092 14.1049 214.758 15.0436 214.089 15.584C213.435 16.1102 212.397 16.3733 210.975 16.3733C210.591 16.3733 210.242 16.3449 209.929 16.288C209.673 16.9138 209.545 17.3191 209.545 17.504C209.545 17.9449 209.681 18.2222 209.951 18.336C210.221 18.4356 211.039 18.4853 212.404 18.4853C213.769 18.4853 214.751 18.6987 215.348 19.1253C215.945 19.552 216.244 20.384 216.244 21.6213C216.244 23.8827 214.665 25.0133 211.508 25.0133ZM208.5 21.664C208.5 22.4178 208.706 22.9369 209.119 23.2213C209.545 23.52 210.321 23.6693 211.444 23.6693C212.582 23.6693 213.393 23.5129 213.876 23.2C214.374 22.8871 214.623 22.3609 214.623 21.6213C214.623 20.896 214.445 20.4267 214.089 20.2133C213.734 20 213.037 19.8933 211.999 19.8933L209.695 19.7867C209.225 20.128 208.905 20.4267 208.735 20.6827C208.578 20.9387 208.5 21.2658 208.5 21.664ZM208.649 12.768C208.649 13.6071 208.834 14.2044 209.204 14.56C209.588 14.9156 210.214 15.0933 211.081 15.0933C211.949 15.0933 212.568 14.9156 212.937 14.56C213.307 14.2044 213.492 13.6071 213.492 12.768C213.492 11.9147 213.307 11.3102 212.937 10.9547C212.568 10.5991 211.949 10.4213 211.081 10.4213C210.214 10.4213 209.588 10.6062 209.204 10.976C208.834 11.3316 208.649 11.9289 208.649 12.768ZM225.602 18.6773L226.221 18.6133L226.264 19.872C224.642 20.0996 223.256 20.2133 222.104 20.2133C220.568 20.2133 219.48 19.7724 218.84 18.8907C218.2 17.9947 217.88 16.608 217.88 14.7307C217.88 10.9902 219.366 9.12 222.338 9.12C223.775 9.12 224.849 9.52533 225.56 10.336C226.271 11.1324 226.626 12.3911 226.626 14.112L226.541 15.328H219.501C219.501 16.5084 219.714 17.3831 220.141 17.952C220.568 18.5209 221.307 18.8053 222.36 18.8053C223.426 18.8053 224.507 18.7627 225.602 18.6773ZM225.026 14.048C225.026 12.7396 224.813 11.8151 224.386 11.2747C223.974 10.7342 223.291 10.464 222.338 10.464C221.4 10.464 220.689 10.7484 220.205 11.3173C219.736 11.8862 219.494 12.7964 219.48 14.048H225.026ZM230.72 20H229.12V9.33333H230.699V10.08C231.851 9.44 232.953 9.12 234.005 9.12C235.428 9.12 236.38 9.504 236.864 10.272C237.362 11.04 237.611 12.4053 237.611 14.368V20H236.032V14.4107C236.032 12.9316 235.883 11.9218 235.584 11.3813C235.3 10.8267 234.681 10.5493 233.728 10.5493C233.273 10.5493 232.789 10.6204 232.277 10.7627C231.78 10.8907 231.396 11.0187 231.125 11.1467L230.72 11.3387V20ZM239.938 10.7627V9.33333H247.853V10.7627L241.88 18.5707H247.853V20H239.938V18.5707L245.912 10.7627H239.938ZM250.287 20V9.33333H251.887V20H250.287ZM250.287 6.92266V5.06666H251.887V6.92266H250.287ZM262.484 12.5547V18.016C262.527 18.5422 262.939 18.8551 263.721 18.9547L263.657 20.2133C262.534 20.2133 261.688 19.9289 261.119 19.36C259.839 19.9289 258.559 20.2133 257.279 20.2133C256.297 20.2133 255.551 19.936 255.039 19.3813C254.527 18.8267 254.271 18.0302 254.271 16.992C254.271 15.9538 254.534 15.1929 255.06 14.7093C255.586 14.2116 256.411 13.9058 257.535 13.792L260.884 13.472V12.5547C260.884 11.8293 260.728 11.3102 260.415 10.9973C260.102 10.6844 259.675 10.528 259.135 10.528C257.997 10.528 256.816 10.5991 255.593 10.7413L254.932 10.8053L254.868 9.58933C256.432 9.27644 257.819 9.12 259.028 9.12C260.237 9.12 261.112 9.39733 261.652 9.952C262.207 10.5067 262.484 11.3742 262.484 12.5547ZM255.913 16.9067C255.913 18.2151 256.454 18.8693 257.535 18.8693C258.502 18.8693 259.455 18.7058 260.393 18.3787L260.884 18.208V14.688L257.727 14.9867C257.087 15.0436 256.624 15.2284 256.34 15.5413C256.056 15.8542 255.913 16.3093 255.913 16.9067ZM270.328 24.736V9.33333H271.907V10.1013C272.988 9.44711 274.055 9.12 275.107 9.12C276.458 9.12 277.439 9.55378 278.051 10.4213C278.663 11.2747 278.968 12.6898 278.968 14.6667C278.968 16.6436 278.606 18.0658 277.88 18.9333C277.169 19.7867 275.982 20.2133 274.318 20.2133C273.45 20.2133 272.654 20.1351 271.928 19.9787V24.736H270.328ZM274.872 10.5493C274.446 10.5493 273.983 10.6204 273.486 10.7627C273.002 10.9049 272.618 11.0471 272.334 11.1893L271.928 11.4027V18.592C272.938 18.7484 273.706 18.8267 274.232 18.8267C275.384 18.8267 276.188 18.4996 276.643 17.8453C277.112 17.1911 277.347 16.1244 277.347 14.6453C277.347 13.1662 277.134 12.1138 276.707 11.488C276.295 10.8622 275.683 10.5493 274.872 10.5493ZM288.832 18.6773L289.45 18.6133L289.493 19.872C287.872 20.0996 286.485 20.2133 285.333 20.2133C283.797 20.2133 282.709 19.7724 282.069 18.8907C281.429 17.9947 281.109 16.608 281.109 14.7307C281.109 10.9902 282.595 9.12 285.568 9.12C287.004 9.12 288.078 9.52533 288.789 10.336C289.5 11.1324 289.856 12.3911 289.856 14.112L289.77 15.328H282.73C282.73 16.5084 282.944 17.3831 283.37 17.952C283.797 18.5209 284.537 18.8053 285.589 18.8053C286.656 18.8053 287.737 18.7627 288.832 18.6773ZM288.256 14.048C288.256 12.7396 288.042 11.8151 287.616 11.2747C287.203 10.7342 286.521 10.464 285.568 10.464C284.629 10.464 283.918 10.7484 283.434 11.3173C282.965 11.8862 282.723 12.7964 282.709 14.048H288.256ZM292.349 20V9.33333H293.928V10.784C295.165 9.93067 296.466 9.36889 297.832 9.09866V10.72C297.234 10.8338 296.609 11.0116 295.954 11.2533C295.314 11.4951 294.824 11.7084 294.482 11.8933L293.949 12.1707V20H292.349ZM194.998 44V28.6827H196.598V44H194.998ZM199.402 33.568L200.341 28.896H202.026L200.661 33.568H199.402ZM204.689 44V29.2373H206.332V44H204.689ZM215.187 34.72H211.795V39.8187C211.795 41.0418 211.88 41.8453 212.051 42.2293C212.236 42.6133 212.663 42.8053 213.331 42.8053L215.23 42.6773L215.336 44C214.383 44.1564 213.658 44.2347 213.16 44.2347C212.051 44.2347 211.283 43.9644 210.856 43.424C210.43 42.8836 210.216 41.8524 210.216 40.3307V34.72H208.702V33.3333H210.216V30.0693H211.795V33.3333H215.187V34.72ZM224.671 36.5547V42.016C224.714 42.5422 225.127 42.8551 225.909 42.9547L225.845 44.2133C224.721 44.2133 223.875 43.9289 223.306 43.36C222.026 43.9289 220.746 44.2133 219.466 44.2133C218.485 44.2133 217.738 43.936 217.226 43.3813C216.714 42.8267 216.458 42.0302 216.458 40.992C216.458 39.9538 216.721 39.1929 217.247 38.7093C217.774 38.2116 218.599 37.9058 219.722 37.792L223.071 37.472V36.5547C223.071 35.8293 222.915 35.3102 222.602 34.9973C222.289 34.6844 221.863 34.528 221.322 34.528C220.184 34.528 219.004 34.5991 217.781 34.7413L217.119 34.8053L217.055 33.5893C218.62 33.2764 220.007 33.12 221.215 33.12C222.424 33.12 223.299 33.3973 223.839 33.952C224.394 34.5067 224.671 35.3742 224.671 36.5547ZM218.101 40.9067C218.101 42.2151 218.641 42.8693 219.722 42.8693C220.689 42.8693 221.642 42.7058 222.581 42.3787L223.071 42.208V38.688L219.914 38.9867C219.274 39.0436 218.812 39.2284 218.527 39.5413C218.243 39.8542 218.101 40.3093 218.101 40.9067ZM227.956 44V28.6827H229.556V44H227.956ZM232.766 44V33.3333H234.366V44H232.766ZM232.766 30.9227V29.0667H234.366V30.9227H232.766ZM244.963 36.5547V42.016C245.006 42.5422 245.418 42.8551 246.2 42.9547L246.136 44.2133C245.013 44.2133 244.167 43.9289 243.598 43.36C242.318 43.9289 241.038 44.2133 239.758 44.2133C238.776 44.2133 238.03 43.936 237.518 43.3813C237.006 42.8267 236.75 42.0302 236.75 40.992C236.75 39.9538 237.013 39.1929 237.539 38.7093C238.065 38.2116 238.89 37.9058 240.014 37.792L243.363 37.472V36.5547C243.363 35.8293 243.207 35.3102 242.894 34.9973C242.581 34.6844 242.154 34.528 241.614 34.528C240.476 34.528 239.296 34.5991 238.072 34.7413L237.411 34.8053L237.347 33.5893C238.912 33.2764 240.298 33.12 241.507 33.12C242.716 33.12 243.591 33.3973 244.131 33.952C244.686 34.5067 244.963 35.3742 244.963 36.5547ZM238.392 40.9067C238.392 42.2151 238.933 42.8693 240.014 42.8693C240.981 42.8693 241.934 42.7058 242.872 42.3787L243.363 42.208V38.688L240.206 38.9867C239.566 39.0436 239.104 39.2284 238.819 39.5413C238.535 39.8542 238.392 40.3093 238.392 40.9067ZM260.999 28.6827V44H259.421V43.2747C258.326 43.9004 257.245 44.2133 256.178 44.2133C255.609 44.2133 255.111 44.1422 254.685 44C254.258 43.8578 253.86 43.6018 253.49 43.232C252.722 42.464 252.338 41.0489 252.338 38.9867C252.338 36.9102 252.679 35.4169 253.362 34.5067C254.059 33.5822 255.204 33.12 256.797 33.12C257.622 33.12 258.496 33.2124 259.421 33.3973V28.6827H260.999ZM254.727 42.08C254.955 42.3502 255.197 42.5351 255.453 42.6347C255.709 42.7342 256.036 42.784 256.434 42.784C256.847 42.784 257.302 42.72 257.799 42.592C258.311 42.4498 258.71 42.3147 258.994 42.1867L259.421 41.9947V34.7627C258.511 34.592 257.664 34.5067 256.882 34.5067C255.801 34.5067 255.047 34.8551 254.621 35.552C254.194 36.2347 253.981 37.3013 253.981 38.752C253.981 40.4018 254.23 41.5111 254.727 42.08ZM264.099 44V33.3333H265.699V44H264.099ZM264.099 30.9227V29.0667H265.699V30.9227H264.099ZM272.883 49.0133C271.176 49.0133 269.982 48.7787 269.299 48.3093C268.631 47.8542 268.296 47.0151 268.296 45.792C268.296 45.2089 268.424 44.7324 268.68 44.3627C268.936 44.0071 269.37 43.6018 269.982 43.1467C269.584 42.8764 269.384 42.3858 269.384 41.6747C269.384 41.4329 269.562 40.9849 269.918 40.3307L270.11 39.9893C268.986 39.4773 268.424 38.4036 268.424 36.768C268.424 34.336 269.754 33.12 272.414 33.12C273.096 33.12 273.729 33.1911 274.312 33.3333L274.632 33.3973L277.79 33.312V34.6773L275.763 34.6347C276.232 35.104 276.467 35.8151 276.467 36.768C276.467 38.1049 276.133 39.0436 275.464 39.584C274.81 40.1102 273.772 40.3733 272.35 40.3733C271.966 40.3733 271.617 40.3449 271.304 40.288C271.048 40.9138 270.92 41.3191 270.92 41.504C270.92 41.9449 271.056 42.2222 271.326 42.336C271.596 42.4356 272.414 42.4853 273.779 42.4853C275.144 42.4853 276.126 42.6987 276.723 43.1253C277.32 43.552 277.619 44.384 277.619 45.6213C277.619 47.8827 276.04 49.0133 272.883 49.0133ZM269.875 45.664C269.875 46.4178 270.081 46.9369 270.494 47.2213C270.92 47.52 271.696 47.6693 272.819 47.6693C273.957 47.6693 274.768 47.5129 275.251 47.2C275.749 46.8871 275.998 46.3609 275.998 45.6213C275.998 44.896 275.82 44.4267 275.464 44.2133C275.109 44 274.412 43.8933 273.374 43.8933L271.07 43.7867C270.6 44.128 270.28 44.4267 270.11 44.6827C269.953 44.9387 269.875 45.2658 269.875 45.664ZM270.024 36.768C270.024 37.6071 270.209 38.2044 270.579 38.56C270.963 38.9156 271.589 39.0933 272.456 39.0933C273.324 39.0933 273.943 38.9156 274.312 38.56C274.682 38.2044 274.867 37.6071 274.867 36.768C274.867 35.9147 274.682 35.3102 274.312 34.9547C273.943 34.5991 273.324 34.4213 272.456 34.4213C271.589 34.4213 270.963 34.6062 270.579 34.976C270.209 35.3316 270.024 35.9289 270.024 36.768ZM279.724 44V33.3333H281.324V44H279.724ZM279.724 30.9227V29.0667H281.324V30.9227H279.724ZM289.916 34.72H286.524V39.8187C286.524 41.0418 286.609 41.8453 286.78 42.2293C286.965 42.6133 287.392 42.8053 288.06 42.8053L289.959 42.6773L290.065 44C289.113 44.1564 288.387 44.2347 287.889 44.2347C286.78 44.2347 286.012 43.9644 285.585 43.424C285.159 42.8836 284.945 41.8524 284.945 40.3307V34.72H283.431V33.3333H284.945V30.0693H286.524V33.3333H289.916V34.72ZM299.401 36.5547V42.016C299.443 42.5422 299.856 42.8551 300.638 42.9547L300.574 44.2133C299.45 44.2133 298.604 43.9289 298.035 43.36C296.755 43.9289 295.475 44.2133 294.195 44.2133C293.214 44.2133 292.467 43.936 291.955 43.3813C291.443 42.8267 291.187 42.0302 291.187 40.992C291.187 39.9538 291.45 39.1929 291.977 38.7093C292.503 38.2116 293.328 37.9058 294.451 37.792L297.801 37.472V36.5547C297.801 35.8293 297.644 35.3102 297.331 34.9973C297.018 34.6844 296.592 34.528 296.051 34.528C294.914 34.528 293.733 34.5991 292.51 34.7413L291.849 34.8053L291.785 33.5893C293.349 33.2764 294.736 33.12 295.945 33.12C297.154 33.12 298.028 33.3973 298.569 33.952C299.123 34.5067 299.401 35.3742 299.401 36.5547ZM292.83 40.9067C292.83 42.2151 293.37 42.8693 294.451 42.8693C295.418 42.8693 296.371 42.7058 297.31 42.3787L297.801 42.208V38.688L294.643 38.9867C294.003 39.0436 293.541 39.2284 293.257 39.5413C292.972 39.8542 292.83 40.3093 292.83 40.9067ZM302.685 44V28.6827H304.285V44H302.685ZM314.748 42.6773L315.367 42.6133L315.41 43.872C313.788 44.0996 312.402 44.2133 311.25 44.2133C309.714 44.2133 308.626 43.7724 307.986 42.8907C307.346 41.9947 307.026 40.608 307.026 38.7307C307.026 34.9902 308.512 33.12 311.484 33.12C312.921 33.12 313.995 33.5253 314.706 34.336C315.417 35.1324 315.772 36.3911 315.772 38.112L315.687 39.328H308.647C308.647 40.5084 308.86 41.3831 309.287 41.952C309.714 42.5209 310.453 42.8053 311.506 42.8053C312.572 42.8053 313.653 42.7627 314.748 42.6773ZM314.172 38.048C314.172 36.7396 313.959 35.8151 313.532 35.2747C313.12 34.7342 312.437 34.464 311.484 34.464C310.546 34.464 309.835 34.7484 309.351 35.3173C308.882 35.8862 308.64 36.7964 308.626 38.048H314.172Z" fill="white"/>
<g clip-path="url(#clip0_3242_19519)">
<path d="M47.0215 44.642L56.2866 3.46484H72.1365L81.4016 44.642H73.03L71.4086 37.1943H56.9815L55.3601 44.642H47.0215ZM62.7722 10.3498L58.6029 29.9122H69.8533L65.684 10.3498H62.7722Z" fill="white"/>
<path d="M103.474 29.8436V22.5614H115.453V43.9444C109.695 44.8712 104.996 45.3346 101.39 45.3346C94.9701 45.3346 90.5692 43.6134 88.1536 40.1709C85.7381 36.7285 84.5469 31.3 84.5469 23.8193C84.5469 16.3385 85.8043 10.9431 88.286 7.63306C90.8008 4.323 95.0363 2.66797 101.059 2.66797C104.798 2.66797 108.868 3.09828 113.236 3.92579L115.42 4.3561L115.188 10.8438C110.357 10.3142 106.386 10.0494 103.276 10.0494C100.198 10.0494 98.0144 10.4135 96.757 11.1417C95.4995 11.8699 94.573 13.2271 94.0105 15.18C93.4149 17.1329 93.1171 20.4761 93.1171 25.2426C93.1171 29.976 93.7127 33.3191 94.8709 35.2059C96.029 37.0926 98.4776 38.0525 102.151 38.0525L107.213 37.8539V29.8436H103.474Z" fill="white"/>
<path d="M123.324 44.642V3.46484H131.696V44.642H123.324Z" fill="white"/>
<path d="M154.495 44.6367H140.631V3.45959H154.495C158.036 3.45959 160.981 3.8237 163.264 4.58501C165.58 5.34633 167.367 6.57105 168.625 8.29228C169.882 10.0135 170.776 12.0326 171.272 14.3497C171.768 16.6667 172 19.6789 172 23.4193C172 27.1265 171.768 30.2049 171.338 32.6543C170.908 35.1038 170.048 37.2884 168.823 39.2082C167.599 41.1281 165.812 42.5183 163.463 43.3789C161.113 44.2064 158.135 44.6367 154.495 44.6367ZM163.297 28.285C163.363 26.9941 163.43 25.2067 163.43 22.9227C163.43 20.6388 163.363 18.8183 163.198 17.428C163.033 16.0709 162.669 14.8131 162.04 13.6877C161.444 12.5623 160.551 11.7678 159.36 11.3706C158.168 10.9403 156.547 10.7417 154.562 10.7417H149.036V37.3877H154.562C157.573 37.3877 159.79 36.6264 161.146 35.0707C162.271 33.8128 162.999 31.562 163.297 28.285Z" fill="white"/>
<path d="M29.0537 30.7037C29.285 30.7037 29.5823 30.8361 29.4171 30.9354C29.285 31.0347 29.285 31.2995 29.1528 31.4651C28.9215 31.4651 28.7894 31.3326 28.6242 31.1009C28.5912 30.9354 28.7233 30.7699 28.9215 30.7368H29.0537V30.7037Z" fill="white"/>
<path d="M12.2423 35.9665C12.4409 36.0989 12.6725 36.0989 12.871 35.9665L12.6394 35.7348L12.2423 35.47C12.0107 35.3376 11.8783 35.47 11.7129 35.7017L12.2423 35.9665Z" fill="white"/>
<path d="M23.1309 43.2506C23.1309 43.383 23.1309 43.4823 23.2633 43.4823C23.3626 43.5816 23.495 43.6147 23.6274 43.6147L23.1309 43.2506Z" fill="white"/>
<path d="M37.656 22.5275C37.7884 21.7662 37.656 21.2696 37.4244 21.0048C37.1928 20.7731 36.7957 20.8724 36.2994 21.2365C36.0677 21.1041 35.6706 21.2365 35.3067 21.6007C35.439 21.4683 35.439 21.2696 35.3067 21.071C35.6706 20.9386 35.9354 20.8393 36.0677 20.4421C36.2001 20.078 36.2994 19.8132 36.2001 19.4491C36.3324 18.9195 36.7295 18.4561 36.9611 17.9265C37.3251 17.1652 37.0935 16.9335 36.3324 17.1652C36.6302 16.9335 36.895 16.5363 36.9611 16.1722C36.9611 15.8081 36.8288 15.4439 36.5972 15.1791C36.4648 14.9474 36.3655 14.9474 36.0677 15.0467C36.167 14.9143 36.2001 14.7488 36.2001 14.5171C36.0677 13.9875 35.9685 13.6234 35.8361 13.16C35.8361 12.2663 35.6045 11.9353 35.2074 12.0346C35.2074 11.505 34.9758 11.1409 34.678 10.6775C34.314 10.1478 34.0493 9.91614 33.7845 10.3134C33.1558 9.41964 32.6595 9.05553 32.1301 9.18793C32.1301 8.82383 31.9977 8.45972 31.7661 8.19491C31.8653 7.69841 31.733 7.2019 31.4021 6.83779C31.1705 6.70539 30.8726 6.83779 30.7734 7.3674C30.7734 7.03639 30.6741 6.63919 30.5087 6.34128C30.4425 6.01027 30.1447 5.71237 29.7476 5.71237H29.3836C29.2182 5.54687 28.9865 5.48066 28.7549 5.48066C28.2255 4.95106 27.7622 4.85175 27.3982 5.34826V4.88485C27.2659 4.35524 26.8688 4.25594 26.5048 4.52075C25.9423 3.95804 25.3136 3.49463 24.6187 3.16362C24.1885 2.99812 23.8246 2.99812 23.6922 3.29603C23.4937 3.09742 23.1958 2.96502 22.9311 2.93192C22.6333 2.86572 22.4017 2.79952 22.1701 2.66711C21.8061 2.66711 21.6406 2.79952 21.6406 3.29603C21.2766 3.32913 20.8796 3.39533 20.5156 3.52773C20.284 3.66013 20.284 3.89184 20.3832 4.15664C20.5487 4.42145 20.7472 4.68625 21.0119 4.91795C20.8796 5.05036 20.8796 5.14966 20.8796 5.44756C20.8796 5.67927 21.1112 5.81167 21.6406 5.97717C21.9384 6.10958 22.3355 6.10958 22.6333 5.97717C22.5341 6.20888 22.6333 6.50678 22.8319 6.60609C22.8319 6.60609 22.865 6.60609 22.865 6.63919H22.9973C23.3613 7.13569 24.0562 7.3012 24.6518 7.00329L24.4863 7.4667L25.3798 7.79771C25.3798 8.19491 25.6114 8.55902 26.0085 8.69142L26.5379 8.82383C26.4055 8.82383 26.1739 9.05553 26.1739 9.05553C26.0416 9.18793 26.0416 9.38654 26.1739 9.58514C26.2401 9.65134 26.3394 9.68444 26.4055 9.71754H27.5306C27.5306 9.84994 27.663 9.94925 27.663 10.0816C27.7953 10.3134 27.9608 10.512 28.1924 10.7106C28.5233 10.9754 28.9204 11.2071 29.3174 11.3395C29.1851 11.5712 29.1851 11.7036 29.0858 11.9684C28.9534 12.3325 28.9534 12.7297 29.0858 13.0938C28.9534 13.16 28.8211 13.2262 28.7218 13.3255C28.4902 13.6896 28.9534 14.3185 29.0858 14.5833C28.9865 14.5833 28.9204 14.6495 28.8542 14.7157C28.6226 14.8481 28.7218 15.6094 29.3836 15.7087C29.7807 15.9405 30.1778 16.2715 30.5087 16.6025L31.0381 17.3638C31.2697 17.7279 31.2697 17.8934 31.6668 17.8934C31.9977 18.9526 32.5271 19.9456 33.1889 20.8724C33.5529 21.2034 33.8176 21.6338 33.95 22.1303C33.95 22.362 33.8176 22.6599 33.95 22.8916C33.8838 23.5867 33.7514 24.2156 33.586 24.8776C32.9573 24.6459 32.8249 25.01 32.6926 25.4072C32.5602 25.341 32.3948 25.4072 32.3286 25.5396C32.2955 25.2748 32.0308 25.1093 31.7661 25.1424C31.733 25.1424 31.6999 25.1424 31.6999 25.1755C31.5675 25.3079 31.4683 25.3079 31.3359 25.4072C31.1374 25.3079 31.1043 25.1755 31.1043 25.0431V24.2818C31.2366 24.1494 31.2366 24.0501 31.3359 23.9177C31.4683 23.1895 31.4352 22.4613 31.2035 21.7993C31.2035 21.6007 31.0381 21.4352 30.8396 21.4352C30.8396 21.4352 30.4756 21.4352 30.3101 21.6669C30.3101 21.5345 30.0785 21.4352 29.9461 21.4352C29.4167 21.3028 28.9534 22.1965 28.9534 23.1895C28.5895 22.9578 28.06 23.0571 28.1924 23.4212C28.3247 24.0501 29.3174 25.3079 29.3174 25.8044C29.0858 25.5727 28.3247 25.5727 28.3247 26.1685C28.3578 26.4333 28.424 26.6981 28.5564 26.9299C28.424 27.6912 29.1851 28.1877 29.913 28.8166C29.88 28.9821 29.9461 29.1476 30.0454 29.3462C29.913 29.5779 29.152 30.7033 29.152 30.7033C29.152 30.7033 28.5233 30.4716 28.3909 30.5709C28.2586 30.6702 28.1593 30.935 28.0269 31.1005L28.1593 31.9942C28.1924 32.4245 28.0269 32.8549 27.6299 33.1197C27.299 33.4507 27.0012 33.8479 26.7364 34.2451C26.571 34.6423 26.2401 34.9733 25.843 35.1388L25.479 34.7416C25.479 34.7416 25.3467 34.6092 25.3467 34.7416C24.2878 35.1388 23.2951 35.6353 22.3355 36.2642C21.8061 36.5952 21.4421 37.0917 21.2105 37.6213H20.3501L19.5891 36.86C19.2582 36.7276 18.8611 36.7607 18.5964 36.9924C18.1 36.8931 17.6368 36.9593 17.2397 37.2241C17.0412 37.3234 16.8426 37.3565 16.611 37.3565L15.486 36.0987C14.2947 35.4698 13.0042 35.0726 11.7137 34.8409C11.4821 34.9733 11.3498 35.205 11.1843 35.3705C10.8203 35.1388 10.4563 34.8409 10.1916 34.4768L9.56291 33.7155C9.19892 33.3183 8.93421 32.7887 8.93421 32.1928L9.03348 31.5308C9.03348 31.3984 9.03348 31.2991 8.90112 31.2991C8.73567 31.1336 8.50404 31.0674 8.27241 31.0674C8.27241 31.0674 8.14006 31.0674 8.04079 31.4315C8.04079 31.5639 7.27972 30.4385 7.27972 30.4385C7.64371 29.942 7.94152 29.4124 8.04079 28.8166C8.17314 28.0553 8.27241 27.4595 8.40477 26.6981C8.40477 26.6319 8.47095 26.5657 8.50404 26.5657C9.03348 25.5396 9.2651 24.348 9.13275 23.1564C9.06657 23.0571 9.03348 22.9247 9.00039 22.7923H8.86803L9.00039 22.5606C9.13275 22.3289 9.13275 22.3289 9.00039 22.1965C8.73567 22.1634 8.47095 22.2296 8.23932 22.3289L7.80916 21.071H7.6768C7.0481 21.7 6.65102 22.4944 6.55175 23.3219L6.45248 23.4543C5.62524 24.4804 4.99654 25.672 4.66564 26.963C4.53328 26.7312 4.43401 26.334 4.30166 26.0692C4.20239 25.8375 4.1693 25.5727 4.1693 25.3079C4.30166 25.0762 4.30166 24.7783 4.03694 24.679C3.77222 24.017 3.54059 23.3881 3.40823 22.693C3.54059 22.1634 3.63986 21.7 3.77222 21.3359C4.13621 20.5745 4.53328 19.6808 4.89727 18.9526C4.89727 18.9526 5.1289 18.7209 5.26126 18.7209C6.02232 18.4892 9.56291 14.0868 9.16583 11.9684C9.79454 10.9754 10.2909 9.98235 10.8203 8.95623H11.0519L11.2836 8.82383C12.0446 8.59212 12.6402 8.19491 13.302 7.93011L14.1955 7.4336C14.8573 7.2019 15.4529 6.77159 15.9823 6.30818C16.5117 5.91097 16.8757 5.31516 16.975 4.65315C16.8426 4.42145 16.611 4.42145 16.0816 4.42145C16.3132 4.15664 16.4456 3.79253 16.4456 3.42843C16.2139 3.19672 15.6845 3.19672 14.6587 3.29603C13.666 3.52773 12.7395 3.95804 11.9123 4.52075C10.3571 5.51377 9.16583 6.90399 8.37168 8.52592L8.90112 7.5329C9.13274 7.00329 9.43055 6.40748 9.66218 5.77857C9.79454 5.54687 9.79454 5.24896 9.66218 5.01726C9.56291 4.91795 9.43055 4.91795 9.16583 4.91795C8.6364 5.11656 8.20623 5.44756 7.80916 5.81167C7.0481 6.57298 6.45248 7.4667 6.05541 8.45972C5.62524 9.22103 5.22817 10.0154 4.93036 10.843C5.06272 10.2472 5.06272 9.68444 4.93036 9.08863C4.93036 8.95623 4.69873 8.85693 4.40092 8.95623C4.13621 9.15483 3.90458 9.45274 3.73913 9.71754C3.5075 10.0816 3.2097 10.3465 2.97807 10.7106C2.71335 11.1078 2.41554 11.5381 2.21701 11.9353C1.85302 12.5642 1.55521 13.2262 1.45594 13.9213C1.19123 14.9474 1.02578 15.9736 0.92651 17.0328C0.860331 17.9265 0.893421 18.7871 1.05887 19.6808C1.19123 20.409 1.42286 21.1372 1.68757 21.7993C1.85302 22.0972 2.11774 22.3951 2.44863 22.5606C2.58099 22.9247 2.68026 23.4543 2.97807 24.2156C3.07734 24.4804 3.14352 24.8114 3.11043 25.1093C3.07734 25.2417 3.14352 25.3741 3.24279 25.4734C3.40823 25.5727 3.5075 25.7713 3.5075 26.003C3.63986 26.7643 4.03694 27.3602 4.26857 27.9891C4.26857 28.3532 4.13621 28.618 4.13621 28.9821C3.30897 26.963 2.84571 25.341 2.31628 24.2156C1.42286 22.3289 0.794152 21.4683 0.297807 21.5676C0.231628 21.5345 0 21.7993 0 22.1634V23.1564C0 23.7853 0.132359 24.2818 0.132359 24.9107C0.463255 26.7643 1.25741 28.4856 2.38246 29.942L4.03694 31.8287C4.36783 32.0273 4.73182 32.3252 5.02963 32.5901C5.29434 32.7556 5.62524 32.7887 5.92305 32.7225C6.32012 33.3845 6.78338 33.9803 7.27972 34.6092C7.64371 35.1388 8.04079 35.5029 8.40477 35.3705C8.50404 35.7015 8.80185 35.9332 9.16583 35.9001H9.596C9.95999 36.2973 10.4232 36.6945 10.8534 37.0255L10.4894 38.2834C9.82763 38.3827 9.16583 38.4158 8.47095 38.4158C7.84225 38.0517 7.11428 37.4227 5.92305 36.6614V35.3043C5.88996 34.9402 5.95614 34.5099 6.15468 34.1789C6.12159 33.9141 5.98923 33.6162 5.79069 33.4176C5.55906 33.1859 5.02963 33.0535 4.89727 33.1859C4.76491 33.3183 4.89727 33.3183 4.89727 33.4176V33.6493C4.89727 33.5169 4.89727 33.5169 5.02963 33.5169C5.65833 33.6493 5.92305 33.881 5.92305 34.1458C5.72451 34.4768 5.65833 34.874 5.69142 35.2712V36.3966C4.89727 35.867 4.03694 35.4036 3.14352 35.0395H3.5075C3.63986 35.0395 3.73913 35.0395 3.73913 34.9071C3.73913 34.7747 3.73913 34.7747 3.5075 34.7747C3.2097 34.7416 2.8788 34.8078 2.61408 34.9071C2.51481 34.9733 2.48172 35.1057 2.5479 35.205C2.5479 35.2381 2.58099 35.2381 2.61408 35.2712C3.60677 35.8008 4.50019 36.2642 5.52597 36.9262C6.55175 37.5551 7.57753 38.1841 8.53713 38.9123C9.29819 38.9123 10.1916 38.7799 11.449 38.6806L13.3351 38.3165C14.0962 38.1841 14.9896 38.0848 15.883 37.9523C16.247 37.853 16.6441 37.8199 17.0081 37.8199C17.4382 37.853 17.9346 37.7868 18.3648 37.6875C18.6957 38.2834 18.9935 38.8792 19.1258 39.5743C19.1258 39.806 19.1258 40.1039 18.9935 40.1039C17.7361 40.6335 16.4456 40.9976 15.2212 41.3617L13.1035 41.8913C11.5814 42.123 9.95999 42.4209 8.43786 42.5202C7.31281 41.9906 6.18777 41.3948 5.02963 40.7659C4.03694 40.2363 3.14352 39.5081 2.2501 38.8792C1.35668 38.2503 1.25741 37.8861 1.25741 37.7537C1.62139 37.2241 1.9192 36.6283 2.01847 35.9994V35.4698C1.88611 34.9402 2.01847 34.7085 2.38246 34.7085H4.40092C4.53328 34.7085 4.63255 34.7085 4.63255 34.5761L4.99654 33.9472L4.83109 33.7817L4.59946 34.3113V34.4437H2.41554C2.21701 34.4437 2.05156 34.543 1.88611 34.6754C1.75375 34.9402 1.75375 35.2712 1.88611 35.5691V35.9332C1.68757 36.5621 1.35668 37.1248 0.99269 37.6875C0.99269 37.853 1.02578 38.0186 1.12505 38.2172C1.35668 38.5813 1.65448 38.9454 2.01847 39.2102C2.2501 39.4419 2.64717 39.7398 2.91189 39.9715C3.60677 40.4018 4.33474 40.8652 5.06272 41.2293C6.18777 41.8582 7.31281 42.4871 8.47095 42.9836C8.70258 42.9836 10.2247 42.7519 13.0042 42.3547V42.5864C12.2432 43.2153 11.7468 43.4801 11.4821 43.3477C11.2505 43.2153 11.1181 43.5794 11.2505 44.1091C11.3828 44.3408 11.4821 44.4732 11.7799 44.4732L12.0115 44.7049L12.7726 45.2345C13.0373 45.3669 13.4013 45.3669 13.666 45.2345C13.9307 45.1352 14.0962 44.9035 14.1955 44.6056L14.3278 44.4732L15.2212 43.5795L15.8499 43.0829C16.2139 43.0498 16.611 42.8843 16.8757 42.5533C16.8757 42.3547 16.975 42.1892 17.1074 42.0237L17.8684 41.4941C17.8684 41.3617 18.2324 41.4941 18.8611 41.8582C19.0927 41.9906 19.3905 41.9906 19.6222 41.8582L20.2509 41.4941C21.3097 41.9906 22.2362 42.6526 23.0304 43.4802C23.0304 43.6126 23.0304 43.7119 23.262 44.0098C23.4937 44.2415 23.8246 44.3739 24.1554 44.3739L24.3871 45.0028L24.6187 45.1352C25.115 45.1683 25.5452 44.9697 25.8761 44.6056L26.4055 44.4732C26.6372 44.3739 26.7695 44.1091 26.7695 43.8443L26.5379 43.7119L26.1739 43.5795C25.5783 43.3146 25.0489 42.9836 24.5194 42.5864L24.1554 42.3547C26.1408 42.6526 28.1593 42.8843 30.2109 42.9836C30.7072 43.0167 31.1374 42.8181 31.4683 42.454C31.9977 42.0899 33.4867 40.9314 36.0015 39.1771C36.3655 38.7799 36.6633 38.3165 36.895 37.8199C36.6302 37.5882 36.3986 37.2572 36.2663 36.9262C36.1339 36.6283 36.0346 36.2642 36.0346 35.9332V35.3043C36.0346 35.0726 36.0346 34.9402 35.803 34.7747C35.6706 34.6423 35.5052 34.5761 35.2736 34.543H33.6191C33.3875 34.543 33.0897 34.4106 33.0897 34.3113V33.55C33.0897 33.3183 33.0897 33.1859 32.858 33.3183C32.4279 33.4176 31.9977 33.5831 31.6006 33.8479C31.4352 33.9803 31.4021 34.2451 31.5675 34.4437L31.6006 34.4768C31.7661 34.5761 31.8322 34.7747 31.8322 35.0064C31.7992 35.7015 31.733 36.3304 31.6006 36.9924C30.9057 37.6544 30.1447 38.1841 29.3505 38.6475C28.6226 38.7137 27.8946 38.6806 27.1997 38.5151C26.9019 38.2172 26.7034 37.8199 26.6703 37.3896C27.0673 37.1248 27.4975 36.86 27.9277 36.6283L28.6887 36.4959C28.9204 36.4959 28.9204 36.2642 28.9204 35.9663C29.152 35.8339 29.2843 35.7346 29.2843 35.4367L30.5418 33.9141C30.9057 33.5831 31.4021 33.3514 31.8984 33.2852C32.7588 33.1528 33.586 32.7887 34.314 32.2921C34.4463 32.0935 34.4463 31.8618 34.314 31.6632C34.8434 31.2991 35.3067 30.8026 35.6706 30.3061C35.9354 29.9751 36.0015 29.4455 35.803 29.0483C36.3324 28.5518 36.6633 27.9891 36.8288 27.294C36.9611 26.8968 36.9611 26.4333 36.8288 26.0361C37.0604 25.9037 37.259 25.7382 37.4575 25.5065C37.7222 25.1755 37.6891 24.6459 37.3582 24.3811C37.8546 23.9177 37.9207 23.1564 37.656 22.5275ZM16.6772 4.62005C16.6441 4.98416 16.4786 5.38136 16.1478 5.61307C15.519 6.14268 14.8573 6.60609 14.1293 6.97019C13.1366 7.3343 12.1439 7.79771 11.2174 8.32732V8.19491C12.5079 7.13569 13.8977 6.20888 15.3536 5.44756C15.7176 5.21586 15.5852 5.21586 15.2212 5.31516C14.6587 5.54687 14.1624 5.84477 13.6991 6.20888L10.9527 7.86391V7.6322C12.2101 6.47368 13.666 5.51377 15.2543 4.75245C15.7176 4.52075 16.1808 4.48765 16.6772 4.62005ZM11.6476 5.14966C12.4748 4.42145 13.4675 3.92494 14.5594 3.62703C14.9896 3.49463 15.4529 3.39533 15.9161 3.39533C16.1478 3.39533 16.1478 3.52773 16.0485 3.75943L15.5521 4.38835C14.8903 4.48765 14.3278 4.75245 13.7653 5.14966C12.905 5.71237 12.0446 6.27508 11.2174 6.90399L11.085 7.03639C10.7872 7.03639 10.4563 7.13569 10.1916 7.2681C11.2836 6.27508 12.4417 5.41446 13.7322 4.62005C14.1624 4.45455 14.5594 4.25594 14.8903 3.99114C14.394 4.12354 13.9307 4.32214 13.5337 4.62005C12.541 5.24896 11.5152 5.84477 10.5225 6.60609L9.16583 7.83081C9.89381 6.87089 10.721 5.94407 11.5814 5.08346C11.5152 5.11656 11.6476 5.14966 11.6476 5.14966ZM10.2578 7.6322C10.3902 7.4998 10.4894 7.4998 10.7872 7.4998V8.12871C10.6549 8.72452 10.4563 9.25413 10.1585 9.78374L9.39746 11.4388C8.76876 11.5381 8.23932 11.7698 7.74298 12.2001C7.97461 11.6705 8.37168 11.2071 8.73567 10.5451C9.09966 9.91614 9.72836 9.02243 10.4894 7.89701C10.6218 7.6653 10.6218 7.6653 10.4894 7.76461C10.1254 8.12871 9.76145 8.55902 9.49673 9.02243C8.9673 9.78374 8.23932 10.9092 7.24663 12.5311C7.01501 12.8952 6.35321 13.7889 5.36052 15.2784L5.49288 14.9143L6.84956 12.5311L8.10697 10.1478C8.60331 9.18793 9.36437 8.32732 10.2578 7.6322ZM4.798 13.1269C5.59215 11.8029 6.32012 10.4127 6.94883 9.02243C7.21354 8.36042 7.64371 7.79771 8.07388 7.2681C8.20623 6.90399 8.07388 6.90399 7.84225 7.2681C6.84956 8.55902 5.98923 10.0154 5.29434 11.5381L5.65833 10.4127C5.88996 9.88304 6.02232 9.28723 6.41939 8.75762C6.7172 8.09561 7.11428 7.4667 7.54444 6.87089C7.80916 6.57298 8.07388 6.20888 8.3055 5.87787C8.53713 5.61307 8.86803 5.38136 9.19892 5.24896C9.2651 5.31516 9.29819 5.38136 9.33128 5.48066L8.20623 8.36042C7.41208 9.94925 6.41939 11.3726 5.29434 12.7628C4.76491 13.2924 4.53328 13.6565 4.40092 13.7558C4.26857 13.8551 4.1693 13.9875 4.1693 14.1199L4.30166 13.7558C4.33474 13.7558 4.798 13.1269 4.798 13.1269ZM5.32743 15.6425L4.56637 17.1652H4.43401L4.798 15.6425H5.32743ZM3.67295 19.416L3.77222 18.7871L3.90458 18.1582L4.26857 18.0258L3.73913 19.2505L3.5075 20.2435C3.54059 20.2766 3.67295 19.416 3.67295 19.416ZM3.40823 17.0659L3.77222 15.1791L3.90458 15.4108L3.40823 17.0659ZM2.5479 21.4021V21.2696C2.5479 20.3759 2.71335 19.4822 3.07734 18.6216C2.77953 19.9456 2.64717 20.8062 2.5479 21.4021ZM2.2501 20.1773C2.15083 18.8533 2.21701 17.5624 2.51481 16.3046C2.68026 14.8812 3.01116 13.5241 3.5075 12.2001C3.73913 11.836 3.73913 11.6705 3.5075 11.9684C2.48172 14.0868 1.88611 16.4701 1.85302 18.8202C1.81993 19.5484 1.88611 20.3097 1.98538 21.071C2.11774 21.6007 2.21701 21.8324 2.51481 21.9648C2.58099 22.0641 2.74644 22.0972 2.84571 21.9979C2.8788 21.9979 2.8788 21.9648 2.8788 21.9648C2.91189 22.1303 2.84571 22.2958 2.74644 22.4944C2.41554 22.2958 2.11774 21.9648 1.98538 21.6007C1.75375 21.071 1.62139 20.5414 1.45594 19.9456C1.25741 19.085 1.15814 18.1913 1.22432 17.2976C1.32359 16.2053 1.48903 15.1129 1.75375 14.0206C2.11774 12.3656 3.01116 11.0085 4.00385 9.75064C4.23548 9.51894 4.36783 9.38654 4.53328 9.51894V11.2733C4.43401 11.9353 4.26857 12.5311 4.00385 13.16C3.63986 14.4178 3.24279 15.8081 3.01116 17.0328C2.77953 17.8934 2.5479 19.0519 2.2501 20.1773ZM2.91189 22.4282V22.0641C3.27588 21.5345 3.57368 20.9386 3.67295 20.3097L4.43401 18.3237L5.32743 16.2053C5.92305 15.0467 6.61793 13.9544 7.47826 12.9283C7.74298 12.3987 8.27241 12.0346 8.83494 11.9353C8.9673 12.0677 8.9673 12.2994 8.83494 12.829C8.70258 13.3586 8.47095 13.822 8.3055 14.3516C7.57753 15.775 6.61793 17.099 5.52597 18.2244L7.08119 15.7087L7.84225 14.3516C8.07388 13.822 8.07388 13.5903 7.84225 13.7227C6.32012 16.106 5.4267 17.4962 5.19508 18.1251C4.96345 18.754 4.56637 19.2505 4.30166 19.7801C4.03694 20.1111 3.80531 20.5083 3.67295 20.9055C3.54059 21.369 3.30897 21.9648 2.91189 22.4282ZM8.9673 23.2888C8.86803 24.1494 8.70258 24.9769 8.43786 25.8044C8.47095 25.2417 8.40477 24.7121 8.3055 24.1494L8.53713 23.4874C8.53713 23.2557 8.53713 23.2557 8.40477 23.4874L8.33859 23.7522V23.2557L8.70258 22.8916C8.9673 22.693 8.9673 22.8254 8.9673 23.2888ZM8.57022 22.0641C8.80185 22.0641 8.80185 22.0641 8.70258 22.2958L8.33859 22.9247C8.33859 22.693 8.20623 22.5606 8.20623 22.2958C8.33859 22.1634 8.47095 22.1634 8.57022 22.0641ZM6.81647 23.0571C7.0481 21.7993 7.44517 21.1703 7.70989 21.071C7.94152 21.8324 8.07388 22.6599 8.07388 23.4543C8.20623 24.4804 8.20623 25.5396 8.07388 26.5657C8.07388 27.3933 7.84225 28.2208 7.44517 28.949L7.18046 29.611V24.9769C7.18046 23.9839 7.31281 22.9909 7.41208 21.7V21.5345C7.18046 23.1233 7.0481 24.679 7.0481 26.3009V29.3131L6.81647 28.9159C6.61793 27.8567 6.51866 26.7643 6.58484 25.6389C6.61793 24.8114 6.68411 23.9177 6.81647 23.0571ZM4.89727 26.8305C5.22817 25.6058 5.82378 24.4142 6.65102 23.4212C6.48557 23.8515 6.35321 24.3149 6.28703 24.7783C5.65833 25.8706 5.16199 27.0292 4.76491 28.287C4.63255 28.6511 4.63255 29.1807 4.53328 29.5448C4.56637 28.6511 4.69873 27.7243 4.89727 26.8305ZM6.28703 28.7173L5.7576 28.0884L6.12159 27.1947C6.15468 27.6912 6.22086 28.2208 6.28703 28.7173ZM10.8534 37.9854L11.085 37.0917L12.0777 37.7206L10.8534 37.9854ZM13.3351 37.6213L11.5814 36.5952L10.0593 35.6022L9.82763 35.2381C9.72836 35.1388 9.596 35.1057 9.46364 35.1057C9.33128 35.2381 9.23201 35.1057 9.09966 34.874C8.70258 35.1057 8.14006 35.0064 7.84225 34.6423L7.08119 33.7486L6.45248 32.6232L6.0885 32.3915C5.92305 32.4577 5.82378 32.4577 5.55906 32.4577C5.16199 32.3914 4.798 32.1597 4.56637 31.8287C4.07003 31.1005 3.67295 30.3392 3.30897 29.5779C2.64717 28.3201 2.05156 26.9299 1.38977 25.7051C1.15814 24.9438 1.02578 24.4473 0.860331 24.348C0.694883 24.2487 0.727972 24.1163 0.727972 24.348C0.860331 24.7121 0.860331 25.2417 1.09196 25.6058C1.45594 26.5988 1.85302 27.4926 2.21701 28.3532C2.74644 29.3462 3.2097 30.2399 3.73913 31.1005C2.77953 30.1406 1.98538 29.0152 1.32359 27.8236C0.827241 26.8968 0.529434 25.9368 0.330897 24.9438C0.231628 24.5135 0.198538 24.017 0.198538 23.5867V22.4944C0.330897 22.1965 0.330897 22.1965 0.496345 22.1965C0.661793 22.1965 0.727972 22.4282 1.12505 22.8254C1.68757 23.7191 2.08465 24.7121 2.38246 25.7051C2.91189 27.2278 3.27588 28.2208 3.37514 28.5849C3.47441 28.949 3.60677 29.4786 3.73913 29.8427C3.8384 30.1737 4.00385 30.5378 4.26857 30.8357C4.4671 31.2329 4.69873 31.6301 5.02963 31.9611C5.39361 32.1928 5.65833 32.1928 5.79069 32.0935L5.02963 30.5709H4.83109V30.0413C4.89727 29.611 4.96345 29.1145 5.06272 28.6842C5.4267 27.5588 5.88996 26.4995 6.41939 25.4072C6.32012 25.8044 6.28703 26.2347 6.28703 26.665C5.7576 27.9229 5.29434 28.9159 5.02963 29.6772C4.89727 30.2068 4.89727 30.4385 5.02963 30.4385L5.16199 30.3061L5.06272 29.9089L5.19508 29.6772L5.4267 30.2068L5.55906 30.0744L5.69142 30.3061L5.55906 30.5378L6.45248 31.7956L6.68411 31.5639L6.81647 31.7956C6.61793 31.9611 6.48557 32.1928 6.45248 32.4577C6.68411 32.8218 6.98192 33.3514 7.21354 33.7155C7.74298 34.3444 8.10697 34.6092 8.33859 34.2451C8.47095 34.1127 8.57022 34.2451 8.70258 34.3775C8.90112 34.543 9.06657 34.7416 9.23201 35.0064V34.4768L8.47095 33.5831L7.94152 32.5901C7.70989 32.2259 7.31281 31.6963 7.0481 31.3322L6.41939 30.2068C6.18777 29.8427 5.88996 29.3131 5.52597 28.8497V28.5849L6.28703 29.5779C6.81647 30.1737 7.24663 30.8026 7.64371 31.4646C7.87534 31.8287 8.0077 31.9942 8.17315 31.6963L8.3055 31.3322L8.57022 31.4315L8.33859 32.3252V32.557C8.33859 32.7887 8.33859 32.9211 8.47095 32.9211C8.60331 32.9211 8.60331 33.0535 8.70258 33.2852C8.93421 33.6493 9.23201 33.9141 9.46364 34.2782C9.86072 34.7747 10.324 35.1719 10.8203 35.536C11.3498 35.7677 11.7137 36.1649 11.9454 36.2973C12.177 36.4297 12.4748 36.6614 12.3094 36.9262L12.6733 37.0586L12.5741 36.5621H12.905C13.0704 36.6945 13.1697 36.86 13.269 37.0917C13.6329 37.3234 13.8977 37.6213 14.2616 37.853L13.3351 37.6213ZM5.92305 30.3392L6.05541 30.2068L6.68411 31.1998V31.3322L5.92305 30.3392ZM7.08119 32.4577L7.31281 32.2259L7.94152 33.1197L8.3055 33.7486L8.43786 34.1127C8.20623 33.9803 8.07388 33.7486 7.90843 33.5831L7.54444 33.0535L7.08119 32.4577ZM14.8903 37.3234L13.8977 36.5621C13.6329 36.2311 13.3351 35.867 13.0042 35.5691C12.8719 35.4367 12.7726 35.205 12.4748 35.0395C12.2763 34.9402 12.0777 34.874 11.8461 34.9071C11.7137 34.9071 11.6145 35.0395 11.4821 35.4367L11.3498 35.3043C11.3498 35.1057 11.449 34.9402 11.5814 34.7747C11.7137 34.6423 11.9123 34.6423 12.1108 34.7747L13.2359 35.3043L15.122 35.9332C15.4529 36.198 15.7838 36.5621 16.0154 36.9262C15.6845 37.1248 15.3205 37.2572 14.8903 37.3234ZM15.4198 41.9575C14.758 42.6195 14.0631 43.1822 13.269 43.7119L13.1366 43.5795C13.8315 43.1822 14.4933 42.7188 15.1551 42.2223L15.519 41.8582H15.2874C14.9896 42.123 14.6256 42.3878 14.2947 42.6195C13.8977 42.8843 13.4675 43.1491 13.0373 43.3808L12.4086 43.6126L12.541 43.745H13.0704C13.269 43.8443 13.4013 44.0098 13.4344 44.2746C13.4344 44.407 13.0704 44.5063 12.6733 44.407L12.1439 44.1753C11.9785 43.9767 11.7799 43.8443 11.5152 43.8112L11.2836 43.6788L11.4159 43.447L12.0446 43.6788H12.2763L12.1439 43.3146L12.905 42.7188C13.1366 42.5864 13.1366 42.4871 13.1366 42.3547V41.9906C13.5006 42.0568 13.9307 42.0237 14.2616 41.8582C14.6256 41.7258 15.0227 41.6265 15.3867 41.6265C15.7507 41.6265 15.7838 41.7258 15.4198 41.9575ZM24.8834 7.13569V6.60609L24.4863 6.73849C24.0562 6.87089 23.5267 6.73849 23.2289 6.37438C22.9973 6.37438 22.865 6.24198 22.865 6.14268C22.865 6.01027 22.9973 5.77857 22.7326 5.77857L22.1039 5.91097C21.8061 5.91097 21.5083 5.77857 21.3428 5.54687C21.2105 5.41446 21.3428 5.18276 21.4752 4.91795C21.2105 4.78555 20.9127 4.65315 20.7141 4.38835C20.5818 4.25594 20.7141 4.02424 20.8465 3.85874C21.2436 3.72633 21.7068 3.72633 22.1039 3.85874C22.0046 3.72633 21.9715 3.56083 21.9715 3.36223C21.9715 3.22982 22.3355 3.22982 23.0966 3.59393L23.626 3.82564C23.7584 3.59393 23.8907 3.59393 24.2878 3.59393C24.6518 3.75943 24.9827 3.95804 25.2805 4.22284C25.6776 4.48765 26.0416 4.85175 26.2732 5.21586C26.4055 5.05036 26.6041 5.05036 26.8026 5.14966C26.8688 5.18276 26.9019 5.24896 26.9019 5.31516V5.84477C26.6041 5.51377 26.0416 5.48066 25.7107 5.77857L25.6445 5.84477L25.4129 5.74547C25.082 5.44756 24.8172 5.05036 24.6518 4.62005C24.4863 4.25594 24.4863 4.25594 24.4863 4.48765C24.5856 4.88485 24.7511 5.28206 25.0158 5.61307C24.4533 5.41446 23.9569 5.11656 23.4937 4.71935C23.2289 4.45455 22.9311 4.15664 22.7326 3.82564C22.6002 3.59393 22.501 3.59393 22.501 3.82564C22.6333 4.18974 22.898 4.52075 23.262 4.71935L22.7326 4.58695C22.3686 4.45455 21.8392 4.35524 21.4752 4.22284C21.3428 4.22284 21.3428 4.22284 21.4752 4.35524C21.8392 4.48765 22.3686 4.58695 22.7326 4.71935C22.9642 4.71935 23.0966 4.85175 23.3613 5.08346C22.9642 5.21586 22.5341 5.31516 22.1039 5.31516H21.7399C21.8723 5.31516 21.8723 5.44756 21.9715 5.44756C22.5341 5.48066 23.0635 5.41446 23.626 5.31516C24.1554 5.54687 24.5194 5.67927 24.9827 5.94407C24.6518 5.84477 24.2216 5.91097 23.99 6.17578C23.8576 6.30818 23.99 6.30818 24.1224 6.17578L25.2474 5.81167L25.6114 5.94407C25.6445 6.34128 25.7107 6.80469 25.843 7.1688L25.6114 7.3012L24.8834 7.13569ZM27.4313 9.51894C26.6703 9.51894 26.4386 9.51894 26.4386 9.38654C26.4386 9.25413 26.4386 9.15483 26.6703 9.02243L26.7695 8.79072C26.2401 8.55902 25.8761 8.26112 25.7768 7.6653L26.1408 7.5329C26.2732 7.3012 26.2732 7.1688 26.1408 7.00329C25.9423 6.77159 25.8761 6.44058 25.9092 6.10958C26.0416 5.74547 26.5379 5.74547 27.1666 6.10958C27.3982 5.57997 27.7953 5.34826 28.1593 5.57997C27.7953 5.57997 27.3982 5.81167 27.3982 6.10958V7.00329C27.2659 6.77159 27.0342 6.63919 26.8688 6.47368C26.5048 6.34128 26.3394 6.34128 26.6372 6.47368C26.8688 6.67229 27.0673 6.97019 27.2659 7.235C26.9681 7.4998 26.5379 7.6322 26.1408 7.5991C26.0085 7.5991 26.0085 7.73151 26.1408 7.73151C26.3394 7.73151 26.571 7.6984 26.7695 7.5991C26.6372 8.16181 26.8688 8.72452 27.3982 8.95623C27.663 9.25413 27.5306 9.38654 27.4313 9.51894ZM27.8946 9.91614C27.8946 9.78374 28.0269 9.68444 28.424 9.68444C28.8211 9.68444 28.788 9.55204 28.5564 9.45274C28.1924 9.25413 27.8284 8.92313 27.5637 8.55902C27.3321 8.32732 27.3321 8.19491 27.5637 8.02941L27.7953 7.89701L27.9277 7.6653L27.7953 6.90399C27.663 6.53988 27.7953 6.27508 28.1593 6.01027C28.5895 6.01027 29.0527 6.14268 29.4167 6.37438C29.4167 6.14268 29.5491 6.14268 29.7807 6.14268C30.0123 6.14268 30.3101 6.77159 30.5418 7.79771L30.9057 7.93011C30.9719 7.79771 31.0381 7.6653 31.1374 7.566C31.3028 7.76461 31.4352 8.06251 31.5014 8.32732C31.8653 8.65832 32.0308 9.22103 31.8653 9.68444C31.6006 9.91615 31.5014 10.3465 31.6337 10.6775L31.5675 10.2803C31.4683 9.84994 31.4352 9.35343 31.4352 8.92313V10.0485C31.1043 9.51894 30.641 9.08863 30.1778 8.69142C30.0785 8.32732 30.0454 7.93011 30.0454 7.566C30.0454 7.2019 29.913 7.03639 29.913 7.3343C29.7807 7.73151 29.7807 8.19491 29.913 8.55902C29.4829 8.06251 29.0196 7.5991 28.6556 7.03639C28.5233 6.80469 28.5233 6.80469 28.5233 6.90399C28.7218 7.3343 28.9534 7.76461 29.2843 8.12871C29.516 8.49282 29.913 8.75762 30.0454 9.02243C29.6814 8.89003 29.4167 8.89003 29.0527 8.79072C28.788 8.75762 28.5233 8.69142 28.2917 8.55902C28.06 8.55902 28.06 8.55902 28.2917 8.69142C28.5564 8.85693 28.8873 8.92313 29.1851 8.92313L30.3101 9.28723C30.641 9.48584 30.9388 9.81684 31.0712 10.1478L31.3028 10.7768C30.9057 10.5451 30.4094 10.3796 29.9461 10.2472C29.6483 10.2472 29.3174 10.1478 29.0527 10.0154C28.6887 9.88304 28.6887 9.88304 28.9204 10.1478C29.2182 10.3134 29.5822 10.3796 29.913 10.3796C30.4756 10.512 31.005 10.7106 31.5344 11.0085V11.1409C31.4021 11.2733 31.4021 11.3726 31.4021 11.6705L31.5344 12.167C31.4021 12.0346 31.3028 12.0346 30.9057 12.3987C31.0381 12.2663 31.0381 12.0677 30.9057 11.8691C30.6079 11.4388 30.0785 11.0747 29.4498 10.9092L29.3174 11.0416C28.6887 11.0085 28.1593 10.512 27.8946 9.91614ZM33.3544 21.0379C33.222 20.8062 32.9904 20.409 32.7257 19.9125C32.494 19.3829 32.1962 19.0188 32.097 18.7871C31.9646 18.5223 31.9646 18.1913 32.097 17.8934C32.2293 17.6617 32.2293 17.3638 32.3286 17.1321V16.9997C32.1962 17.2314 32.097 17.6286 31.9646 17.8934L31.4352 16.6687C31.5344 15.9405 31.7992 15.2453 32.1962 14.6826C32.3286 14.4509 32.3286 14.4509 32.1962 14.5502C31.7992 15.0798 31.4683 15.6425 31.3028 16.3046L30.5418 14.7819C30.641 14.2192 30.8065 13.6896 31.0712 13.1269C31.3028 12.7628 31.2035 12.7628 30.9388 13.1269C30.7403 13.491 30.5748 13.9544 30.4094 14.3847C30.1778 13.491 30.0454 12.7297 29.7807 12.2663L29.6483 12.1339L29.7807 12.3656C29.88 13.0607 30.0454 13.6896 30.3101 14.3516C30.0454 14.0868 29.6814 13.8551 29.3174 13.7227C29.6483 13.9213 30.0123 14.2192 30.3101 14.484C30.4425 14.8481 30.6741 15.2453 30.8396 15.6094C30.4094 15.3446 29.9461 15.0798 29.4829 14.8481C29.2513 14.8481 29.2513 14.8481 29.4829 14.9805C30.1116 15.1129 30.641 15.477 31.005 15.9736L31.5344 17.2314C31.4021 17.2314 31.1705 16.9997 30.9057 16.4701C30.5087 15.8743 29.913 15.4439 29.2182 15.2122C29.0527 15.1129 28.9865 14.9143 28.9865 14.6826C28.9865 14.5502 29.1189 14.4509 29.516 14.4509C29.3836 14.2192 29.3836 14.0868 29.2843 13.822L29.152 13.5903C28.9204 13.0607 29.0527 12.829 29.516 12.829C29.152 12.9614 29.152 12.6966 29.152 12.5973C29.1189 12.2994 29.2182 11.9684 29.3836 11.7036C29.516 11.5712 29.516 11.3395 29.6152 11.174L30.3763 11.5381C30.6079 11.6374 30.7403 11.9022 30.7403 12.167L30.6079 12.7959C30.6079 12.9283 30.7403 12.9283 30.9719 12.6635C31.0712 12.4318 31.2366 12.2663 31.5014 12.1339C31.6337 12.2663 31.8653 12.3656 32.0308 12.498C32.1631 13.0276 32.1301 13.5241 31.8984 14.0206L31.6337 14.7488C32.1631 14.1199 32.5271 13.7558 32.8911 13.7558V15.1129C32.8911 15.3446 32.8249 15.5432 32.6595 15.7418C32.4279 15.9405 32.2624 16.3046 32.2955 16.6356C32.8249 16.2715 32.9242 16.4039 32.9242 16.768L32.6926 17.761C32.5602 18.2906 32.6926 18.5223 32.9242 18.3899C33.1558 18.2575 33.2882 18.3899 33.2882 18.5223V19.0519C33.1889 19.2174 33.1227 19.4491 33.1558 19.6808C33.1558 19.8132 33.2882 19.8132 33.2882 19.9125H33.6522C33.7845 19.9125 34.0162 19.9125 34.0162 20.1442V20.7731C34.0162 21.0048 34.1154 21.2034 34.2478 21.4021C34.3802 21.5345 34.4794 21.6338 34.6118 21.6338L34.8434 21.4021C34.6118 21.4021 34.4794 21.2696 34.4794 20.7731V19.7801C34.3471 19.5484 34.2478 19.2505 34.1154 19.2505C33.7845 18.5223 33.4536 17.761 33.222 16.9997H33.7514C34.1154 18.2575 34.3802 18.8864 34.5125 18.9857C34.6449 19.085 34.7441 19.2174 34.7441 19.3498C34.7441 19.6477 34.7772 19.9456 34.8765 20.2435C35.3728 19.9787 35.5383 19.3498 35.2405 18.8864C35.2405 18.754 35.1081 18.754 35.0089 18.6547C34.7772 18.5554 34.6118 18.3899 34.4794 18.1251C34.3471 17.8934 34.4794 17.761 34.711 17.5955C34.9427 17.4631 34.4794 17.0659 33.4536 16.4701C32.9242 16.106 32.8249 15.8412 32.9242 15.5763C33.0235 15.3115 33.1558 15.4439 33.2882 15.5763C33.3875 15.6425 33.5198 15.7087 33.6522 15.7087C33.6522 15.7087 33.6522 15.3446 33.4206 15.3446C33.1889 15.3446 33.0566 15.2122 33.0566 15.1129V13.4579C32.9242 13.2262 32.5271 13.2262 32.1631 13.4579C32.2624 13.2262 32.2955 12.9614 32.2955 12.6966C32.2955 12.4318 32.1631 12.167 31.9315 12.0677L31.6668 11.4388C31.6668 11.2071 31.7992 11.0747 32.0308 10.9092C31.8984 10.6113 31.8984 10.2141 32.0308 9.91614C32.1631 9.78374 32.1631 9.55204 32.2624 9.38654C32.2624 9.25413 32.3948 9.25413 32.6264 9.38654C33.0566 9.71754 33.4536 10.1809 33.7514 10.6444C33.9831 10.4127 34.2809 10.512 34.3802 10.8761C34.6449 11.3064 34.711 11.8691 34.6118 12.3987C35.2405 12.2663 35.3728 12.5311 35.2405 13.16C35.4721 13.491 35.6045 13.8882 35.6045 14.2854C35.6376 14.5171 35.5714 14.815 35.4721 15.0467C35.3398 15.1791 35.3398 15.4108 35.2405 15.5763C35.2405 15.7087 35.2405 15.7087 35.3728 15.5763C35.5052 15.3446 35.7368 15.2122 36.0015 15.2122C36.167 15.477 36.2332 15.8081 36.2332 16.106C36.2332 16.3046 36.1339 16.4701 36.0015 16.6356C35.8692 16.8342 35.7368 17.0328 35.6376 17.2645C35.6376 17.3969 35.6376 17.4962 35.8692 17.4962L36.2332 17.3638C36.4648 17.3638 36.4648 17.4962 36.2332 17.8934C36.1008 18.2575 35.8692 18.5223 35.7037 18.8864C35.6045 19.085 35.5714 19.2836 35.5714 19.5153C35.5714 19.7139 35.5052 19.9125 35.439 20.1442V18.7871C35.3067 18.2575 35.3067 17.6617 35.2074 17.1321C35.4059 16.8342 35.5714 16.4701 35.7368 16.1391C35.8692 15.9074 35.8692 15.775 35.7368 16.0067C35.6376 16.3377 35.4721 16.6356 35.2074 16.9004C35.075 16.3708 34.8434 15.6425 34.678 14.9143C34.9096 14.5171 35.0419 14.0206 35.0419 13.5572C35.0419 13.0276 35.0419 13.0276 34.9096 13.4248C34.9096 13.9544 34.678 14.3185 34.3802 14.7819C34.2478 14.153 34.0493 13.5903 33.7514 12.9945C33.8507 12.6304 33.8838 12.2332 33.8838 11.8691C33.8838 11.505 33.8838 11.505 33.7514 11.7367C33.7845 11.9684 33.7184 12.2663 33.6191 12.498L33.0897 11.2733L32.858 10.512C32.7257 10.2803 32.7257 10.2803 32.7257 10.512L32.9573 11.4057C32.8249 11.174 32.5933 11.0085 32.3286 10.8761C32.097 10.7437 32.097 10.7437 32.1962 10.8761C32.494 11.1409 32.8249 11.4388 33.0897 11.7698L33.7184 13.2924C33.3875 12.9283 32.9242 12.6635 32.461 12.5311C32.2293 12.3987 32.2293 12.5311 32.461 12.6635C32.9904 13.0276 33.4536 13.5241 33.8176 14.0206L34.3471 15.5432C33.95 15.2784 33.586 14.9143 33.3544 14.5502C33.222 14.4178 33.1227 14.4178 33.3544 14.6826C33.6853 15.1129 34.0823 15.5432 34.4794 15.9405L34.8434 17.2976C34.4463 16.9004 33.9831 16.5363 33.4867 16.3046C33.2551 16.1722 33.2551 16.1722 33.4867 16.437C34.0823 16.8673 34.5456 17.3638 35.0089 17.9596C35.1412 18.7209 35.2405 19.4822 35.2405 20.2104C35.2405 20.4421 35.0089 20.74 34.6118 20.8393L34.4794 21.9648H33.8507C33.9169 21.5676 33.6191 21.3027 33.3544 21.0379ZM34.1154 22.1634H34.6449C34.4132 23.2888 34.1154 24.5466 34.0162 25.2748L33.7845 25.1424C33.9831 24.1825 34.1154 23.1895 34.1154 22.1634ZM30.2109 28.5849C30.0785 28.5849 29.8469 28.3532 29.4498 27.956C29.0858 27.5919 28.9204 27.3271 29.0858 26.963C28.9204 26.8637 28.8542 26.665 28.8542 26.4333C28.7218 26.3009 28.7218 26.1023 28.8542 25.9037C28.9865 25.7713 29.2182 25.7713 29.7476 26.1354C29.88 25.9037 29.88 25.6058 29.7476 25.3741L29.3505 24.7452C29.2182 24.4142 29.0196 24.0832 28.7218 23.8515C28.5895 23.4874 28.4902 23.3219 28.5895 23.2226C28.6887 23.1233 28.8211 23.2226 28.9534 23.355C29.3174 22.9909 29.5822 22.8254 29.7145 22.9909C29.88 23.2557 29.9461 23.5867 29.9461 23.8846C30.0785 24.2818 30.0785 24.7452 29.9461 25.1093L29.7807 25.3079L29.913 25.4403C29.9461 25.7713 29.913 26.1354 29.7807 26.4333C29.7476 26.5657 29.8138 26.6981 29.913 26.7974V26.4333C29.913 26.2678 29.9461 26.1023 30.0454 25.9368C30.0454 25.8044 30.1778 25.5727 30.1778 25.4072L30.0454 25.2748C30.1778 25.2748 30.1778 25.1424 30.277 25.1424V24.1494C30.3101 23.8515 30.277 23.5536 30.1778 23.2557C30.1778 23.1233 30.0454 22.8916 30.0454 22.7261C30.0454 22.5937 29.9461 22.4944 29.8138 22.4944C29.6814 22.4944 29.4498 22.6268 29.1851 23.024C29.3174 22.6599 29.4167 22.1303 29.5491 21.7662C29.6814 21.5345 29.7807 21.5345 29.913 21.5345C30.0454 21.5345 30.1447 21.6338 30.1447 21.7662C30.1447 21.8986 30.277 21.8986 30.3763 21.6338C30.4756 21.369 30.5087 21.4021 30.6079 21.5014L30.8396 21.7331C30.8396 21.8655 30.9719 21.9648 30.9719 22.0972C30.9719 22.3289 31.1043 22.6268 31.1043 22.9909C31.1374 23.2226 31.0712 23.5205 30.9719 23.7522C30.8396 23.8846 30.8396 23.9839 30.8396 24.2818C30.8396 24.6459 30.8726 25.0431 30.9719 25.4072C31.0712 25.4072 31.1374 25.341 31.2035 25.2748C31.3028 25.1755 31.4352 25.1424 31.5675 25.1424C31.6999 25.1424 31.6999 25.3741 31.6999 25.7713C31.6999 26.1354 31.6999 26.3009 31.8322 25.9037C31.9646 25.5396 31.9646 25.3741 32.1962 25.3741C32.4279 25.3741 32.4279 25.7382 32.3286 26.6319C31.8322 26.963 31.4352 27.4264 31.0712 27.8898C30.9388 27.6581 30.9388 27.3602 31.0712 27.1285C31.2035 26.9961 31.2035 26.7643 31.3028 26.5988C31.3028 26.4664 31.4352 26.2347 31.4352 26.0692C31.5675 25.7051 31.5675 25.7051 31.4352 25.9368C31.3028 26.0692 31.3028 26.1685 31.2035 26.4664C31.0712 26.5988 31.0712 26.6981 30.9719 26.8305C30.8396 26.4664 30.8396 25.9368 30.7403 25.5727C30.641 25.2086 30.6079 25.2086 30.6079 25.5727C30.7403 26.2347 30.8396 26.8967 30.8396 27.5588C30.641 27.3271 30.3432 27.1285 30.0785 26.9299C29.8469 26.6981 29.5491 26.5657 29.4498 26.3009C29.3174 26.1685 29.2182 26.1685 29.3174 26.4333C29.4167 26.6981 29.8469 26.963 30.0785 27.3271C30.3101 27.6912 30.7072 27.8567 30.7072 27.956C30.8396 28.0884 30.8396 28.0884 30.8396 28.1877C30.7072 28.3201 30.6079 28.5518 30.3101 28.7173C30.1778 28.5849 30.1778 28.5849 30.1778 28.4856C30.3101 28.6842 30.3101 28.5849 30.2109 28.5849ZM22.1039 36.7276C22.2693 36.529 22.4679 36.3635 22.7326 36.198C23.4937 35.8339 24.3871 35.4367 25.2805 35.0726H25.479L25.6114 35.3043L25.3798 35.4367C25.1812 35.536 24.9827 35.6022 24.7511 35.5691C24.4863 35.6022 24.2216 35.6684 23.99 35.8008C23.6922 35.867 23.4606 36.1318 23.4606 36.4297C23.4606 36.5621 23.3282 36.6614 23.2289 36.7938L22.3355 37.3234H21.7068L22.1039 36.7276ZM23.99 37.4889H23.626L22.865 37.3565L23.626 36.9924L23.99 37.4889V37.3565L23.8576 36.9924C23.7584 36.7607 23.8576 36.4628 24.0562 36.3635C24.0562 36.3635 24.0893 36.3635 24.0893 36.3304C24.3209 36.198 24.5856 36.0987 24.8503 36.0987C24.9827 36.0987 24.9827 36.3304 24.8503 36.7276C24.6518 37.0255 24.3209 37.2572 23.99 37.4889ZM20.7141 40.3687L20.5818 40.0046L19.9531 40.7659L19.4236 41.13C19.2582 41.2955 19.0266 41.3617 18.7949 41.3617L18.0339 40.9976L18.3978 40.7659L18.5302 40.8983C18.3978 41.13 18.5302 41.13 18.7618 40.7659L19.3905 40.137C19.3905 39.6074 19.2913 39.1109 19.1589 38.6144C19.0596 38.1841 18.8942 37.7537 18.6295 37.3565C18.6295 37.2241 18.2655 37.2241 17.6368 37.2241C18.067 37.0917 18.5633 37.0917 18.9935 37.2241L19.5229 37.4558L19.7545 37.3234L19.2251 37.0917H19.4567L19.6883 37.3234L19.8207 37.4558C20.317 37.9523 20.7472 38.482 21.0781 39.1109C21.2105 39.3757 21.2105 39.7067 21.0781 40.0046C21.1112 40.3687 20.8134 40.468 20.7141 40.3687ZM26.0085 43.4802L26.2401 43.6126L26.1077 43.745L25.479 43.8774C25.2143 44.076 24.9165 44.2415 24.5856 44.407L24.2216 44.2746L24.0893 44.0429C24.2216 43.9105 24.3209 43.8112 24.4533 43.8112C24.5856 43.7119 24.7842 43.6788 24.9827 43.6788L25.5121 43.8112C25.479 43.7781 26.0085 43.4802 26.0085 43.4802ZM25.2474 43.4802C24.8834 43.4802 24.6187 43.7119 24.4863 43.7119H24.2547C23.9569 43.3477 23.5929 43.0167 23.262 42.7188L22.2693 41.8251C22.501 41.6927 22.898 41.8251 23.5267 41.9575L25.2474 43.4802ZM28.424 38.7468H29.4167C30.3432 38.2172 31.2035 37.6213 31.9646 36.86C32.9242 36.0987 33.9831 35.5029 35.1081 34.9733C35.3398 34.8409 35.3398 34.7416 35.1081 34.7416C34.7772 34.6423 34.4463 34.6092 34.1154 34.6092C33.9831 34.7416 33.9831 34.8409 34.1154 34.8409H34.6449C33.7514 35.3705 32.858 35.8339 32.097 36.3635C32.097 35.9994 32.2293 35.3705 32.2293 34.6092C32.1962 34.3444 32.1301 34.0796 31.9977 33.8479C31.8653 33.7155 31.9977 33.6162 32.3617 33.4838L32.5933 33.3514V33.881L32.2293 33.7486V33.9803C32.3617 34.1458 32.5271 34.2451 32.7588 34.3444H34.5456C35.1743 34.3444 35.5383 34.4768 35.439 34.874V35.7677C35.5714 36.4297 35.8361 37.0586 36.2001 37.6544C36.0346 38.0185 35.8361 38.3496 35.5714 38.6475L34.4463 39.3757C33.4536 40.137 32.0308 41.0307 30.2439 42.123C27.3321 42.1561 24.4533 41.7258 21.6737 40.8652L21.3097 40.7328L21.4421 40.6004C21.5745 40.3687 21.8061 40.2363 21.8061 39.9715C21.8061 39.144 21.4752 38.3496 20.8134 37.853V37.7206L21.1774 37.5882C22.0377 37.5882 22.898 37.7206 23.7253 37.9523C24.4863 38.0848 25.3798 38.3165 26.3725 38.482C26.9681 38.5813 27.696 38.6806 28.424 38.7468ZM26.7695 38.2172C26.4055 38.0848 25.7768 38.0848 24.8834 37.853L25.6445 37.6213C25.9092 37.7537 26.2732 37.6544 26.4055 37.3896C26.5379 37.5882 26.6703 37.9524 26.7695 38.2172ZM31.5675 31.5639C31.3028 31.7956 31.2035 32.2259 31.3359 32.557C30.8396 32.8218 30.4425 33.1859 30.0785 33.55C29.7476 33.881 29.4498 34.2782 29.1851 34.6754C29.0858 34.9402 28.8542 35.1057 28.5564 35.205C28.2586 35.2712 27.9277 35.2381 27.663 35.0726L27.5306 35.6022L26.0085 36.4959L25.2474 36.86C25.3467 36.6283 25.3798 36.3635 25.3798 36.0987L25.6114 35.867C26.6041 35.3374 27.2659 34.874 27.3982 34.3444C27.5306 34.0134 27.7291 33.6824 28.0269 33.4507C28.2255 33.1859 28.3909 32.888 28.5564 32.557V31.5639C28.788 31.7956 29.0858 31.928 29.1851 31.6963C29.4498 31.1005 29.8138 30.5709 30.2109 30.0413C30.5418 29.5448 30.9388 29.1145 31.3359 28.6842L32.3286 27.5588V28.0884C31.733 28.8166 31.2035 29.5779 30.6741 30.3392C30.0454 31.1998 29.5491 32.0935 29.152 33.0866C29.0196 33.4507 28.7549 33.7817 28.3909 33.9803C28.1924 34.0796 28.0269 34.1789 27.8615 34.3444C27.7291 34.5761 27.8615 34.5761 27.9938 34.4768C28.1262 34.3444 28.2917 34.212 28.5233 34.1127C29.3505 33.4176 30.0785 32.5901 30.6741 31.7294V31.0012L30.9057 30.6371C30.9057 31.0012 30.9057 31.3984 31.0381 31.3984C31.1705 31.3984 31.2697 31.266 31.4021 31.0343C31.5344 30.8026 31.9315 29.9089 32.5271 28.6511C32.3948 28.949 32.3948 29.3462 32.5271 29.6441C32.1631 29.8758 31.9977 30.273 32.2955 30.9019L31.5675 31.5639ZM36.5972 26.5657C36.5972 26.9299 36.4648 27.294 36.2332 27.5588C35.6045 28.3201 35.3398 28.6842 35.4721 28.8166C35.6045 29.1476 35.5714 29.5448 35.3398 29.8096C34.9758 30.3061 34.5125 30.7695 34.0823 31.1667C34.2147 31.3984 34.0823 31.6963 33.7184 31.928C33.222 32.1928 32.7257 32.4246 32.1962 32.557C33.0897 32.0273 33.7514 31.1998 33.9831 30.1737C34.1816 29.9751 34.4794 29.8096 34.7441 29.6441C34.9758 29.5117 34.9758 29.4124 34.8765 29.5117C34.5787 29.611 34.2478 29.7765 33.9831 30.0082C34.2478 29.3793 34.4794 28.7835 34.6118 28.1215C35.0089 27.6912 35.4059 27.2278 35.7368 26.7643C35.9685 26.5326 35.9685 26.4002 35.7368 26.6319C35.4721 27.1285 35.1081 27.5257 34.7441 27.8898C34.9758 27.2609 35.1081 26.5326 35.3728 25.7713C35.5052 25.2417 35.3728 25.2417 35.3728 25.5396L35.2405 26.0692L34.8765 25.3079L35.1081 26.3009C34.9758 26.8305 34.8765 27.4264 34.7441 27.956C34.5456 27.3602 34.2147 26.8305 33.8507 26.3009C33.6191 25.9368 33.4867 25.9368 33.7184 26.3009C34.0823 26.9299 34.3802 27.5919 34.6118 28.287C34.4794 28.9159 34.2809 29.4786 33.9831 30.0413C33.8507 29.8096 33.6191 29.6441 33.3544 29.5117C33.222 29.3793 33.222 29.5117 33.3544 29.6441C33.5529 29.8096 33.7184 30.0413 33.8838 30.273C33.7184 30.6702 33.4867 31.1005 33.1227 31.3984C32.858 31.6963 32.5602 32.0273 32.2293 32.2921C32.5933 31.7294 32.7588 31.1005 32.5933 30.4385C32.5933 30.3061 32.6926 30.2068 32.8249 30.2068C32.9573 30.2068 33.0566 30.1075 33.0566 29.9751C32.9242 29.7434 32.8249 29.4786 32.8249 29.2138H33.3544C33.586 29.0814 33.4867 28.9821 33.3544 28.6842C33.0897 28.3863 32.9573 27.956 32.9904 27.5588C32.9904 27.3271 33.1227 27.1947 33.5198 27.3271C33.6522 27.3271 33.6522 27.1947 33.5198 26.6981L33.1889 26.1685C32.9573 25.5396 33.0566 25.4072 33.5529 25.5396L34.1816 25.9037C34.5456 26.0361 34.8103 25.7713 34.8103 25.1424C34.8103 25.01 34.9427 25.01 35.1743 25.01C35.4721 25.01 35.7368 24.8114 35.8361 24.5135C36.0677 24.2818 36.2001 24.5135 36.3655 25.1424C36.4979 25.7713 36.4979 26.2678 36.9942 26.2678C36.5972 26.1685 36.5972 26.3009 36.5972 26.5657ZM37.259 24.5797C37.259 24.7121 37.2259 24.8445 37.1266 24.9438C36.9942 25.0762 36.8288 25.1424 36.5972 25.1755L36.3655 24.8114C36.3655 24.4473 36.2332 24.0832 36.0015 23.8184C36.1339 23.6529 36.2994 23.5867 36.531 23.5867C36.6633 23.4543 36.6633 23.5867 36.3986 23.5867C36.1339 23.5867 36.0346 23.8184 35.7699 23.8184C35.9023 23.3219 36.1008 22.8585 36.3986 22.4613C36.531 22.2296 36.3986 22.2296 36.2663 22.4613C36.0346 22.7923 35.7699 23.1895 35.6376 23.5536C35.5052 23.4212 35.5052 23.1895 35.4059 23.024C35.4059 22.7923 35.2736 22.7923 35.2736 23.024C35.3067 23.2888 35.3728 23.5536 35.5052 23.7853C35.1412 24.3149 34.8765 24.5466 34.7441 24.4142C34.8434 23.6529 35.0089 22.8916 35.2736 22.1634C35.6376 21.7993 35.9023 21.6338 36.167 21.7993C36.531 21.5676 36.7957 21.4352 37.0604 21.6669C37.1928 21.8986 37.292 22.031 37.1928 22.2958C37.1597 22.5606 37.0935 22.8254 36.9611 23.0571C37.1928 23.0571 37.3251 23.1895 37.4906 23.4212C37.3913 23.9177 37.1266 24.3149 36.7295 24.5466C37.1266 24.4142 37.259 24.5797 37.259 24.5797Z" fill="white"/>
<path d="M5.55865 38.9804C5.79028 39.1128 6.08808 39.1128 6.18735 38.848C6.31971 38.7156 6.31971 38.517 6.18735 38.3184L6.05499 38.186C5.92264 38.0536 5.92264 38.0536 5.82337 38.3184C5.79028 38.3184 5.55865 38.9804 5.55865 38.9804ZM2.64676 36.9944C2.87839 37.2261 3.01075 37.3585 3.40782 36.9944C3.54018 36.862 3.54018 36.6633 3.40782 36.4647L3.27546 36.3323H3.1431L2.64676 36.9944ZM6.91532 39.1128C6.91532 38.8811 7.04768 38.7487 6.78297 38.5832C6.91533 38.5832 7.01459 38.6825 7.01459 38.8149C7.11386 38.9142 7.24622 38.9473 7.37858 38.9473C7.37858 38.9473 7.14695 38.8149 7.14695 38.9473C7.11386 39.2121 7.04768 39.4769 6.91532 39.7086L6.78297 40.6023L7.54403 40.0727C7.67639 39.9403 8.07346 39.5431 8.07346 39.4438C8.07346 39.3445 8.07346 39.2121 7.9411 39.2121V39.0797L8.17273 39.2121C8.30509 39.2121 8.30509 39.3445 8.40436 39.3445C8.17273 39.2121 8.04037 39.4769 7.77566 39.5762L6.51825 40.834L6.38589 40.7016L6.91532 39.1128ZM5.19466 39.3776C5.19466 39.51 5.0623 39.7417 5.0623 39.9072C5.0623 40.0396 5.0623 40.0396 5.19466 40.1389V40.2713L4.83068 39.9072C4.73141 39.9072 4.66523 39.841 4.59905 39.7748V39.6424C4.73141 39.6424 4.83068 39.7748 4.83068 39.6424C4.96304 39.51 5.0623 39.4107 5.0623 39.2783L5.59174 38.517C5.59174 38.3846 5.82337 38.2853 5.82337 38.1529C5.82337 38.0205 5.82337 37.9212 5.69101 37.9212C5.82337 38.0536 5.92264 38.0536 6.05499 38.1529C6.18735 38.2522 6.28662 38.2853 6.41898 38.3846C6.6837 38.517 6.78297 38.8811 6.6837 39.1459V39.2783C6.51825 39.5431 6.18735 39.6424 5.92264 39.51C5.85646 39.51 5.79028 39.4438 5.79028 39.4107C5.65792 39.4107 5.65792 39.4107 5.65792 39.2783C5.65792 39.2121 5.19466 39.3776 5.19466 39.3776ZM4.03653 37.6233C4.03653 37.4909 4.26815 37.3916 4.26815 37.2592C4.26815 37.1268 4.26815 37.0275 4.13579 37.0275H4.30124L5.42629 37.7888L5.0623 38.1529C5.29393 37.9212 5.19466 37.7888 4.92995 37.524L4.79759 37.3916C4.79759 37.2592 4.79759 37.2592 4.66523 37.3916L4.30124 38.0205C4.4336 38.186 4.63214 38.186 4.83068 38.0867C4.89686 38.0536 4.92995 37.9874 4.92995 37.9212C4.79759 38.0536 4.69832 38.1529 4.69832 38.2853C4.69832 38.4177 4.56596 38.517 4.46669 38.6494V38.517C4.69832 38.2853 4.59905 38.1529 4.33433 37.9874L3.8049 38.6494C3.8049 38.7818 3.67254 38.7818 3.67254 38.8811C3.67254 39.0135 3.77181 39.1128 3.90417 39.1128C4.1027 39.2452 4.33433 39.2452 4.53287 39.1128L4.30124 39.6424L2.94457 38.7487V38.6163H3.17619C3.30855 38.4839 3.40782 38.3846 3.40782 38.2522L4.03653 37.6233ZM2.77912 38.3184C2.74603 38.4508 2.81221 38.5832 2.91148 38.6825L2.77912 38.5501C2.67985 38.5501 2.61367 38.4839 2.54749 38.4177V37.2923C2.54749 37.1599 2.54749 37.1599 2.41513 37.0606L2.28277 37.2923C2.15041 37.4247 2.15041 37.524 2.05115 37.6564C2.05115 37.7888 2.05115 37.7888 2.1835 37.8881C2.08424 37.8881 2.01806 37.8219 1.95188 37.7557C1.81952 37.6233 1.72025 37.6233 1.58789 37.524C1.72025 37.524 1.72025 37.6564 1.81952 37.524C1.91879 37.3916 2.05115 37.2923 2.05115 37.1599L2.58058 36.3985C2.71294 36.2661 2.71294 36.1668 2.81221 36.0344C2.81221 35.902 2.81221 35.902 2.67985 35.8027C2.81221 35.9351 2.91148 36.0344 3.04384 36.0344C3.17619 36.0344 3.27546 36.1337 3.27546 36.2661C3.50709 36.4978 3.8049 36.6303 3.50709 37.0275C3.50709 37.2592 3.1431 37.3916 2.87839 37.2592H2.77912V38.3184ZM17.5702 38.9804L17.2062 38.2191L17.0738 39.1128L17.5702 38.9804ZM10.9854 40.4699C10.9523 40.6023 11.0184 40.7347 11.1177 40.834C11.2501 40.9664 11.2501 40.9664 11.3493 40.9664C11.581 40.834 11.581 40.7347 11.581 40.4368C11.581 40.3044 11.4486 40.2051 11.3493 40.0727C11.2501 39.9403 11.1177 40.0727 10.9854 40.0727V40.4699ZM10.9854 39.9734C11.0515 39.9072 11.1508 39.8741 11.217 39.841C11.3493 39.7086 11.3493 39.6093 11.3493 39.3114C11.3493 39.1128 11.217 38.9804 11.0515 38.9473H10.853V39.0797L10.9854 39.9734ZM9.33087 40.7347C9.29778 40.8671 9.36396 40.9995 9.46323 41.0988C9.46323 41.2312 9.59559 41.2312 9.69486 41.0988C9.79413 40.9664 10.0588 40.9664 10.0588 40.5692C10.0588 40.3375 9.92648 40.3375 9.82722 40.2051H9.46323V40.7347H9.33087ZM9.19851 40.2051C9.43014 40.2051 9.43014 40.0727 9.5625 40.0727C9.5625 39.9403 9.69486 39.841 9.69486 39.7086C9.72795 39.5431 9.59559 39.3776 9.39705 39.3445H9.33087C9.26469 39.3445 9.19851 39.4107 9.19851 39.4438V40.2051ZM17.0408 39.3776C17.0408 39.51 16.9084 39.7417 17.0408 39.9072C17.1731 40.0396 17.1731 40.0396 17.2724 40.0396V40.172H16.776C16.9084 40.172 17.0077 40.0727 17.0077 39.9403C16.9746 39.7417 17.0408 39.51 17.14 39.3114L17.3717 37.9543H17.504L18.2651 39.4769C18.2651 39.6093 18.3974 39.7086 18.4967 39.841C18.596 39.9734 18.6291 39.9734 18.7283 39.9734V40.1058H18.3643C18.232 40.1058 18.1327 40.2382 18.0004 40.2382V40.0727C18.0004 40.0727 18.232 40.0727 18.1327 39.841C18.0334 39.6093 18.1327 39.7086 18.1327 39.6093L17.9011 39.2452L17.2724 39.3776H17.0408ZM16.015 38.0867L16.1473 38.7156C16.015 38.3515 15.7834 38.0867 15.5186 38.186C14.9892 38.186 14.9892 38.8149 14.9892 39.3114C14.9892 39.841 15.2208 40.3044 15.8826 40.2051C16.5444 40.1058 16.2466 39.841 16.2466 39.4438L16.379 40.2051L16.2466 40.0727C16.1142 40.2051 15.9488 40.3044 15.7172 40.3375C15.1877 40.4699 14.7245 40.1058 14.5921 39.4438C14.4598 38.7818 14.8238 38.186 15.3532 38.186C15.5517 38.1529 15.7834 38.2191 15.9819 38.3184V38.0867H16.015ZM14.0296 38.9804C14.0296 38.848 13.8972 38.7487 13.8972 38.6163C13.7649 38.6163 13.7649 38.4839 13.6656 38.4839H13.5333C13.6656 38.4839 13.7649 38.3515 13.8972 38.3515C14.0296 38.3515 14.1289 38.2191 14.2612 38.2191V38.0867C14.1289 38.0867 14.1289 38.2191 14.0296 38.2191C13.9965 38.3515 14.0627 38.4839 14.162 38.5832L14.2943 39.5762C14.2612 39.7086 14.3274 39.841 14.4267 39.9403C14.4267 40.0727 14.559 40.0727 14.6583 40.0727V40.2051H14.2943C14.162 40.2051 14.0627 40.3375 13.9303 40.3375V40.2382C14.0627 40.2382 14.162 40.2382 14.162 40.1058V39.7417L14.0296 38.9804ZM12.2428 39.3776V38.848C12.1104 38.7156 12.1104 38.7156 12.0111 38.848V38.7156C12.1435 38.7156 12.2759 38.6825 12.3751 38.5832H12.7391V38.7156C12.6067 38.7156 12.5075 38.7156 12.5075 38.848C12.5075 38.9804 12.6398 39.2121 12.6398 39.3776L12.7722 40.3706C12.7722 40.7347 12.9046 40.9002 13.3016 40.7347C13.434 40.7347 13.5663 40.7016 13.6656 40.6023C13.7649 40.503 13.798 40.3706 13.798 40.2382L13.9303 40.1058L14.0627 40.7347H13.9303C13.434 40.7347 13.0038 40.834 12.5737 40.9664C12.6398 40.9002 12.7391 40.8671 12.8053 40.834V40.3044L12.5737 39.4107L12.2428 39.3776ZM10.5883 39.6093C10.6214 39.4769 10.5552 39.3445 10.4559 39.2452C10.3236 39.1128 10.3236 39.1128 10.2243 39.1128C10.3566 39.1128 10.4559 38.9804 10.5883 38.9804H10.8199C11.0846 38.8811 11.4486 39.0135 11.5479 39.2783C11.5479 39.3114 11.581 39.3114 11.581 39.3445C11.581 39.6093 11.4486 39.8741 11.217 39.9734C11.3493 39.9734 11.4817 40.0065 11.581 40.1058C11.7133 40.2382 11.8126 40.3375 11.8126 40.4699C11.8126 40.6685 11.7133 40.834 11.581 40.9995C11.7133 41.1319 11.4486 41.2312 11.3493 41.2312C11.3493 41.3636 11.1177 41.3636 11.1177 41.3636C10.9523 41.3636 10.7868 41.3967 10.5883 41.496V41.3636C10.5883 41.3636 10.8199 41.3636 10.8199 41.2312V40.8671C10.853 40.834 10.5883 39.6093 10.5883 39.6093ZM8.96688 39.9734C8.96688 39.841 8.83453 39.6093 8.83453 39.4438C8.83453 39.3114 8.70217 39.3114 8.6029 39.4438V39.3114H9.36396C9.59559 39.3114 9.99266 39.3114 10.125 39.6755C10.2574 39.9072 10.125 40.2051 9.89339 40.2051C10.0258 40.2051 10.1581 40.2382 10.2574 40.3375C10.3897 40.4699 10.489 40.5692 10.489 40.7016C10.489 40.9333 10.489 41.0657 10.2574 41.2312C10.125 41.3305 9.92648 41.3636 9.72795 41.3636H9.36396C9.13233 41.3636 9.13233 41.496 8.83453 41.496V41.3967C8.96688 41.3967 9.06615 41.3967 9.06615 41.2643C9.06615 41.1319 8.93379 40.9002 8.93379 40.7347L8.96688 39.9734ZM26.0081 40.2713L25.8757 39.3776L25.5117 40.2713H26.0081ZM29.4494 39.9734V39.6093C29.3832 39.5431 29.2839 39.51 29.2178 39.4769V39.3445H29.9788V39.4769C29.8465 39.4769 29.8465 39.4769 29.7472 39.6093V40.1389L29.8795 41.0326V41.5622C29.8795 41.6946 30.0119 41.6946 30.1112 41.6946H29.3501C29.3501 41.6946 29.5817 41.6946 29.5817 41.5622V41.1981L29.4494 39.9734ZM27.4309 39.8741V39.3445C27.4309 39.2121 27.2986 39.2121 27.1993 39.2121V39.0797C27.3316 39.0797 27.4309 39.2121 27.5633 39.2121H28.0927V39.3445C28.0927 39.3445 27.8611 39.3445 27.8611 39.4769C27.8942 39.6424 27.828 39.8079 27.7287 40.0065L27.5964 40.9995C27.5964 41.3636 27.5964 41.5291 27.828 41.5291C28.0596 41.5291 28.0596 41.6615 28.192 41.5291C28.3243 41.3967 28.4236 41.2974 28.4236 41.165H28.556L28.4567 41.7939H28.3243C27.7949 41.6615 27.3316 41.6615 26.8022 41.5622C26.9346 41.5622 27.0338 41.5622 27.0338 41.4298C27.0007 41.2974 27.0669 41.165 27.1662 41.0657L27.4309 39.8741ZM25.247 40.3706C25.2139 40.5692 25.1146 40.7347 25.0154 40.9002C24.883 41.0326 25.1477 41.0326 25.247 41.1319H25.0154C24.9161 41.0657 24.7837 41.0326 24.6514 40.9995C24.7837 40.9995 24.883 40.9002 24.883 40.7678C24.883 40.6354 25.1146 40.4037 25.1146 40.1389L25.7433 38.8811H25.8757L26.1073 40.6354C26.1073 40.7678 26.1073 40.9995 26.2397 40.9995C26.372 40.9995 26.372 41.1319 26.4713 41.1319H26.1073C25.975 41.1319 25.8757 40.9995 25.7433 40.9995V40.8671H25.975V40.0727H25.2139L25.247 40.3706ZM25.1146 39.2121C25.1146 38.9804 25.1146 38.848 24.7506 38.6825C24.3867 38.5501 24.519 38.6825 24.519 38.6825L24.2874 40.2051C24.2874 40.4368 24.2874 40.4368 24.519 40.5692V40.7016C24.3536 40.7347 24.1881 40.6685 23.9896 40.5692H23.4602V40.4368C23.6918 40.4368 23.8241 40.4368 23.8241 40.2051L24.0558 38.6825C23.9896 38.6163 23.8903 38.5832 23.8241 38.5501C23.5925 38.5501 23.4602 38.5501 23.2947 38.9142H23.1623L23.2947 38.3846L25.0815 38.6163C25.1146 38.6825 25.1146 39.2121 25.1146 39.2121ZM22.4675 38.9804V38.6163C22.4675 38.4839 22.3351 38.4839 22.2358 38.4839V38.3515C22.3682 38.3515 22.4675 38.4839 22.5998 38.4839H23.1293C23.1293 38.4839 22.8976 38.4839 22.8976 38.6163C22.9307 38.7487 22.8645 38.8811 22.7653 38.9804L22.6329 39.8741C22.6329 40.0065 22.5006 40.1058 22.6329 40.2382C22.6329 40.3706 22.7653 40.3706 22.8645 40.3706V40.503C22.7322 40.503 22.6329 40.3706 22.5006 40.3706C22.3682 40.3706 22.2358 40.3375 22.1366 40.2382V40.1058C22.2689 40.1058 22.3682 40.1058 22.3682 39.9734C22.4675 39.8741 22.5006 39.7417 22.5006 39.6093C22.4675 39.6093 22.4675 38.9804 22.4675 38.9804ZM34.8761 37.3585L34.115 36.8289L34.3466 37.7226L34.8761 37.3585ZM31.3355 39.8741L30.7068 39.2452L30.8391 40.1389L31.3355 39.8741ZM34.479 37.9874C34.479 38.1198 34.6114 38.3515 34.6114 38.517C34.7437 38.6494 34.843 38.517 34.843 38.3846V38.6163C34.7106 38.7487 34.7106 38.7487 34.6114 38.7487C34.5121 38.7487 34.479 38.8811 34.3797 38.8811V38.7487C34.5121 38.6163 34.5121 38.6163 34.5121 38.517C34.3797 38.2853 34.3797 38.1529 34.2805 37.8881L33.9165 36.5309L35.4386 37.524C35.5048 37.5902 35.6041 37.6233 35.6702 37.6564C35.7364 37.7226 35.8357 37.7226 35.9019 37.6564V37.7888C35.7695 37.7888 35.6702 37.8881 35.6702 38.0205C35.5379 38.1529 35.4386 38.1529 35.4386 38.2522L35.3062 38.1198C35.3062 37.9874 35.4386 37.9874 35.4386 37.8881C35.4386 37.7888 35.3062 37.7557 35.207 37.7557L34.9754 37.524L34.3466 37.8881L34.479 37.9874ZM31.9311 38.3515C31.8649 38.2522 31.6995 38.2191 31.6002 38.3184C31.5671 38.3184 31.5671 38.3515 31.5671 38.3515V38.2191C31.6995 38.2191 31.6995 38.2191 31.7987 38.0867C31.9311 38.0867 31.9311 38.0867 32.0304 37.9543L34.0488 38.5832L33.4201 37.8219C33.2878 37.6895 33.1885 37.5902 33.1885 37.4578C33.1885 37.3254 32.9569 37.4578 32.8245 37.4578C32.8907 37.3916 32.99 37.3585 33.0562 37.3254C33.0562 37.193 33.0562 37.0937 33.1885 37.0937V37.2261C33.1885 37.3585 33.0562 37.3585 33.0562 37.4578C33.0562 37.5571 33.2878 37.8219 33.4201 37.9874L34.1812 39.1128V39.2452C34.0488 39.2452 33.9496 39.2452 33.9496 39.1128L31.9311 38.3515L32.5929 39.2121C32.7253 39.3445 32.8245 39.4438 32.8245 39.5762C32.9569 39.7086 33.0562 39.5762 33.1885 39.5762C33.1885 39.7086 33.0562 39.7086 32.9569 39.8079C32.8245 39.8079 32.8245 39.9403 32.7253 40.0396V39.9072C32.8245 39.8079 32.8576 39.6755 32.8576 39.5431C32.8576 39.4107 32.7253 39.3114 32.626 39.179L31.9311 38.3515ZM30.9384 40.3706C30.9053 40.5361 30.9715 40.7016 31.0708 40.9002C31.0708 41.0326 31.3024 40.9002 31.3024 40.9002C31.17 40.9002 31.17 41.0326 31.0708 41.0326C30.9715 41.0326 30.9384 41.165 30.8391 41.165C30.9715 41.0326 30.9715 41.0326 30.9715 40.8009C31.0046 40.6023 30.9715 40.3706 30.8391 40.172L30.6075 38.8149L31.8649 39.9403L32.0966 40.172H32.3282C32.1958 40.172 32.0966 40.3044 31.9642 40.4037C31.8318 40.4037 31.7326 40.5361 31.6002 40.6354V40.503C31.7326 40.503 31.8318 40.3706 31.7326 40.2713C31.7326 40.1389 31.6002 40.1389 31.5009 40.0396L31.2693 39.8079L30.6406 40.0396V40.172C30.6406 40.1389 30.9384 40.3706 30.9384 40.3706Z" fill="white"/>
<path d="M4.9311 25.8043C4.86492 25.4733 4.73256 25.1092 4.56711 24.8113V24.6789L5.69216 24.05C5.5598 23.4873 5.49362 22.9908 5.46053 22.395L4.20312 22.1302V20.1441L5.46053 19.9124C5.49362 19.3497 5.5598 18.8201 5.69216 18.2574L5.06346 17.8933H5.42744L5.95688 18.125V18.2905C5.82452 18.8863 5.72525 19.449 5.72525 20.0448V20.1772L4.46784 20.4089V21.9316L5.72525 22.1633V22.2957C5.72525 22.8915 5.82452 23.4542 5.95688 24.05V24.1824L4.79874 24.8113L5.03037 25.5726L4.9311 25.8043ZM7.21428 29.5778L7.57827 29.9419L8.70332 29.4123H8.83568C9.19966 29.8426 9.66292 30.2729 10.0931 30.6701L9.59674 31.961C9.92764 32.292 10.3247 32.59 10.7218 32.8548L11.7145 31.961H11.8468C12.3763 32.3251 12.9057 32.6231 13.5013 32.8548H13.6337L13.5013 34.2119C13.8653 34.3443 14.6264 34.576 14.858 34.7415L15.4867 33.6161H15.6191C16.2147 33.7485 16.7772 33.8478 17.4059 33.8809H17.5383L17.7699 35.1387H19.292L19.5236 33.8809H19.656C20.2516 33.8478 20.8472 33.7816 21.4428 33.6492L22.0715 34.7746L23.4282 34.245L23.2959 32.9872H23.4282C24.0238 32.7555 24.5533 32.4244 25.0827 32.0934L25.2151 31.961L26.2077 32.8548L27.4652 31.961L26.9357 30.7032H27.1343C27.6306 30.3722 28.0277 29.9088 28.3917 29.4454V29.313L29.6491 29.9419C29.98 29.5447 30.2778 29.1144 30.5425 28.6841L29.6491 27.6911V27.6249C29.8807 27.0953 30.2778 26.6318 30.5425 25.9698V25.8374L31.7999 25.9698C31.9323 25.6057 32.1639 24.8444 32.3293 24.6127L31.2043 23.9838V23.8514C31.3366 23.2556 31.4359 22.6929 31.4359 22.0971V21.9647L32.6933 21.733V20.2103L31.4359 19.9786V19.8462C31.4028 19.2504 31.3366 18.6877 31.2043 18.0919V17.9595L32.3293 17.3306C32.197 16.9665 31.9653 16.2052 31.7999 15.9735L30.5425 16.1059V15.9735C30.344 15.3776 30.0131 14.848 29.6491 14.3184V14.4508L30.5425 13.4578C30.3109 13.2261 29.9138 12.4648 29.6491 12.2331L28.3917 12.7627C28.0608 12.2662 27.5975 11.869 27.1343 11.538L27.0019 11.2732L27.5313 10.0484L26.2739 9.15473L25.2812 10.0484H25.1489C24.6194 9.81674 24.0238 9.51883 23.4944 9.28713H23.362L23.4944 8.06241C23.2628 7.93001 22.3693 7.6983 22.1377 7.5328L21.509 8.65822H21.3767C20.781 8.52582 20.2185 8.42651 19.5898 8.42651H19.4575L19.2589 7.13559H17.9022L17.6706 8.36031H17.5052C16.9096 8.39341 16.3139 8.45961 15.7183 8.59202H15.586L14.8911 7.4666C14.6595 7.599 13.766 7.8307 13.5344 7.99621L13.6668 9.22093H13.5344L12.0123 10.0153H11.8799L10.8872 9.12163C10.6556 9.25403 10.5232 9.48573 10.3578 9.65124V9.28713L10.8872 8.92302H10.9865L11.8799 9.81674L13.402 9.05543L13.1373 7.6321H13.2697C13.7991 7.4004 14.3286 7.26799 14.9242 7.10249H15.0565L15.6852 8.22791C16.2478 8.09551 16.7772 7.99621 17.3397 7.99621L17.5713 6.77148H19.4575L19.6891 7.99621C20.2516 8.02931 20.781 8.09551 21.3436 8.22791L21.9723 7.10249H22.1046C22.3363 7.23489 23.4613 7.4666 23.7591 7.6321H23.8915V8.88992L25.4467 9.65124L26.4394 8.79062H26.5717C26.9688 9.15473 27.399 9.48573 27.8291 9.78364L27.2997 11.0084L28.4248 12.1338L29.6822 11.6042V11.7366C29.8145 11.9683 30.5756 12.862 30.6748 13.0937V13.2261L29.7814 14.2191L30.5425 15.7417L31.7999 15.6093V15.7417C32.0315 16.2714 32.1639 16.801 32.3293 17.3968V17.2975L31.2043 17.9264C31.3366 18.4891 31.4359 18.9856 31.4359 19.5814L32.6933 19.8131V21.9978L31.5352 22.2295C31.5021 22.7922 31.4359 23.3218 31.3036 23.8845L32.4286 24.5134V24.6458C32.3293 25.2085 32.1639 25.7381 31.8992 26.3008V26.4994L30.5425 26.367L29.7814 27.8897L30.6748 28.8827V29.1144C30.5425 29.3461 29.7814 30.2398 29.6822 30.4715V30.6039L28.4578 30.1074L27.3328 31.2328L27.9615 32.4906H27.7961C27.5644 32.6231 26.671 33.3844 26.4394 33.4837L26.307 33.6161L25.2812 32.4906L23.7591 33.252L23.8915 34.6091H23.7591L22.1046 35.1387H21.9723L21.3436 34.0133C20.781 34.1457 20.2516 34.245 19.6891 34.245L19.4575 35.5028H17.4721L17.2404 34.245C16.711 34.1126 16.1154 34.1126 15.586 34.0133L14.9573 35.1387H14.8249C14.2955 34.907 13.766 34.7746 13.1704 34.6091H13.0381L13.1704 33.252L11.6483 32.4906L10.6556 33.3844H10.9203C10.6887 33.252 9.79528 32.4907 9.56365 32.3913H9.43129L9.92764 31.1666L8.7695 29.975L7.44591 30.4715V30.3391L7.21428 29.8095V29.5778Z" fill="white"/>
<path d="M18.5635 31.6996C17.0083 31.6665 15.5523 31.3355 14.1295 30.7066H13.8978L18.5635 24.9471L23.0968 30.7066L22.8651 30.839C21.5085 31.4348 20.0525 31.6996 18.5635 31.6996ZM14.4273 30.5742C17.0414 31.6996 20.0194 31.6996 22.6335 30.5742L18.5635 25.4436L14.4273 30.5742ZM26.2734 28.4557L22.1041 22.299L29.0198 19.7834V20.0151C29.3838 23.0272 28.358 26.1056 26.2403 28.2902C26.2403 28.3233 26.2734 28.4557 26.2734 28.4557ZM22.6004 22.4314L26.2734 27.9592C28.1264 25.8408 29.0529 23.0934 28.7882 20.313L22.6004 22.4314ZM10.8536 28.4557L10.7212 28.3233C8.70276 26.1056 7.71007 23.0603 8.07406 20.0482V19.8165L14.9898 22.4645C14.9898 22.4314 10.8536 28.4557 10.8536 28.4557ZM8.33878 20.1806C8.07406 22.961 9.00057 25.7415 10.8867 27.8268L14.6589 22.4314L8.33878 20.1806ZM20.7143 18.1945L20.4827 10.8131H20.7143C23.6924 11.442 26.2734 13.2957 27.7955 15.9768L27.9279 16.1092L20.7143 18.1945ZM20.8136 11.2765L21.0452 17.7973L27.4977 16.043C26.0087 13.6267 23.5931 11.9385 20.8136 11.2765ZM16.3134 18.1945L9.2322 16.0761L9.36456 15.9437C10.8867 13.2957 13.4346 11.4751 16.4457 10.9455H16.6774C16.6774 10.9124 16.3134 18.1945 16.3134 18.1945ZM9.69545 15.9106L16.0156 17.7973L16.2803 11.2765C13.5339 11.773 11.2507 13.5274 9.69545 15.9106Z" fill="white"/>
<path d="M18.5651 11.6708L16.315 18.0592V18.1916H16.1827L9.36619 18.2909L14.7929 22.3953L14.8922 22.5277V22.6602L13.0061 29.0486L18.5651 25.2751L18.6975 25.1427L18.8298 25.2751L24.3889 29.0486L22.5028 22.6933V22.3291L22.6351 22.1967L28.0618 18.0923L21.2454 17.8937H21.113V17.7613L18.5651 11.6708ZM16.0503 17.7944L18.4658 11.0418L18.5982 10.6777L18.7306 11.0418L21.1461 17.6951L28.2273 17.8275H28.7567L28.3927 18.0592L22.6021 22.296L24.6205 29.0486L24.7529 29.4127L24.3558 29.181L18.5651 25.1758L12.7744 29.2141L12.4104 29.4458L12.5428 28.9162L14.5613 22.1305L8.86985 18.1916L8.50586 17.9599H8.86985L16.0503 17.7944Z" fill="white"/>
</g>
<line x1="183.333" y1="2.66663" x2="183.333" y2="45.3333" stroke="white" stroke-width="1.33333"/>
<defs>
<clipPath id="clip0_3242_19519">
<rect width="172" height="42.6667" fill="white" transform="translate(0 2.66663)"/>
</clipPath>
</defs>
</svg>
